<?xml version="1.0" encoding="UTF-8" standalone="no"?>
<!DOCTYPE svg PUBLIC "-//W3C//DTD SVG 1.1//EN" "http://www.w3.org/Graphics/SVG/1.1/DTD/svg11.dtd">
<svg version="1.1" xmlns="http://www.w3.org/2000/svg" xmlns:xlink="http://www.w3.org/1999/xlink" preserveAspectRatio="xMidYMid meet" viewBox="947.3922764912354 1010.4693113289459 212.10507859691552 231.62314475579387" width="212.11" height="231.62"><defs><path d="M947.39 1137.33C947.39 1195.15 994.87 1242.09 1053.34 1242.09C1111.82 1242.09 1159.3 1195.15 1159.3 1137.33C1159.3 1079.51 1111.82 1032.57 1053.34 1032.57C994.87 1032.57 947.39 1079.51 947.39 1137.33Z" id="bbSGqVq6Y"></path><linearGradient id="gradientd456kkOCZ2" gradientUnits="userSpaceOnUse" x1="1053.34" y1="1032.57" x2="1053.34" y2="1242.09"><stop style="stop-color: #8040ff;stop-opacity: 0.23" offset="0%"></stop><stop style="stop-color: #41ffee;stop-opacity: 0.44" offset="100%"></stop></linearGradient><path d="M1058.88 1039.35C1012.9 1039.18 975.49 1077.78 975.33 1125.56C975.16 1173.34 1012.31 1212.22 1058.29 1212.39C1104.27 1212.56 1141.67 1173.96 1141.84 1126.18C1142 1078.39 1104.86 1039.52 1058.88 1039.35Z" id="cgpSLnX8e"></path><path d="M1058.94 1020.99C1003.21 1020.79 957.87 1067.57 957.67 1125.49C957.47 1183.41 1002.49 1230.53 1058.22 1230.74C1113.96 1230.95 1159.3 1184.16 1159.5 1126.24C1159.7 1068.32 1114.68 1021.2 1058.94 1020.99Z" id="bhxbwzzTQ"></path><path d="M1103.33 1135.78C1092.39 1135.74 1082.97 1143.79 1080.89 1154.95C1076.23 1154.8 1052.91 1154.06 1010.93 1152.72C1011.37 1160.22 1011.61 1164.38 1011.66 1165.21C1011.66 1165.21 1001.6 1189.1 1054.01 1195.67C1054.01 1197.28 1053.98 1205.34 1053.93 1219.85L1114.55 1220.07C1114.63 1195.95 1114.67 1182.55 1114.68 1179.87C1121.66 1175.66 1125.97 1167.92 1126.01 1159.53C1126.06 1146.46 1115.9 1135.83 1103.33 1135.78Z" id="a1zTHDgZGO"></path><linearGradient id="gradientc2kcBg6mgy" gradientUnits="userSpaceOnUse" x1="1068.26" y1="1219.91" x2="1068.55" y2="1135.65"><stop style="stop-color: #808080;stop-opacity: 0.25" offset="0%"></stop><stop style="stop-color: #808080;stop-opacity: 0.12" offset="54%"></stop><stop style="stop-color: #808080;stop-opacity: 0.1" offset="100%"></stop></linearGradient><path d="M1014.06 1165.75C1014.06 1165.75 1004.43 1188.62 1054.62 1194.92C1054.62 1196.46 1054.59 1204.18 1054.54 1218.08L1112.59 1218.3L1112.8 1156.95L1013.36 1153.78C1013.73 1160.16 1013.97 1164.15 1014.06 1165.75Z" id="d2QFCdlexc"></path><path d="M1043.4 1070.25C1040.23 1075.41 1033.65 1076.94 1028.67 1073.68C1025.56 1071.53 1000.69 1054.36 997.58 1052.22C992.62 1048.92 991.15 1042.08 994.29 1036.91C994.29 1036.91 994.29 1036.91 994.29 1036.91C997.45 1031.76 1004.03 1030.23 1009 1033.49C1012.11 1035.63 1036.99 1052.8 1040.1 1054.95C1045.06 1058.24 1046.54 1065.08 1043.4 1070.25C1043.4 1070.25 1043.4 1070.25 1043.4 1070.25Z" id="am8W5ajon"></path><linearGradient id="gradiental8PYJBII" gradientUnits="userSpaceOnUse" x1="1018.77" y1="1075.34" x2="1018.91" y2="1031.83"><stop style="stop-color: #808080;stop-opacity: 0.25" offset="0%"></stop><stop style="stop-color: #808080;stop-opacity: 0.12" offset="54%"></stop><stop style="stop-color: #808080;stop-opacity: 0.1" offset="100%"></stop></linearGradient><path d="M1041.68 1069.08C1038.73 1073.87 1032.62 1075.3 1027.99 1072.26C1025.1 1070.27 1001.97 1054.3 999.07 1052.3C994.46 1049.24 993.1 1042.88 996.01 1038.07C996.01 1038.07 996.01 1038.07 996.01 1038.07C998.96 1033.28 1005.08 1031.86 1009.7 1034.89C1012.6 1036.89 1035.72 1052.85 1038.61 1054.84C1043.23 1057.9 1044.6 1064.27 1041.68 1069.08C1041.68 1069.08 1041.68 1069.08 1041.68 1069.08Z" id="bcFjFrssV"></path><path d="M1101.85 1137.56C1089.81 1137.52 1080.01 1147.63 1079.97 1160.14C1079.93 1172.65 1089.65 1182.83 1101.69 1182.87C1113.73 1182.92 1123.53 1172.81 1123.57 1160.3C1123.61 1147.79 1113.89 1137.61 1101.85 1137.56Z" id="a5mMpEjsa"></path><path d="M1098.36 1010.78C1100.65 1010.79 1101.79 1011.98 1101.78 1014.36C1101.45 1111.8 1101.26 1165.93 1101.22 1176.76C1101.22 1179.13 1100.07 1180.32 1097.78 1180.31C1047.67 1180.13 1019.83 1180.02 1014.27 1180C1011.98 1179.99 1010.84 1178.8 1010.84 1176.42C1011.18 1078.98 1011.36 1024.85 1011.4 1014.03C1011.41 1011.65 1012.56 1010.46 1014.85 1010.47C1064.95 1010.66 1092.79 1010.76 1098.36 1010.78Z" id="aeKhyg26h"></path><linearGradient id="gradientck9YBwzjH" gradientUnits="userSpaceOnUse" x1="1056.02" y1="1180.15" x2="1056.6" y2="1010.62"><stop style="stop-color: #808080;stop-opacity: 0.25" offset="0%"></stop><stop style="stop-color: #808080;stop-opacity: 0.12" offset="54%"></stop><stop style="stop-color: #808080;stop-opacity: 0.1" offset="100%"></stop></linearGradient><path d="M1096.74 1013.07C1099.29 1013.07 1100.56 1014.4 1100.55 1017.05C1100.22 1111.26 1100.04 1163.59 1100.01 1174.06C1100 1176.71 1098.72 1178.03 1096.17 1178.02C1048 1177.84 1021.24 1177.74 1015.88 1177.72C1013.33 1177.71 1012.06 1176.38 1012.07 1173.73C1012.4 1079.53 1012.58 1027.19 1012.61 1016.73C1012.62 1014.08 1013.9 1012.76 1016.45 1012.77C1064.62 1012.95 1091.38 1013.05 1096.74 1013.07Z" id="b59PKVTALd"></path><path d="M1078.67 1017.14C1078.13 1020.75 1075.14 1023.41 1071.62 1023.41C1068.58 1023.4 1044.29 1023.31 1041.25 1023.3C1037.74 1023.27 1034.76 1020.59 1034.25 1016.97C1032.64 1016.96 1019.77 1016.92 1018.16 1016.91C1016.31 1016.9 1014.81 1018.45 1014.81 1020.37C1014.81 1020.37 1014.81 1020.37 1014.81 1020.37C1014.75 1035.34 1014.34 1155.13 1014.29 1170.1C1014.28 1172.02 1015.77 1173.58 1017.62 1173.59C1017.62 1173.59 1017.62 1173.59 1017.62 1173.59C1025.3 1173.62 1086.78 1173.84 1094.46 1173.87C1096.31 1173.88 1097.81 1172.33 1097.82 1170.42C1097.82 1170.42 1097.82 1170.42 1097.82 1170.42C1097.87 1155.44 1098.28 1035.65 1098.33 1020.68C1098.34 1018.76 1096.85 1017.2 1095.01 1017.2C1095.01 1017.2 1095.01 1017.2 1095 1017.2C1091.74 1017.18 1081.94 1017.15 1078.67 1017.14Z" id="d1wMCU8wu4"></path><path d="M1065.93 1019.06C1066.31 1019.06 1066.49 1019.26 1066.49 1019.64C1066.49 1019.71 1066.49 1019.75 1066.49 1019.75C1066.49 1020.14 1066.3 1020.33 1065.93 1020.33C1054.84 1020.29 1048.69 1020.27 1047.45 1020.26C1047.08 1020.26 1046.89 1020.07 1046.9 1019.68C1046.9 1019.62 1046.9 1019.58 1046.9 1019.57C1046.9 1019.18 1047.09 1018.99 1047.46 1018.99C1058.54 1019.03 1064.7 1019.06 1065.93 1019.06Z" id="ciaH9bo9i"></path><path d="M1070.66 1018.82C1070.25 1018.82 1069.92 1019.16 1069.92 1019.58C1069.92 1020.01 1070.25 1020.35 1070.65 1020.35C1071.06 1020.35 1071.39 1020.01 1071.39 1019.59C1071.39 1019.17 1071.06 1018.83 1070.66 1018.82Z" id="alK6StBhq"></path><path d="M1115.85 1164.27C1109.52 1165.77 1105.19 1161.46 1103.75 1154.88C1102.31 1149.27 1090.84 1104.35 1089.4 1098.73C1087.98 1092.13 1091.95 1085.57 1098.3 1084.05C1098.3 1084.05 1098.3 1084.05 1098.3 1084.05C1104.65 1082.57 1110.96 1086.7 1112.43 1093.29C1113.59 1099.05 1122.93 1145.12 1124.09 1150.88C1125.53 1157.46 1122.18 1162.77 1115.85 1164.27C1115.85 1164.27 1115.85 1164.27 1115.85 1164.27Z" id="a3cZbro9k"></path><linearGradient id="gradienta8OLg3yyt" gradientUnits="userSpaceOnUse" x1="1106.63" y1="1164.54" x2="1106.91" y2="1083.77"><stop style="stop-color: #808080;stop-opacity: 0.25" offset="0%"></stop><stop style="stop-color: #808080;stop-opacity: 0.12" offset="54%"></stop><stop style="stop-color: #808080;stop-opacity: 0.1" offset="100%"></stop></linearGradient><path d="M1098.92 1086.89C1105.37 1085.37 1109.32 1087.96 1110.79 1094.66C1118.69 1130.77 1123.07 1150.82 1123.95 1154.84C1125.42 1161.54 1122.93 1165.65 1116.48 1167.17C1116.48 1167.17 1116.48 1167.17 1116.48 1167.17C1110.03 1168.7 1106.07 1166.11 1104.6 1159.41C1096.71 1123.3 1092.32 1103.24 1091.44 1099.23C1089.98 1092.53 1092.47 1088.42 1098.92 1086.89C1098.92 1086.89 1098.92 1086.89 1098.92 1086.89Z" id="g1b7MlXaJ5"></path><path d="M1123.31 1210.76C1123.31 1210.76 1123.31 1210.76 1123.31 1210.76C1123.26 1222.82 1123.24 1229.52 1123.24 1230.86C1123.24 1230.86 1123.24 1230.86 1123.24 1230.86C1073.45 1230.67 1045.8 1230.57 1040.26 1230.55C1040.26 1230.55 1040.26 1230.55 1040.26 1230.55C1040.3 1218.49 1040.33 1211.79 1040.33 1210.45C1040.33 1210.45 1040.33 1210.45 1040.33 1210.45C1090.12 1210.63 1117.77 1210.74 1123.31 1210.76Z" id="a3o6v2Q7D"></path><linearGradient id="gradienti1lj2X34yl" gradientUnits="userSpaceOnUse" x1="1081.76" y1="1230.7" x2="1081.82" y2="1210.6"><stop style="stop-color: #808080;stop-opacity: 0.25" offset="0%"></stop><stop style="stop-color: #808080;stop-opacity: 0.12" offset="54%"></stop><stop style="stop-color: #808080;stop-opacity: 0.1" offset="100%"></stop></linearGradient><path d="M1121.06 1213.08C1121.06 1213.08 1121.06 1213.08 1121.06 1213.08C1121.02 1222.52 1121.01 1227.76 1121 1228.81C1121 1228.81 1121 1228.81 1121 1228.81C1073.91 1228.64 1047.75 1228.54 1042.51 1228.52C1042.51 1228.52 1042.51 1228.52 1042.51 1228.52C1042.55 1219.08 1042.56 1213.84 1042.57 1212.79C1042.57 1212.79 1042.57 1212.79 1042.57 1212.79C1089.66 1212.96 1115.82 1213.06 1121.06 1213.08Z" id="d3o14VjDoy"></path><path d="M1031.1 1130.39C1027.97 1135.48 1021.46 1136.99 1016.54 1133.77C1014.46 1132.36 997.77 1121.05 995.69 1119.64C990.79 1116.38 989.33 1109.63 992.44 1104.51C992.44 1104.51 992.44 1104.51 992.44 1104.51C995.57 1099.42 1002.07 1097.91 1006.99 1101.13C1009.07 1102.55 1025.76 1113.85 1027.84 1115.27C1032.74 1118.52 1034.2 1125.28 1031.1 1130.39C1031.1 1130.39 1031.1 1130.39 1031.1 1130.39Z" id="bCtHk4yfs"></path><linearGradient id="gradientd19zWgNTRQ" gradientUnits="userSpaceOnUse" x1="1011.7" y1="1135.43" x2="1011.82" y2="1099.48"><stop style="stop-color: #808080;stop-opacity: 0.25" offset="0%"></stop><stop style="stop-color: #808080;stop-opacity: 0.12" offset="54%"></stop><stop style="stop-color: #808080;stop-opacity: 0.1" offset="100%"></stop></linearGradient><path d="M1025.75 1160.12C1022.59 1165.26 1016.03 1166.79 1011.06 1163.53C1009.77 1162.55 999.44 1154.66 998.15 1153.67C993.2 1150.39 991.73 1143.57 994.87 1138.41C994.87 1138.41 994.87 1138.41 994.87 1138.41C998.02 1133.27 1004.58 1131.75 1009.55 1135C1010.84 1135.99 1021.17 1143.88 1022.46 1144.86C1027.41 1148.15 1028.88 1154.96 1025.75 1160.12C1025.75 1160.12 1025.75 1160.12 1025.75 1160.12Z" id="a2vimdP17B"></path><linearGradient id="gradientden7wokMr" gradientUnits="userSpaceOnUse" x1="1010.25" y1="1165.22" x2="1010.36" y2="1133.31"><stop style="stop-color: #808080;stop-opacity: 0.25" offset="0%"></stop><stop style="stop-color: #808080;stop-opacity: 0.12" offset="54%"></stop><stop style="stop-color: #808080;stop-opacity: 0.1" offset="100%"></stop></linearGradient><path d="M1056.4 1069.19C1042.48 1069.14 1031.15 1080.83 1031.1 1095.3C1031.05 1109.77 1042.3 1121.54 1056.22 1121.59C1070.14 1121.65 1081.47 1109.96 1081.52 1095.49C1081.57 1081.02 1070.32 1069.24 1056.4 1069.19Z" id="hvUQ0qIHO"></path><linearGradient id="gradientffkXg5Jge" gradientUnits="userSpaceOnUse" x1="1056.22" y1="1121.59" x2="1056.4" y2="1069.19"><stop style="stop-color: #808080;stop-opacity: 0.25" offset="0%"></stop><stop style="stop-color: #808080;stop-opacity: 0.12" offset="54%"></stop><stop style="stop-color: #808080;stop-opacity: 0.1" offset="100%"></stop></linearGradient><path d="M1056.39 1070.73C1043.29 1070.68 1032.63 1081.69 1032.58 1095.31C1032.53 1108.92 1043.12 1120 1056.23 1120.05C1069.33 1120.1 1079.99 1109.1 1080.04 1095.48C1080.09 1081.86 1069.5 1070.78 1056.39 1070.73Z" id="a1uxPvtGRy"></path><path d="M1054.89 1100.57L1067.56 1081.36L1072 1085.23L1054.86 1108.28L1042.31 1093.59L1046.02 1092.06L1046.02 1092.06L1054.89 1100.57Z" id="a1DnSnGJkt"></path><path d="M1024.7 1159.39C1021.76 1164.18 1015.64 1165.6 1011.01 1162.57C1009.81 1161.65 1000.17 1154.3 998.97 1153.39C994.36 1150.32 992.99 1143.97 995.91 1139.16C995.91 1139.16 995.91 1139.16 995.91 1139.16C998.85 1134.37 1004.97 1132.95 1009.6 1135.98C1010.8 1136.9 1020.44 1144.26 1021.64 1145.18C1026.24 1148.24 1027.61 1154.58 1024.7 1159.39C1024.7 1159.39 1024.7 1159.39 1024.7 1159.39Z" id="acnOXadIc"></path><path d="M1029.95 1129.61C1027 1134.4 1020.89 1135.83 1016.26 1132.79C1014.3 1131.46 998.6 1120.82 996.64 1119.49C992.03 1116.43 990.66 1110.08 993.58 1105.27C993.58 1105.27 993.58 1105.27 993.58 1105.27C996.52 1100.47 1002.64 1099.05 1007.27 1102.09C1009.23 1103.42 1024.93 1114.06 1026.89 1115.38C1031.5 1118.45 1032.87 1124.8 1029.95 1129.61C1029.95 1129.61 1029.95 1129.61 1029.95 1129.61Z" id="c1NZ5NKZMW"></path><path d="M1036.6 1100.8C1033.46 1105.91 1026.93 1107.43 1021.98 1104.19C1019.34 1102.39 998.2 1087.97 995.55 1086.17C990.63 1082.9 989.17 1076.11 992.29 1070.98C992.29 1070.98 992.29 1070.98 992.29 1070.98C995.43 1065.86 1001.96 1064.34 1006.91 1067.58C1009.55 1069.38 1030.69 1083.8 1033.34 1085.6C1038.26 1088.87 1039.72 1095.66 1036.6 1100.8C1036.6 1100.8 1036.6 1100.8 1036.6 1100.8Z" id="g87CbP2wt"></path><linearGradient id="gradientogALBXj7W" gradientUnits="userSpaceOnUse" x1="1014.37" y1="1105.86" x2="1014.51" y2="1065.94"><stop style="stop-color: #808080;stop-opacity: 0.25" offset="0%"></stop><stop style="stop-color: #808080;stop-opacity: 0.12" offset="54%"></stop><stop style="stop-color: #808080;stop-opacity: 0.1" offset="100%"></stop></linearGradient><path d="M1035.2 1099.86C1032.25 1104.65 1026.14 1106.07 1021.51 1103.04C1019.03 1101.35 999.23 1087.85 996.75 1086.16C992.14 1083.1 990.78 1076.74 993.69 1071.93C993.69 1071.93 993.69 1071.93 993.69 1071.93C996.64 1067.14 1002.76 1065.72 1007.38 1068.75C1009.86 1070.44 1029.66 1083.94 1032.14 1085.63C1036.75 1088.69 1038.12 1095.05 1035.2 1099.86C1035.2 1099.86 1035.2 1099.86 1035.2 1099.86Z" id="c17W6NSosk"></path></defs><g><g><g><use xlink:href="#bbSGqVq6Y" opacity="1" fill="url(#gradientd456kkOCZ2)"></use></g><g><use xlink:href="#cgpSLnX8e" opacity="1" fill="#000000" fill-opacity="0"></use><g><use xlink:href="#cgpSLnX8e" opacity="1" fill-opacity="0" stroke="#3ad29f" stroke-width="2" stroke-opacity="1"></use></g></g><g><use xlink:href="#bhxbwzzTQ" opacity="1" fill="#000000" fill-opacity="0"></use><g><use xlink:href="#bhxbwzzTQ" opacity="1" fill-opacity="0" stroke="#3ad29f" stroke-width="2" stroke-opacity="1"></use></g></g><g><use xlink:href="#a1zTHDgZGO" opacity="1" fill="url(#gradientc2kcBg6mgy)"></use><g><use xlink:href="#a1zTHDgZGO" opacity="1" fill-opacity="0" stroke="#000000" stroke-width="1" stroke-opacity="0"></use></g></g><g><use xlink:href="#d2QFCdlexc" opacity="1" fill="#be7c5e" fill-opacity="1"></use><g><use xlink:href="#d2QFCdlexc" opacity="1" fill-opacity="0" stroke="#000000" stroke-width="1" stroke-opacity="0"></use></g></g><g><use xlink:href="#am8W5ajon" opacity="1" fill="url(#gradiental8PYJBII)"></use><g><use xlink:href="#am8W5ajon" opacity="1" fill-opacity="0" stroke="#000000" stroke-width="1" stroke-opacity="0"></use></g></g><g><use xlink:href="#bcFjFrssV" opacity="1" fill="#be7c5e" fill-opacity="1"></use><g><use xlink:href="#bcFjFrssV" opacity="1" fill-opacity="0" stroke="#000000" stroke-width="1" stroke-opacity="0"></use></g></g><g><use xlink:href="#a5mMpEjsa" opacity="1" fill="#be7c5e" fill-opacity="1"></use><g><use xlink:href="#a5mMpEjsa" opacity="1" fill-opacity="0" stroke="#000000" stroke-width="1" stroke-opacity="0"></use></g></g><g><use xlink:href="#aeKhyg26h" opacity="1" fill="url(#gradientck9YBwzjH)"></use><g><use xlink:href="#aeKhyg26h" opacity="1" fill-opacity="0" stroke="#000000" stroke-width="1" stroke-opacity="0"></use></g></g><g><use xlink:href="#b59PKVTALd" opacity="1" fill="#ffffff" fill-opacity="1"></use><g><use xlink:href="#b59PKVTALd" opacity="1" fill-opacity="0" stroke="#000000" stroke-width="1" stroke-opacity="0"></use></g></g><g><use xlink:href="#d1wMCU8wu4" opacity="1" fill="#6c63ff" fill-opacity="1"></use><g><use xlink:href="#d1wMCU8wu4" opacity="1" fill-opacity="0" stroke="#000000" stroke-width="1" stroke-opacity="0"></use></g></g><g><use xlink:href="#ciaH9bo9i" opacity="1" fill="#dbdbdb" fill-opacity="1"></use><g><use xlink:href="#ciaH9bo9i" opacity="1" fill-opacity="0" stroke="#000000" stroke-width="1" stroke-opacity="0"></use></g></g><g><use xlink:href="#alK6StBhq" opacity="1" fill="#dbdbdb" fill-opacity="1"></use><g><use xlink:href="#alK6StBhq" opacity="1" fill-opacity="0" stroke="#000000" stroke-width="1" stroke-opacity="0"></use></g></g><g><use xlink:href="#a3cZbro9k" opacity="1" fill="url(#gradienta8OLg3yyt)"></use><g><use xlink:href="#a3cZbro9k" opacity="1" fill-opacity="0" stroke="#000000" stroke-width="1" stroke-opacity="0"></use></g></g><g><use xlink:href="#g1b7MlXaJ5" opacity="1" fill="#be7c5e" fill-opacity="1"></use><g><use xlink:href="#g1b7MlXaJ5" opacity="1" fill-opacity="0" stroke="#000000" stroke-width="1" stroke-opacity="0"></use></g></g><g><use xlink:href="#a3o6v2Q7D" opacity="1" fill="url(#gradienti1lj2X34yl)"></use><g><use xlink:href="#a3o6v2Q7D" opacity="1" fill-opacity="0" stroke="#000000" stroke-width="1" stroke-opacity="0"></use></g></g><g><use xlink:href="#d3o14VjDoy" opacity="1" fill="#4d8af0" fill-opacity="1"></use><g><use xlink:href="#d3o14VjDoy" opacity="1" fill-opacity="0" stroke="#000000" stroke-width="1" stroke-opacity="0"></use></g></g><g><use xlink:href="#bCtHk4yfs" opacity="1" fill="url(#gradientd19zWgNTRQ)"></use><g><use xlink:href="#bCtHk4yfs" opacity="1" fill-opacity="0" stroke="#000000" stroke-width="1" stroke-opacity="0"></use></g></g><g><use xlink:href="#a2vimdP17B" opacity="1" fill="url(#gradientden7wokMr)"></use><g><use xlink:href="#a2vimdP17B" opacity="1" fill-opacity="0" stroke="#000000" stroke-width="1" stroke-opacity="0"></use></g></g><g><use xlink:href="#hvUQ0qIHO" opacity="1" fill="url(#gradientffkXg5Jge)"></use><g><use xlink:href="#hvUQ0qIHO" opacity="1" fill-opacity="0" stroke="#000000" stroke-width="1" stroke-opacity="0"></use></g></g><g><use xlink:href="#a1uxPvtGRy" opacity="1" fill="#69f0ae" fill-opacity="1"></use><g><use xlink:href="#a1uxPvtGRy" opacity="1" fill-opacity="0" stroke="#000000" stroke-width="1" stroke-opacity="0"></use></g></g><g><use xlink:href="#a1DnSnGJkt" opacity="1" fill="#ffffff" fill-opacity="1"></use><g><use xlink:href="#a1DnSnGJkt" opacity="1" fill-opacity="0" stroke="#000000" stroke-width="1" stroke-opacity="0"></use></g></g><g><use xlink:href="#acnOXadIc" opacity="1" fill="#be7c5e" fill-opacity="1"></use><g><use xlink:href="#acnOXadIc" opacity="1" fill-opacity="0" stroke="#000000" stroke-width="1" stroke-opacity="0"></use></g></g><g><use xlink:href="#c1NZ5NKZMW" opacity="1" fill="#be7c5e" fill-opacity="1"></use><g><use xlink:href="#c1NZ5NKZMW" opacity="1" fill-opacity="0" stroke="#000000" stroke-width="1" stroke-opacity="0"></use></g></g><g><use xlink:href="#g87CbP2wt" opacity="1" fill="url(#gradientogALBXj7W)"></use><g><use xlink:href="#g87CbP2wt" opacity="1" fill-opacity="0" stroke="#000000" stroke-width="1" stroke-opacity="0"></use></g></g><g><use xlink:href="#c17W6NSosk" opacity="1" fill="#be7c5e" fill-opacity="1"></use><g><use xlink:href="#c17W6NSosk" opacity="1" fill-opacity="0" stroke="#000000" stroke-width="1" stroke-opacity="0"></use></g></g></g></g></svg>