<?xml version="1.0" encoding="UTF-8" standalone="no"?>
<!DOCTYPE svg PUBLIC "-//W3C//DTD SVG 1.1//EN" "http://www.w3.org/Graphics/SVG/1.1/DTD/svg11.dtd">
<svg version="1.1" xmlns="http://www.w3.org/2000/svg" xmlns:xlink="http://www.w3.org/1999/xlink" preserveAspectRatio="xMidYMid meet" viewBox="37.29437229429266 837.2218762136287 298.66895556563725 241.9700301810259" width="298.67" height="241.97"><defs><path d="M230.21 1000.01C230.21 1043.71 191 1079.19 142.71 1079.19C94.42 1079.19 55.22 1043.71 55.22 1000.01C55.22 956.31 94.42 920.83 142.71 920.83C191 920.83 230.21 956.31 230.21 1000.01Z" id="f3n4uLd7Wt"></path><linearGradient id="gradienta1F5ca1OjD" gradientUnits="userSpaceOnUse" x1="121.75" y1="846.63" x2="142.71" y2="1079.19"><stop style="stop-color: #41ffee;stop-opacity: 0.44" offset="0%"></stop><stop style="stop-color: #8040ff;stop-opacity: 0.23" offset="100%"></stop></linearGradient><path d="M152.49 878.12L152.77 878.14L153.06 878.16L153.34 878.2L153.62 878.24L153.91 878.29L154.19 878.35L154.47 878.41L154.75 878.49L155.03 878.57L155.3 878.66L155.58 878.76L155.85 878.87L156.12 878.98L156.52 879.17L156.91 879.37L157.28 879.59L157.64 879.81L157.99 880.06L158.33 880.31L158.66 880.58L158.98 880.86L159.28 881.15L159.57 881.46L159.85 881.77L160.12 882.09L160.37 882.43L160.61 882.77L160.84 883.12L161.05 883.48L161.25 883.85L161.44 884.23L161.61 884.61L161.77 885L161.92 885.39L162.05 885.79L162.16 886.2L162.26 886.61L162.35 887.02L162.42 887.44L162.47 887.86L162.51 888.29L162.53 888.72L162.54 889.14L162.53 889.57L162.51 890.01L162.47 890.44L162.41 890.87L162.34 891.3L162.24 891.73L162.14 892.16L162.01 892.59L161.87 893.01L161.7 893.43L161.83 893.44L161.96 893.46L162.08 893.48L162.21 893.5L162.33 893.52L162.45 893.55L162.57 893.58L162.7 893.62L162.82 893.65L162.93 893.69L163.05 893.73L163.17 893.78L163.29 893.83L163.4 893.88L163.51 893.93L163.62 893.98L163.74 894.04L163.85 894.1L163.95 894.17L164.06 894.23L164.16 894.3L164.27 894.37L164.37 894.45L164.47 894.52L164.57 894.6L164.67 894.68L164.76 894.77L164.86 894.85L164.95 894.94L165.04 895.03L165.12 895.12L165.21 895.22L165.29 895.32L165.38 895.41L165.46 895.52L165.53 895.62L165.61 895.73L165.68 895.83L165.75 895.94L165.82 896.05L165.94 896.25L166.04 896.46L166.14 896.66L166.23 896.87L166.31 897.08L166.38 897.29L166.44 897.5L166.5 897.72L166.54 897.93L166.58 898.15L166.61 898.37L166.63 898.59L166.65 898.8L166.65 899.02L166.65 899.24L166.64 899.46L166.62 899.67L166.59 899.89L166.56 900.1L166.51 900.31L166.46 900.53L166.41 900.73L166.34 900.94L166.27 901.14L166.19 901.34L166.1 901.54L166.01 901.73L165.9 901.93L165.8 902.11L165.68 902.29L165.55 902.47L165.42 902.65L165.29 902.82L165.14 902.98L164.99 903.14L164.83 903.29L164.66 903.44L164.49 903.58L164.31 903.71L164.13 903.84L164.25 903.92L164.37 904L164.49 904.08L164.61 904.16L164.73 904.24L164.85 904.32L164.97 904.41L165.09 904.49L165.21 904.58L165.33 904.66L165.44 904.75L165.56 904.83L165.68 904.92L165.79 905.01L165.91 905.1L166.02 905.19L166.14 905.27L166.25 905.36L166.37 905.46L166.48 905.55L166.59 905.64L166.71 905.73L166.82 905.82L166.93 905.92L167.04 906.01L167.15 906.11L167.26 906.2L167.37 906.3L167.48 906.4L167.59 906.49L167.7 906.59L167.81 906.69L167.91 906.79L168.02 906.89L168.13 906.99L168.23 907.09L168.34 907.19L168.44 907.3L168.55 907.4L168.65 907.5L169.45 908.34L170.22 909.2L170.94 910.09L171.63 911L172.27 911.93L172.87 912.88L173.44 913.85L173.96 914.84L174.45 915.85L174.89 916.87L175.3 917.91L175.66 918.96L175.99 920.02L176.28 921.09L176.52 922.17L176.73 923.25L176.89 924.35L177.02 925.45L177.1 926.55L177.14 927.65L177.15 928.76L177.11 929.86L177.04 930.96L176.92 932.06L176.76 933.16L176.57 934.25L176.33 935.33L176.05 936.41L175.73 937.47L175.37 938.53L174.97 939.57L174.53 940.6L174.05 941.61L173.53 942.61L172.97 943.59L172.37 944.55L171.73 945.5L171.04 946.42L170.32 947.32L169.55 948.19L169.35 948.49L169.14 948.78L168.93 949.07L168.72 949.35L168.5 949.63L168.28 949.91L168.05 950.19L167.82 950.46L167.59 950.73L167.35 950.99L167.12 951.25L166.87 951.51L166.63 951.76L166.38 952.01L166.12 952.25L165.87 952.49L165.61 952.73L165.35 952.97L165.08 953.2L164.81 953.42L164.54 953.64L164.27 953.86L163.99 954.08L163.71 954.29L163.43 954.49L163.14 954.69L162.85 954.89L162.56 955.08L162.27 955.27L161.97 955.46L161.67 955.64L161.37 955.81L161.07 955.98L160.76 956.15L160.45 956.31L160.14 956.47L159.83 956.62L159.51 956.77L159.19 956.92L158.87 957.06L158.89 957.12L158.91 957.18L158.93 957.24L158.95 957.3L158.97 957.36L158.98 957.42L159 957.48L159.02 957.54L159.03 957.6L159.05 957.66L159.07 957.73L159.08 957.79L159.1 957.85L159.11 957.91L159.13 957.97L159.14 958.03L159.15 958.09L159.17 958.16L159.18 958.22L159.19 958.28L159.2 958.34L159.21 958.41L159.23 958.47L159.24 958.53L159.25 958.59L159.26 958.66L159.27 958.72L159.27 958.78L159.28 958.84L159.29 958.91L159.3 958.97L159.31 959.03L159.31 959.1L159.32 959.16L159.33 959.22L159.33 959.28L159.34 959.35L159.34 959.41L159.35 959.47L159.35 959.54L158.8 959.76L158.8 964L159.56 964.13L160.32 964.29L161.1 964.46L161.88 964.64L162.67 964.85L163.46 965.07L164.26 965.31L165.06 965.56L165.85 965.84L166.65 966.12L167.45 966.43L168.24 966.74L169.03 967.08L169.81 967.43L170.59 967.79L171.35 968.17L172.11 968.56L172.86 968.97L173.59 969.39L174.31 969.82L175.02 970.27L175.71 970.73L176.39 971.2L177.04 971.69L177.68 972.18L178.29 972.69L178.89 973.22L179.46 973.75L180.01 974.3L180.53 974.85L181.02 975.42L181.48 976L181.92 976.59L182.32 977.19L182.7 977.8L183.04 978.42L183.34 979.05L183.61 979.69L183.84 980.34L184.03 980.99L184.19 981.6L184.35 982.21L184.51 982.82L184.67 983.44L184.83 984.06L184.99 984.68L185.15 985.3L185.31 985.92L185.47 986.54L185.63 987.16L185.78 987.78L185.94 988.4L186.1 989.02L186.25 989.63L186.4 990.25L186.55 990.86L186.7 991.47L186.85 992.07L186.99 992.67L187.13 993.27L187.27 993.86L187.41 994.45L187.55 995.03L187.68 995.61L187.81 996.17L187.94 996.74L188.07 997.29L188.19 997.84L188.31 998.38L188.42 998.91L188.53 999.43L188.64 999.95L188.75 1000.45L188.85 1000.94L188.94 1001.43L189.04 1001.9L189.12 1002.36L189.21 1002.81L189.29 1003.25L189.36 1003.67L188.67 1004.13L187.94 1004.58L187.18 1005.02L186.38 1005.45L185.56 1005.87L184.7 1006.29L183.82 1006.69L182.91 1007.08L181.98 1007.45L181.02 1007.82L180.05 1008.18L179.05 1008.53L178.04 1008.87L177.01 1009.19L175.97 1009.51L174.91 1009.81L173.84 1010.1L172.76 1010.38L171.68 1010.65L170.58 1010.91L169.49 1011.16L168.39 1011.39L167.28 1011.62L166.18 1011.83L165.08 1012.03L163.98 1012.21L162.89 1012.39L161.8 1012.55L160.73 1012.7L159.66 1012.84L158.6 1012.96L157.56 1013.07L156.53 1013.17L155.51 1013.26L154.52 1013.33L153.54 1013.39L152.59 1013.44L151.66 1013.47L150.75 1013.49L149.87 1013.5L148.94 1013.49L147.99 1013.47L147.01 1013.43L146.01 1013.38L144.99 1013.31L143.95 1013.23L142.9 1013.14L141.82 1013.03L140.74 1012.9L139.64 1012.77L138.53 1012.62L137.41 1012.45L136.28 1012.27L135.15 1012.08L134.01 1011.87L132.87 1011.65L131.73 1011.42L130.59 1011.17L129.46 1010.91L128.32 1010.64L127.19 1010.36L126.07 1010.06L124.96 1009.75L123.86 1009.43L122.77 1009.09L121.69 1008.75L120.63 1008.39L119.59 1008.02L118.56 1007.64L117.56 1007.24L116.57 1006.83L115.61 1006.42L114.68 1005.99L113.77 1005.55L112.89 1005.09L112.04 1004.63L111.22 1004.16L110.43 1003.67L109.68 1003.18L108.97 1002.67L109.05 1002.28L109.14 1001.88L109.23 1001.47L109.33 1001.05L109.42 1000.61L109.53 1000.16L109.63 999.7L109.74 999.23L109.85 998.75L109.97 998.26L110.08 997.76L110.2 997.26L110.33 996.74L110.45 996.21L110.58 995.68L110.71 995.14L110.85 994.6L110.98 994.04L111.12 993.49L111.26 992.92L111.4 992.35L111.54 991.78L111.68 991.2L111.83 990.62L111.98 990.03L112.12 989.44L112.27 988.85L112.42 988.25L112.57 987.66L112.73 987.06L112.88 986.46L113.03 985.86L113.18 985.26L113.34 984.66L113.49 984.06L113.65 983.46L113.8 982.86L113.95 982.26L114.11 981.67L114.26 981.08L114.45 980.4L114.69 979.74L114.96 979.08L115.28 978.44L115.62 977.81L116.01 977.18L116.42 976.57L116.87 975.97L117.35 975.38L117.86 974.8L118.39 974.23L118.95 973.67L119.54 973.13L120.15 972.59L120.79 972.07L121.44 971.57L122.12 971.07L122.81 970.59L123.53 970.13L124.25 969.67L125 969.23L125.75 968.81L126.52 968.4L127.3 968L128.09 967.62L128.88 967.26L129.68 966.91L130.49 966.58L131.3 966.26L132.12 965.96L132.93 965.67L133.75 965.41L134.56 965.16L135.37 964.92L136.18 964.71L136.98 964.51L137.78 964.33L138.57 964.17L139.35 964.03L140.11 963.9L140.11 956.84L139.82 956.71L139.53 956.57L139.24 956.43L138.95 956.28L138.66 956.13L138.38 955.97L138.1 955.81L137.82 955.65L137.54 955.48L137.26 955.31L136.99 955.14L136.72 954.96L136.45 954.78L136.19 954.6L135.92 954.41L135.66 954.22L135.4 954.02L135.15 953.82L134.89 953.62L134.64 953.42L134.39 953.21L134.15 952.99L133.9 952.78L133.66 952.56L133.43 952.34L133.19 952.11L132.96 951.88L132.73 951.65L132.5 951.41L132.28 951.17L132.06 950.93L131.84 950.69L131.62 950.44L131.41 950.19L131.2 949.93L131 949.68L130.8 949.42L130.6 949.15L130.4 948.89L130.21 948.62L130.06 948.47L129.92 948.31L129.78 948.16L129.64 948L129.5 947.84L129.36 947.68L129.22 947.52L129.09 947.36L128.95 947.2L128.82 947.04L128.68 946.88L128.55 946.71L128.42 946.55L128.29 946.38L128.17 946.21L128.04 946.04L127.91 945.87L127.79 945.7L127.67 945.53L127.55 945.36L127.43 945.19L127.31 945.01L127.19 944.84L127.07 944.66L126.96 944.48L126.84 944.31L126.73 944.13L126.62 943.95L126.51 943.77L126.4 943.58L126.29 943.4L126.18 943.22L126.08 943.03L125.97 942.85L125.87 942.66L125.77 942.48L125.67 942.29L125.57 942.1L125.47 941.91L125.38 941.72L124.87 940.66L124.41 939.59L123.99 938.51L123.62 937.41L123.3 936.32L123.01 935.21L122.78 934.1L122.58 932.99L122.43 931.87L122.32 930.75L122.25 929.64L122.22 928.52L122.24 927.41L122.29 926.3L122.39 925.19L122.52 924.09L122.7 923L122.92 921.92L123.17 920.85L123.47 919.79L123.8 918.74L124.17 917.7L124.58 916.68L125.02 915.68L125.51 914.69L126.03 913.73L126.58 912.78L127.17 911.86L127.8 910.95L128.46 910.07L129.16 909.22L129.89 908.39L130.65 907.59L131.45 906.82L132.28 906.08L133.14 905.36L134.04 904.69L134.97 904.04L135.93 903.43L136.92 902.86L136.9 902.82L136.88 902.79L136.86 902.75L136.84 902.71L136.83 902.68L136.81 902.64L136.79 902.6L136.77 902.57L136.76 902.53L136.74 902.49L136.72 902.45L136.71 902.41L136.69 902.38L136.67 902.34L136.66 902.3L136.64 902.26L136.63 902.22L136.61 902.18L136.6 902.15L136.58 902.11L136.57 902.07L136.56 902.03L136.54 901.99L136.53 901.95L136.52 901.91L136.5 901.87L136.49 901.83L136.48 901.79L136.47 901.75L136.46 901.71L136.45 901.67L136.43 901.63L136.42 901.59L136.41 901.55L136.4 901.51L136.39 901.47L136.39 901.43L136.38 901.39L136.37 901.35L136.36 901.31L136.32 901.09L136.29 900.86L136.26 900.64L136.25 900.42L136.24 900.2L136.24 899.98L136.25 899.76L136.27 899.55L136.3 899.33L136.33 899.12L136.38 898.91L136.43 898.7L136.48 898.5L136.55 898.3L136.62 898.1L136.7 897.9L136.79 897.71L136.88 897.52L136.98 897.34L137.08 897.16L137.2 896.99L137.32 896.81L137.44 896.65L137.57 896.49L137.71 896.33L137.85 896.18L138 896.04L138.16 895.9L138.32 895.77L138.48 895.64L138.65 895.52L138.83 895.41L139.01 895.3L139.19 895.2L139.38 895.11L139.58 895.02L139.78 894.95L139.98 894.88L140.19 894.82L140.4 894.77L140.37 894.68L140.34 894.6L140.31 894.51L140.28 894.43L140.26 894.34L140.23 894.26L140.21 894.17L140.18 894.09L140.16 894L140.14 893.92L140.11 893.83L140.09 893.75L140.07 893.66L140.05 893.57L140.03 893.49L140.01 893.4L139.99 893.31L139.97 893.23L139.96 893.14L139.94 893.05L139.92 892.96L139.91 892.88L139.9 892.79L139.88 892.7L139.87 892.61L139.86 892.53L139.84 892.44L139.83 892.35L139.82 892.26L139.81 892.17L139.8 892.08L139.8 891.99L139.79 891.91L139.78 891.82L139.78 891.73L139.77 891.64L139.76 891.55L139.76 891.46L139.76 891.37L139.75 891.28L139.75 890.83L139.76 890.38L139.8 889.93L139.84 889.49L139.91 889.06L139.99 888.63L140.08 888.2L140.19 887.78L140.32 887.37L140.46 886.97L140.62 886.57L140.79 886.18L140.97 885.8L141.17 885.43L141.38 885.07L141.6 884.71L141.84 884.37L142.09 884.04L142.35 883.71L142.62 883.4L142.9 883.1L143.19 882.81L143.5 882.53L143.81 882.26L144.14 882.01L144.47 881.77L144.81 881.54L145.17 881.32L145.53 881.12L145.9 880.94L146.27 880.77L146.66 880.61L147.05 880.47L147.45 880.34L147.85 880.23L148.26 880.14L148.68 880.07L149.1 880.01L149.53 879.97L149.96 879.95L150.4 879.94L150.83 879.96L151.25 879.99L151.67 880.04L152.09 880.11L152.5 880.19L152.9 880.29L153.3 880.41L153.7 880.54L154.08 880.69L154.46 880.85L154.83 881.03L155.19 881.22L155.55 881.43L155.9 881.65L156.23 881.88L156.56 882.13L156.88 882.39L157.19 882.66L157.49 882.95L157.78 883.24L158.05 883.55L158.32 883.87L158.58 884.2L158.82 884.54L159.05 884.89L159.27 885.25L159.47 885.62L159.66 885.99L159.84 886.38L160 886.77L160.15 887.18L160.29 887.59L160.41 888L160.51 888.43L160.6 888.86L160.67 889.3L160.72 889.74L160.76 890.19L160.78 890.64L160.78 890.36L160.78 890.22L160.78 890.09L160.78 889.95L160.77 889.82L160.76 889.68L160.76 889.55L160.75 889.41L160.73 889.28L160.72 889.14L160.71 889.01L160.69 888.88L160.67 888.74L160.65 888.61L160.63 888.48L160.61 888.34L160.58 888.21L160.56 888.08L160.53 887.95L160.5 887.82L160.47 887.69L160.44 887.56L160.41 887.43L160.37 887.3L160.34 887.17L160.3 887.04L160.26 886.91L160.22 886.79L160.18 886.66L160.13 886.53L160.09 886.41L160.04 886.28L159.99 886.16L159.94 886.03L159.89 885.91L159.84 885.78L159.78 885.66L159.73 885.54L159.67 885.42L159.61 885.3L159.55 885.18L159.34 884.78L159.12 884.4L158.88 884.03L158.63 883.67L158.37 883.32L158.1 882.99L157.81 882.67L157.52 882.37L157.21 882.08L156.9 881.8L156.58 881.54L156.25 881.29L155.91 881.05L155.56 880.83L155.2 880.62L154.84 880.43L154.48 880.26L154.1 880.09L153.72 879.95L153.34 879.82L152.95 879.7L152.56 879.6L152.16 879.52L151.76 879.45L151.36 879.39L150.96 879.36L150.55 879.34L150.15 879.33L149.74 879.35L149.33 879.38L148.92 879.42L148.52 879.49L148.11 879.57L147.7 879.67L147.3 879.78L146.9 879.91L146.5 880.07L146.11 880.23L145.72 880.42L145.33 880.63L145.56 880.43L145.79 880.25L146.03 880.07L146.27 879.9L146.51 879.74L146.76 879.59L147.01 879.44L147.27 879.3L147.52 879.17L147.78 879.04L148.05 878.93L148.31 878.82L148.58 878.72L148.85 878.62L149.12 878.54L149.4 878.46L149.67 878.39L149.95 878.33L150.23 878.27L150.51 878.22L150.79 878.19L151.07 878.16L151.35 878.13L151.64 878.12L151.92 878.11L152.2 878.11L152.49 878.12ZM161.3 894.37L161.21 894.54L161.11 894.73L162.79 895.35L164.14 896.49L165.07 898.03L165.47 899.85L165.47 899.55L165.17 897.71L164.33 896.12L163.04 894.9L161.4 894.18L161.36 894.25L161.3 894.37Z" id="g7IW0HwS9V"></path><linearGradient id="gradienta1tpFlJFPn" gradientUnits="userSpaceOnUse" x1="149.18" y1="1013.5" x2="149.18" y2="878.12"><stop style="stop-color: #808080;stop-opacity: 0.25" offset="0%"></stop><stop style="stop-color: #808080;stop-opacity: 0.12" offset="54%"></stop><stop style="stop-color: #808080;stop-opacity: 0.1" offset="100%"></stop></linearGradient><path d="M188.23 1002.02C187.28 996.6 185.11 987.84 183.04 979.99C180.41 969.99 163.82 963.07 153.93 963.07C152.97 963.07 145.35 963.07 144.4 963.07C134.47 963.07 117.86 970.04 115.27 980.07C113.29 987.72 111.17 996.12 110.13 1001.05C119.13 1007.66 138.02 1011.57 149.86 1011.57C161.11 1011.57 179.49 1008.06 188.23 1002.02Z" id="b1kOZmd1FU"></path><path d="M149.68 900.87C134.94 900.87 123 913.38 123 928.82C123 944.26 134.94 956.78 149.68 956.78C164.42 956.78 176.36 944.26 176.36 928.82C176.36 913.38 164.42 900.87 149.68 900.87Z" id="a3gSODXnC"></path><path d="M156.44 948.26C157.58 948.26 158.51 949.23 158.51 950.43C158.51 951.93 158.51 963.89 158.51 965.39C158.51 970.35 154.67 974.37 149.94 974.37C149.94 974.37 149.94 974.37 149.94 974.37C149.84 974.37 149.05 974.37 148.95 974.37C144.21 974.37 140.37 970.35 140.37 965.39C140.37 963.89 140.37 951.94 140.37 950.45C140.37 949.24 141.3 948.27 142.45 948.27C142.45 948.27 155.04 948.26 156.44 948.26Z" id="bw1spBhgu"></path><path d="M159.05 959.15C158.76 954.37 154.97 950.65 150.4 950.64C150.33 950.64 149.73 950.64 149.66 950.64C145.16 950.64 141.41 954.23 141 958.93C143.93 960.24 147.09 960.92 150.28 960.92C153.29 960.92 156.26 960.32 159.05 959.15Z" id="cpuAjd9s2"></path><path d="M149.73 909.08C136.69 909.08 126.12 920.15 126.12 933.81C126.12 947.47 136.69 958.54 149.73 958.54C162.77 958.54 173.34 947.47 173.34 933.81C173.34 920.15 162.77 909.08 149.73 909.08Z" id="acWW5KozL"></path><path d="M141.73 896.11C138.91 896.11 136.62 898.5 136.62 901.46C136.62 904.42 138.91 906.81 141.73 906.81C144.55 906.81 146.84 904.42 146.84 901.46C146.84 898.5 144.55 896.11 141.73 896.11Z" id="i30sxwYM2t"></path><path d="M159.9 896.11C157.08 896.11 154.79 898.5 154.79 901.46C154.79 904.42 157.08 906.81 159.9 906.81C162.72 906.81 165.01 904.42 165.01 901.46C165.01 898.5 162.72 896.11 159.9 896.11Z" id="e2RvzRlsIK"></path><path d="M150.25 881.83C144.6 881.83 140.03 886.63 140.03 892.54C140.03 898.45 144.6 903.24 150.25 903.24C155.89 903.24 160.47 898.45 160.47 892.54C160.47 886.63 155.89 881.83 150.25 881.83Z" id="bac5FN53k"></path><path d="M158.18 895.83C160.84 894.85 163.76 896.31 164.7 899.1C165.46 901.4 164.66 903.94 162.74 905.31C165.4 904.32 166.79 901.26 165.85 898.48C165.12 896.34 163.18 894.91 161.01 894.92C160.02 894.92 159.02 895.23 158.18 895.83Z" id="aytE1rzKs"></path><path d="M145.44 882.49C150.42 879.71 156.61 881.69 159.26 886.91C161.54 891.41 160.48 896.97 156.73 900.21C161.71 897.43 163.61 890.95 160.96 885.73C159.19 882.23 155.71 880.04 151.93 880.05C149.57 880.04 147.27 880.9 145.44 882.49Z" id="c3r1dcbs1"></path><path d="M132.65 911.56C132.65 911.56 135.48 931.19 171.25 920.48C170.08 919.41 164.21 914.06 153.65 904.42C142.45 908.23 135.45 910.61 132.65 911.56Z" id="b5fknjxd"></path><path d="M77.64 996.72C77.14 996.42 76.66 996.1 76.2 995.74C75.51 995.05 75.01 994.17 74.76 993.21C74.03 990.94 73.81 988.39 72.54 986.33C71.39 984.47 69.15 983.92 67.16 983.73C66.43 983.61 65.69 983.68 65.01 983.94C63.9 984.47 63.37 985.84 63.32 987.12C63.27 988.39 63.58 989.66 63.66 990.92C63.74 992.19 63.53 993.59 62.63 994.46C61.73 995.32 60.44 995.42 59.26 995.6C57.7 995.82 56.17 996.22 54.7 996.79C53.46 997.26 52.08 998.11 52.02 999.49C51.97 1000.62 52.84 1001.52 53.49 1002.42C54.76 1004.11 55.28 1006.28 54.91 1008.39C54.49 1010.49 53.08 1012.3 52.83 1014.43C52.74 1014.96 52.8 1015.51 53.02 1016.01C53.21 1016.34 53.48 1016.63 53.79 1016.86C54.55 1017.48 55.41 1017.98 56.13 1018.65C57.65 1020.06 58.46 1022.09 59.09 1024.09C59.16 1024.28 59.21 1024.48 59.27 1024.68C59.12 1024.68 57.93 1024.68 57.78 1024.68C54.75 1024.68 52.29 1027.26 52.29 1030.43C52.29 1030.43 52.29 1030.43 52.29 1030.43C52.29 1033.61 54.75 1036.19 57.78 1036.19C59.27 1036.19 71.13 1036.19 72.62 1036.19C75.65 1036.19 78.11 1033.61 78.11 1030.43C78.11 1030.43 78.11 1030.43 78.11 1030.43C78.09 1027.27 75.65 1024.72 72.63 1024.71C72.22 1024.71 68.97 1024.71 68.56 1024.71C69.52 1023.36 70.53 1022.09 72.02 1021.57C73.52 1021.05 75.3 1021.36 76.47 1020.27C77.01 1019.71 77.37 1018.98 77.47 1018.18C77.72 1016.76 77.49 1015.3 76.82 1014.04C76.36 1013.17 75.67 1012.37 75.52 1011.38C75.45 1010.52 75.64 1009.66 76.08 1008.93C77.2 1006.77 79.18 1005.11 79.79 1002.75C80.33 1000.47 79.48 998.07 77.64 996.72Z" id="a2RCsY0AVn"></path><linearGradient id="gradientacjEwjfpF" gradientUnits="userSpaceOnUse" x1="52.02" y1="1009.95" x2="79.96" y2="1009.95"><stop style="stop-color: #808080;stop-opacity: 0.25" offset="0%"></stop><stop style="stop-color: #808080;stop-opacity: 0.12" offset="54%"></stop><stop style="stop-color: #808080;stop-opacity: 0.1" offset="100%"></stop></linearGradient><path d="M65.05 985.19C64 985.69 63.49 987 63.45 988.21C63.4 989.42 63.7 990.62 63.79 991.84C63.89 993.05 63.66 994.37 62.81 995.2C61.96 996.03 60.73 996.12 59.6 996.29C58.12 996.5 56.66 996.88 55.25 997.42C54.07 997.87 52.76 998.68 52.7 1000C52.66 1001.09 53.48 1001.93 54.11 1002.79C55.31 1004.39 55.8 1006.46 55.46 1008.46C55.05 1010.46 53.73 1012.18 53.47 1014.21C53.38 1014.73 53.45 1015.26 53.66 1015.73C53.85 1016.05 54.1 1016.33 54.4 1016.55C55.13 1017.14 55.94 1017.62 56.63 1018.25C58.07 1019.59 58.85 1021.52 59.45 1023.44C60.04 1025.33 60.5 1027.25 60.84 1029.2C62.07 1028.36 63.68 1028.38 64.99 1027.69C67.81 1026.24 68.76 1022.05 71.73 1021.01C73.14 1020.52 74.84 1020.81 75.96 1019.77C76.48 1019.24 76.82 1018.54 76.92 1017.78C77.16 1016.43 76.94 1015.03 76.3 1013.83C75.85 1013 75.2 1012.24 75.06 1011.29C74.99 1010.47 75.17 1009.65 75.59 1008.95C76.66 1006.91 78.55 1005.33 79.13 1003.09C79.64 1000.92 78.83 998.64 77.08 997.35C76.6 997.07 76.14 996.76 75.7 996.42C75.03 995.77 74.55 994.93 74.31 994.01C73.62 991.83 73.41 989.42 72.2 987.48C71.13 985.68 68.99 985.18 67.1 984.99C66.41 984.87 65.71 984.94 65.05 985.19Z" id="b1eh6Y2vyD"></path><path d="M67.08 985.06C67.08 985.06 69.69 1021.81 62.89 1028.1" id="b2SJWVrBuK"></path><path d="M72.59 1023.99C75.89 1023.99 77.54 1025.72 77.54 1029.17C77.54 1029.53 77.54 1029.73 77.54 1029.77C77.54 1033.22 75.89 1034.95 72.59 1034.95C63.78 1034.95 58.88 1034.95 57.9 1034.95C54.6 1034.95 52.95 1033.22 52.95 1029.77C52.95 1029.41 52.95 1029.21 52.95 1029.17C52.95 1025.72 54.6 1023.99 57.9 1023.99C66.72 1023.99 71.61 1023.99 72.59 1023.99Z" id="cafCdu2RpJ"></path><path d="M52.67 999.32C52.67 999.32 59.36 998.5 67.53 1003.71" id="ba2hvodQy"></path><path d="M67.42 1008.09C70.13 1003.94 74.36 1001.16 79.11 1000.41" id="ewOsLFSxU"></path><path d="M53.34 1014.26C53.34 1014.26 62.61 1012.61 66.88 1015.35" id="h352c2NDHa"></path><path d="M66.35 1019.12C66.35 1019.12 71.19 1016.81 76.66 1018.69" id="d1CgZn2xd0"></path><path d="M243.8 1017L244.28 1017.08L244.75 1017.2L245.2 1017.38L245.63 1017.59L246.04 1017.85L246.41 1018.15L246.76 1018.48L247.08 1018.84L247.36 1019.24L247.61 1019.66L247.81 1020.11L247.98 1020.58L248.1 1021.08L248.17 1021.59L248.2 1022.11L248.17 1022.64L248.1 1023.15L247.98 1023.64L247.81 1024.11L247.61 1024.56L247.36 1024.98L247.08 1025.38L246.76 1025.74L246.41 1026.07L246.04 1026.37L245.63 1026.63L245.2 1026.84L244.75 1027.02L244.28 1027.14L243.8 1027.22L243.29 1027.25L243.29 1031.31L243.28 1031.7L243.22 1032.08L243.13 1032.45L243.01 1032.8L242.85 1033.14L242.67 1033.46L242.45 1033.76L242.22 1034.03L241.96 1034.28L241.67 1034.5L241.37 1034.69L241.05 1034.85L240.71 1034.98L240.36 1035.08L239.99 1035.14L239.62 1035.16L228.12 1035.16L227.74 1035.14L227.37 1035.08L227.02 1034.98L226.68 1034.85L226.36 1034.69L226.06 1034.5L225.78 1034.28L225.52 1034.03L225.28 1033.76L225.07 1033.46L224.88 1033.14L224.73 1032.8L224.6 1032.45L224.51 1032.08L224.46 1031.7L224.44 1031.31L224.44 1013.03L243.29 1013.03L243.29 1016.97L243.8 1017ZM243.35 1025.28L243.4 1025.28L243.45 1025.28L243.5 1025.28L244.66 1024.99L245.6 1024.28L246.22 1023.25L246.41 1022.01L246.14 1020.79L245.46 1019.81L244.48 1019.16L243.29 1018.96L243.29 1025.28L243.35 1025.28Z" id="c3hiSk0106"></path><linearGradient id="gradientf3km1bVK19" gradientUnits="userSpaceOnUse" x1="236.32" y1="1035.16" x2="236.32" y2="1013.03"><stop style="stop-color: #808080;stop-opacity: 0.25" offset="0%"></stop><stop style="stop-color: #808080;stop-opacity: 0.12" offset="54%"></stop><stop style="stop-color: #808080;stop-opacity: 0.1" offset="100%"></stop></linearGradient><path d="M245.35 1018.51L246.31 1019.52L246.95 1020.81L247.18 1022.29L246.95 1023.77L246.31 1025.06L245.35 1026.07L244.12 1026.74L242.7 1026.98L241.29 1026.74L240.06 1026.07L239.09 1025.06L238.45 1023.77L238.23 1022.29L238.45 1020.81L239.09 1019.52L240.06 1018.51L241.29 1017.84L242.7 1017.6L244.12 1017.84L245.35 1018.51ZM240.74 1020.22L240.15 1021.15L239.93 1022.28L240.15 1023.4L240.74 1024.33L241.62 1024.95L242.7 1025.18L243.78 1024.95L244.66 1024.33L245.25 1023.4L245.47 1022.28L245.25 1021.15L244.66 1020.22L243.78 1019.6L242.7 1019.37L241.62 1019.6L240.74 1020.22Z" id="a5DaLqjTf8"></path><path d="M245.35 1018.51L246.31 1019.52L246.95 1020.81L247.18 1022.29L246.95 1023.77L246.31 1025.06L245.35 1026.07L244.12 1026.74L242.7 1026.98L241.29 1026.74L240.06 1026.07L239.09 1025.06L238.45 1023.77L238.23 1022.29L238.45 1020.81L239.09 1019.52L240.06 1018.51L241.29 1017.84L242.7 1017.6L244.12 1017.84L245.35 1018.51ZM240.74 1020.22L240.15 1021.15L239.93 1022.28L240.15 1023.4L240.74 1024.33L241.62 1024.95L242.7 1025.18L243.78 1024.95L244.66 1024.33L245.25 1023.4L245.47 1022.28L245.25 1021.15L244.66 1020.22L243.78 1019.6L242.7 1019.37L241.62 1019.6L240.74 1020.22Z" id="dZGP4N8R9"></path><path d="M242.69 1013.99C242.69 1024 242.69 1029.56 242.69 1030.67C242.69 1032.63 241.18 1034.21 239.31 1034.21C238.27 1034.21 229.89 1034.21 228.85 1034.21C226.98 1034.21 225.47 1032.63 225.47 1030.67C225.47 1029.56 225.47 1024 225.47 1013.99L242.69 1013.99Z" id="a4M8BtUOpE"></path><path d="M260.77 1034.2C260.77 1034.2 260.77 1034.2 260.77 1034.2C260.77 1038.96 260.77 1041.6 260.77 1042.13C260.77 1042.13 260.77 1042.13 260.77 1042.13C126.68 1042.13 52.19 1042.13 37.29 1042.13C37.29 1042.13 37.29 1042.13 37.29 1042.13C37.29 1037.37 37.29 1034.72 37.29 1034.2C37.29 1034.2 37.29 1034.2 37.29 1034.2C171.38 1034.2 245.87 1034.2 260.77 1034.2Z" id="bxxKrrMm7"></path><path d="M191.53 976.86C194.87 976.86 196.55 978.61 196.55 982.12C196.55 1010.21 196.55 1025.82 196.55 1028.94C196.55 1032.44 194.87 1034.2 191.53 1034.2C140.53 1034.2 112.2 1034.2 106.53 1034.2C103.18 1034.2 101.51 1032.44 101.51 1028.94C101.51 1000.85 101.51 985.24 101.51 982.12C101.51 978.61 103.18 976.86 106.53 976.86C157.53 976.86 185.86 976.86 191.53 976.86Z" id="a23dDdSK2U"></path><linearGradient id="gradientb4XdVjeUQF" gradientUnits="userSpaceOnUse" x1="149.03" y1="1034.2" x2="149.03" y2="976.86"><stop style="stop-color: #808080;stop-opacity: 0.25" offset="0%"></stop><stop style="stop-color: #808080;stop-opacity: 0.12" offset="54%"></stop><stop style="stop-color: #808080;stop-opacity: 0.1" offset="100%"></stop></linearGradient><path d="M185.54 977.92C191.73 977.92 194.83 981.16 194.83 987.65C194.83 1009.74 194.83 1022.01 194.83 1024.46C194.83 1030.95 191.73 1034.2 185.54 1034.2C141.73 1034.2 117.39 1034.2 112.52 1034.2C106.33 1034.2 103.23 1030.95 103.23 1024.46C103.23 1002.38 103.23 990.11 103.23 987.65C103.23 981.16 106.33 977.92 112.52 977.92C156.33 977.92 180.67 977.92 185.54 977.92Z" id="f1hZajZb9S"></path><path d="M149.03 1002.81C147.32 1002.81 145.93 1004.27 145.93 1006.06C145.93 1007.85 147.32 1009.3 149.03 1009.3C150.74 1009.3 152.13 1007.85 152.13 1006.06C152.13 1004.27 150.74 1002.81 149.03 1002.81Z" id="b2n7VzK2qT"></path><path d="M251.3 1042.13C251.3 1042.13 251.3 1042.13 251.3 1042.13C251.3 1044.08 251.3 1045.16 251.3 1045.38C251.3 1045.38 251.3 1045.38 251.3 1045.38C128.58 1045.38 60.4 1045.38 46.76 1045.38C46.76 1045.38 46.76 1045.38 46.76 1045.38C46.76 1043.43 46.76 1042.35 46.76 1042.13C46.76 1042.13 46.76 1042.13 46.76 1042.13C169.48 1042.13 237.66 1042.13 251.3 1042.13Z" id="bdtOlRpIo"></path><path d="M251.3 1042.13C251.3 1042.13 251.3 1042.13 251.3 1042.13C251.3 1042.78 251.3 1043.14 251.3 1043.21C251.3 1043.21 251.3 1043.21 251.3 1043.21C128.58 1043.21 60.4 1043.21 46.76 1043.21C46.76 1043.21 46.76 1043.21 46.76 1043.21C46.76 1042.57 46.76 1042.21 46.76 1042.13C46.76 1042.13 46.76 1042.13 46.76 1042.13C169.48 1042.13 237.66 1042.13 251.3 1042.13Z" id="b4S1GC1wHn"></path><path d="M239.59 1013.99C239.59 1024 239.59 1029.56 239.59 1030.67C239.59 1032.62 238.08 1034.19 236.23 1034.19C236.23 1034.19 236.23 1034.19 236.23 1034.19C236.4 1034.19 237.79 1034.19 237.96 1034.19C239.81 1034.19 241.32 1032.62 241.32 1030.67C241.32 1030.67 241.32 1030.67 241.32 1030.67C241.32 1029.56 241.32 1024 241.32 1013.99L239.59 1013.99Z" id="dsvf07JIN"></path><path d="M228.09 1000.95C227.87 1001.38 228.28 1001.87 228.65 1002.16C229.34 1002.7 230.07 1003.25 230.54 1004C231.01 1004.75 231.15 1005.81 230.64 1006.54C229.97 1007.49 228.38 1007.69 228.22 1008.86C228.12 1009.61 228.74 1010.25 229.37 1010.63C230.92 1011.56 232.92 1011.81 234.04 1013.27C234.51 1012.27 235.55 1011.69 236.58 1011.45C237.62 1011.22 238.69 1011.23 239.75 1011.06C240.1 1011.05 240.43 1010.87 240.63 1010.57C240.92 1009.94 240.08 1009.19 240.37 1008.57C240.59 1008.09 241.24 1008.13 241.71 1007.94C242.48 1007.62 242.79 1006.59 242.57 1005.76C242.36 1004.93 241.74 1004.28 241.09 1003.74C239.36 1002.29 237.25 1001.46 235.13 1000.84C234.14 1000.56 232.98 1000.12 231.96 1000.07C230.93 1000.03 229.85 1000.37 228.86 1000.55C228.56 1000.56 228.28 1000.7 228.09 1000.95Z" id="b1u7KsleAr"></path><path d="M335.96 837.22C335.96 837.22 335.96 837.22 335.96 837.22C335.96 901.99 335.96 937.97 335.96 945.17C335.96 945.17 335.96 945.17 335.96 945.17C245.73 945.17 195.6 945.17 185.57 945.17C185.57 945.17 185.57 945.17 185.57 945.17C185.57 880.4 185.57 844.42 185.57 837.22C185.57 837.22 185.57 837.22 185.57 837.22C275.81 837.22 325.94 837.22 335.96 837.22Z" id="knRT69kyA"></path><path d="M233.13 847.85C234.17 847.85 234.69 848.4 234.69 849.49C234.69 868.06 234.69 878.38 234.69 880.44C234.69 881.53 234.17 882.07 233.13 882.07C213.75 882.07 202.99 882.07 200.84 882.07C199.8 882.07 199.28 881.53 199.28 880.44C199.28 861.87 199.28 851.55 199.28 849.49C199.28 848.4 199.8 847.85 200.84 847.85C220.21 847.85 230.98 847.85 233.13 847.85Z" id="c3EmrjsEWS"></path><linearGradient id="gradienta1jGAHJM1L" gradientUnits="userSpaceOnUse" x1="216.98" y1="882.07" x2="216.98" y2="847.85"><stop style="stop-color: #808080;stop-opacity: 0.25" offset="0%"></stop><stop style="stop-color: #808080;stop-opacity: 0.12" offset="54%"></stop><stop style="stop-color: #808080;stop-opacity: 0.1" offset="100%"></stop></linearGradient><path d="M232.74 848.12C233.78 848.12 234.3 848.66 234.3 849.75C234.3 867.83 234.3 877.87 234.3 879.88C234.3 880.96 233.78 881.51 232.74 881.51C213.86 881.51 203.37 881.51 201.27 881.51C200.23 881.51 199.71 880.96 199.71 879.88C199.71 861.8 199.71 851.76 199.71 849.75C199.71 848.66 200.23 848.12 201.27 848.12C220.16 848.12 230.65 848.12 232.74 848.12Z" id="a5PsrB1Xq"></path><path d="M206.65 853.62C207.69 853.62 208.21 854.16 208.21 855.25C208.21 856.59 208.21 857.34 208.21 857.49C208.21 858.57 207.69 859.12 206.65 859.12C205.02 859.12 204.12 859.12 203.94 859.12C202.9 859.12 202.38 858.57 202.38 857.49C202.38 856.14 202.38 855.4 202.38 855.25C202.38 854.16 202.9 853.62 203.94 853.62C205.57 853.62 206.47 853.62 206.65 853.62Z" id="d2nkZCwKgq"></path><path d="M232.88 853.62C233.06 853.62 233.15 853.71 233.15 853.91C233.15 853.93 233.15 853.94 233.15 853.94C233.15 854.13 233.06 854.23 232.88 854.23C219.29 854.23 211.75 854.23 210.24 854.23C210.06 854.23 209.96 854.13 209.96 853.94C209.96 853.92 209.96 853.91 209.96 853.91C209.96 853.71 210.06 853.62 210.24 853.62C223.82 853.62 231.37 853.62 232.88 853.62Z" id="ahyn5TUAQ"></path><path d="M232.88 855.45C233.06 855.45 233.15 855.55 233.15 855.74C233.15 855.76 233.15 855.77 233.15 855.77C233.15 855.97 233.06 856.06 232.88 856.06C219.29 856.06 211.75 856.06 210.24 856.06C210.06 856.06 209.96 855.97 209.96 855.77C209.96 855.76 209.96 855.74 209.96 855.74C209.96 855.55 210.06 855.45 210.24 855.45C223.82 855.45 231.37 855.45 232.88 855.45Z" id="afTGEuQwF"></path><path d="M232.88 862.11C233.06 862.11 233.15 862.2 233.15 862.4C233.15 862.42 233.15 862.43 233.15 862.43C233.15 862.62 233.06 862.72 232.88 862.72C214.4 862.72 204.13 862.72 202.08 862.72C201.89 862.72 201.8 862.62 201.8 862.43C201.8 862.41 201.8 862.4 201.8 862.4C201.8 862.2 201.89 862.11 202.08 862.11C220.56 862.11 230.82 862.11 232.88 862.11Z" id="ct8sRmxf"></path><path d="M232.88 863.94C233.06 863.94 233.15 864.03 233.15 864.23C233.15 864.25 233.15 864.26 233.15 864.26C233.15 864.45 233.06 864.55 232.88 864.55C214.4 864.55 204.13 864.55 202.08 864.55C201.89 864.55 201.8 864.45 201.8 864.26C201.8 864.24 201.8 864.23 201.8 864.23C201.8 864.03 201.89 863.94 202.08 863.94C220.56 863.94 230.82 863.94 232.88 863.94Z" id="hRmUgHySa"></path><path d="M232.88 866.38C233.06 866.38 233.15 866.48 233.15 866.67C233.15 866.69 233.15 866.7 233.15 866.7C233.15 866.9 233.06 866.99 232.88 866.99C214.4 866.99 204.13 866.99 202.08 866.99C201.89 866.99 201.8 866.9 201.8 866.7C201.8 866.69 201.8 866.67 201.8 866.67C201.8 866.48 201.89 866.38 202.08 866.38C220.56 866.38 230.82 866.38 232.88 866.38Z" id="b159wCnVcM"></path><path d="M219.6 868.22C219.79 868.22 219.88 868.31 219.88 868.51C219.88 868.53 219.88 868.54 219.88 868.54C219.88 868.73 219.79 868.83 219.6 868.83C209.09 868.83 203.24 868.83 202.08 868.83C201.89 868.83 201.8 868.73 201.8 868.54C201.8 868.52 201.8 868.51 201.8 868.51C201.8 868.31 201.89 868.22 202.08 868.22C212.59 868.22 218.44 868.22 219.6 868.22Z" id="alSWjXjA"></path><path d="M232.88 870.65C233.06 870.65 233.15 870.75 233.15 870.94C233.15 870.96 233.15 870.97 233.15 870.98C233.15 871.17 233.06 871.27 232.88 871.27C214.4 871.27 204.13 871.27 202.08 871.27C201.89 871.27 201.8 871.17 201.8 870.98C201.8 870.96 201.8 870.95 201.8 870.94C201.8 870.75 201.89 870.65 202.08 870.65C220.56 870.65 230.82 870.65 232.88 870.65Z" id="eaSbpfCFg"></path><path d="M232.88 872.49C233.06 872.49 233.15 872.59 233.15 872.78C233.15 872.8 233.15 872.81 233.15 872.81C233.15 873.01 233.06 873.1 232.88 873.1C214.4 873.1 204.13 873.1 202.08 873.1C201.89 873.1 201.8 873.01 201.8 872.81C201.8 872.79 201.8 872.78 201.8 872.78C201.8 872.59 201.89 872.49 202.08 872.49C220.56 872.49 230.82 872.49 232.88 872.49Z" id="e2BbQNNFaw"></path><path d="M232.88 874.93C233.06 874.93 233.15 875.03 233.15 875.22C233.15 875.24 233.15 875.25 233.15 875.26C233.15 875.45 233.06 875.55 232.88 875.55C214.4 875.55 204.13 875.55 202.08 875.55C201.89 875.55 201.8 875.45 201.8 875.26C201.8 875.24 201.8 875.23 201.8 875.22C201.8 875.03 201.89 874.93 202.08 874.93C220.56 874.93 230.82 874.93 232.88 874.93Z" id="b670hvJXbO"></path><path d="M219.6 876.76C219.79 876.76 219.88 876.86 219.88 877.05C219.88 877.07 219.88 877.09 219.88 877.09C219.88 877.28 219.79 877.38 219.6 877.38C209.09 877.38 203.24 877.38 202.08 877.38C201.89 877.38 201.8 877.28 201.8 877.09C201.8 877.07 201.8 877.06 201.8 877.05C201.8 876.86 201.89 876.76 202.08 876.76C212.59 876.76 218.44 876.76 219.6 876.76Z" id="f1Fkmt1GiZ"></path><path d="M238.47 855.76C239.51 855.76 240.03 856.3 240.03 857.39C240.03 875.97 240.03 886.28 240.03 888.35C240.03 889.44 239.51 889.98 238.47 889.98C219.1 889.98 208.34 889.98 206.18 889.98C205.15 889.98 204.63 889.44 204.63 888.35C204.63 869.77 204.63 859.46 204.63 857.39C204.63 856.3 205.15 855.76 206.18 855.76C225.56 855.76 236.32 855.76 238.47 855.76Z" id="a1EzKC2G2R"></path><linearGradient id="gradientd4YpBHssWW" gradientUnits="userSpaceOnUse" x1="222.33" y1="889.98" x2="222.33" y2="855.76"><stop style="stop-color: #808080;stop-opacity: 0.25" offset="0%"></stop><stop style="stop-color: #808080;stop-opacity: 0.12" offset="54%"></stop><stop style="stop-color: #808080;stop-opacity: 0.1" offset="100%"></stop></linearGradient><path d="M238.09 856.02C239.13 856.02 239.65 856.57 239.65 857.66C239.65 875.73 239.65 885.77 239.65 887.78C239.65 888.87 239.13 889.41 238.09 889.41C219.21 889.41 208.71 889.41 206.62 889.41C205.58 889.41 205.06 888.87 205.06 887.78C205.06 869.71 205.06 859.67 205.06 857.66C205.06 856.57 205.58 856.02 206.62 856.02C225.5 856.02 235.99 856.02 238.09 856.02Z" id="a2BkQT0jl"></path><path d="M212 861.53C213.04 861.53 213.56 862.07 213.56 863.16C213.56 864.5 213.56 865.25 213.56 865.4C213.56 866.48 213.04 867.03 212 867.03C210.37 867.03 209.46 867.03 209.28 867.03C208.24 867.03 207.72 866.48 207.72 865.4C207.72 864.05 207.72 863.31 207.72 863.16C207.72 862.07 208.24 861.53 209.28 861.53C210.91 861.53 211.82 861.53 212 861.53Z" id="b3Gn3dIHou"></path><path d="M238.22 861.53C238.4 861.53 238.49 861.62 238.49 861.82C238.49 861.84 238.49 861.85 238.49 861.85C238.49 862.04 238.4 862.14 238.22 862.14C224.64 862.14 217.09 862.14 215.58 862.14C215.4 862.14 215.31 862.04 215.31 861.85C215.31 861.83 215.31 861.82 215.31 861.82C215.31 861.62 215.4 861.53 215.58 861.53C229.16 861.53 236.71 861.53 238.22 861.53Z" id="a15SchxauB"></path><path d="M238.22 863.36C238.4 863.36 238.49 863.45 238.49 863.65C238.49 863.67 238.49 863.68 238.49 863.68C238.49 863.87 238.4 863.97 238.22 863.97C224.64 863.97 217.09 863.97 215.58 863.97C215.4 863.97 215.31 863.87 215.31 863.68C215.31 863.66 215.31 863.65 215.31 863.65C215.31 863.45 215.4 863.36 215.58 863.36C229.16 863.36 236.71 863.36 238.22 863.36Z" id="a3Db4avRBK"></path><path d="M238.22 870.01C238.4 870.01 238.49 870.11 238.49 870.3C238.49 870.32 238.49 870.33 238.49 870.33C238.49 870.53 238.4 870.63 238.22 870.63C219.74 870.63 209.47 870.63 207.42 870.63C207.23 870.63 207.14 870.53 207.14 870.33C207.14 870.32 207.14 870.3 207.14 870.3C207.14 870.11 207.23 870.01 207.42 870.01C225.9 870.01 236.16 870.01 238.22 870.01Z" id="avF1zgSd"></path><path d="M238.22 871.85C238.4 871.85 238.49 871.94 238.49 872.14C238.49 872.16 238.49 872.17 238.49 872.17C238.49 872.36 238.4 872.46 238.22 872.46C219.74 872.46 209.47 872.46 207.42 872.46C207.23 872.46 207.14 872.36 207.14 872.17C207.14 872.15 207.14 872.14 207.14 872.14C207.14 871.94 207.23 871.85 207.42 871.85C225.9 871.85 236.16 871.85 238.22 871.85Z" id="g1R83ruf10"></path><path d="M238.22 874.29C238.4 874.29 238.49 874.39 238.49 874.58C238.49 874.6 238.49 874.61 238.49 874.61C238.49 874.81 238.4 874.9 238.22 874.9C219.74 874.9 209.47 874.9 207.42 874.9C207.23 874.9 207.14 874.81 207.14 874.61C207.14 874.59 207.14 874.58 207.14 874.58C207.14 874.39 207.23 874.29 207.42 874.29C225.9 874.29 236.16 874.29 238.22 874.29Z" id="a9dzJTiAq"></path><path d="M224.95 876.12C225.13 876.12 225.22 876.22 225.22 876.41C225.22 876.43 225.22 876.44 225.22 876.45C225.22 876.64 225.13 876.74 224.95 876.74C214.43 876.74 208.59 876.74 207.42 876.74C207.23 876.74 207.14 876.64 207.14 876.45C207.14 876.43 207.14 876.41 207.14 876.41C207.14 876.22 207.23 876.12 207.42 876.12C217.93 876.12 223.78 876.12 224.95 876.12Z" id="e1tbD5cVs"></path><path d="M238.22 878.56C238.4 878.56 238.49 878.66 238.49 878.85C238.49 878.87 238.49 878.88 238.49 878.89C238.49 879.08 238.4 879.18 238.22 879.18C219.74 879.18 209.47 879.18 207.42 879.18C207.23 879.18 207.14 879.08 207.14 878.89C207.14 878.87 207.14 878.86 207.14 878.85C207.14 878.66 207.23 878.56 207.42 878.56C225.9 878.56 236.16 878.56 238.22 878.56Z" id="f35msgE1sR"></path><path d="M238.22 880.39C238.4 880.39 238.49 880.49 238.49 880.68C238.49 880.7 238.49 880.72 238.49 880.72C238.49 880.91 238.4 881.01 238.22 881.01C219.74 881.01 209.47 881.01 207.42 881.01C207.23 881.01 207.14 880.91 207.14 880.72C207.14 880.7 207.14 880.69 207.14 880.68C207.14 880.49 207.23 880.39 207.42 880.39C225.9 880.39 236.16 880.39 238.22 880.39Z" id="bLB9H75Um"></path><path d="M238.22 882.84C238.4 882.84 238.49 882.94 238.49 883.13C238.49 883.15 238.49 883.16 238.49 883.16C238.49 883.36 238.4 883.45 238.22 883.45C219.74 883.45 209.47 883.45 207.42 883.45C207.23 883.45 207.14 883.36 207.14 883.16C207.14 883.14 207.14 883.13 207.14 883.13C207.14 882.94 207.23 882.84 207.42 882.84C225.9 882.84 236.16 882.84 238.22 882.84Z" id="a1HScRBkIZ"></path><path d="M224.95 884.67C225.13 884.67 225.22 884.77 225.22 884.96C225.22 884.98 225.22 884.99 225.22 885C225.22 885.19 225.13 885.29 224.95 885.29C214.43 885.29 208.59 885.29 207.42 885.29C207.23 885.29 207.14 885.19 207.14 885C207.14 884.98 207.14 884.97 207.14 884.96C207.14 884.77 207.23 884.67 207.42 884.67C217.93 884.67 223.78 884.67 224.95 884.67Z" id="c5ZJx6JtMc"></path><path d="M274.16 860.94C274.16 860.94 274.16 860.94 274.16 860.94C274.16 872.71 274.16 879.26 274.16 880.57C274.16 880.57 274.16 880.57 274.16 880.57C262.46 880.57 255.96 880.57 254.66 880.57C254.66 880.57 254.66 880.57 254.66 880.57C254.66 868.79 254.66 862.25 254.66 860.94C254.66 860.94 254.66 860.94 254.66 860.94C266.36 860.94 272.86 860.94 274.16 860.94Z" id="b2YXEiXkb8"></path><linearGradient id="gradientdSIJbkopT" gradientUnits="userSpaceOnUse" x1="264.41" y1="880.57" x2="264.41" y2="860.94"><stop style="stop-color: #808080;stop-opacity: 0.25" offset="0%"></stop><stop style="stop-color: #808080;stop-opacity: 0.12" offset="54%"></stop><stop style="stop-color: #808080;stop-opacity: 0.1" offset="100%"></stop></linearGradient><path d="M273.85 861.42C273.85 861.42 273.85 861.42 273.85 861.42C273.85 872.66 273.85 878.91 273.85 880.16C273.85 880.16 273.85 880.16 273.85 880.16C262.52 880.16 256.23 880.16 254.97 880.16C254.97 880.16 254.97 880.16 254.97 880.16C254.97 868.92 254.97 862.67 254.97 861.42C254.97 861.42 254.97 861.42 254.97 861.42C266.3 861.42 272.59 861.42 273.85 861.42Z" id="a1GC1Pt2N8"></path><path d="M268.41 864.7L268.41 869.42L260.4 869.42L260.4 864.7L262.74 864.7L262.74 863.74L266.08 863.74L266.08 864.7L268.41 864.7ZM263.15 864.7L265.66 864.7L265.66 864.09L263.15 864.09L263.15 864.7Z" id="a2LQteqpS"></path><linearGradient id="gradientd11tLvqW0W" gradientUnits="userSpaceOnUse" x1="264.41" y1="869.43" x2="264.41" y2="863.74"><stop style="stop-color: #808080;stop-opacity: 0.25" offset="0%"></stop><stop style="stop-color: #808080;stop-opacity: 0.12" offset="54%"></stop><stop style="stop-color: #808080;stop-opacity: 0.1" offset="100%"></stop></linearGradient><path d="M268.08 864.86C268.08 864.86 268.08 864.86 268.08 864.86C268.08 867.46 268.08 868.9 268.08 869.19C268.08 869.19 268.08 869.19 268.08 869.19C263.68 869.19 261.23 869.19 260.74 869.19C260.74 869.19 260.74 869.19 260.74 869.19C260.74 866.59 260.74 865.15 260.74 864.86C260.74 864.86 260.74 864.86 260.74 864.86C265.14 864.86 267.59 864.86 268.08 864.86Z" id="cJp2RjaV9"></path><path d="M262.88 865.1L263.26 865.1L263.26 864.3L265.55 864.3L265.55 865.1L265.94 865.1L265.94 863.98L262.88 863.98L262.88 863.98L262.88 865.1Z" id="aeyRRLrut"></path><path d="M267.96 872.55C267.96 872.55 267.96 872.55 267.96 872.55C267.96 873.13 267.96 873.45 267.96 873.52C267.96 873.52 267.96 873.52 267.96 873.52C263.88 873.52 261.61 873.52 261.16 873.52C261.16 873.52 261.16 873.52 261.16 873.52C261.16 872.94 261.16 872.62 261.16 872.55C261.16 872.55 261.16 872.55 261.16 872.55C265.24 872.55 267.51 872.55 267.96 872.55Z" id="a2g7Z4skv"></path><path d="M270.22 874.32C270.22 874.32 270.22 874.32 270.22 874.32C270.22 874.89 270.22 875.21 270.22 875.28C270.22 875.28 270.22 875.28 270.22 875.28C263.25 875.28 259.37 875.28 258.6 875.28C258.6 875.28 258.6 875.28 258.6 875.28C258.6 874.7 258.6 874.38 258.6 874.32C258.6 874.32 258.6 874.32 258.6 874.32C265.57 874.32 269.45 874.32 270.22 874.32Z" id="fBCIj1F86"></path><path d="M325.61 843.76C325.61 843.76 325.61 843.76 325.61 843.76C325.61 875.17 325.61 892.61 325.61 896.1C325.61 896.1 325.61 896.1 325.61 896.1C300.1 896.1 285.92 896.1 283.09 896.1C283.09 896.1 283.09 896.1 283.09 896.1C283.09 864.7 283.09 847.25 283.09 843.76C283.09 843.76 283.09 843.76 283.09 843.76C308.6 843.76 322.78 843.76 325.61 843.76Z" id="caJLL4h7cq"></path><linearGradient id="gradientbof9U1hOA" gradientUnits="userSpaceOnUse" x1="304.35" y1="896.1" x2="304.35" y2="843.76"><stop style="stop-color: #808080;stop-opacity: 0.25" offset="0%"></stop><stop style="stop-color: #808080;stop-opacity: 0.12" offset="54%"></stop><stop style="stop-color: #808080;stop-opacity: 0.1" offset="100%"></stop></linearGradient><path d="M324.7 844.61C324.7 844.61 324.7 844.61 324.7 844.61C324.7 874.81 324.7 891.59 324.7 894.94C324.7 894.94 324.7 894.94 324.7 894.94C300.52 894.94 287.08 894.94 284.4 894.94C284.4 894.94 284.4 894.94 284.4 894.94C284.4 864.74 284.4 847.96 284.4 844.61C284.4 844.61 284.4 844.61 284.4 844.61C308.58 844.61 322.02 844.61 324.7 844.61Z" id="c3gx3PHSsD"></path><path d="M309.82 852.61L309.82 858.82L299.28 858.82L299.28 852.61L302.35 852.61L302.35 851.35L306.74 851.35L306.74 852.61L309.82 852.61ZM302.9 852.61L306.19 852.61L306.19 851.81L302.9 851.81L302.9 852.61Z" id="d1rahSIYWZ"></path><linearGradient id="gradientd2dnInArrj" gradientUnits="userSpaceOnUse" x1="304.55" y1="858.82" x2="304.55" y2="851.35"><stop style="stop-color: #808080;stop-opacity: 0.25" offset="0%"></stop><stop style="stop-color: #808080;stop-opacity: 0.12" offset="54%"></stop><stop style="stop-color: #808080;stop-opacity: 0.1" offset="100%"></stop></linearGradient><path d="M309.38 852.82C309.38 852.82 309.38 852.82 309.38 852.82C309.38 856.23 309.38 858.13 309.38 858.51C309.38 858.51 309.38 858.51 309.38 858.51C303.59 858.51 300.37 858.51 299.73 858.51C299.73 858.51 299.73 858.51 299.73 858.51C299.73 855.09 299.73 853.2 299.73 852.82C299.73 852.82 299.73 852.82 299.73 852.82C305.52 852.82 308.73 852.82 309.38 852.82Z" id="a1hKdIPbf"></path><path d="M302.54 853.13L303.04 853.13L303.04 852.08L306.06 852.08L306.06 853.13L306.56 853.13L306.56 851.66L302.54 851.66L302.54 851.66L302.54 853.13Z" id="djfqkWVlr"></path><path d="M318.77 866.69C318.77 866.69 318.77 866.69 318.77 866.69C318.77 867.45 318.77 867.87 318.77 867.95C318.77 867.95 318.77 867.95 318.77 867.95C301.76 867.95 292.31 867.95 290.42 867.95C290.42 867.95 290.42 867.95 290.42 867.95C290.42 867.2 290.42 866.77 290.42 866.69C290.42 866.69 290.42 866.69 290.42 866.69C307.43 866.69 316.88 866.69 318.77 866.69Z" id="azwGDRd4l"></path><path d="M318.77 875.01C318.77 875.01 318.77 875.01 318.77 875.01C318.77 875.77 318.77 876.19 318.77 876.27C318.77 876.27 318.77 876.27 318.77 876.27C301.76 876.27 292.31 876.27 290.42 876.27C290.42 876.27 290.42 876.27 290.42 876.27C290.42 875.51 290.42 875.09 290.42 875.01C290.42 875.01 290.42 875.01 290.42 875.01C307.43 875.01 316.88 875.01 318.77 875.01Z" id="aF0Z7WNmi"></path><path d="M318.77 877.22C318.77 877.22 318.77 877.22 318.77 877.22C318.77 877.98 318.77 878.4 318.77 878.48C318.77 878.48 318.77 878.48 318.77 878.48C301.76 878.48 292.31 878.48 290.42 878.48C290.42 878.48 290.42 878.48 290.42 878.48C290.42 877.73 290.42 877.31 290.42 877.22C290.42 877.22 290.42 877.22 290.42 877.22C307.43 877.22 316.88 877.22 318.77 877.22Z" id="b8eijLykMU"></path><path d="M302.39 872.8C302.39 872.8 302.39 872.8 302.39 872.8C302.39 873.56 302.39 873.98 302.39 874.06C302.39 874.06 302.39 874.06 302.39 874.06C295.21 874.06 291.22 874.06 290.42 874.06C290.42 874.06 290.42 874.06 290.42 874.06C290.42 873.31 290.42 872.89 290.42 872.8C290.42 872.8 290.42 872.8 290.42 872.8C297.6 872.8 301.59 872.8 302.39 872.8Z" id="a1vTBlBb7x"></path><path d="M318.77 872.8C318.77 872.8 318.77 872.8 318.77 872.8C318.77 873.56 318.77 873.98 318.77 874.06C318.77 874.06 318.77 874.06 318.77 874.06C313.4 874.06 310.42 874.06 309.83 874.06C309.83 874.06 309.83 874.06 309.83 874.06C309.83 873.31 309.83 872.89 309.83 872.8C309.83 872.8 309.83 872.8 309.83 872.8C315.19 872.8 318.17 872.8 318.77 872.8Z" id="b2GKzEDjbS"></path><path d="M309.32 882.38C309.32 882.38 309.32 882.38 309.32 882.38C309.32 883.14 309.32 883.56 309.32 883.64C309.32 883.64 309.32 883.64 309.32 883.64C303.95 883.64 300.97 883.64 300.38 883.64C300.38 883.64 300.38 883.64 300.38 883.64C300.38 882.89 300.38 882.47 300.38 882.38C300.38 882.38 300.38 882.38 300.38 882.38C305.74 882.38 308.72 882.38 309.32 882.38Z" id="f1EcH6a0C6"></path><path d="M283.55 910.82C283.55 910.82 283.55 910.82 283.55 910.82C283.55 923.87 283.55 931.12 283.55 932.56C283.55 932.56 283.55 932.56 283.55 932.56C268.39 932.56 259.97 932.56 258.28 932.56C258.28 932.56 258.28 932.56 258.28 932.56C258.28 919.52 258.28 912.27 258.28 910.82C258.28 910.82 258.28 910.82 258.28 910.82C273.44 910.82 281.86 910.82 283.55 910.82Z" id="bF5FVFF4Q"></path><linearGradient id="gradienti2svvfkoAe" gradientUnits="userSpaceOnUse" x1="270.91" y1="932.56" x2="270.91" y2="910.82"><stop style="stop-color: #808080;stop-opacity: 0.25" offset="0%"></stop><stop style="stop-color: #808080;stop-opacity: 0.12" offset="54%"></stop><stop style="stop-color: #808080;stop-opacity: 0.1" offset="100%"></stop></linearGradient><path d="M283.2 911.23C283.2 911.23 283.2 911.23 283.2 911.23C283.2 923.81 283.2 930.8 283.2 932.2C283.2 932.2 283.2 932.2 283.2 932.2C268.43 932.2 260.22 932.2 258.58 932.2C258.58 932.2 258.58 932.2 258.58 932.2C258.58 919.62 258.58 912.63 258.58 911.23C258.58 911.23 258.58 911.23 258.58 911.23C273.35 911.23 281.56 911.23 283.2 911.23Z" id="i2TaCqvxbL"></path><path d="M283.2 911.23C283.2 911.23 283.2 911.23 283.2 911.23C283.2 914.04 283.2 915.6 283.2 915.91C283.2 915.91 283.2 915.91 283.2 915.91C268.43 915.91 260.22 915.91 258.58 915.91C258.58 915.91 258.58 915.91 258.58 915.91C258.58 913.11 258.58 911.55 258.58 911.23C258.58 911.23 258.58 911.23 258.58 911.23C273.35 911.23 281.56 911.23 283.2 911.23Z" id="a2nHF7vI0x"></path><path d="M283.2 911.23C283.2 911.23 283.2 911.23 283.2 911.23C283.2 914.04 283.2 915.6 283.2 915.91C283.2 915.91 283.2 915.91 283.2 915.91C268.43 915.91 260.22 915.91 258.58 915.91C258.58 915.91 258.58 915.91 258.58 915.91C258.58 913.11 258.58 911.55 258.58 911.23C258.58 911.23 258.58 911.23 258.58 911.23C273.35 911.23 281.56 911.23 283.2 911.23Z" id="f1NF5yJ6z5"></path><path d="M281.24 917.61C281.24 917.61 281.24 917.61 281.24 917.61C281.24 919.24 281.24 920.15 281.24 920.33C281.24 920.33 281.24 920.33 281.24 920.33C268.82 920.33 261.92 920.33 260.54 920.33C260.54 920.33 260.54 920.33 260.54 920.33C260.54 918.69 260.54 917.79 260.54 917.61C260.54 917.61 260.54 917.61 260.54 917.61C272.96 917.61 279.86 917.61 281.24 917.61Z" id="add2UGhlu"></path><path d="M275.65 922.39C275.65 922.39 275.65 922.39 275.65 922.39C275.65 922.94 275.65 923.25 275.65 923.31C275.65 923.31 275.65 923.31 275.65 923.31C266.58 923.31 261.55 923.31 260.54 923.31C260.54 923.31 260.54 923.31 260.54 923.31C260.54 922.76 260.54 922.45 260.54 922.39C260.54 922.39 260.54 922.39 260.54 922.39C269.6 922.39 274.64 922.39 275.65 922.39Z" id="a6BUDizhlZ"></path><path d="M270.35 923.98C270.35 923.98 270.35 923.98 270.35 923.98C270.35 924.54 270.35 924.84 270.35 924.91C270.35 924.91 270.35 924.91 270.35 924.91C264.46 924.91 261.19 924.91 260.54 924.91C260.54 924.91 260.54 924.91 260.54 924.91C260.54 924.35 260.54 924.04 260.54 923.98C260.54 923.98 260.54 923.98 260.54 923.98C266.42 923.98 269.69 923.98 270.35 923.98Z" id="gv9REYt4W"></path><path d="M273.49 925.57C273.49 925.57 273.49 925.57 273.49 925.57C273.49 926.13 273.49 926.44 273.49 926.5C273.49 926.5 273.49 926.5 273.49 926.5C265.72 926.5 261.4 926.5 260.54 926.5C260.54 926.5 260.54 926.5 260.54 926.5C260.54 925.94 260.54 925.63 260.54 925.57C260.54 925.57 260.54 925.57 260.54 925.57C268.31 925.57 272.62 925.57 273.49 925.57Z" id="a22VuMqwwK"></path><path d="M275.65 927.16C275.65 927.16 275.65 927.16 275.65 927.16C275.65 927.72 275.65 928.03 275.65 928.09C275.65 928.09 275.65 928.09 275.65 928.09C266.58 928.09 261.55 928.09 260.54 928.09C260.54 928.09 260.54 928.09 260.54 928.09C260.54 927.53 260.54 927.23 260.54 927.16C260.54 927.16 260.54 927.16 260.54 927.16C269.6 927.16 274.64 927.16 275.65 927.16Z" id="a4sCgA5by7"></path><path d="M265.59 928.76C265.59 928.76 265.59 928.76 265.59 928.76C265.59 929.32 265.59 929.62 265.59 929.69C265.59 929.69 265.59 929.69 265.59 929.69C262.56 929.69 260.88 929.69 260.54 929.69C260.54 929.69 260.54 929.69 260.54 929.69C260.54 929.13 260.54 928.82 260.54 928.76C260.54 928.76 260.54 928.76 260.54 928.76C263.57 928.76 265.26 928.76 265.59 928.76Z" id="keykf6ANR"></path><path d="M273.78 902.85C273.78 902.85 273.78 902.85 273.78 902.85C273.78 919.02 273.78 928 273.78 929.79C273.78 929.79 273.78 929.79 273.78 929.79C254.99 929.79 244.55 929.79 242.46 929.79C242.46 929.79 242.46 929.79 242.46 929.79C242.46 913.63 242.46 904.65 242.46 902.85C242.46 902.85 242.46 902.85 242.46 902.85C261.25 902.85 271.69 902.85 273.78 902.85Z" id="hZPnuf1W"></path><linearGradient id="gradienta1XJbtOyfp" gradientUnits="userSpaceOnUse" x1="258.12" y1="929.79" x2="258.12" y2="902.85"><stop style="stop-color: #808080;stop-opacity: 0.25" offset="0%"></stop><stop style="stop-color: #808080;stop-opacity: 0.12" offset="54%"></stop><stop style="stop-color: #808080;stop-opacity: 0.1" offset="100%"></stop></linearGradient><path d="M273.35 903.36C273.35 903.36 273.35 903.36 273.35 903.36C273.35 918.95 273.35 927.62 273.35 929.35C273.35 929.35 273.35 929.35 273.35 929.35C255.04 929.35 244.86 929.35 242.83 929.35C242.83 929.35 242.83 929.35 242.83 929.35C242.83 913.75 242.83 905.09 242.83 903.36C242.83 903.36 242.83 903.36 242.83 903.36C261.14 903.36 271.31 903.36 273.35 903.36Z" id="a5m4NPQDA"></path><path d="M273.35 903.36C273.35 903.36 273.35 903.36 273.35 903.36C273.35 906.83 273.35 908.77 273.35 909.15C273.35 909.15 273.35 909.15 273.35 909.15C255.04 909.15 244.86 909.15 242.83 909.15C242.83 909.15 242.83 909.15 242.83 909.15C242.83 905.68 242.83 903.74 242.83 903.36C242.83 903.36 242.83 903.36 242.83 903.36C261.14 903.36 271.31 903.36 273.35 903.36Z" id="b1EjHw7RR"></path><path d="M270.92 911.26C270.92 911.26 270.92 911.26 270.92 911.26C270.92 913.29 270.92 914.41 270.92 914.64C270.92 914.64 270.92 914.64 270.92 914.64C255.52 914.64 246.97 914.64 245.26 914.64C245.26 914.64 245.26 914.64 245.26 914.64C245.26 912.61 245.26 911.48 245.26 911.26C245.26 911.26 245.26 911.26 245.26 911.26C260.66 911.26 269.21 911.26 270.92 911.26Z" id="b2rBXmiTt5"></path><path d="M263.99 917.18C263.99 917.18 263.99 917.18 263.99 917.18C263.99 917.87 263.99 918.25 263.99 918.33C263.99 918.33 263.99 918.33 263.99 918.33C252.75 918.33 246.51 918.33 245.26 918.33C245.26 918.33 245.26 918.33 245.26 918.33C245.26 917.64 245.26 917.26 245.26 917.18C245.26 917.18 245.26 917.18 245.26 917.18C256.5 917.18 262.74 917.18 263.99 917.18Z" id="c1iQB7KQdL"></path><path d="M257.42 919.16C257.42 919.16 257.42 919.16 257.42 919.16C257.42 919.85 257.42 920.23 257.42 920.3C257.42 920.3 257.42 920.3 257.42 920.3C250.12 920.3 246.07 920.3 245.26 920.3C245.26 920.3 245.26 920.3 245.26 920.3C245.26 919.62 245.26 919.23 245.26 919.16C245.26 919.16 245.26 919.16 245.26 919.16C252.56 919.16 256.61 919.16 257.42 919.16Z" id="c5XgQFErT"></path><path d="M261.31 921.13C261.31 921.13 261.31 921.13 261.31 921.13C261.31 921.82 261.31 922.2 261.31 922.28C261.31 922.28 261.31 922.28 261.31 922.28C251.68 922.28 246.33 922.28 245.26 922.28C245.26 922.28 245.26 922.28 245.26 922.28C245.26 921.59 245.26 921.21 245.26 921.13C245.26 921.13 245.26 921.13 245.26 921.13C254.89 921.13 260.24 921.13 261.31 921.13Z" id="acUeF4YXC"></path><path d="M263.99 923.11C263.99 923.11 263.99 923.11 263.99 923.11C263.99 923.79 263.99 924.18 263.99 924.25C263.99 924.25 263.99 924.25 263.99 924.25C252.75 924.25 246.51 924.25 245.26 924.25C245.26 924.25 245.26 924.25 245.26 924.25C245.26 923.57 245.26 923.18 245.26 923.11C245.26 923.11 245.26 923.11 245.26 923.11C256.5 923.11 262.74 923.11 263.99 923.11Z" id="a5LRKlyG1"></path><path d="M251.52 925.08C251.52 925.08 251.52 925.08 251.52 925.08C251.52 925.77 251.52 926.15 251.52 926.23C251.52 926.23 251.52 926.23 251.52 926.23C247.76 926.23 245.68 926.23 245.26 926.23C245.26 926.23 245.26 926.23 245.26 926.23C245.26 925.54 245.26 925.16 245.26 925.08C245.26 925.08 245.26 925.08 245.26 925.08C249.02 925.08 251.1 925.08 251.52 925.08Z" id="e1XLn1EF5s"></path><path d="M253.89 912.41C253.89 912.41 253.89 912.41 253.89 912.41C253.89 913.02 253.89 913.36 253.89 913.42C253.89 913.42 253.89 913.42 253.89 913.42C249.51 913.42 247.08 913.42 246.6 913.42C246.6 913.42 246.6 913.42 246.6 913.42C246.6 912.81 246.6 912.47 246.6 912.41C246.6 912.41 246.6 912.41 246.6 912.41C250.97 912.41 253.41 912.41 253.89 912.41Z" id="cbvRqO84t"></path><path d="M199.76 965.55C197.43 965.55 195.54 967.53 195.54 969.97C195.54 972.42 197.43 974.4 199.76 974.4C202.1 974.4 203.99 972.42 203.99 969.97C203.99 967.53 202.1 965.55 199.76 965.55Z" id="cUqW3J2GX"></path><path d="M207.62 951.31C205.28 951.31 203.39 953.29 203.39 955.74C203.39 958.18 205.28 960.17 207.62 960.17C209.95 960.17 211.84 958.18 211.84 955.74C211.84 953.29 209.95 951.31 207.62 951.31Z" id="a5vsRNbxTO"></path></defs><g><g><g><use xlink:href="#f3n4uLd7Wt" opacity="1" fill="url(#gradienta1F5ca1OjD)"></use></g><g><use xlink:href="#g7IW0HwS9V" opacity="1" fill="url(#gradienta1tpFlJFPn)"></use><g><use xlink:href="#g7IW0HwS9V" opacity="1" fill-opacity="0" stroke="#000000" stroke-width="1" stroke-opacity="0"></use></g></g><g><use xlink:href="#b1kOZmd1FU" opacity="1" fill="#6c63ff" fill-opacity="1"></use><g><use xlink:href="#b1kOZmd1FU" opacity="1" fill-opacity="0" stroke="#000000" stroke-width="1" stroke-opacity="0"></use></g></g><g><use xlink:href="#a3gSODXnC" opacity="1" fill="#f55f44" fill-opacity="1"></use><g><use xlink:href="#a3gSODXnC" opacity="1" fill-opacity="0" stroke="#000000" stroke-width="1" stroke-opacity="0"></use></g></g><g><use xlink:href="#bw1spBhgu" opacity="1" fill="#fda57d" fill-opacity="1"></use><g><use xlink:href="#bw1spBhgu" opacity="1" fill-opacity="0" stroke="#000000" stroke-width="1" stroke-opacity="0"></use></g></g><g><use xlink:href="#cpuAjd9s2" opacity="1" fill="#000000" fill-opacity="1"></use><g><use xlink:href="#cpuAjd9s2" opacity="1" fill-opacity="0" stroke="#000000" stroke-width="1" stroke-opacity="0"></use></g></g><g><use xlink:href="#acWW5KozL" opacity="1" fill="#fda57d" fill-opacity="1"></use><g><use xlink:href="#acWW5KozL" opacity="1" fill-opacity="0" stroke="#000000" stroke-width="1" stroke-opacity="0"></use></g></g><g><use xlink:href="#i30sxwYM2t" opacity="1" fill="#f55f44" fill-opacity="1"></use><g><use xlink:href="#i30sxwYM2t" opacity="1" fill-opacity="0" stroke="#000000" stroke-width="1" stroke-opacity="0"></use></g></g><g><use xlink:href="#e2RvzRlsIK" opacity="1" fill="#f55f44" fill-opacity="1"></use><g><use xlink:href="#e2RvzRlsIK" opacity="1" fill-opacity="0" stroke="#000000" stroke-width="1" stroke-opacity="0"></use></g></g><g><use xlink:href="#bac5FN53k" opacity="1" fill="#f55f44" fill-opacity="1"></use><g><use xlink:href="#bac5FN53k" opacity="1" fill-opacity="0" stroke="#000000" stroke-width="1" stroke-opacity="0"></use></g></g><g><use xlink:href="#aytE1rzKs" opacity="1" fill="#f55f44" fill-opacity="1"></use><g><use xlink:href="#aytE1rzKs" opacity="1" fill-opacity="0" stroke="#000000" stroke-width="1" stroke-opacity="0"></use></g></g><g><use xlink:href="#c3r1dcbs1" opacity="1" fill="#f55f44" fill-opacity="1"></use><g><use xlink:href="#c3r1dcbs1" opacity="1" fill-opacity="0" stroke="#000000" stroke-width="1" stroke-opacity="0"></use></g></g><g><use xlink:href="#b5fknjxd" opacity="1" fill="#f55f44" fill-opacity="1"></use><g><use xlink:href="#b5fknjxd" opacity="1" fill-opacity="0" stroke="#000000" stroke-width="1" stroke-opacity="0"></use></g></g><g><use xlink:href="#a2RCsY0AVn" opacity="1" fill="url(#gradientacjEwjfpF)"></use><g><use xlink:href="#a2RCsY0AVn" opacity="1" fill-opacity="0" stroke="#000000" stroke-width="1" stroke-opacity="0"></use></g></g><g><use xlink:href="#b1eh6Y2vyD" opacity="1" fill="#4db6ac" fill-opacity="1"></use><g><use xlink:href="#b1eh6Y2vyD" opacity="1" fill-opacity="0" stroke="#000000" stroke-width="1" stroke-opacity="0"></use></g></g><g><use xlink:href="#b2SJWVrBuK" opacity="1" fill="#000000" fill-opacity="0"></use><g><use xlink:href="#b2SJWVrBuK" opacity="1" fill-opacity="0" stroke="#535461" stroke-width="1" stroke-opacity="1"></use></g></g><g><use xlink:href="#cafCdu2RpJ" opacity="1" fill="#6c63ff" fill-opacity="1"></use><g><use xlink:href="#cafCdu2RpJ" opacity="1" fill-opacity="0" stroke="#000000" stroke-width="1" stroke-opacity="0"></use></g></g><g><use xlink:href="#ba2hvodQy" opacity="1" fill="#000000" fill-opacity="0"></use><g><use xlink:href="#ba2hvodQy" opacity="1" fill-opacity="0" stroke="#535461" stroke-width="1" stroke-opacity="1"></use></g></g><g><use xlink:href="#ewOsLFSxU" opacity="1" fill="#000000" fill-opacity="0"></use><g><use xlink:href="#ewOsLFSxU" opacity="1" fill-opacity="0" stroke="#535461" stroke-width="1" stroke-opacity="1"></use></g></g><g><use xlink:href="#h352c2NDHa" opacity="1" fill="#000000" fill-opacity="0"></use><g><use xlink:href="#h352c2NDHa" opacity="1" fill-opacity="0" stroke="#535461" stroke-width="1" stroke-opacity="1"></use></g></g><g><use xlink:href="#d1CgZn2xd0" opacity="1" fill="#000000" fill-opacity="0"></use><g><use xlink:href="#d1CgZn2xd0" opacity="1" fill-opacity="0" stroke="#535461" stroke-width="1" stroke-opacity="1"></use></g></g><g><use xlink:href="#c3hiSk0106" opacity="1" fill="url(#gradientf3km1bVK19)"></use><g><use xlink:href="#c3hiSk0106" opacity="1" fill-opacity="0" stroke="#000000" stroke-width="1" stroke-opacity="0"></use></g></g><g><use xlink:href="#a5DaLqjTf8" opacity="1" fill="#6c63ff" fill-opacity="1"></use><g><use xlink:href="#a5DaLqjTf8" opacity="1" fill-opacity="0" stroke="#000000" stroke-width="1" stroke-opacity="0"></use></g></g><g><use xlink:href="#dZGP4N8R9" opacity="1" fill="#000000" fill-opacity="1"></use><g><use xlink:href="#dZGP4N8R9" opacity="1" fill-opacity="0" stroke="#000000" stroke-width="1" stroke-opacity="0"></use></g></g><g><use xlink:href="#a4M8BtUOpE" opacity="1" fill="#6c63ff" fill-opacity="1"></use><g><use xlink:href="#a4M8BtUOpE" opacity="1" fill-opacity="0" stroke="#000000" stroke-width="1" stroke-opacity="0"></use></g></g><g><use xlink:href="#bxxKrrMm7" opacity="1" fill="#e0e0e0" fill-opacity="1"></use><g><use xlink:href="#bxxKrrMm7" opacity="1" fill-opacity="0" stroke="#000000" stroke-width="1" stroke-opacity="0"></use></g></g><g><use xlink:href="#a23dDdSK2U" opacity="1" fill="url(#gradientb4XdVjeUQF)"></use><g><use xlink:href="#a23dDdSK2U" opacity="1" fill-opacity="0" stroke="#000000" stroke-width="1" stroke-opacity="0"></use></g></g><g><use xlink:href="#f1hZajZb9S" opacity="1" fill="#535461" fill-opacity="1"></use><g><use xlink:href="#f1hZajZb9S" opacity="1" fill-opacity="0" stroke="#000000" stroke-width="1" stroke-opacity="0"></use></g></g><g><use xlink:href="#b2n7VzK2qT" opacity="1" fill="#ffffff" fill-opacity="1"></use><g><use xlink:href="#b2n7VzK2qT" opacity="1" fill-opacity="0" stroke="#000000" stroke-width="1" stroke-opacity="0"></use></g></g><g><use xlink:href="#bdtOlRpIo" opacity="1" fill="#e0e0e0" fill-opacity="1"></use><g><use xlink:href="#bdtOlRpIo" opacity="1" fill-opacity="0" stroke="#000000" stroke-width="1" stroke-opacity="0"></use></g></g><g><use xlink:href="#b4S1GC1wHn" opacity="1" fill="#000000" fill-opacity="1"></use><g><use xlink:href="#b4S1GC1wHn" opacity="1" fill-opacity="0" stroke="#000000" stroke-width="1" stroke-opacity="0"></use></g></g><g><use xlink:href="#dsvf07JIN" opacity="1" fill="#000000" fill-opacity="1"></use><g><use xlink:href="#dsvf07JIN" opacity="1" fill-opacity="0" stroke="#000000" stroke-width="1" stroke-opacity="0"></use></g></g><g><use xlink:href="#b1u7KsleAr" opacity="1" fill="#eeeeee" fill-opacity="1"></use><g><use xlink:href="#b1u7KsleAr" opacity="1" fill-opacity="0" stroke="#000000" stroke-width="1" stroke-opacity="0"></use></g></g><g><use xlink:href="#knRT69kyA" opacity="1" fill="#535461" fill-opacity="1"></use><g><use xlink:href="#knRT69kyA" opacity="1" fill-opacity="0" stroke="#000000" stroke-width="1" stroke-opacity="0"></use></g></g><g><use xlink:href="#c3EmrjsEWS" opacity="1" fill="url(#gradienta1jGAHJM1L)"></use><g><use xlink:href="#c3EmrjsEWS" opacity="1" fill-opacity="0" stroke="#000000" stroke-width="1" stroke-opacity="0"></use></g></g><g><use xlink:href="#a5PsrB1Xq" opacity="1" fill="#f5f5f5" fill-opacity="1"></use><g><use xlink:href="#a5PsrB1Xq" opacity="1" fill-opacity="0" stroke="#000000" stroke-width="1" stroke-opacity="0"></use></g></g><g><use xlink:href="#d2nkZCwKgq" opacity="1" fill="#6c63ff" fill-opacity="1"></use><g><use xlink:href="#d2nkZCwKgq" opacity="1" fill-opacity="0" stroke="#000000" stroke-width="1" stroke-opacity="0"></use></g></g><g><use xlink:href="#ahyn5TUAQ" opacity="1" fill="#e0e0e0" fill-opacity="1"></use><g><use xlink:href="#ahyn5TUAQ" opacity="1" fill-opacity="0" stroke="#000000" stroke-width="1" stroke-opacity="0"></use></g></g><g><use xlink:href="#afTGEuQwF" opacity="1" fill="#e0e0e0" fill-opacity="1"></use><g><use xlink:href="#afTGEuQwF" opacity="1" fill-opacity="0" stroke="#000000" stroke-width="1" stroke-opacity="0"></use></g></g><g><use xlink:href="#ct8sRmxf" opacity="1" fill="#e0e0e0" fill-opacity="1"></use><g><use xlink:href="#ct8sRmxf" opacity="1" fill-opacity="0" stroke="#000000" stroke-width="1" stroke-opacity="0"></use></g></g><g><use xlink:href="#hRmUgHySa" opacity="1" fill="#e0e0e0" fill-opacity="1"></use><g><use xlink:href="#hRmUgHySa" opacity="1" fill-opacity="0" stroke="#000000" stroke-width="1" stroke-opacity="0"></use></g></g><g><use xlink:href="#b159wCnVcM" opacity="1" fill="#e0e0e0" fill-opacity="1"></use><g><use xlink:href="#b159wCnVcM" opacity="1" fill-opacity="0" stroke="#000000" stroke-width="1" stroke-opacity="0"></use></g></g><g><use xlink:href="#alSWjXjA" opacity="1" fill="#e0e0e0" fill-opacity="1"></use><g><use xlink:href="#alSWjXjA" opacity="1" fill-opacity="0" stroke="#000000" stroke-width="1" stroke-opacity="0"></use></g></g><g><use xlink:href="#eaSbpfCFg" opacity="1" fill="#e0e0e0" fill-opacity="1"></use><g><use xlink:href="#eaSbpfCFg" opacity="1" fill-opacity="0" stroke="#000000" stroke-width="1" stroke-opacity="0"></use></g></g><g><use xlink:href="#e2BbQNNFaw" opacity="1" fill="#e0e0e0" fill-opacity="1"></use><g><use xlink:href="#e2BbQNNFaw" opacity="1" fill-opacity="0" stroke="#000000" stroke-width="1" stroke-opacity="0"></use></g></g><g><use xlink:href="#b670hvJXbO" opacity="1" fill="#e0e0e0" fill-opacity="1"></use><g><use xlink:href="#b670hvJXbO" opacity="1" fill-opacity="0" stroke="#000000" stroke-width="1" stroke-opacity="0"></use></g></g><g><use xlink:href="#f1Fkmt1GiZ" opacity="1" fill="#e0e0e0" fill-opacity="1"></use><g><use xlink:href="#f1Fkmt1GiZ" opacity="1" fill-opacity="0" stroke="#000000" stroke-width="1" stroke-opacity="0"></use></g></g><g><use xlink:href="#a1EzKC2G2R" opacity="1" fill="url(#gradientd4YpBHssWW)"></use><g><use xlink:href="#a1EzKC2G2R" opacity="1" fill-opacity="0" stroke="#000000" stroke-width="1" stroke-opacity="0"></use></g></g><g><use xlink:href="#a2BkQT0jl" opacity="1" fill="#ffffff" fill-opacity="1"></use><g><use xlink:href="#a2BkQT0jl" opacity="1" fill-opacity="0" stroke="#000000" stroke-width="1" stroke-opacity="0"></use></g></g><g><use xlink:href="#b3Gn3dIHou" opacity="1" fill="#6c63ff" fill-opacity="1"></use><g><use xlink:href="#b3Gn3dIHou" opacity="1" fill-opacity="0" stroke="#000000" stroke-width="1" stroke-opacity="0"></use></g></g><g><use xlink:href="#a15SchxauB" opacity="1" fill="#e0e0e0" fill-opacity="1"></use><g><use xlink:href="#a15SchxauB" opacity="1" fill-opacity="0" stroke="#000000" stroke-width="1" stroke-opacity="0"></use></g></g><g><use xlink:href="#a3Db4avRBK" opacity="1" fill="#e0e0e0" fill-opacity="1"></use><g><use xlink:href="#a3Db4avRBK" opacity="1" fill-opacity="0" stroke="#000000" stroke-width="1" stroke-opacity="0"></use></g></g><g><use xlink:href="#avF1zgSd" opacity="1" fill="#e0e0e0" fill-opacity="1"></use><g><use xlink:href="#avF1zgSd" opacity="1" fill-opacity="0" stroke="#000000" stroke-width="1" stroke-opacity="0"></use></g></g><g><use xlink:href="#g1R83ruf10" opacity="1" fill="#e0e0e0" fill-opacity="1"></use><g><use xlink:href="#g1R83ruf10" opacity="1" fill-opacity="0" stroke="#000000" stroke-width="1" stroke-opacity="0"></use></g></g><g><use xlink:href="#a9dzJTiAq" opacity="1" fill="#e0e0e0" fill-opacity="1"></use><g><use xlink:href="#a9dzJTiAq" opacity="1" fill-opacity="0" stroke="#000000" stroke-width="1" stroke-opacity="0"></use></g></g><g><use xlink:href="#e1tbD5cVs" opacity="1" fill="#e0e0e0" fill-opacity="1"></use><g><use xlink:href="#e1tbD5cVs" opacity="1" fill-opacity="0" stroke="#000000" stroke-width="1" stroke-opacity="0"></use></g></g><g><use xlink:href="#f35msgE1sR" opacity="1" fill="#e0e0e0" fill-opacity="1"></use><g><use xlink:href="#f35msgE1sR" opacity="1" fill-opacity="0" stroke="#000000" stroke-width="1" stroke-opacity="0"></use></g></g><g><use xlink:href="#bLB9H75Um" opacity="1" fill="#e0e0e0" fill-opacity="1"></use><g><use xlink:href="#bLB9H75Um" opacity="1" fill-opacity="0" stroke="#000000" stroke-width="1" stroke-opacity="0"></use></g></g><g><use xlink:href="#a1HScRBkIZ" opacity="1" fill="#e0e0e0" fill-opacity="1"></use><g><use xlink:href="#a1HScRBkIZ" opacity="1" fill-opacity="0" stroke="#000000" stroke-width="1" stroke-opacity="0"></use></g></g><g><use xlink:href="#c5ZJx6JtMc" opacity="1" fill="#e0e0e0" fill-opacity="1"></use><g><use xlink:href="#c5ZJx6JtMc" opacity="1" fill-opacity="0" stroke="#000000" stroke-width="1" stroke-opacity="0"></use></g></g><g><use xlink:href="#b2YXEiXkb8" opacity="1" fill="url(#gradientdSIJbkopT)"></use><g><use xlink:href="#b2YXEiXkb8" opacity="1" fill-opacity="0" stroke="#000000" stroke-width="1" stroke-opacity="0"></use></g></g><g><use xlink:href="#a1GC1Pt2N8" opacity="1" fill="#f5f5f5" fill-opacity="1"></use><g><use xlink:href="#a1GC1Pt2N8" opacity="1" fill-opacity="0" stroke="#000000" stroke-width="1" stroke-opacity="0"></use></g></g><g><use xlink:href="#a2LQteqpS" opacity="1" fill="url(#gradientd11tLvqW0W)"></use><g><use xlink:href="#a2LQteqpS" opacity="1" fill-opacity="0" stroke="#000000" stroke-width="1" stroke-opacity="0"></use></g></g><g><use xlink:href="#cJp2RjaV9" opacity="1" fill="#6c63ff" fill-opacity="1"></use><g><use xlink:href="#cJp2RjaV9" opacity="1" fill-opacity="0" stroke="#000000" stroke-width="1" stroke-opacity="0"></use></g></g><g><use xlink:href="#aeyRRLrut" opacity="1" fill="#6c63ff" fill-opacity="1"></use><g><use xlink:href="#aeyRRLrut" opacity="1" fill-opacity="0" stroke="#000000" stroke-width="1" stroke-opacity="0"></use></g></g><g><use xlink:href="#a2g7Z4skv" opacity="1" fill="#6c63ff" fill-opacity="1"></use><g><use xlink:href="#a2g7Z4skv" opacity="1" fill-opacity="0" stroke="#000000" stroke-width="1" stroke-opacity="0"></use></g></g><g><use xlink:href="#fBCIj1F86" opacity="1" fill="#bdbdbd" fill-opacity="1"></use><g><use xlink:href="#fBCIj1F86" opacity="1" fill-opacity="0" stroke="#000000" stroke-width="1" stroke-opacity="0"></use></g></g><g><use xlink:href="#caJLL4h7cq" opacity="1" fill="url(#gradientbof9U1hOA)"></use><g><use xlink:href="#caJLL4h7cq" opacity="1" fill-opacity="0" stroke="#000000" stroke-width="1" stroke-opacity="0"></use></g></g><g><use xlink:href="#c3gx3PHSsD" opacity="1" fill="#ffffff" fill-opacity="1"></use><g><use xlink:href="#c3gx3PHSsD" opacity="1" fill-opacity="0" stroke="#000000" stroke-width="1" stroke-opacity="0"></use></g></g><g><use xlink:href="#d1rahSIYWZ" opacity="1" fill="url(#gradientd2dnInArrj)"></use><g><use xlink:href="#d1rahSIYWZ" opacity="1" fill-opacity="0" stroke="#000000" stroke-width="1" stroke-opacity="0"></use></g></g><g><use xlink:href="#a1hKdIPbf" opacity="1" fill="#6c63ff" fill-opacity="1"></use><g><use xlink:href="#a1hKdIPbf" opacity="1" fill-opacity="0" stroke="#000000" stroke-width="1" stroke-opacity="0"></use></g></g><g><use xlink:href="#djfqkWVlr" opacity="1" fill="#6c63ff" fill-opacity="1"></use><g><use xlink:href="#djfqkWVlr" opacity="1" fill-opacity="0" stroke="#000000" stroke-width="1" stroke-opacity="0"></use></g></g><g><use xlink:href="#azwGDRd4l" opacity="1" fill="#e0e0e0" fill-opacity="1"></use><g><use xlink:href="#azwGDRd4l" opacity="1" fill-opacity="0" stroke="#000000" stroke-width="1" stroke-opacity="0"></use></g></g><g><use xlink:href="#aF0Z7WNmi" opacity="1" fill="#e0e0e0" fill-opacity="1"></use><g><use xlink:href="#aF0Z7WNmi" opacity="1" fill-opacity="0" stroke="#000000" stroke-width="1" stroke-opacity="0"></use></g></g><g><use xlink:href="#b8eijLykMU" opacity="1" fill="#e0e0e0" fill-opacity="1"></use><g><use xlink:href="#b8eijLykMU" opacity="1" fill-opacity="0" stroke="#000000" stroke-width="1" stroke-opacity="0"></use></g></g><g><use xlink:href="#a1vTBlBb7x" opacity="1" fill="#e0e0e0" fill-opacity="1"></use><g><use xlink:href="#a1vTBlBb7x" opacity="1" fill-opacity="0" stroke="#000000" stroke-width="1" stroke-opacity="0"></use></g></g><g><use xlink:href="#b2GKzEDjbS" opacity="1" fill="#3ad29f" fill-opacity="1"></use><g><use xlink:href="#b2GKzEDjbS" opacity="1" fill-opacity="0" stroke="#000000" stroke-width="1" stroke-opacity="0"></use></g></g><g><use xlink:href="#f1EcH6a0C6" opacity="1" fill="#6c63ff" fill-opacity="1"></use><g><use xlink:href="#f1EcH6a0C6" opacity="1" fill-opacity="0" stroke="#000000" stroke-width="1" stroke-opacity="0"></use></g></g><g><use xlink:href="#bF5FVFF4Q" opacity="1" fill="url(#gradienti2svvfkoAe)"></use><g><use xlink:href="#bF5FVFF4Q" opacity="1" fill-opacity="0" stroke="#000000" stroke-width="1" stroke-opacity="0"></use></g></g><g><use xlink:href="#i2TaCqvxbL" opacity="1" fill="#f2f2f2" fill-opacity="1"></use><g><use xlink:href="#i2TaCqvxbL" opacity="1" fill-opacity="0" stroke="#000000" stroke-width="1" stroke-opacity="0"></use></g></g><g><use xlink:href="#a2nHF7vI0x" opacity="1" fill="#6c63ff" fill-opacity="1"></use><g><use xlink:href="#a2nHF7vI0x" opacity="1" fill-opacity="0" stroke="#000000" stroke-width="1" stroke-opacity="0"></use></g></g><g><use xlink:href="#f1NF5yJ6z5" opacity="1" fill="#000000" fill-opacity="1"></use><g><use xlink:href="#f1NF5yJ6z5" opacity="1" fill-opacity="0" stroke="#000000" stroke-width="1" stroke-opacity="0"></use></g></g><g><use xlink:href="#add2UGhlu" opacity="1" fill="#e0e0e0" fill-opacity="1"></use><g><use xlink:href="#add2UGhlu" opacity="1" fill-opacity="0" stroke="#000000" stroke-width="1" stroke-opacity="0"></use></g></g><g><use xlink:href="#a6BUDizhlZ" opacity="1" fill="#e0e0e0" fill-opacity="1"></use><g><use xlink:href="#a6BUDizhlZ" opacity="1" fill-opacity="0" stroke="#000000" stroke-width="1" stroke-opacity="0"></use></g></g><g><use xlink:href="#gv9REYt4W" opacity="1" fill="#e0e0e0" fill-opacity="1"></use><g><use xlink:href="#gv9REYt4W" opacity="1" fill-opacity="0" stroke="#000000" stroke-width="1" stroke-opacity="0"></use></g></g><g><use xlink:href="#a22VuMqwwK" opacity="1" fill="#e0e0e0" fill-opacity="1"></use><g><use xlink:href="#a22VuMqwwK" opacity="1" fill-opacity="0" stroke="#000000" stroke-width="1" stroke-opacity="0"></use></g></g><g><use xlink:href="#a4sCgA5by7" opacity="1" fill="#e0e0e0" fill-opacity="1"></use><g><use xlink:href="#a4sCgA5by7" opacity="1" fill-opacity="0" stroke="#000000" stroke-width="1" stroke-opacity="0"></use></g></g><g><use xlink:href="#keykf6ANR" opacity="1" fill="#e0e0e0" fill-opacity="1"></use><g><use xlink:href="#keykf6ANR" opacity="1" fill-opacity="0" stroke="#000000" stroke-width="1" stroke-opacity="0"></use></g></g><g><use xlink:href="#hZPnuf1W" opacity="1" fill="url(#gradienta1XJbtOyfp)"></use><g><use xlink:href="#hZPnuf1W" opacity="1" fill-opacity="0" stroke="#000000" stroke-width="1" stroke-opacity="0"></use></g></g><g><use xlink:href="#a5m4NPQDA" opacity="1" fill="#ffffff" fill-opacity="1"></use><g><use xlink:href="#a5m4NPQDA" opacity="1" fill-opacity="0" stroke="#000000" stroke-width="1" stroke-opacity="0"></use></g></g><g><use xlink:href="#b1EjHw7RR" opacity="1" fill="#6c63ff" fill-opacity="1"></use><g><use xlink:href="#b1EjHw7RR" opacity="1" fill-opacity="0" stroke="#000000" stroke-width="1" stroke-opacity="0"></use></g></g><g><use xlink:href="#b2rBXmiTt5" opacity="1" fill="#f5f5f5" fill-opacity="1"></use><g><use xlink:href="#b2rBXmiTt5" opacity="1" fill-opacity="0" stroke="#000000" stroke-width="1" stroke-opacity="0"></use></g></g><g><use xlink:href="#c1iQB7KQdL" opacity="1" fill="#e0e0e0" fill-opacity="1"></use><g><use xlink:href="#c1iQB7KQdL" opacity="1" fill-opacity="0" stroke="#000000" stroke-width="1" stroke-opacity="0"></use></g></g><g><use xlink:href="#c5XgQFErT" opacity="1" fill="#e0e0e0" fill-opacity="1"></use><g><use xlink:href="#c5XgQFErT" opacity="1" fill-opacity="0" stroke="#000000" stroke-width="1" stroke-opacity="0"></use></g></g><g><use xlink:href="#acUeF4YXC" opacity="1" fill="#e0e0e0" fill-opacity="1"></use><g><use xlink:href="#acUeF4YXC" opacity="1" fill-opacity="0" stroke="#000000" stroke-width="1" stroke-opacity="0"></use></g></g><g><use xlink:href="#a5LRKlyG1" opacity="1" fill="#e0e0e0" fill-opacity="1"></use><g><use xlink:href="#a5LRKlyG1" opacity="1" fill-opacity="0" stroke="#000000" stroke-width="1" stroke-opacity="0"></use></g></g><g><use xlink:href="#e1XLn1EF5s" opacity="1" fill="#e0e0e0" fill-opacity="1"></use><g><use xlink:href="#e1XLn1EF5s" opacity="1" fill-opacity="0" stroke="#000000" stroke-width="1" stroke-opacity="0"></use></g></g><g><use xlink:href="#cbvRqO84t" opacity="1" fill="#69f0ae" fill-opacity="1"></use><g><use xlink:href="#cbvRqO84t" opacity="1" fill-opacity="0" stroke="#000000" stroke-width="1" stroke-opacity="0"></use></g></g><g><use xlink:href="#cUqW3J2GX" opacity="1" fill="#535461" fill-opacity="1"></use><g><use xlink:href="#cUqW3J2GX" opacity="1" fill-opacity="0" stroke="#000000" stroke-width="1" stroke-opacity="0"></use></g></g><g><use xlink:href="#a5vsRNbxTO" opacity="1" fill="#535461" fill-opacity="1"></use><g><use xlink:href="#a5vsRNbxTO" opacity="1" fill-opacity="0" stroke="#000000" stroke-width="1" stroke-opacity="0"></use></g></g></g></g></svg>