<?xml version="1.0" encoding="UTF-8" standalone="no"?>
<!DOCTYPE svg PUBLIC "-//W3C//DTD SVG 1.1//EN" "http://www.w3.org/Graphics/SVG/1.1/DTD/svg11.dtd">
<svg version="1.1" xmlns="http://www.w3.org/2000/svg" xmlns:xlink="http://www.w3.org/1999/xlink" preserveAspectRatio="xMidYMid meet" viewBox="37.068577596477894 1713.8283336898355 1080.952380952399 1000.0000000000166" width="1080.95" height="1000"><defs><path d="M1118.02 2213.83C1118.02 2489.79 875.84 2713.83 577.54 2713.83C279.25 2713.83 37.07 2489.79 37.07 2213.83C37.07 1937.87 279.25 1713.83 577.54 1713.83C875.84 1713.83 1118.02 1937.87 1118.02 2213.83Z" id="c14p7ImB2n"></path><path d="M920.88 2359.21C1010.06 2359.21 1082.36 2431.5 1082.37 2520.68C1082.37 2520.84 1082.37 2521.68 1082.37 2523.18L759.39 2523.18C759.39 2521.68 759.39 2520.84 759.39 2520.68C759.4 2431.5 831.7 2359.21 920.88 2359.21C920.88 2359.21 920.88 2359.21 920.88 2359.21Z" id="a8VEk5aob"></path><path d="M319.92 2359.21C409.1 2359.21 481.4 2431.5 481.41 2520.68C481.41 2520.84 481.41 2521.68 481.41 2523.18L158.43 2523.18C158.43 2521.68 158.43 2520.84 158.43 2520.68C158.43 2431.49 230.74 2359.19 319.92 2359.19C319.92 2359.19 319.92 2359.2 319.92 2359.21Z" id="beUNiV9mk"></path><path d="M626.84 2078.04C626.84 2078.04 626.84 2078.04 626.84 2078.04C626.84 2107.49 626.84 2123.85 626.84 2127.12C626.84 2127.12 626.84 2127.12 626.84 2127.12C596.42 2127.12 579.52 2127.12 576.15 2127.12C576.15 2127.12 576.15 2127.12 576.15 2127.12C576.15 2097.67 576.15 2081.31 576.15 2078.04C576.15 2078.04 576.15 2078.04 576.15 2078.04C606.56 2078.04 623.46 2078.04 626.84 2078.04Z" id="bcUPJXkKp"></path><linearGradient id="gradientb5MOQEPaKG" gradientUnits="userSpaceOnUse" x1="601.49" y1="2127.11" x2="601.49" y2="2078.04"><stop style="stop-color: #808080;stop-opacity: 0.25" offset="0%"></stop><stop style="stop-color: #808080;stop-opacity: 0.12" offset="54%"></stop><stop style="stop-color: #808080;stop-opacity: 0.1" offset="100%"></stop></linearGradient><path d="M625.97 2078.88C625.97 2078.88 625.97 2078.88 625.97 2078.88C625.97 2107.32 625.97 2123.11 625.97 2126.27C625.97 2126.27 625.97 2126.27 625.97 2126.27C596.6 2126.27 580.28 2126.27 577.02 2126.27C577.02 2126.27 577.02 2126.27 577.02 2126.27C577.02 2097.84 577.02 2082.04 577.02 2078.88C577.02 2078.88 577.02 2078.88 577.02 2078.88C606.39 2078.88 622.71 2078.88 625.97 2078.88Z" id="dFUJNiPt"></path><path d="M696.08 2120.34C696.08 2120.34 696.08 2120.34 696.08 2120.34C696.08 2149.8 696.08 2166.16 696.08 2169.43C696.08 2169.43 696.08 2169.43 696.08 2169.43C665.66 2169.43 648.76 2169.43 645.38 2169.43C645.38 2169.43 645.38 2169.43 645.38 2169.43C645.38 2139.98 645.38 2123.62 645.38 2120.34C645.38 2120.34 645.38 2120.34 645.38 2120.34C675.8 2120.34 692.7 2120.34 696.08 2120.34Z" id="aLOkih7d6"></path><linearGradient id="gradientaH6q26wN2" gradientUnits="userSpaceOnUse" x1="670.73" y1="2169.43" x2="670.73" y2="2120.34"><stop style="stop-color: #808080;stop-opacity: 0.25" offset="0%"></stop><stop style="stop-color: #808080;stop-opacity: 0.12" offset="54%"></stop><stop style="stop-color: #808080;stop-opacity: 0.1" offset="100%"></stop></linearGradient><path d="M695.21 2121.19C695.21 2121.19 695.21 2121.19 695.21 2121.19C695.21 2149.63 695.21 2165.43 695.21 2168.59C695.21 2168.59 695.21 2168.59 695.21 2168.59C665.83 2168.59 649.51 2168.59 646.25 2168.59C646.25 2168.59 646.25 2168.59 646.25 2168.59C646.25 2140.15 646.25 2124.35 646.25 2121.19C646.25 2121.19 646.25 2121.19 646.25 2121.19C675.62 2121.19 691.94 2121.19 695.21 2121.19Z" id="ahLcAI4Gh"></path><path d="M773.01 2066.5C773.01 2066.5 773.01 2066.5 773.01 2066.5C773.01 2095.95 773.01 2112.31 773.01 2115.59C773.01 2115.59 773.01 2115.59 773.01 2115.59C742.59 2115.59 725.69 2115.59 722.31 2115.59C722.31 2115.59 722.31 2115.59 722.31 2115.59C722.31 2086.13 722.31 2069.77 722.31 2066.5C722.31 2066.5 722.31 2066.5 722.31 2066.5C752.73 2066.5 769.63 2066.5 773.01 2066.5Z" id="a1nd4Ra9VJ"></path><linearGradient id="gradientb5jN3vZKQ" gradientUnits="userSpaceOnUse" x1="747.66" y1="2115.58" x2="747.66" y2="2066.5"><stop style="stop-color: #808080;stop-opacity: 0.25" offset="0%"></stop><stop style="stop-color: #808080;stop-opacity: 0.12" offset="54%"></stop><stop style="stop-color: #808080;stop-opacity: 0.1" offset="100%"></stop></linearGradient><path d="M772.14 2067.34C772.14 2067.34 772.14 2067.34 772.14 2067.34C772.14 2095.78 772.14 2111.58 772.14 2114.74C772.14 2114.74 772.14 2114.74 772.14 2114.74C742.77 2114.74 726.45 2114.74 723.18 2114.74C723.18 2114.74 723.18 2114.74 723.18 2114.74C723.18 2086.3 723.18 2070.5 723.18 2067.34C723.18 2067.34 723.18 2067.34 723.18 2067.34C752.56 2067.34 768.88 2067.34 772.14 2067.34Z" id="geEg381iW"></path><path d="M695.01 1985.92C695.01 1985.92 695.01 1985.92 695.01 1985.92C695.01 2015.38 695.01 2031.74 695.01 2035.01C695.01 2035.01 695.01 2035.01 695.01 2035.01C664.59 2035.01 647.69 2035.01 644.31 2035.01C644.31 2035.01 644.31 2035.01 644.31 2035.01C644.31 2005.56 644.31 1989.2 644.31 1985.92C644.31 1985.92 644.31 1985.92 644.31 1985.92C674.73 1985.92 691.63 1985.92 695.01 1985.92Z" id="a1J5VK7CPm"></path><linearGradient id="gradiente99TDXNupG" gradientUnits="userSpaceOnUse" x1="669.66" y1="2035.01" x2="669.66" y2="1985.92"><stop style="stop-color: #808080;stop-opacity: 0.25" offset="0%"></stop><stop style="stop-color: #808080;stop-opacity: 0.12" offset="54%"></stop><stop style="stop-color: #808080;stop-opacity: 0.1" offset="100%"></stop></linearGradient><path d="M694.15 1986.77C694.15 1986.77 694.15 1986.77 694.15 1986.77C694.15 2015.21 694.15 2031.01 694.15 2034.17C694.15 2034.17 694.15 2034.17 694.15 2034.17C664.77 2034.17 648.45 2034.17 645.19 2034.17C645.19 2034.17 645.19 2034.17 645.19 2034.17C645.19 2005.73 645.19 1989.93 645.19 1986.77C645.19 1986.77 645.19 1986.77 645.19 1986.77C674.56 1986.77 690.88 1986.77 694.15 1986.77Z" id="b3smkiTRtN"></path><path d="M618.29 1985.71C618.29 1985.71 618.29 1985.71 618.29 1985.71C618.29 2015.17 618.29 2031.53 618.29 2034.8C618.29 2034.8 618.29 2034.8 618.29 2034.8C587.87 2034.8 570.98 2034.8 567.6 2034.8C567.6 2034.8 567.6 2034.8 567.6 2034.8C567.6 2005.35 567.6 1988.99 567.6 1985.71C567.6 1985.71 567.6 1985.71 567.6 1985.71C598.01 1985.71 614.91 1985.71 618.29 1985.71Z" id="a2hBYIuSaK"></path><linearGradient id="gradientc5mtGfXjqZ" gradientUnits="userSpaceOnUse" x1="592.94" y1="2034.8" x2="592.94" y2="1985.71"><stop style="stop-color: #808080;stop-opacity: 0.25" offset="0%"></stop><stop style="stop-color: #808080;stop-opacity: 0.12" offset="54%"></stop><stop style="stop-color: #808080;stop-opacity: 0.1" offset="100%"></stop></linearGradient><path d="M617.42 1986.56C617.42 1986.56 617.42 1986.56 617.42 1986.56C617.42 2015 617.42 2030.8 617.42 2033.96C617.42 2033.96 617.42 2033.96 617.42 2033.96C588.05 2033.96 571.73 2033.96 568.47 2033.96C568.47 2033.96 568.47 2033.96 568.47 2033.96C568.47 2005.52 568.47 1989.72 568.47 1986.56C568.47 1986.56 568.47 1986.56 568.47 1986.56C597.84 1986.56 614.16 1986.56 617.42 1986.56Z" id="ahxTyAo8O"></path><path d="M549.05 2028.03C549.05 2028.03 549.05 2028.03 549.05 2028.03C549.05 2057.48 549.05 2073.85 549.05 2077.12C549.05 2077.12 549.05 2077.12 549.05 2077.12C518.63 2077.12 501.73 2077.12 498.35 2077.12C498.35 2077.12 498.35 2077.12 498.35 2077.12C498.35 2047.67 498.35 2031.3 498.35 2028.03C498.35 2028.03 498.35 2028.03 498.35 2028.03C528.77 2028.03 545.67 2028.03 549.05 2028.03Z" id="bUTAL6yqy"></path><linearGradient id="gradientdWyVpOYjN" gradientUnits="userSpaceOnUse" x1="523.7" y1="2077.11" x2="523.7" y2="2028.03"><stop style="stop-color: #808080;stop-opacity: 0.25" offset="0%"></stop><stop style="stop-color: #808080;stop-opacity: 0.12" offset="54%"></stop><stop style="stop-color: #808080;stop-opacity: 0.1" offset="100%"></stop></linearGradient><path d="M548.19 2028.87C548.19 2028.87 548.19 2028.87 548.19 2028.87C548.19 2057.31 548.19 2073.11 548.19 2076.27C548.19 2076.27 548.19 2076.27 548.19 2076.27C518.81 2076.27 502.49 2076.27 499.23 2076.27C499.23 2076.27 499.23 2076.27 499.23 2076.27C499.23 2047.83 499.23 2032.03 499.23 2028.87C499.23 2028.87 499.23 2028.87 499.23 2028.87C528.6 2028.87 544.92 2028.87 548.19 2028.87Z" id="c31UHDXUy"></path><path d="M465.41 2511.04C450.51 2502.95 446.97 2491.47 446.87 2482.61C446.89 2481.11 447 2479.61 447.2 2478.13C449.18 2470.29 465.01 2407.57 466.99 2399.73C466.99 2399.73 489.09 2353.95 458.31 2340.54C434.63 2330.21 377.68 2314.21 352.75 2307.46C358.39 2301.64 362.03 2297.12 362.03 2297.12C361.99 2297.02 361.76 2296.5 361.36 2295.57C361.76 2295.08 361.99 2294.81 362.03 2294.75C362.03 2294.75 359.11 2288.09 355.09 2278.16C356.42 2276.98 367.01 2267.52 368.34 2266.33C368.34 2266.33 367.83 2266.24 367 2266.04C367.05 2265.99 367.49 2265.59 367.55 2265.54C367.55 2265.54 367.01 2265.44 366.12 2265.23C375.38 2257.15 396.31 2237.39 385.7 2232.4C375.47 2227.58 356.05 2242.97 347.41 2250.54C346.7 2250.81 345.84 2251.13 344.84 2251.48C343.52 2247.81 342.23 2244.09 340.99 2240.39C342.7 2237.69 356.36 2216.14 358.07 2213.45C358.12 2212.94 358.15 2212.45 358.15 2211.98C363.42 2204.58 378.79 2180.98 367.54 2172.4C355.17 2162.94 342.8 2193.06 340.94 2197.82C339.82 2197.68 339.12 2197.66 339.12 2197.66C337.88 2200.14 334.7 2201.97 331.94 2203.15C331.94 2202.91 331.94 2202.66 331.94 2202.43C331.94 2202.2 331.94 2201.81 331.99 2201.51C332.25 2198.5 332.36 2195.47 332.31 2192.45C332.31 2190.66 332.31 2188.87 332.17 2187.08C331.83 2182.25 331.48 2176.08 331.43 2170.7C331.43 2165.85 331.85 2162.08 332.83 2161.35C332.76 2161.27 332.16 2160.6 332.08 2160.51C332.17 2159.94 332.43 2159.4 332.83 2158.98C332.83 2158.98 332.03 2158.07 330.73 2156.64C333.02 2150.06 336.57 2140.43 340.42 2132.12C340.5 2132.11 341.16 2131.97 341.24 2131.95C341.53 2131.35 341.82 2130.75 342.11 2130.17C361.95 2125.05 373.87 2104.81 368.74 2084.97C366.83 2077.58 362.68 2070.96 356.87 2066.01C357.3 2065.79 357.69 2065.52 358.05 2065.2C360.05 2063.33 360.2 2060.2 360.18 2057.48C360.18 2047.23 360.09 2039.02 360.08 2036.97C360.08 2034.32 360.08 2031.57 358.91 2029.17C358.46 2028.21 357.81 2027.35 357 2026.65C355.78 2025.07 353.83 2024.24 351.85 2024.44C349.45 2024.83 347.8 2026.96 346.17 2028.77C337.43 2038.2 323.99 2041.67 311.77 2037.65C308.77 2036.65 305.9 2035.13 302.77 2034.78C299.64 2034.43 296.02 2035.61 294.78 2038.51C293.36 2041.74 295.36 2045.63 294.24 2048.98C292.08 2055.48 281.13 2054.3 277.9 2060.34C275.19 2065.41 279.8 2071.05 282.9 2075.88C288.71 2084.88 289.75 2096 292.77 2106.26C294.01 2110.49 297.33 2119.71 302.02 2124.03C302.45 2124.49 302.91 2124.93 303.39 2125.32C302.53 2128.69 301.47 2131.99 300.22 2135.23C297.66 2134.62 294.97 2134.91 292.6 2136.05C285.5 2140 249.97 2158.94 247.6 2208.67C247.44 2212.08 247.37 2215.72 247.39 2219.54C247.15 2271.1 263.39 2358.65 263.39 2358.65C263.39 2358.65 265.97 2356.07 270.16 2352.54C276.59 2361.83 297.15 2375.27 362.05 2376.81C368.6 2377.05 421 2378.97 427.55 2379.21C427.55 2379.21 434.65 2383.95 425.18 2395C418.97 2402.24 418.18 2418.99 418.39 2429.67C418.52 2436.91 417.77 2444.14 416.15 2451.2C414.45 2458.59 412.32 2467.66 410.85 2473.2C410.07 2472.71 409.32 2472.19 408.6 2471.62C407.97 2475.78 404.81 2496.56 399.13 2533.98L399.24 2533.98C399.17 2534.43 399.14 2534.68 399.13 2534.74C399.13 2534.74 468.59 2554.46 489.12 2540.26C494.63 2536.46 496.49 2533.21 496.28 2530.51C496.84 2522.56 479.64 2518.93 479.64 2518.93C476.8 2517.35 466.84 2511.83 465.41 2511.04Z" id="f7zk6Qeyf"></path><linearGradient id="gradienth1FCvGWyll" gradientUnits="userSpaceOnUse" x1="371.83" y1="2545.38" x2="371.83" y2="2024.41"><stop style="stop-color: #808080;stop-opacity: 0.25" offset="0%"></stop><stop style="stop-color: #808080;stop-opacity: 0.12" offset="54%"></stop><stop style="stop-color: #808080;stop-opacity: 0.1" offset="100%"></stop></linearGradient><path d="M292.61 2153.5C280.35 2160.4 329.42 2168.05 329.42 2168.05C329.42 2168.05 343.21 2124.38 352.42 2120.55C361.63 2116.72 308.69 2112.9 308.69 2112.9C305.48 2121.02 304.86 2146.6 292.61 2153.5Z" id="k2oxKWyDTT"></path><path d="M341.63 2201C341.63 2201 354.63 2165.76 367.68 2175.72C367.68 2175.72 356.95 2216.33 356.95 2216.33C353.89 2213.26 344.7 2204.06 341.63 2201Z" id="abcN74mOZ"></path><path d="M270.43 2341.97C270.43 2341.97 265.07 2371.85 362.36 2374.15C368.72 2374.38 419.59 2376.22 425.95 2376.45C425.95 2376.45 432.85 2381.05 423.65 2391.77C417.65 2398.76 416.86 2415.06 417.06 2425.42C417.19 2432.44 416.46 2439.46 414.89 2446.3C412.52 2456.61 409.27 2470.3 408.33 2472.21C406.8 2475.27 444.32 2475.27 444.32 2475.27C446.32 2467.38 462.25 2404.25 464.24 2396.36C464.24 2396.36 485.69 2351.92 455.81 2338.9C455.81 2338.9 341.66 2303.66 341.66 2303.66C327.41 2311.32 284.67 2334.31 270.43 2341.97Z" id="j11d2LSWWi"></path><path d="M446.95 2463.97C446.95 2463.97 435.87 2489.84 462.68 2504.39C464.06 2505.15 475.09 2511.28 476.47 2512.05C476.47 2512.05 505.58 2518.18 485.66 2531.97C485.66 2531.97 398.33 2526.61 398.33 2526.61C399.25 2520.55 406.6 2472.13 407.52 2466.08C407.52 2466.08 420.55 2476.81 432.81 2469.91C435.64 2468.72 443.49 2460.32 446.95 2463.97Z" id="bbfmNYcKS"></path><path d="M446.95 2464.74C446.95 2464.74 435.87 2490.61 462.68 2505.16C464.06 2505.92 475.09 2512.05 476.47 2512.82C476.47 2512.82 505.58 2518.95 485.66 2532.74C485.66 2532.74 398.33 2527.38 398.33 2527.38C399.25 2521.32 406.6 2472.9 407.52 2466.85C407.52 2466.85 420.55 2477.57 432.81 2470.68C435.64 2469.49 443.49 2461.09 446.95 2464.74Z" id="i46o2CuscI"></path><path d="M328.61 2207.13C328.61 2207.13 337.8 2204.83 340.1 2200.23C340.1 2200.23 360.02 2201 358.49 2215.55C357.16 2217.64 350.52 2228.11 338.57 2246.96C333.26 2225.71 329.94 2212.44 328.61 2207.13Z" id="c2huPRhDiU"></path><path d="M328.61 2207.13C328.61 2207.13 337.8 2204.83 340.1 2200.23C340.1 2200.23 360.02 2201 358.49 2215.55C357.16 2217.64 350.52 2228.11 338.57 2246.96C333.26 2225.71 329.94 2212.44 328.61 2207.13Z" id="b1TU2gyce"></path><path d="M294.9 2142.77C288 2146.6 253.53 2164.99 251.23 2213.22C248.93 2261.44 266.55 2356.49 266.55 2356.49C266.55 2356.49 292.6 2330.44 313.28 2331.21C333.97 2331.98 362.28 2296.73 362.28 2296.73C362.28 2296.73 331.28 2226.03 333.11 2203.94C333.47 2200.05 333.53 2196.13 333.29 2192.23C332.6 2182.32 331.84 2166.53 333.93 2164.96C333.97 2164.99 317.12 2145.84 313.28 2146.6C309.61 2145.84 301.79 2138.94 294.9 2142.77Z" id="b1YbJHZjpR"></path><path d="M294.9 2140.47C294.9 2140.47 253.53 2162.69 251.23 2210.96C248.93 2259.22 266.56 2354.21 266.56 2354.21C266.56 2354.21 292.61 2328.16 313.29 2328.93C333.98 2329.7 362.29 2294.45 362.29 2294.45C362.29 2294.45 331.29 2223.75 333.12 2201.66C333.48 2197.77 333.54 2193.85 333.3 2189.95C332.61 2180.04 331.85 2164.25 333.94 2162.68C333.97 2162.69 317.12 2143.54 313.28 2144.3C309.61 2143.54 301.79 2136.64 294.9 2140.47Z" id="acHeAVElK"></path><path d="M343.93 2255.4C343.93 2255.4 372.28 2227.82 385.3 2233.95C385.3 2233.95 362.3 2269.18 362.3 2269.18C358.63 2266.43 347.61 2258.15 343.93 2255.4Z" id="dmtJgEwl"></path><path d="M291.08 2286.04C291.08 2286.04 313.29 2312.09 347 2286.04C349.14 2284.13 366.28 2268.8 368.42 2266.88C368.42 2266.88 347.73 2263.05 350.8 2251.57C350.8 2251.57 323.22 2263.05 318.62 2253.87C314.02 2244.68 325.52 2202.54 325.52 2202.54C325.52 2202.54 319.39 2165 301.77 2171.89C284.16 2178.78 276.52 2204.83 276.52 2204.83C279.43 2221.07 285.71 2281.44 291.08 2286.04Z" id="c2Uq0q4Tuf"></path><path d="M290.31 2285.28C290.31 2285.28 312.52 2311.33 346.23 2285.28C348.38 2283.37 365.54 2268.05 367.68 2266.13C367.68 2266.13 346.99 2262.3 350.06 2250.82C350.06 2250.82 322.48 2262.3 317.88 2253.12C313.28 2243.93 324.78 2201.79 324.78 2201.79C324.78 2201.79 318.65 2164.22 301.03 2171.12C283.42 2178.02 275.75 2204.07 275.75 2204.07C278.66 2220.31 284.94 2280.68 290.31 2285.28Z" id="c2KSovkIsv"></path><path d="M308.31 2121.7C314.91 2129.22 323.18 2137.41 333.98 2137.41C336.73 2137.41 339.47 2137.1 342.15 2136.47C345.61 2129.27 349.25 2123.39 352.37 2122.09C361.55 2118.22 308.69 2114.43 308.69 2114.43C308.62 2115.88 309.58 2115.58 308.31 2121.7Z" id="b2KUC3KJly"></path><path d="M333.97 2063.87C314.09 2063.87 297.96 2079.99 297.96 2099.88C297.96 2119.76 314.09 2135.88 333.97 2135.88C353.86 2135.88 369.98 2119.76 369.98 2099.88C369.98 2079.99 353.86 2063.87 333.97 2063.87Z" id="a2rcipdmDO"></path><path d="M317.29 2108.28C316.29 2106.98 314.62 2106.28 313.45 2105.12C309.37 2101 312.96 2094.02 317.15 2090.01C326.73 2080.9 339.02 2075.15 352.15 2073.64C354.37 2073.39 356.78 2073.19 358.42 2071.64C360.42 2069.82 360.5 2066.82 360.49 2064.15C360.48 2062.16 360.4 2046.24 360.39 2044.25C360.39 2041.68 360.39 2039.01 359.26 2036.68C358.13 2034.35 355.72 2032.45 353.18 2032.86C350.85 2033.24 349.25 2035.31 347.67 2037.07C339.18 2046.22 326.14 2049.59 314.28 2045.69C311.38 2044.69 308.58 2043.24 305.53 2042.91C302.48 2042.58 298.97 2043.72 297.73 2046.53C296.36 2049.67 298.29 2053.44 297.21 2056.69C295.12 2063 284.49 2061.85 281.36 2067.69C278.73 2072.61 283.2 2078.09 286.23 2082.78C291.87 2091.5 292.88 2102.31 295.81 2112.27C297.35 2117.55 302.26 2130.89 309.04 2131.74C317.09 2132.8 316.72 2122.33 317.97 2116.43C318.56 2113.68 319.05 2110.49 317.29 2108.28Z" id="alpc1XvXm"></path><path d="M316.53 2107.51C315.53 2106.21 313.86 2105.51 312.69 2104.35C308.61 2100.23 312.2 2093.23 316.42 2089.23C326 2080.12 338.29 2074.37 351.42 2072.86C353.64 2072.61 356.05 2072.41 357.69 2070.86C359.69 2069.04 359.77 2066.04 359.76 2063.37C359.75 2061.38 359.67 2045.46 359.66 2043.47C359.66 2040.9 359.66 2038.23 358.53 2035.9C357.4 2033.57 354.99 2031.67 352.45 2032.08C350.12 2032.46 348.52 2034.53 346.94 2036.29C338.45 2045.44 325.41 2048.81 313.55 2044.91C310.65 2043.91 307.85 2042.46 304.8 2042.13C301.75 2041.8 298.24 2042.94 297 2045.75C295.63 2048.89 297.56 2052.66 296.49 2055.91C294.39 2062.22 283.76 2061.07 280.63 2066.91C278 2071.83 282.47 2077.31 285.5 2082C291.14 2090.72 292.15 2101.53 295.08 2111.49C296.62 2116.77 301.53 2130.11 308.31 2130.96C316.32 2132.03 315.95 2121.56 317.21 2115.67C317.8 2112.91 318.29 2109.72 316.53 2107.51Z" id="dnL33KJ2M"></path><path d="M395.31 2135.03C395.31 2135.03 395.31 2135.03 395.31 2135.03C401.3 2162.83 404.62 2178.27 405.29 2181.36C405.29 2181.36 405.29 2181.36 405.29 2181.36C376.57 2187.54 360.62 2190.98 357.43 2191.66C357.43 2191.66 357.43 2191.66 357.43 2191.66C351.44 2163.86 348.12 2148.42 347.45 2145.33C347.45 2145.33 347.45 2145.33 347.45 2145.33C376.17 2139.15 392.12 2135.71 395.31 2135.03Z" id="b1KmcO4WmC"></path><path d="M971.24 2036.83L971.97 2036.89L972.7 2036.98L973.42 2037.09L974.13 2037.23L974.84 2037.39L975.54 2037.58L976.24 2037.78L976.93 2038.01L977.61 2038.26L978.28 2038.53L978.94 2038.82L979.6 2039.13L980.25 2039.47L980.89 2039.82L981.52 2040.18L982.14 2040.57L982.75 2040.97L983.35 2041.39L983.94 2041.83L984.53 2042.28L985.1 2042.75L985.66 2043.23L986.21 2043.73L986.76 2044.24L987.29 2044.76L987.81 2045.3L988.31 2045.84L988.81 2046.4L989.29 2046.97L989.77 2047.56L990.23 2048.15L990.67 2048.75L991.11 2049.36L991.53 2049.97L991.94 2050.6L992.33 2051.23L992.71 2051.87L993.08 2052.52L993.44 2053.17L993.78 2053.83L994.07 2054.43L994.36 2055.03L994.63 2055.64L994.9 2056.24L995.16 2056.85L995.41 2057.47L995.65 2058.08L995.88 2058.7L996.1 2059.32L996.31 2059.94L996.51 2060.57L996.71 2061.2L996.9 2061.83L997.08 2062.46L997.25 2063.09L997.41 2063.73L997.56 2064.37L997.71 2065.01L997.85 2065.65L997.98 2066.3L998.1 2066.94L998.22 2067.59L998.33 2068.24L998.43 2068.89L998.52 2069.54L998.61 2070.2L998.69 2070.86L998.77 2071.51L998.83 2072.17L998.9 2072.83L998.95 2073.49L999 2074.16L999.04 2074.82L999.08 2075.49L999.11 2076.15L999.13 2076.82L999.15 2077.49L999.16 2078.16L999.17 2078.83L999.17 2079.5L999.18 2080.14L999.18 2080.79L999.18 2081.43L999.18 2082.08L999.16 2082.73L999.15 2083.38L999.13 2084.02L999.11 2084.67L999.08 2085.32L999.05 2085.97L999.01 2086.62L998.97 2087.27L998.93 2087.92L998.88 2088.57L998.83 2089.22L998.78 2089.87L998.72 2090.52L998.66 2091.17L998.6 2091.82L998.53 2092.47L998.46 2093.12L998.39 2093.77L998.32 2094.42L998.24 2095.07L998.16 2095.72L998.08 2096.36L998 2097.01L997.91 2097.66L997.83 2098.3L997.74 2098.95L997.65 2099.59L997.55 2100.24L997.46 2100.88L997.36 2101.52L997.27 2102.17L997.17 2102.81L997.07 2103.44L996.97 2104.08L996.87 2104.72L996.77 2105.36L996.64 2106.12L996.52 2106.88L996.39 2107.65L996.27 2108.42L996.14 2109.19L996.02 2109.95L995.9 2110.72L995.77 2111.49L995.65 2112.27L995.53 2113.04L995.41 2113.81L995.29 2114.58L995.18 2115.36L995.06 2116.13L994.95 2116.9L994.84 2117.68L994.73 2118.45L994.62 2119.23L994.52 2120L994.42 2120.78L994.32 2121.56L994.23 2122.33L994.14 2123.11L994.05 2123.88L993.97 2124.66L993.89 2125.44L993.82 2126.21L993.75 2126.99L993.68 2127.76L993.62 2128.54L993.57 2129.31L993.52 2130.09L993.47 2130.86L993.43 2131.63L993.4 2132.41L993.37 2133.18L993.34 2133.95L993.33 2134.72L993.32 2135.49L993.32 2136.26L993.32 2136.74L993.33 2137.21L993.34 2137.68L993.35 2138.16L993.37 2138.63L993.39 2139.1L993.42 2139.57L993.44 2140.05L993.48 2140.52L993.51 2140.99L993.55 2141.46L993.6 2141.93L993.65 2142.4L993.7 2142.87L993.75 2143.34L993.81 2143.81L993.87 2144.28L993.94 2144.74L994.01 2145.21L994.08 2145.68L994.16 2146.14L994.24 2146.61L994.32 2147.07L994.41 2147.54L994.5 2148L994.6 2148.46L994.7 2148.92L994.8 2149.38L994.91 2149.85L995.02 2150.3L995.13 2150.76L995.25 2151.22L995.37 2151.68L995.49 2152.13L995.62 2152.59L995.75 2153.04L995.89 2153.5L996.03 2153.95L996.17 2154.4L996.32 2154.85L996.42 2155.16L996.54 2155.47L996.65 2155.78L996.76 2156.09L996.88 2156.4L997 2156.71L997.11 2157.01L997.23 2157.32L997.35 2157.63L997.48 2157.93L997.6 2158.24L997.72 2158.54L997.84 2158.85L997.97 2159.16L998.09 2159.46L998.21 2159.77L998.33 2160.07L998.46 2160.38L998.58 2160.69L998.7 2160.99L998.82 2161.3L998.94 2161.61L999.06 2161.91L999.17 2162.22L999.29 2162.53L999.4 2162.84L999.52 2163.14L999.63 2163.45L999.74 2163.76L999.84 2164.07L999.95 2164.38L1000.05 2164.7L1000.15 2165.01L1000.24 2165.32L1000.34 2165.64L1000.43 2165.95L1000.51 2166.27L1000.6 2166.58L1000.68 2166.9L1000.75 2167.22L1000.81 2167.5L1000.87 2167.77L1000.93 2168.05L1000.98 2168.33L1001.04 2168.6L1001.09 2168.88L1001.14 2169.16L1001.19 2169.43L1001.23 2169.71L1001.28 2169.99L1001.32 2170.27L1001.36 2170.55L1001.4 2170.83L1001.44 2171.1L1001.48 2171.38L1001.51 2171.66L1001.54 2171.94L1001.57 2172.22L1001.6 2172.5L1001.63 2172.78L1001.66 2173.06L1001.68 2173.34L1001.7 2173.62L1001.72 2173.91L1001.74 2174.19L1001.76 2174.47L1001.77 2174.75L1001.79 2175.03L1001.8 2175.31L1001.81 2175.59L1001.82 2175.87L1001.82 2176.16L1001.83 2176.44L1001.83 2176.72L1001.83 2177L1001.83 2177.28L1001.83 2177.56L1001.83 2177.85L1001.82 2178.13L1001.81 2178.41L1001.81 2178.53L1001.81 2178.65L1001.81 2178.77L1001.81 2178.89L1001.81 2179.01L1001.81 2179.13L1001.81 2179.25L1001.81 2179.36L1001.8 2179.48L1001.8 2179.6L1001.8 2179.72L1001.8 2179.84L1001.79 2179.96L1001.79 2180.08L1001.79 2180.2L1001.79 2180.32L1001.78 2180.44L1001.78 2180.56L1001.78 2180.68L1001.77 2180.91L1001.77 2181.03L1001.77 2181.15L1001.76 2181.27L1001.76 2181.39L1001.76 2181.51L1001.75 2181.63L1001.75 2181.75L1001.75 2181.87L1001.75 2181.99L1001.75 2182.11L1001.74 2182.23L1001.74 2182.35L1001.74 2182.46L1001.74 2182.58L1001.74 2182.7L1001.74 2182.82L1001.74 2182.94L1001.73 2183.06L1001.73 2183.18L1001.68 2184.86L1001.62 2186.55L1001.56 2188.23L1001.48 2189.91L1001.41 2191.6L1001.32 2193.28L1001.24 2194.96L1001.14 2196.64L1001.04 2198.32L1000.94 2200.01L1000.83 2201.69L1000.71 2203.37L1000.59 2205.05L1000.46 2206.72L1000.33 2208.4L1000.19 2210.08L1000.04 2211.76L999.89 2213.44L999.74 2215.11L999.57 2216.79L999.41 2218.46L999.23 2220.14L999.06 2221.81L998.87 2223.49L998.68 2225.16L998.49 2226.83L998.28 2228.51L998.08 2230.18L997.86 2231.85L997.65 2233.52L997.42 2235.19L997.19 2236.85L996.96 2238.52L996.72 2240.19L996.47 2241.86L996.22 2243.52L995.96 2245.19L995.7 2246.85L995.43 2248.51L995.16 2250.18L994.64 2250.1L994.14 2250.02L993.64 2249.91L993.15 2249.79L992.66 2249.66L992.18 2249.51L991.7 2249.35L991.23 2249.18L990.77 2248.99L990.31 2248.78L989.85 2248.57L989.41 2248.34L988.96 2248.1L988.53 2247.84L988.1 2247.58L987.68 2247.3L987.26 2247.02L986.85 2246.72L986.44 2246.41L986.05 2246.09L985.65 2245.76L985.27 2245.42L984.89 2245.08L984.52 2244.72L984.15 2244.35L983.79 2243.98L983.44 2243.6L983.09 2243.21L982.75 2242.82L982.42 2242.41L982.09 2242L981.77 2241.59L981.46 2241.16L981.15 2240.74L980.85 2240.3L980.56 2239.86L980.27 2239.42L979.99 2238.97L979.72 2238.52L979.46 2238.07L979.33 2238.78L979.2 2239.49L979.08 2240.2L978.96 2240.91L978.84 2241.62L978.73 2242.33L978.62 2243.04L978.51 2243.75L978.41 2244.47L978.31 2245.18L978.21 2245.89L978.12 2246.61L978.03 2247.32L977.94 2248.04L977.86 2248.75L977.78 2249.47L977.7 2250.18L977.63 2250.9L977.56 2251.62L977.49 2252.33L977.43 2253.05L977.37 2253.77L977.31 2254.49L977.26 2255.21L977.21 2255.92L977.16 2256.64L977.12 2257.36L977.08 2258.08L977.04 2258.8L977.01 2259.52L976.98 2260.24L976.95 2260.96L976.93 2261.68L976.91 2262.4L976.9 2263.12L976.88 2263.84L976.87 2264.56L976.87 2265.28L976.87 2266L976.87 2266.72L976.87 2267.76L976.89 2268.8L976.9 2269.83L976.92 2270.87L976.95 2271.9L976.98 2272.93L977.02 2273.97L977.06 2275L977.1 2276.04L977.16 2277.07L977.21 2278.1L977.27 2279.14L977.34 2280.17L977.41 2281.2L977.48 2282.23L977.56 2283.26L977.65 2284.29L977.74 2285.33L977.84 2286.36L977.94 2287.38L978.04 2288.41L978.15 2289.44L978.26 2290.47L978.38 2291.5L978.51 2292.53L978.64 2293.55L978.77 2294.58L978.91 2295.6L979.05 2296.63L979.2 2297.65L979.36 2298.67L979.51 2299.7L979.68 2300.72L979.85 2301.74L980.02 2302.76L980.2 2303.78L980.38 2304.8L980.57 2305.82L980.76 2306.83L980.96 2307.85L980.68 2307.71L980.69 2307.78L980.7 2307.84L980.72 2307.9L980.73 2307.97L980.74 2308.03L980.75 2308.08L980.76 2308.14L980.77 2308.19L980.8 2308.3L980.82 2308.4L980.83 2308.44L980.83 2308.49L980.84 2308.53L980.86 2308.61L980.88 2308.69L980.89 2308.76L980.9 2308.82L980.92 2308.9L980.93 2308.97L980.94 2309.02L980.96 2309.07L980.94 2309.06L980.9 2309.04L980.88 2309.03L980.84 2309.01L980.82 2309L980.79 2308.98L980.77 2308.97L980.73 2308.95L980.69 2308.93L980.67 2308.92L980.63 2308.91L980.61 2308.9L980.57 2308.88L980.53 2308.86L980.52 2308.85L980.48 2308.83L980.46 2308.82L980.42 2308.8L980.4 2308.79L980.36 2308.77L980.32 2308.75L980.3 2308.74L980.26 2308.72L980.24 2308.71L980.2 2308.69L980.18 2308.68L980.84 2310.32L981.49 2312.01L982.12 2313.75L982.74 2315.52L983.33 2317.33L983.89 2319.17L984.42 2321.04L984.91 2322.93L985.35 2324.85L985.75 2326.78L986.1 2328.72L986.38 2330.67L986.61 2332.62L986.77 2334.57L986.86 2336.52L986.87 2338.46L986.8 2340.38L986.65 2342.29L986.41 2344.18L986.07 2346.05L985.63 2347.88L985.09 2349.69L984.44 2351.45L983.68 2353.18L982.79 2354.86L981.79 2356.5L980.66 2358.08L979.4 2359.6L978 2361.06L976.46 2362.46L974.77 2363.79L972.93 2365.04L970.94 2366.22L968.79 2367.32L966.47 2368.33L963.98 2369.26L961.32 2370.09L958.48 2370.82L955.46 2371.45L952.25 2371.98L902.17 2371.98L902.14 2372.05L902.04 2372.26L901.88 2372.61L901.66 2373.08L901.38 2373.67L901.05 2374.37L900.66 2375.17L900.23 2376.07L899.74 2377.06L899.21 2378.12L898.64 2379.26L898.03 2380.47L897.38 2381.73L896.69 2383.04L895.97 2384.39L895.22 2385.78L894.44 2387.19L893.64 2388.63L892.81 2390.08L891.96 2391.53L891.1 2392.98L890.21 2394.41L889.32 2395.84L888.41 2397.23L887.49 2398.59L886.57 2399.91L885.64 2401.18L884.72 2402.4L883.79 2403.55L882.87 2404.64L881.95 2405.64L881.04 2406.56L880.15 2407.38L879.26 2408.1L878.39 2408.72L877.54 2409.22L876.71 2409.59L875.91 2409.83L875.13 2409.94L874.37 2409.89L874.34 2409.9L874.3 2409.91L874.26 2409.91L874.22 2409.92L874.18 2409.92L874.15 2409.93L874.11 2409.93L874.07 2409.93L874.03 2409.94L873.99 2409.94L873.96 2409.94L873.92 2409.94L873.88 2409.94L873.84 2409.95L873.8 2409.95L873.76 2409.95L873.73 2409.95L873.69 2409.95L873.65 2409.95L873.61 2409.95L873.57 2409.94L873.54 2409.94L873.5 2409.94L873.46 2409.94L873.42 2409.93L873.38 2409.93L873.34 2409.93L873.31 2409.92L873.27 2409.92L873.23 2409.91L873.19 2409.91L873.15 2409.9L873.12 2409.9L873.08 2409.89L873.04 2409.88L873 2409.88L872.97 2409.87L872.93 2409.86L872.89 2409.85L872.85 2409.84L872.45 2409.72L872 2409.54L871.51 2409.3L870.98 2409.01L870.41 2408.67L869.8 2408.28L869.15 2407.83L868.46 2407.34L867.74 2406.8L866.99 2406.21L866.21 2405.58L865.39 2404.9L864.55 2404.18L863.67 2403.42L862.78 2402.61L861.85 2401.77L860.91 2400.89L859.94 2399.98L858.95 2399.03L857.95 2398.04L856.92 2397.03L855.88 2395.98L854.83 2394.9L853.76 2393.79L852.68 2392.65L851.59 2391.49L850.49 2390.3L849.39 2389.09L848.27 2387.86L847.16 2386.6L846.04 2385.32L844.92 2384.03L843.79 2382.71L842.67 2381.38L841.56 2380.04L840.44 2378.68L839.33 2377.31L838.23 2375.92L837.14 2374.53L836.06 2373.13L831.92 2373.41L832.33 2375.37L832.71 2377.38L833.06 2379.42L833.37 2381.5L833.66 2383.6L833.91 2385.73L834.14 2387.88L834.33 2390.03L834.5 2392.2L834.65 2394.38L834.77 2396.56L834.87 2398.73L834.94 2400.9L834.99 2403.06L835.03 2405.2L835.04 2407.32L835.04 2409.42L835.02 2411.48L834.98 2413.52L834.93 2415.52L834.86 2417.47L834.79 2419.38L834.7 2421.24L834.6 2423.05L834.49 2424.79L834.38 2426.48L834.26 2428.09L834.13 2429.64L833.99 2431.11L833.86 2432.49L833.72 2433.8L833.58 2435.01L833.44 2436.13L833.3 2437.15L833.16 2438.07L833.03 2438.89L832.9 2439.59L832.78 2440.18L832.66 2440.65L832.55 2440.99L832.45 2441.29L832.37 2441.61L832.3 2441.95L832.26 2442.31L832.22 2442.7L832.2 2443.1L832.2 2443.53L832.21 2443.97L832.23 2444.43L832.27 2444.9L832.31 2445.39L832.37 2445.88L832.44 2446.39L832.51 2446.92L832.6 2447.44L832.7 2447.98L832.8 2448.53L832.91 2449.07L833.03 2449.63L833.15 2450.18L833.28 2450.74L833.42 2451.3L833.56 2451.86L833.7 2452.41L833.85 2452.97L833.99 2453.52L834.15 2454.06L834.3 2454.6L834.45 2455.12L834.6 2455.64L834.76 2456.15L834.91 2456.65L835.06 2457.14L835.21 2457.61L835.35 2458.07L835.49 2458.51L835.63 2458.93L835.77 2459.33L835.89 2459.72L836.02 2460.08L838.76 2458.08L856.34 2477.2L837.24 2495.2L836.85 2496.05L816.77 2514.38L790.71 2538.8L790.03 2537.98L789.44 2537.06L788.95 2536.05L788.54 2534.95L788.22 2533.77L787.97 2532.52L787.81 2531.2L787.72 2529.81L787.7 2528.36L787.75 2526.85L787.87 2525.3L788.05 2523.7L788.29 2522.07L788.58 2520.4L788.93 2518.7L789.33 2516.98L789.78 2515.24L790.27 2513.49L790.8 2511.73L791.38 2509.97L791.98 2508.22L792.62 2506.47L793.29 2504.74L793.98 2503.02L794.7 2501.33L795.44 2499.67L796.19 2498.05L796.96 2496.46L797.74 2494.92L798.52 2493.43L799.31 2492L800.1 2490.63L800.89 2489.32L801.68 2488.09L802.45 2486.94L803.22 2485.86L803.97 2484.88L804.71 2483.98L805.43 2483.19L806.12 2482.5L808.03 2481.07L808.38 2479.74L808.66 2478.34L808.9 2476.89L809.08 2475.37L809.21 2473.8L809.3 2472.19L809.33 2470.52L809.32 2468.81L809.27 2467.06L809.18 2465.28L809.04 2463.46L808.87 2461.61L808.67 2459.74L808.43 2457.85L808.17 2455.94L807.87 2454.02L807.55 2452.08L807.2 2450.14L806.83 2448.19L806.43 2446.25L806.02 2444.3L805.59 2442.37L805.15 2440.44L804.69 2438.53L804.22 2436.64L803.75 2434.77L803.26 2432.93L802.77 2431.11L802.28 2429.33L801.79 2427.59L801.3 2425.88L800.81 2424.22L800.32 2422.6L799.85 2421.04L799.38 2419.53L798.92 2418.07L798.48 2416.68L798.05 2415.36L797.63 2414.1L797.24 2412.91L796.13 2415.07L795.02 2417.24L793.89 2419.43L792.76 2421.63L791.62 2423.84L790.48 2426.05L789.34 2428.26L788.19 2430.47L787.05 2432.67L785.91 2434.86L784.77 2437.04L783.64 2439.19L782.52 2441.33L781.41 2443.44L780.31 2445.52L779.22 2447.57L778.15 2449.59L777.1 2451.56L776.06 2453.5L775.05 2455.38L774.06 2457.22L773.09 2459L772.14 2460.72L771.23 2462.38L770.34 2463.98L769.48 2465.51L768.66 2466.97L767.87 2468.35L767.12 2469.65L766.41 2470.87L765.73 2472L765.1 2473.05L764.51 2474L763.96 2474.85L763.46 2475.6L763.01 2476.25L762.61 2476.79L762.26 2477.21L761.96 2477.53L761.72 2477.72L761.59 2477.8L761.47 2477.89L761.36 2477.98L761.25 2478.08L761.14 2478.18L761.04 2478.28L760.95 2478.38L760.86 2478.49L760.77 2478.61L760.69 2478.72L760.62 2478.84L760.55 2478.96L760.49 2479.09L760.43 2479.22L760.37 2479.35L760.32 2479.48L760.28 2479.62L760.23 2479.76L760.2 2479.9L760.16 2480.05L760.13 2480.19L760.11 2480.34L760.09 2480.49L760.07 2480.64L760.06 2480.8L760.05 2480.96L760.04 2481.12L760.04 2481.28L760.04 2481.44L760.05 2481.6L760.06 2481.77L760.07 2481.93L760.08 2482.1L760.1 2482.27L760.12 2482.44L760.14 2482.61L760.17 2482.79L760.2 2482.96L760.23 2483.13L760.26 2483.31L761.86 2482.71L773.39 2505.99L721.39 2532.34L719.51 2533.91L718.84 2533.63L693.07 2546.7L692.66 2545.76L692.36 2544.76L692.16 2543.71L692.07 2542.59L692.07 2541.43L692.15 2540.23L692.33 2538.98L692.59 2537.69L692.93 2536.36L693.35 2535.01L693.84 2533.63L694.4 2532.22L695.02 2530.79L695.7 2529.35L696.44 2527.89L697.23 2526.42L698.07 2524.95L698.96 2523.47L699.89 2522L700.85 2520.53L701.85 2519.07L702.88 2517.62L703.93 2516.19L705.01 2514.78L706.1 2513.39L707.21 2512.03L708.33 2510.69L709.46 2509.4L710.59 2508.14L711.71 2506.92L712.83 2505.75L713.95 2504.63L715.05 2503.56L716.13 2502.54L717.19 2501.59L718.23 2500.7L719.24 2499.88L720.22 2499.12L721.16 2498.45L722.06 2497.85L722.17 2497.68L722.27 2497.52L722.37 2497.35L722.47 2497.2L722.57 2497.04L722.66 2496.89L722.75 2496.74L722.84 2496.6L722.93 2496.46L723.02 2496.32L723.1 2496.19L723.19 2496.06L723.26 2495.94L723.34 2495.82L723.42 2495.7L723.49 2495.59L723.56 2495.48L723.63 2495.37L723.69 2495.27L723.75 2495.18L723.81 2495.08L723.87 2495L723.93 2494.91L723.98 2494.83L724.03 2494.76L724.07 2494.69L724.12 2494.62L724.16 2494.56L724.19 2494.5L724.23 2494.45L724.26 2494.4L724.29 2494.36L724.31 2494.32L724.33 2494.29L724.35 2494.26L724.37 2494.24L724.39 2494.21L724.39 2494.2L767.23 2369.01L767.23 2368.97L767.24 2368.85L767.26 2368.65L767.28 2368.39L767.31 2368.05L767.35 2367.65L767.4 2367.18L767.46 2366.65L767.53 2366.07L767.62 2365.43L767.72 2364.74L767.84 2364L767.97 2363.21L768.13 2362.38L768.3 2361.52L768.49 2360.61L768.7 2359.68L768.94 2358.71L769.19 2357.72L769.48 2356.7L769.78 2355.66L770.12 2354.6L770.48 2353.53L770.86 2352.44L771.28 2351.35L771.73 2350.25L772.21 2349.14L772.72 2348.04L773.27 2346.93L773.85 2345.84L774.46 2344.75L775.11 2343.68L775.8 2342.62L776.53 2341.58L777.3 2340.55L778.11 2339.56L778.96 2338.59L779.85 2337.65L780.79 2336.74L781.77 2335.87L781.93 2335.45L782.09 2335.03L782.27 2334.62L782.45 2334.21L782.64 2333.81L782.83 2333.41L783.03 2333.01L783.24 2332.62L783.46 2332.24L783.68 2331.86L783.91 2331.48L784.15 2331.11L784.39 2330.74L784.63 2330.38L784.89 2330.02L785.15 2329.67L785.41 2329.32L785.68 2328.97L785.96 2328.63L786.24 2328.29L786.53 2327.96L786.82 2327.63L787.11 2327.31L787.41 2326.99L787.72 2326.67L788.03 2326.36L788.34 2326.05L788.66 2325.75L788.98 2325.45L789.31 2325.16L789.64 2324.86L789.98 2324.58L790.31 2324.29L790.66 2324.01L791 2323.74L791.35 2323.47L791.7 2323.2L792.05 2322.94L792.41 2322.68L792.77 2322.42L792.77 2314.47L809.56 2314.47L809.63 2314.45L809.71 2314.42L809.78 2314.4L809.86 2314.37L809.94 2314.35L810.01 2314.33L810.09 2314.3L810.16 2314.28L810.24 2314.25L810.32 2314.23L810.39 2314.21L810.47 2314.18L810.55 2314.16L810.62 2314.14L810.7 2314.12L810.78 2314.09L810.85 2314.07L810.93 2314.05L811 2314.03L811.08 2314L811.16 2313.98L811.23 2313.96L811.31 2313.94L811.38 2313.92L811.46 2313.9L811.53 2313.88L811.61 2313.85L811.68 2313.83L811.76 2313.81L811.83 2313.79L811.91 2313.77L811.98 2313.75L812.05 2313.73L812.13 2313.71L812.2 2313.69L812.27 2313.67L812.49 2313.61L812.56 2313.59L812.52 2313.55L812.49 2313.5L812.45 2313.45L812.42 2313.4L812.39 2313.35L812.36 2313.3L812.34 2313.25L812.31 2313.2L812.29 2313.15L812.26 2313.1L812.24 2313.05L812.22 2313L812.2 2312.94L812.19 2312.89L812.17 2312.83L812.16 2312.78L812.15 2312.72L812.14 2312.67L812.13 2312.61L812.12 2312.56L812.11 2312.5L812.11 2312.45L812.11 2312.39L812.11 2312.33L812.11 2312.28L812.11 2312.22L812.11 2312.16L812.12 2312.11L812.13 2312.05L812.13 2312L812.14 2311.94L812.16 2311.88L812.17 2311.83L812.18 2311.77L812.2 2311.72L812.22 2311.67L812.24 2311.61L812.26 2311.56L812.28 2311.5L812.31 2311.45L813.08 2310.01L812.53 2309.98L811.99 2309.94L811.45 2309.9L810.94 2309.84L810.43 2309.78L809.93 2309.71L809.45 2309.64L808.98 2309.55L808.53 2309.46L808.09 2309.36L807.67 2309.25L807.27 2309.13L806.88 2309L806.51 2308.87L806.16 2308.72L805.83 2308.56L805.52 2308.39L805.23 2308.22L804.96 2308.03L804.72 2307.83L804.5 2307.62L804.3 2307.4L804.13 2307.16L803.98 2306.92L803.86 2306.66L803.77 2306.39L803.7 2306.11L803.66 2305.81L803.65 2305.51L803.68 2305.19L803.73 2304.85L803.81 2304.51L803.92 2304.14L804.07 2303.77L804.25 2303.38L804.46 2302.98L804.71 2302.56L804.99 2302.12L805.31 2301.68L805.67 2301.21L806.02 2300.78L806.37 2300.36L806.73 2299.96L807.1 2299.56L807.48 2299.17L807.86 2298.8L808.24 2298.43L808.64 2298.07L809.04 2297.72L809.44 2297.39L809.85 2297.06L810.27 2296.74L810.69 2296.43L811.11 2296.13L811.54 2295.84L811.98 2295.55L812.42 2295.28L812.86 2295.01L813.3 2294.76L813.75 2294.51L814.2 2294.27L814.66 2294.03L815.12 2293.81L815.58 2293.59L816.04 2293.38L816.51 2293.18L816.97 2292.99L817.44 2292.8L817.91 2292.62L818.38 2292.45L818.85 2292.28L819.33 2292.12L819.8 2291.97L820.28 2291.82L820.75 2291.68L821.22 2291.55L821.7 2291.42L822.17 2291.3L822.65 2291.18L823.12 2291.07L828.67 2280.6L828.67 2280.59L828.68 2280.58L828.69 2280.56L828.7 2280.54L828.7 2280.53L828.72 2280.5L828.72 2280.5L828.76 2280.42L828.8 2280.35L828.85 2280.29L828.89 2280.22L828.94 2280.16L829 2280.1L829.05 2280.04L829.1 2279.98L829.16 2279.93L829.22 2279.88L829.28 2279.83L829.35 2279.79L829.41 2279.74L829.48 2279.7L829.54 2279.67L829.61 2279.63L829.68 2279.6L829.75 2279.57L829.82 2279.54L829.9 2279.52L829.97 2279.5L830.05 2279.48L830.12 2279.46L830.2 2279.45L830.27 2279.44L830.35 2279.43L830.43 2279.43L830.5 2279.43L830.58 2279.43L830.66 2279.44L830.74 2279.44L830.82 2279.46L830.89 2279.47L830.97 2279.49L831.05 2279.51L831.12 2279.53L831.2 2279.56L831.27 2279.59L831.35 2279.62L831.42 2279.66L831.49 2279.7L831.56 2279.74L831.63 2279.79L831.7 2279.84L831.76 2279.89L831.82 2279.94L831.88 2279.99L831.93 2280.05L831.99 2280.1L832.04 2280.16L832.08 2280.22L832.13 2280.29L832.17 2280.35L832.21 2280.42L832.25 2280.48L832.29 2280.55L832.32 2280.62L832.35 2280.69L832.37 2280.77L832.4 2280.84L832.42 2280.91L832.44 2280.99L832.45 2281.06L832.47 2281.14L832.48 2281.21L832.48 2281.29L832.49 2281.37L832.49 2281.45L832.49 2281.52L832.48 2281.6L832.47 2281.68L832.46 2281.76L832.45 2281.83L832.43 2281.91L832.41 2281.99L832.39 2282.06L832.36 2282.14L832.33 2282.21L832.29 2282.29L832.26 2282.36L828.1 2290.21L828.44 2290.17L828.77 2290.13L829.11 2290.1L829.45 2290.06L829.79 2290.03L830.13 2290L830.47 2289.98L830.81 2289.95L831.15 2289.93L831.49 2289.9L831.83 2289.89L832.17 2289.87L832.51 2289.85L832.85 2289.84L833.19 2289.83L833.53 2289.82L833.87 2289.81L834.22 2289.81L834.56 2289.8L834.9 2289.8L835.24 2289.8L835.58 2289.81L835.92 2289.81L836.26 2289.82L836.6 2289.83L836.94 2289.84L837.28 2289.85L837.62 2289.87L837.96 2289.89L838.3 2289.9L838.64 2289.93L838.98 2289.95L839.32 2289.98L839.66 2290L840 2290.03L840.34 2290.06L840.68 2290.1L841.02 2290.13L841.36 2290.17L841.7 2290.21L861.86 2286.41L888.12 2247.52L895.89 2235.09L895.81 2234.84L895.72 2234.6L895.63 2234.35L895.54 2234.11L895.45 2233.86L895.36 2233.62L895.27 2233.37L895.18 2233.13L895.08 2232.89L894.99 2232.64L894.89 2232.4L894.8 2232.16L894.7 2231.92L894.6 2231.68L894.5 2231.44L894.41 2231.2L894.31 2230.96L894.2 2230.72L894.1 2230.48L894 2230.24L893.9 2230L893.79 2229.76L893.69 2229.52L893.58 2229.28L893.48 2229.05L893.37 2228.81L893.26 2228.57L893.15 2228.33L893.04 2228.1L892.93 2227.86L892.82 2227.63L892.71 2227.39L892.6 2227.16L892.48 2226.92L892.37 2226.69L892.25 2226.46L892.14 2226.22L892.02 2225.99L891.9 2225.76L891.78 2225.53L891.6 2225.19L891.42 2224.85L891.25 2224.51L891.08 2224.17L890.92 2223.82L890.76 2223.48L890.61 2223.13L890.46 2222.78L890.31 2222.43L890.17 2222.07L890.04 2221.72L889.91 2221.36L889.78 2221L889.66 2220.64L889.54 2220.28L889.42 2219.92L889.32 2219.56L889.21 2219.19L889.11 2218.82L889.02 2218.46L888.93 2218.09L888.84 2217.72L888.76 2217.35L888.69 2216.97L888.62 2216.6L888.55 2216.23L888.49 2215.85L888.43 2215.48L888.38 2215.1L888.33 2214.72L888.29 2214.35L888.25 2213.97L888.22 2213.59L888.19 2213.21L888.17 2212.83L888.15 2212.45L888.13 2212.06L888.13 2211.68L888.12 2211.3L888.12 2210.92L888.12 2210.51L888.12 2210.1L888.13 2209.69L888.14 2209.29L888.16 2208.88L888.18 2208.47L888.21 2208.07L888.24 2207.66L888.28 2207.26L888.32 2206.86L888.37 2206.45L888.43 2206.05L888.49 2205.65L888.55 2205.25L888.62 2204.85L888.7 2204.45L888.78 2204.05L888.86 2203.66L888.95 2203.26L889.05 2202.87L889.15 2202.48L889.25 2202.09L889.36 2201.7L889.48 2201.31L889.6 2200.92L889.73 2200.54L889.86 2200.15L889.99 2199.77L890.13 2199.39L890.28 2199.01L890.43 2198.63L890.59 2198.26L890.75 2197.89L890.91 2197.51L891.09 2197.14L891.26 2196.78L891.44 2196.41L891.63 2196.05L891.82 2195.69L892.01 2195.33L891.26 2195.13L892.49 2194.46L892.6 2194.26L891.25 2193.91L891.31 2193.88L891.37 2193.85L891.43 2193.82L891.49 2193.79L891.54 2193.75L891.6 2193.72L891.66 2193.69L891.72 2193.66L891.78 2193.63L891.84 2193.6L891.9 2193.57L891.95 2193.53L892.01 2193.5L892.07 2193.47L892.13 2193.44L892.19 2193.41L892.25 2193.38L892.3 2193.35L892.36 2193.31L892.42 2193.28L892.48 2193.25L892.54 2193.22L892.59 2193.19L892.65 2193.15L892.71 2193.12L892.77 2193.09L892.83 2193.06L892.89 2193.03L892.94 2192.99L893 2192.96L893.06 2192.93L893.12 2192.9L893.18 2192.87L893.23 2192.83L893.29 2192.8L893.35 2192.77L893.41 2192.74L893.47 2192.7L893.52 2192.67L893.58 2192.64L893.71 2192.44L893.84 2192.23L893.98 2192.03L894.11 2191.83L894.24 2191.63L894.38 2191.43L894.52 2191.23L894.66 2191.03L894.8 2190.84L894.94 2190.64L895.08 2190.45L895.22 2190.25L895.37 2190.06L895.51 2189.87L895.66 2189.68L895.81 2189.49L895.96 2189.3L896.11 2189.11L896.26 2188.92L896.41 2188.74L896.57 2188.55L896.72 2188.37L896.88 2188.18L897.04 2188L897.19 2187.82L897.35 2187.64L897.52 2187.46L897.68 2187.28L897.84 2187.1L898.01 2186.93L898.17 2186.75L898.34 2186.58L898.51 2186.4L898.67 2186.23L898.84 2186.06L899.02 2185.89L899.19 2185.72L899.36 2185.55L899.54 2185.39L899.71 2185.22L922.87 2158.36L923.03 2158.31L923.18 2158.26L923.34 2158.2L923.49 2158.15L923.65 2158.09L923.8 2158.04L923.96 2157.98L924.11 2157.92L924.26 2157.86L924.42 2157.8L924.57 2157.74L924.72 2157.68L924.87 2157.62L925.02 2157.55L925.17 2157.49L925.33 2157.42L925.48 2157.35L925.62 2157.29L925.77 2157.22L925.92 2157.15L926.07 2157.08L926.22 2157.01L926.37 2156.93L926.51 2156.86L926.66 2156.79L926.81 2156.71L926.95 2156.63L927.1 2156.56L927.24 2156.48L927.39 2156.4L927.53 2156.32L927.67 2156.24L927.82 2156.16L927.96 2156.08L928.1 2155.99L928.24 2155.91L928.38 2155.82L928.52 2155.74L928.66 2155.65L928.8 2155.56L929.01 2155.08L929.21 2154.6L929.41 2154.12L929.6 2153.63L929.79 2153.14L929.97 2152.65L930.15 2152.16L930.32 2151.67L930.49 2151.18L930.66 2150.68L930.81 2150.18L930.97 2149.69L931.12 2149.19L931.26 2148.68L931.4 2148.18L931.53 2147.68L931.66 2147.17L931.79 2146.67L931.91 2146.16L932.02 2145.65L932.13 2145.14L932.23 2144.63L932.33 2144.12L932.43 2143.61L932.52 2143.09L932.6 2142.58L932.68 2142.06L932.75 2141.55L932.82 2141.03L932.88 2140.51L932.94 2140L933 2139.48L933.04 2138.96L933.09 2138.44L933.13 2137.92L933.16 2137.39L933.19 2136.87L933.21 2136.35L933.23 2135.83L933.24 2135.3L933.24 2135.21L933.24 2135.11L933.24 2135.01L933.23 2134.92L933.23 2134.82L933.23 2134.72L933.23 2134.63L933.23 2134.53L933.22 2134.43L933.22 2134.34L933.22 2134.24L933.22 2134.15L933.21 2134.05L933.21 2133.95L933.2 2133.86L933.2 2133.76L933.2 2133.66L933.19 2133.57L933.19 2133.47L933.18 2133.38L933.18 2133.28L933.17 2133.18L933.17 2133.09L933.16 2132.99L933.16 2132.89L933.15 2132.8L933.15 2132.7L933.14 2132.61L933.13 2132.51L933.13 2132.41L933.12 2132.32L933.12 2132.22L933.11 2132.13L933.1 2132.03L933.1 2131.93L933.09 2131.84L933.08 2131.74L933.07 2131.65L933.07 2131.55L933.06 2131.45L933.05 2131.43L933.04 2131.41L933.02 2131.39L933.01 2131.36L932.99 2131.33L932.98 2131.3L932.96 2131.26L932.9 2131.14L932.85 2131.05L932.83 2131L932.8 2130.95L932.77 2130.89L932.74 2130.84L932.71 2130.78L932.68 2130.72L932.65 2130.66L932.62 2130.59L932.59 2130.53L932.55 2130.46L932.52 2130.39L932.48 2130.32L932.44 2130.25L932.4 2130.18L932.36 2130.1L932.32 2130.03L932.28 2129.95L932.24 2129.87L932.2 2129.79L932.15 2129.71L932.11 2129.63L932.06 2129.54L932.02 2129.46L931.97 2129.37L931.93 2129.29L931.88 2129.2L931.83 2129.11L931.78 2129.02L931.75 2129.02L931.72 2129.02L931.67 2129.01L931.66 2129.01L931.6 2129L931.57 2128.99L931.5 2128.99L931.47 2128.98L931.43 2128.98L931.4 2128.97L931.35 2128.96L931.34 2128.96L931.28 2128.95L931.24 2128.95L931.18 2128.94L931.17 2128.94L929.68 2128.68L928.21 2128.37L926.77 2128L925.36 2127.58L923.97 2127.1L922.62 2126.57L921.29 2125.99L919.99 2125.36L918.72 2124.69L917.49 2123.96L916.29 2123.19L915.12 2122.38L913.99 2121.53L912.89 2120.63L911.83 2119.69L910.81 2118.72L909.83 2117.71L908.89 2116.66L907.99 2115.57L907.14 2114.46L906.32 2113.31L905.55 2112.13L904.83 2110.92L904.15 2109.69L903.52 2108.43L902.94 2107.14L902.4 2105.83L901.92 2104.49L901.49 2103.14L901.1 2101.77L900.78 2100.37L900.5 2098.96L900.29 2097.54L900.12 2096.1L900.02 2094.64L899.97 2093.18L899.98 2091.7L900.05 2090.22L900.19 2088.73L900.38 2087.23L899.71 2087.1L899.04 2086.97L898.38 2086.83L897.72 2086.68L897.07 2086.52L896.43 2086.35L895.79 2086.17L895.17 2085.98L894.55 2085.78L893.95 2085.56L893.35 2085.34L892.76 2085.1L892.19 2084.84L891.63 2084.58L891.08 2084.3L890.55 2084L890.03 2083.69L889.53 2083.37L889.04 2083.03L888.57 2082.67L888.11 2082.3L887.68 2081.91L887.26 2081.5L886.86 2081.08L886.48 2080.63L886.12 2080.17L885.78 2079.69L885.47 2079.19L885.17 2078.67L884.9 2078.12L884.65 2077.56L884.43 2076.98L884.23 2076.37L884.06 2075.74L883.91 2075.09L883.79 2074.42L883.7 2073.72L883.63 2073L883.6 2072.26L883.59 2071.49L883.59 2070.27L883.61 2069.76L883.63 2069.26L883.68 2068.75L883.73 2068.25L883.8 2067.75L883.88 2067.26L883.98 2066.77L884.09 2066.28L884.21 2065.79L884.34 2065.31L884.49 2064.83L884.65 2064.35L884.82 2063.88L885 2063.41L885.19 2062.94L885.39 2062.48L885.6 2062.02L885.83 2061.57L886.06 2061.11L886.3 2060.67L886.55 2060.23L886.81 2059.79L887.08 2059.35L887.36 2058.92L887.64 2058.5L887.94 2058.08L888.24 2057.67L888.55 2057.26L888.86 2056.85L889.19 2056.45L889.51 2056.06L889.85 2055.67L890.19 2055.29L890.54 2054.91L890.89 2054.54L891.25 2054.17L891.62 2053.81L891.98 2053.46L892.36 2053.11L892.73 2052.77L893.23 2052.34L893.73 2051.91L894.24 2051.5L894.76 2051.09L895.28 2050.69L895.81 2050.31L896.34 2049.93L896.88 2049.56L897.43 2049.19L897.98 2048.84L898.53 2048.5L899.1 2048.16L899.66 2047.84L900.23 2047.52L900.81 2047.22L901.39 2046.92L901.97 2046.64L902.56 2046.36L903.16 2046.09L903.75 2045.83L904.36 2045.58L904.96 2045.34L905.57 2045.12L906.18 2044.9L906.8 2044.69L907.42 2044.49L908.05 2044.3L908.67 2044.12L909.3 2043.95L909.94 2043.79L910.57 2043.64L911.21 2043.5L911.85 2043.38L912.5 2043.26L913.15 2043.15L913.79 2043.05L914.45 2042.97L915.1 2042.89L915.75 2042.83L916.41 2042.77L917.1 2042.73L917.79 2042.69L918.48 2042.67L919.17 2042.66L919.86 2042.65L920.56 2042.66L921.25 2042.67L921.94 2042.69L922.63 2042.72L923.32 2042.76L924.01 2042.79L924.7 2042.84L925.39 2042.88L926.08 2042.93L926.77 2042.99L927.46 2043.04L928.16 2043.1L928.85 2043.15L929.54 2043.21L930.23 2043.27L930.92 2043.32L931.61 2043.37L932.3 2043.42L932.99 2043.46L933.68 2043.51L934.37 2043.54L935.06 2043.57L935.75 2043.6L936.45 2043.62L937.14 2043.63L937.83 2043.63L938.52 2043.62L939.21 2043.6L939.9 2043.58L940.59 2043.54L941.28 2043.49L941.97 2043.43L942.66 2043.35L943.35 2043.26L944.04 2043.16L944.73 2043.04L945.41 2042.91L946.1 2042.77L946.78 2042.61L947.47 2042.44L948.15 2042.26L948.83 2042.07L949.5 2041.88L950.18 2041.67L950.86 2041.46L951.53 2041.25L952.21 2041.03L952.88 2040.8L953.55 2040.57L954.22 2040.35L954.9 2040.12L955.57 2039.89L956.24 2039.66L956.91 2039.43L957.59 2039.21L958.26 2038.99L958.93 2038.77L959.6 2038.57L960.28 2038.36L960.95 2038.17L961.63 2037.98L962.3 2037.81L962.98 2037.64L963.66 2037.49L964.34 2037.35L965.02 2037.22L965.71 2037.11L966.39 2037.01L967.08 2036.93L967.76 2036.86L968.45 2036.82L969.15 2036.79L969.84 2036.78L970.54 2036.79L971.24 2036.83ZM826.88 2309.38L824.55 2309.61L822.21 2309.81L819.87 2309.96L817.53 2310.06L816.2 2312.7L817.34 2312.44L818.32 2312.24L819.12 2312.09L819.71 2311.99L820.07 2311.93L820.2 2311.91L822.01 2311.3L823.83 2310.74L825.67 2310.23L827.52 2309.77L829.38 2309.36L831.26 2309.01L831.53 2308.78L829.2 2309.1L826.88 2309.38ZM903.33 2298.63L901.43 2299.01L899.45 2299.39L897.39 2299.77L895.25 2300.15L893.06 2300.52L890.81 2300.89L888.52 2301.26L886.18 2301.62L883.82 2301.98L881.43 2302.33L879.03 2302.68L876.63 2303.02L874.22 2303.35L871.61 2306.35L873.52 2306.37L875.39 2306.4L877.24 2306.44L879.06 2306.48L880.85 2306.53L882.6 2306.59L884.31 2306.64L885.97 2306.71L887.59 2306.78L889.16 2306.85L890.69 2306.92L892.15 2306.99L893.56 2307.07L894.91 2307.14L896.19 2307.21L897.02 2306.74L897.83 2306.24L898.63 2305.72L899.41 2305.18L900.17 2304.61L900.92 2304.03L901.65 2303.42L902.37 2302.8L903.06 2302.15L903.74 2301.48L904.4 2300.8L905.04 2300.09L905.65 2299.37L906.25 2298.63L906.83 2297.87L905.13 2298.25L903.33 2298.63ZM899.71 2279.21L902.52 2271.29L894.71 2280.21L899.71 2279.21Z" id="a1oGNjlRso"></path><linearGradient id="gradientbfsKLr3jR" gradientUnits="userSpaceOnUse" x1="846.95" y1="2546.71" x2="846.95" y2="2036.79"><stop style="stop-color: #808080;stop-opacity: 0.25" offset="0%"></stop><stop style="stop-color: #808080;stop-opacity: 0.12" offset="54%"></stop><stop style="stop-color: #808080;stop-opacity: 0.1" offset="100%"></stop></linearGradient><path d="M814.52 2313.28C813.57 2312.81 813.17 2311.67 813.64 2310.71C813.64 2310.71 813.64 2310.71 813.64 2310.71C815.21 2307.74 827.81 2284.01 829.39 2281.04C829.85 2280.09 831 2279.7 831.96 2280.16C831.96 2280.16 831.96 2280.16 831.96 2280.16C831.96 2280.16 831.96 2280.16 831.96 2280.16C832.91 2280.63 833.3 2281.78 832.84 2282.73C832.84 2282.73 832.84 2282.73 832.84 2282.73C831.26 2285.7 818.66 2309.43 817.09 2312.4C816.62 2313.35 815.47 2313.75 814.52 2313.28C814.52 2313.28 814.52 2313.28 814.52 2313.28C814.52 2313.28 814.52 2313.28 814.52 2313.28Z" id="g1yI4gApqt"></path><path d="M821.24 2311.14C821.24 2311.14 778.47 2317.31 783.17 2346.67C784.52 2352.13 795.33 2395.82 796.68 2401.28C796.68 2401.28 816.68 2454.72 809.01 2475.28C809.01 2475.28 801.38 2508.17 793.74 2506.99C786.1 2505.81 810.18 2512.86 810.18 2512.86C811.98 2511.21 820.98 2502.99 837.18 2488.19C842.1 2477.26 844.84 2471.19 845.39 2469.98C845.39 2469.98 847.74 2464.69 837.17 2455.89C837.17 2455.89 831.3 2440.03 833.06 2435.34C834.82 2430.65 840.06 2373.21 825.71 2353.48C824.81 2345.01 822.13 2319.61 821.24 2311.14Z" id="c6PF9ucYm2"></path><path d="M821.24 2311.14C821.24 2311.14 778.47 2317.31 783.17 2346.67C784.52 2352.13 795.33 2395.82 796.68 2401.28C796.68 2401.28 816.68 2454.72 809.01 2475.28C809.01 2475.28 801.38 2508.17 793.74 2506.99C786.1 2505.81 810.18 2512.86 810.18 2512.86C811.98 2511.21 820.98 2502.99 837.18 2488.19C842.1 2477.26 844.84 2471.19 845.39 2469.98C845.39 2469.98 847.74 2464.69 837.17 2455.89C837.17 2455.89 831.3 2440.03 833.06 2435.34C834.82 2430.65 840.06 2373.21 825.71 2353.48C824.81 2345.01 822.13 2319.61 821.24 2311.14Z" id="b7qMzkZp2"></path><path d="M855.98 2470.12L839.07 2451.73C820.22 2465.81 809.74 2473.63 807.65 2475.2C798.93 2483.37 783.5 2519.39 792.84 2529.35C792.84 2529.34 813.88 2509.6 855.98 2470.12Z" id="aaiFi4o1A"></path><path d="M817.82 2312.61C817.82 2312.61 816.06 2322.01 825.45 2333.16C834.84 2344.31 903.55 2307.32 903.55 2307.32C886.4 2308.38 840.14 2301.45 817.82 2312.61Z" id="a14rBvBoKt"></path><path d="M817.82 2312.61C817.82 2312.61 816.06 2322.01 825.45 2333.16C834.84 2344.31 903.55 2307.32 903.55 2307.32C886.4 2308.38 840.14 2301.45 817.82 2312.61Z" id="baGBUvGKx"></path><path d="M855.91 2313.62C855.91 2313.62 855.91 2313.62 855.91 2313.62C855.91 2318.74 855.91 2321.58 855.91 2322.15C855.91 2322.15 855.91 2322.15 855.91 2322.15C819.27 2322.15 798.92 2322.15 794.85 2322.15C794.85 2322.15 794.85 2322.15 794.85 2322.15C794.85 2317.03 794.85 2314.19 794.85 2313.62C794.85 2313.62 794.85 2313.62 794.85 2313.62C831.48 2313.62 851.83 2313.62 855.91 2313.62Z" id="b3VJJ1lKOh"></path><path d="M833.68 2324.94C833.68 2324.94 799.62 2322.59 785.52 2333.16C785.52 2333.16 770.25 2366.05 770.25 2366.05C766.14 2378.09 733.25 2474.39 729.14 2486.43C729.14 2486.43 716.4 2505.55 714.47 2516.97C713.88 2520.49 724.46 2524.6 724.46 2524.6C726.85 2522.6 738.79 2512.6 760.28 2494.6C764.48 2488.6 766.81 2485.27 767.28 2484.6C767.28 2484.6 760.28 2473.44 764.93 2470.51C764.93 2470.51 817.78 2371.27 817.78 2371.27C821.89 2371 842.46 2369.64 879.47 2367.21C855.05 2344.66 839.78 2330.58 833.68 2324.94Z" id="aC6pwcCi6"></path><path d="M965.8 2292.05C965.8 2292.05 1008.66 2360.17 947.01 2368.98C942.19 2368.98 903.67 2368.98 898.85 2368.98C898.85 2368.98 881.23 2407.73 871.85 2405.38C871.85 2405.38 809.02 2345.49 817.24 2324.93C824.81 2323.17 885.42 2309.07 892.99 2307.31C892.99 2307.31 907.08 2300.85 908.26 2287.93C919.77 2288.76 954.29 2291.23 965.8 2292.05Z" id="b3OchBUon"></path><path d="M966.98 2292.05C966.98 2292.05 1009.84 2360.21 948.18 2368.98C943.36 2368.98 904.85 2368.98 900.03 2368.98C900.03 2368.98 882.41 2407.73 873.03 2405.38C863.65 2403.03 810.19 2345.49 818.39 2324.94C825.96 2323.18 886.57 2309.08 894.14 2307.32C894.14 2307.32 908.23 2300.86 909.41 2287.94C920.92 2288.76 955.46 2291.23 966.98 2292.05Z" id="bXncTdmb4"></path><path d="M776.19 2497.75L765.1 2475.37C743.08 2483.59 730.84 2488.16 728.39 2489.07C717.73 2494.48 692.85 2524.74 699.03 2536.9C699.02 2536.9 724.75 2523.85 776.19 2497.75Z" id="d7oTdCIk8r"></path><path d="M901.2 2225.7L886.52 2249.22C865.38 2280.58 853.63 2298 851.29 2301.48C851.29 2301.48 822.51 2302.65 826.04 2325.56C826.04 2325.56 863.61 2313.81 863.61 2313.81C867.41 2309.5 886.41 2287.97 920.61 2249.22L901.2 2225.7Z" id="e1PRQ6AbA"></path><path d="M901.2 2225.7L886.52 2249.22C865.38 2280.58 853.63 2298 851.29 2301.48C851.29 2301.48 822.51 2302.65 826.04 2325.56C826.04 2325.56 863.61 2313.81 863.61 2313.81C867.41 2309.5 886.41 2287.97 920.61 2249.22L901.2 2225.7Z" id="eIeln76xA"></path><path d="M933.21 2065.09C913.75 2065.09 897.97 2080.86 897.97 2100.33C897.97 2119.79 913.75 2135.56 933.21 2135.56C952.67 2135.56 968.45 2119.79 968.45 2100.33C968.45 2080.86 952.67 2065.09 933.21 2065.09Z" id="aCbBdkQr5"></path><path d="M915.88 2118.82C915.88 2118.82 947.01 2147.01 929.39 2175.82C929.39 2175.82 972.85 2156.44 972.85 2156.44C972.85 2156.44 951.71 2121.17 956.38 2100.04C948.28 2103.79 923.98 2115.07 915.88 2118.82Z" id="emJ3GP4H3"></path><path d="M939.38 2148.22C939.38 2148.22 931.16 2161.14 920 2164.66C917.77 2167.24 899.91 2187.89 897.68 2190.47C897.68 2190.47 878.89 2206.91 890.05 2228.05C890.05 2228.05 907.67 2301.45 907.67 2301.45C907.67 2301.45 962.87 2301.45 975.79 2308.45C975.79 2308.45 964.63 2257.36 979.9 2221.54C995.17 2185.71 968.15 2136.39 968.15 2136.39C962.39 2138.76 945.13 2145.86 939.38 2148.22Z" id="b1EncwcMTO"></path><path d="M939.38 2147.01C939.38 2147.01 931.16 2159.93 920 2163.45C917.77 2166.04 899.91 2186.71 897.68 2189.29C897.68 2189.29 878.89 2205.73 890.05 2226.87C890.05 2226.87 907.67 2300.27 907.67 2300.27C907.67 2300.27 962.87 2300.27 975.79 2307.27C975.79 2307.27 964.63 2256.19 979.9 2220.36C995.17 2184.53 968.15 2135.22 968.15 2135.22C962.39 2137.58 945.13 2144.65 939.38 2147.01Z" id="d1e660yAar"></path><path d="M962.28 2205.74C962.28 2205.74 921.76 2289.73 912.95 2294.99C912.95 2294.99 837.2 2307.32 837.2 2307.32C837.2 2307.32 796.09 2314.95 807.2 2300.86C807.2 2300.86 841.85 2290.29 841.85 2290.29C845.57 2289.59 864.16 2286.06 897.63 2279.72L929.93 2188.73C947.18 2197.8 957.96 2203.47 962.28 2205.74Z" id="eBEzVbpt0"></path><path d="M918.23 2202.8C918.23 2202.8 955.23 2197.51 968.15 2222.18C968.15 2222.18 988.7 2199.28 972.85 2174.61C972.85 2174.61 964.04 2158.75 944.07 2165.8C938.9 2173.2 911.77 2185.18 918.23 2202.8Z" id="a9CD37O7"></path><path d="M918.23 2201.63C918.23 2201.63 955.23 2196.34 968.15 2221.01C968.15 2221.01 988.7 2198.11 972.85 2173.44C972.85 2173.44 964.04 2157.58 944.07 2164.63C938.9 2172.03 911.77 2184.01 918.23 2201.63Z" id="a7OOLXhTAY"></path><path d="M921.38 2100.4C921.38 2100.45 921.38 2100.49 921.38 2100.54C921.82 2102.22 925.34 2115.71 925.78 2117.39C927.87 2125.39 929.98 2133.53 929.98 2141.81C929.98 2166.31 911.24 2187.44 889.54 2198.81C891.76 2199.39 909.52 2204.06 911.74 2204.64C913.91 2205.37 916.2 2205.65 918.48 2205.48C920.36 2205.12 922.15 2204.38 923.74 2203.31C933.18 2197.53 939.95 2188.11 944.42 2177.98C948.89 2167.85 951.27 2156.98 953.63 2146.14C960.95 2159.14 965.45 2173.53 966.84 2188.38C968.33 2204.51 966.22 2221.44 972.45 2236.38C975.54 2243.79 981.45 2250.85 989.45 2251.84C993 2230.54 995.12 2209.02 995.78 2187.44C995.93 2182.66 995.99 2177.82 994.86 2173.17C993.86 2169.07 991.96 2165.26 990.59 2161.27C985.27 2145.72 988.39 2128.72 991.02 2112.51C993.65 2096.29 995.53 2078.81 988.14 2064.13C983.88 2055.67 975.91 2048.43 966.46 2047.79C957.46 2047.19 949.19 2052.46 940.31 2053.87C931.43 2055.28 922.6 2052.87 913.75 2053.5C905.29 2054.16 897.29 2057.58 890.96 2063.23C886.1 2067.57 882.25 2073.54 882.18 2080.05C881.98 2097.53 905.46 2095.33 917.29 2096.68C919.45 2096.58 921.28 2098.24 921.38 2100.4Z" id="b3z0X0qBOi"></path><path d="M921.38 2099.23C921.38 2099.28 921.38 2099.32 921.38 2099.37C921.82 2101.05 925.34 2114.54 925.78 2116.22C927.87 2124.22 929.98 2132.36 929.98 2140.64C929.98 2165.14 911.24 2186.27 889.54 2197.64C891.76 2198.22 909.52 2202.89 911.74 2203.47C913.91 2204.2 916.2 2204.48 918.48 2204.31C920.36 2203.95 922.15 2203.21 923.74 2202.14C933.18 2196.36 939.95 2186.94 944.42 2176.81C948.89 2166.68 951.27 2155.81 953.63 2144.97C960.96 2157.97 965.46 2172.36 966.85 2187.22C968.34 2203.35 966.23 2220.28 972.46 2235.22C975.55 2242.63 981.46 2249.69 989.46 2250.68C993.01 2229.38 995.13 2207.86 995.79 2186.28C995.94 2181.5 996 2176.66 994.87 2172.01C993.87 2167.91 991.97 2164.1 990.6 2160.11C985.28 2144.56 988.4 2127.56 991.03 2111.35C993.66 2095.13 995.54 2077.65 988.15 2062.97C983.89 2054.51 975.92 2047.27 966.47 2046.63C957.47 2046.03 949.2 2051.3 940.32 2052.71C931.44 2054.12 922.61 2051.71 913.76 2052.34C905.32 2052.98 897.32 2056.37 890.99 2061.99C886.13 2066.33 882.28 2072.3 882.21 2078.81C881.98 2096.36 905.46 2094.16 917.29 2095.51C919.45 2095.41 921.28 2097.07 921.38 2099.23Z" id="bjpL4NGNv"></path></defs><g><g><g><use xlink:href="#c14p7ImB2n" opacity="1" fill="#eeeeee" fill-opacity="0.5"></use></g><g><g><use xlink:href="#a8VEk5aob" opacity="1" fill="#6c63ff" fill-opacity="1"></use><g><use xlink:href="#a8VEk5aob" opacity="1" fill-opacity="0" stroke="#000000" stroke-width="1" stroke-opacity="0"></use></g></g><g><use xlink:href="#beUNiV9mk" opacity="1" fill="#6c63ff" fill-opacity="1"></use><g><use xlink:href="#beUNiV9mk" opacity="1" fill-opacity="0" stroke="#000000" stroke-width="1" stroke-opacity="0"></use></g></g><g><use xlink:href="#bcUPJXkKp" opacity="1" fill="url(#gradientb5MOQEPaKG)"></use><g><use xlink:href="#bcUPJXkKp" opacity="1" fill-opacity="0" stroke="#000000" stroke-width="1" stroke-opacity="0"></use></g></g><g><use xlink:href="#dFUJNiPt" opacity="1" fill="#f5f5f5" fill-opacity="1"></use><g><use xlink:href="#dFUJNiPt" opacity="1" fill-opacity="0" stroke="#000000" stroke-width="1" stroke-opacity="0"></use></g></g><g><use xlink:href="#aLOkih7d6" opacity="1" fill="url(#gradientaH6q26wN2)"></use><g><use xlink:href="#aLOkih7d6" opacity="1" fill-opacity="0" stroke="#000000" stroke-width="1" stroke-opacity="0"></use></g></g><g><use xlink:href="#ahLcAI4Gh" opacity="1" fill="#f5f5f5" fill-opacity="1"></use><g><use xlink:href="#ahLcAI4Gh" opacity="1" fill-opacity="0" stroke="#000000" stroke-width="1" stroke-opacity="0"></use></g></g><g><use xlink:href="#a1nd4Ra9VJ" opacity="1" fill="url(#gradientb5jN3vZKQ)"></use><g><use xlink:href="#a1nd4Ra9VJ" opacity="1" fill-opacity="0" stroke="#000000" stroke-width="1" stroke-opacity="0"></use></g></g><g><use xlink:href="#geEg381iW" opacity="1" fill="#f5f5f5" fill-opacity="1"></use><g><use xlink:href="#geEg381iW" opacity="1" fill-opacity="0" stroke="#000000" stroke-width="1" stroke-opacity="0"></use></g></g><g><use xlink:href="#a1J5VK7CPm" opacity="1" fill="url(#gradiente99TDXNupG)"></use><g><use xlink:href="#a1J5VK7CPm" opacity="1" fill-opacity="0" stroke="#000000" stroke-width="1" stroke-opacity="0"></use></g></g><g><use xlink:href="#b3smkiTRtN" opacity="1" fill="#7cfcff" fill-opacity="1"></use><g><use xlink:href="#b3smkiTRtN" opacity="1" fill-opacity="0" stroke="#000000" stroke-width="1" stroke-opacity="0"></use></g></g><g><use xlink:href="#a2hBYIuSaK" opacity="1" fill="url(#gradientc5mtGfXjqZ)"></use><g><use xlink:href="#a2hBYIuSaK" opacity="1" fill-opacity="0" stroke="#000000" stroke-width="1" stroke-opacity="0"></use></g></g><g><use xlink:href="#ahxTyAo8O" opacity="1" fill="#ffffa5" fill-opacity="1"></use><g><use xlink:href="#ahxTyAo8O" opacity="1" fill-opacity="0" stroke="#000000" stroke-width="1" stroke-opacity="0"></use></g></g><g><use xlink:href="#bUTAL6yqy" opacity="1" fill="url(#gradientdWyVpOYjN)"></use><g><use xlink:href="#bUTAL6yqy" opacity="1" fill-opacity="0" stroke="#000000" stroke-width="1" stroke-opacity="0"></use></g></g><g><use xlink:href="#c31UHDXUy" opacity="1" fill="#ff69b4" fill-opacity="1"></use><g><use xlink:href="#c31UHDXUy" opacity="1" fill-opacity="0" stroke="#000000" stroke-width="1" stroke-opacity="0"></use></g></g><g><use xlink:href="#f7zk6Qeyf" opacity="1" fill="url(#gradienth1FCvGWyll)"></use><g><use xlink:href="#f7zk6Qeyf" opacity="1" fill-opacity="0" stroke="#000000" stroke-width="1" stroke-opacity="0"></use></g></g><g><use xlink:href="#k2oxKWyDTT" opacity="1" fill="#fdb797" fill-opacity="1"></use><g><use xlink:href="#k2oxKWyDTT" opacity="1" fill-opacity="0" stroke="#000000" stroke-width="1" stroke-opacity="0"></use></g></g><g><use xlink:href="#abcN74mOZ" opacity="1" fill="#fdb797" fill-opacity="1"></use><g><use xlink:href="#abcN74mOZ" opacity="1" fill-opacity="0" stroke="#000000" stroke-width="1" stroke-opacity="0"></use></g></g><g><use xlink:href="#j11d2LSWWi" opacity="1" fill="#4d8af0" fill-opacity="1"></use><g><use xlink:href="#j11d2LSWWi" opacity="1" fill-opacity="0" stroke="#000000" stroke-width="1" stroke-opacity="0"></use></g></g><g><use xlink:href="#bbfmNYcKS" opacity="1" fill="#000000" fill-opacity="1"></use><g><use xlink:href="#bbfmNYcKS" opacity="1" fill-opacity="0" stroke="#000000" stroke-width="1" stroke-opacity="0"></use></g></g><g><use xlink:href="#i46o2CuscI" opacity="1" fill="#333333" fill-opacity="1"></use><g><use xlink:href="#i46o2CuscI" opacity="1" fill-opacity="0" stroke="#000000" stroke-width="1" stroke-opacity="0"></use></g></g><g><use xlink:href="#c2huPRhDiU" opacity="1" fill="#3ad29f" fill-opacity="1"></use><g><use xlink:href="#c2huPRhDiU" opacity="1" fill-opacity="0" stroke="#000000" stroke-width="1" stroke-opacity="0"></use></g></g><g><use xlink:href="#b1TU2gyce" opacity="1" fill="#000000" fill-opacity="1"></use><g><use xlink:href="#b1TU2gyce" opacity="1" fill-opacity="0" stroke="#000000" stroke-width="1" stroke-opacity="0"></use></g></g><g><use xlink:href="#b1YbJHZjpR" opacity="1" fill="#000000" fill-opacity="1"></use><g><use xlink:href="#b1YbJHZjpR" opacity="1" fill-opacity="0" stroke="#000000" stroke-width="1" stroke-opacity="0"></use></g></g><g><use xlink:href="#acHeAVElK" opacity="1" fill="#3ad29f" fill-opacity="1"></use><g><use xlink:href="#acHeAVElK" opacity="1" fill-opacity="0" stroke="#000000" stroke-width="1" stroke-opacity="0"></use></g></g><g><use xlink:href="#dmtJgEwl" opacity="1" fill="#fdb797" fill-opacity="1"></use><g><use xlink:href="#dmtJgEwl" opacity="1" fill-opacity="0" stroke="#000000" stroke-width="1" stroke-opacity="0"></use></g></g><g><use xlink:href="#c2Uq0q4Tuf" opacity="1" fill="#000000" fill-opacity="1"></use><g><use xlink:href="#c2Uq0q4Tuf" opacity="1" fill-opacity="0" stroke="#000000" stroke-width="1" stroke-opacity="0"></use></g></g><g><use xlink:href="#c2KSovkIsv" opacity="1" fill="#3ad29f" fill-opacity="1"></use><g><use xlink:href="#c2KSovkIsv" opacity="1" fill-opacity="0" stroke="#000000" stroke-width="1" stroke-opacity="0"></use></g></g><g><use xlink:href="#b2KUC3KJly" opacity="1" fill="#000000" fill-opacity="1"></use><g><use xlink:href="#b2KUC3KJly" opacity="1" fill-opacity="0" stroke="#000000" stroke-width="1" stroke-opacity="0"></use></g></g><g><use xlink:href="#a2rcipdmDO" opacity="1" fill="#fdb797" fill-opacity="1"></use><g><use xlink:href="#a2rcipdmDO" opacity="1" fill-opacity="0" stroke="#000000" stroke-width="1" stroke-opacity="0"></use></g></g><g><use xlink:href="#alpc1XvXm" opacity="1" fill="#000000" fill-opacity="1"></use><g><use xlink:href="#alpc1XvXm" opacity="1" fill-opacity="0" stroke="#000000" stroke-width="1" stroke-opacity="0"></use></g></g><g><use xlink:href="#dnL33KJ2M" opacity="1" fill="#333333" fill-opacity="1"></use><g><use xlink:href="#dnL33KJ2M" opacity="1" fill-opacity="0" stroke="#000000" stroke-width="1" stroke-opacity="0"></use></g></g><g><use xlink:href="#b1KmcO4WmC" opacity="1" fill="#7cfcff" fill-opacity="1"></use><g><use xlink:href="#b1KmcO4WmC" opacity="1" fill-opacity="0" stroke="#000000" stroke-width="1" stroke-opacity="0"></use></g></g><g><use xlink:href="#a1oGNjlRso" opacity="1" fill="url(#gradientbfsKLr3jR)"></use><g><use xlink:href="#a1oGNjlRso" opacity="1" fill-opacity="0" stroke="#000000" stroke-width="1" stroke-opacity="0"></use></g></g><g><use xlink:href="#g1yI4gApqt" opacity="1" fill="#4d8af0" fill-opacity="1"></use><g><use xlink:href="#g1yI4gApqt" opacity="1" fill-opacity="0" stroke="#000000" stroke-width="1" stroke-opacity="0"></use></g></g><g><use xlink:href="#c6PF9ucYm2" opacity="1" fill="#be7c5e" fill-opacity="1"></use><g><use xlink:href="#c6PF9ucYm2" opacity="1" fill-opacity="0" stroke="#000000" stroke-width="1" stroke-opacity="0"></use></g></g><g><use xlink:href="#b7qMzkZp2" opacity="1" fill="#000000" fill-opacity="1"></use><g><use xlink:href="#b7qMzkZp2" opacity="1" fill-opacity="0" stroke="#000000" stroke-width="1" stroke-opacity="0"></use></g></g><g><use xlink:href="#aaiFi4o1A" opacity="1" fill="#f5f5f5" fill-opacity="1"></use><g><use xlink:href="#aaiFi4o1A" opacity="1" fill-opacity="0" stroke="#000000" stroke-width="1" stroke-opacity="0"></use></g></g><g><use xlink:href="#a14rBvBoKt" opacity="1" fill="#333333" fill-opacity="1"></use><g><use xlink:href="#a14rBvBoKt" opacity="1" fill-opacity="0" stroke="#000000" stroke-width="1" stroke-opacity="0"></use></g></g><g><use xlink:href="#baGBUvGKx" opacity="1" fill="#000000" fill-opacity="1"></use><g><use xlink:href="#baGBUvGKx" opacity="1" fill-opacity="0" stroke="#000000" stroke-width="1" stroke-opacity="0"></use></g></g><g><use xlink:href="#b3VJJ1lKOh" opacity="1" fill="#e0e0e0" fill-opacity="1"></use><g><use xlink:href="#b3VJJ1lKOh" opacity="1" fill-opacity="0" stroke="#000000" stroke-width="1" stroke-opacity="0"></use></g></g><g><use xlink:href="#aC6pwcCi6" opacity="1" fill="#be7c5e" fill-opacity="1"></use><g><use xlink:href="#aC6pwcCi6" opacity="1" fill-opacity="0" stroke="#000000" stroke-width="1" stroke-opacity="0"></use></g></g><g><use xlink:href="#b3OchBUon" opacity="1" fill="#000000" fill-opacity="1"></use><g><use xlink:href="#b3OchBUon" opacity="1" fill-opacity="0" stroke="#000000" stroke-width="1" stroke-opacity="0"></use></g></g><g><use xlink:href="#bXncTdmb4" opacity="1" fill="#333333" fill-opacity="1"></use><g><use xlink:href="#bXncTdmb4" opacity="1" fill-opacity="0" stroke="#000000" stroke-width="1" stroke-opacity="0"></use></g></g><g><use xlink:href="#d7oTdCIk8r" opacity="1" fill="#f5f5f5" fill-opacity="1"></use><g><use xlink:href="#d7oTdCIk8r" opacity="1" fill-opacity="0" stroke="#000000" stroke-width="1" stroke-opacity="0"></use></g></g><g><use xlink:href="#e1PRQ6AbA" opacity="1" fill="#be7c5e" fill-opacity="1"></use><g><use xlink:href="#e1PRQ6AbA" opacity="1" fill-opacity="0" stroke="#000000" stroke-width="1" stroke-opacity="0"></use></g></g><g><use xlink:href="#eIeln76xA" opacity="1" fill="#000000" fill-opacity="1"></use><g><use xlink:href="#eIeln76xA" opacity="1" fill-opacity="0" stroke="#000000" stroke-width="1" stroke-opacity="0"></use></g></g><g><use xlink:href="#aCbBdkQr5" opacity="1" fill="#be7c5e" fill-opacity="1"></use><g><use xlink:href="#aCbBdkQr5" opacity="1" fill-opacity="0" stroke="#000000" stroke-width="1" stroke-opacity="0"></use></g></g><g><use xlink:href="#emJ3GP4H3" opacity="1" fill="#be7c5e" fill-opacity="1"></use><g><use xlink:href="#emJ3GP4H3" opacity="1" fill-opacity="0" stroke="#000000" stroke-width="1" stroke-opacity="0"></use></g></g><g><use xlink:href="#b1EncwcMTO" opacity="1" fill="#000000" fill-opacity="1"></use><g><use xlink:href="#b1EncwcMTO" opacity="1" fill-opacity="0" stroke="#000000" stroke-width="1" stroke-opacity="0"></use></g></g><g><use xlink:href="#d1e660yAar" opacity="1" fill="#f55f44" fill-opacity="1"></use><g><use xlink:href="#d1e660yAar" opacity="1" fill-opacity="0" stroke="#000000" stroke-width="1" stroke-opacity="0"></use></g></g><g><use xlink:href="#eBEzVbpt0" opacity="1" fill="#be7c5e" fill-opacity="1"></use><g><use xlink:href="#eBEzVbpt0" opacity="1" fill-opacity="0" stroke="#000000" stroke-width="1" stroke-opacity="0"></use></g></g><g><use xlink:href="#a9CD37O7" opacity="1" fill="#000000" fill-opacity="1"></use><g><use xlink:href="#a9CD37O7" opacity="1" fill-opacity="0" stroke="#000000" stroke-width="1" stroke-opacity="0"></use></g></g><g><use xlink:href="#a7OOLXhTAY" opacity="1" fill="#f55f44" fill-opacity="1"></use><g><use xlink:href="#a7OOLXhTAY" opacity="1" fill-opacity="0" stroke="#000000" stroke-width="1" stroke-opacity="0"></use></g></g><g><use xlink:href="#b3z0X0qBOi" opacity="1" fill="#333333" fill-opacity="1"></use><g><use xlink:href="#b3z0X0qBOi" opacity="1" fill-opacity="0" stroke="#000000" stroke-width="1" stroke-opacity="0"></use></g></g><g><use xlink:href="#bjpL4NGNv" opacity="1" fill="#333333" fill-opacity="1"></use><g><use xlink:href="#bjpL4NGNv" opacity="1" fill-opacity="0" stroke="#000000" stroke-width="1" stroke-opacity="0"></use></g></g></g></g></g></svg>