<?xml version="1.0" encoding="UTF-8" standalone="no"?>
<!DOCTYPE svg PUBLIC "-//W3C//DTD SVG 1.1//EN" "http://www.w3.org/Graphics/SVG/1.1/DTD/svg11.dtd">
<svg version="1.1" xmlns="http://www.w3.org/2000/svg" xmlns:xlink="http://www.w3.org/1999/xlink" preserveAspectRatio="xMidYMid meet" viewBox="408.76848476984776 3.6363636363675758 791.2315152301522 858.7114213914017" width="791.23" height="858.71"><defs><path d="M476.15 4.74C471.11 4.74 467.96 4.74 466.7 4.74C465.76 4.74 465.03 5.55 465.12 6.48C511 498.65 613.07 714.04 771.32 652.68C929.95 591.16 1072.84 661.05 1200 862.35L1200 8.8" id="fzfN9GP4W"></path><path d="M899.15 173.37C897.52 173.37 896.2 174.8 896.2 176.56C896.2 178.32 897.52 179.74 899.15 179.74C900.77 179.74 902.09 178.32 902.09 176.56C902.09 174.8 900.77 173.37 899.15 173.37Z" id="bnwse5ZkV"></path><path d="M508.57 3.64C503.35 4.19 500.09 4.53 498.79 4.67C498.39 4.71 498.1 5.06 498.14 5.46C541.69 471.52 639.15 675.29 790.52 616.77C942.04 558.19 1078.54 624.75 1200 816.43L1200 3.64" id="g1JQk5LzuO"></path><linearGradient id="gradienti2biIKLOM2" gradientUnits="userSpaceOnUse" x1="744.94" y1="54.77" x2="1196.35" y2="748.26"><stop style="stop-color: #bd26ff;stop-opacity: 1" offset="0%"></stop><stop style="stop-color: #a92fff;stop-opacity: 1" offset="38.08271571783895%"></stop><stop style="stop-color: #6c63ff;stop-opacity: 1" offset="100%"></stop></linearGradient><path d="M604.51 135.29C608.48 135.29 611.7 138.5 611.7 142.47C611.7 143.91 611.7 141.04 611.7 142.47C611.7 146.44 608.48 149.66 604.51 149.66C579.57 149.66 511.94 149.66 487 149.66C483.03 149.66 479.81 146.44 479.81 142.47C479.81 141.04 479.81 143.91 479.81 142.47C479.81 138.5 483.03 135.29 487 135.29C511.94 135.29 579.57 135.29 604.51 135.29Z" id="ar5Gsws6s"></path><path d="M601.03 138.59C604.44 138.59 607.2 141.35 607.2 144.76C607.2 145.99 607.2 143.53 607.2 144.76C607.2 148.16 604.44 150.92 601.03 150.92C573.85 150.92 498.46 150.92 471.27 150.92C467.87 150.92 465.11 148.16 465.11 144.76C465.11 143.53 465.11 145.99 465.11 144.76C465.11 141.35 467.87 138.59 471.27 138.59C498.46 138.59 573.85 138.59 601.03 138.59Z" id="eqYgAxiHd"></path><path d="M569.82 169C573.79 169 577 172.21 577 176.18C577 177.62 577 174.74 577 176.18C577 180.15 573.79 183.37 569.82 183.37C552.63 183.37 508.26 183.37 491.08 183.37C487.11 183.37 483.89 180.15 483.89 176.18C483.89 174.74 483.89 177.62 483.89 176.18C483.89 172.21 487.11 169 491.08 169C508.26 169 552.63 169 569.82 169Z" id="bdayVkbK"></path><path d="M549.14 201.63C551.81 201.63 553.97 203.8 553.97 206.47C553.97 208.38 553.97 209.26 553.97 211.17C553.97 213.84 551.81 216 549.14 216C537.84 216 508.79 216 497.5 216C494.83 216 492.66 213.84 492.66 211.17C492.66 209.26 492.66 208.38 492.66 206.47C492.66 203.8 494.83 201.63 497.5 201.63C508.79 201.63 537.84 201.63 549.14 201.63Z" id="bfZhzJxXy"></path><path d="M566.36 171.85C569.76 171.85 572.52 174.61 572.52 178.02C572.52 179.25 572.52 176.78 572.52 178.02C572.52 181.42 569.76 184.18 566.36 184.18C539.17 184.18 463.78 184.18 436.6 184.18C433.19 184.18 430.43 181.42 430.43 178.02C430.43 176.78 430.43 179.25 430.43 178.02C430.43 174.61 433.19 171.85 436.6 171.85C463.78 171.85 539.17 171.85 566.36 171.85Z" id="djltpz9Ii"></path><path d="M544.69 205.08C548.1 205.08 550.86 207.84 550.86 211.25C550.86 212.48 550.86 210.01 550.86 211.25C550.86 214.65 548.1 217.41 544.69 217.41C517.51 217.41 442.12 217.41 414.93 217.41C411.53 217.41 408.77 214.65 408.77 211.25C408.77 210.01 408.77 212.48 408.77 211.25C408.77 207.84 411.53 205.08 414.93 205.08C442.12 205.08 517.51 205.08 544.69 205.08Z" id="k1YjMKvOP"></path><path d="M716.83 180.99C710.83 196.75 717.88 214.5 722.62 230.82C727.29 246.92 729.72 263.69 729.81 280.56C729.93 304.31 725.66 329.34 734.34 350.91C744.14 375.25 768.39 389.33 776.89 414.28C780.46 424.74 780.89 436.19 782.59 447.24C786.35 471.74 796.64 494.87 811.74 512.79C821.79 524.71 834.86 534.71 849.34 534.94C860.33 535.13 870.7 529.74 880.88 525.01C892.75 519.51 904.92 514.78 917.32 510.86C922.54 509.21 927.92 507.7 933.33 508.21C943.74 509.18 952.42 517.45 962.3 521.34C989.08 531.85 1016.76 509.02 1045.01 506.61C1069.23 504.54 1093.55 517.72 1117.35 512.22C1120.86 511.41 1124.6 509.93 1126.44 506.43C1129.49 500.63 1125.71 492.6 1128.42 486.59C1131.12 480.57 1138.43 479.95 1142.71 475.37C1147.08 470.71 1147.43 462.67 1145.21 456.34C1142.98 450.01 1138.69 444.98 1134.56 440.05C1114.14 415.65 1095.34 389.72 1078.29 362.44C1060.91 334.63 1044.63 301.92 1049.53 268.21C1051.22 256.61 1055.37 245.64 1057.25 234.08C1059.14 222.52 1058.36 209.43 1051.45 200.7C1047.33 195.49 1041.54 192.48 1035.92 189.61C983.52 162.85 927.37 135.44 870.64 145.57C861.4 147.22 852.26 149.87 842.91 150.23C829.39 150.75 816.66 144.21 803.45 146.34C788.45 148.74 773.29 152.09 758.3 154.99C742.06 158.14 723.41 163.75 716.83 180.99Z" id="e2Jr7q1yTi"></path><path d="M799.75 226.34C799.75 226.34 781.26 215.36 775.78 198.53C773.52 191.46 769.21 185.37 763.48 181.18C760.74 179.21 757.85 177.52 754.83 176.12" id="atb4nAFQD"></path><path d="M754.96 176.39C754.96 176.39 746.7 174.3 744.95 172.39C743.29 170.39 743.44 167.32 745.29 165.52C747 163.85 749.62 163.86 751.32 165.54C753.07 167.44 754.23 174.22 754.96 176.39Z" id="e17Gyk2Ew"></path><path d="M763.87 181.66C763.87 181.66 758 175.05 757.49 172.42C757.09 169.77 758.75 167.27 761.2 166.83C763.49 166.43 765.69 167.98 766.27 170.42C766.78 173.05 764.35 179.41 763.87 181.66Z" id="a2gnPyrU7d"></path><path d="M775.27 197.07C775.27 197.07 773.29 188.16 774.07 185.61C774.85 183.06 777.4 181.67 779.76 182.52C782.11 183.37 783.39 186.12 782.61 188.68C782.61 188.68 782.61 188.68 782.61 188.68C781.8 191.22 776.74 195.39 775.27 197.07Z" id="a3C6aEHmTu"></path><path d="M786.18 215.11C786.18 215.11 782.82 206.68 783.2 204.03C783.45 201.36 785.66 199.42 788.13 199.69C790.6 199.97 792.39 202.36 792.14 205.03C792.13 205.18 792.1 205.34 792.07 205.49C791.7 208.15 787.36 213.18 786.18 215.11Z" id="ehSLoDWG"></path><path d="M767.15 184.24C767.15 184.24 759.9 179.48 757.42 179.5C754.94 179.54 752.95 181.74 752.98 184.42C753.01 187.11 755.04 189.26 757.53 189.23C760.01 189.19 765.22 185.24 767.15 184.24Z" id="a19mqqfXij"></path><path d="M776.63 200.88C776.63 200.88 768.4 198.67 766.04 199.51C763.72 200.43 762.52 203.23 763.38 205.75C764.19 208.14 766.57 209.44 768.83 208.75C771.19 207.91 775.07 202.45 776.63 200.88Z" id="b4s6h39FhI"></path><path d="M791.14 219.76C791.14 219.76 783.38 216.08 780.93 216.47C778.46 216.75 776.66 219.14 776.92 221.81C777.17 224.48 779.38 226.42 781.85 226.15C781.98 226.13 782.1 226.11 782.23 226.09C784.68 225.69 789.36 221.03 791.14 219.76Z" id="b2rRJ5UBE8"></path><path d="M783.12 293.45C783.12 293.45 764.63 282.47 759.15 265.64C756.89 258.57 752.58 252.48 746.85 248.29C744.11 246.32 741.22 244.63 738.2 243.23" id="g1Op4CVqMF"></path><path d="M738.32 243.5C738.32 243.5 730.07 241.41 728.32 239.5C726.66 237.5 726.81 234.43 728.66 232.63C730.37 230.96 732.98 230.97 734.69 232.65C736.44 234.55 737.6 241.33 738.32 243.5Z" id="hi3Dix6cr"></path><path d="M747.24 248.77C747.24 248.77 741.37 242.16 740.86 239.53C740.45 236.88 742.11 234.38 744.56 233.94C746.86 233.54 749.06 235.09 749.64 237.53C750.15 240.16 747.72 246.52 747.24 248.77Z" id="b2zlvpbjdE"></path><path d="M758.64 264.18C758.64 264.18 756.65 255.27 757.44 252.72C758.22 250.17 760.77 248.79 763.13 249.63C765.48 250.48 766.76 253.24 765.98 255.79C765.17 258.33 760.11 262.5 758.64 264.18Z" id="d2oG1RmNIa"></path><path d="M769.55 282.22C769.55 282.22 766.19 273.8 766.57 271.14C766.82 268.47 769.03 266.53 771.5 266.8C773.97 267.08 775.76 269.47 775.51 272.14C775.49 272.29 775.47 272.45 775.44 272.6C775.07 275.26 770.73 280.3 769.55 282.22Z" id="c2rvNoSIRv"></path><path d="M750.51 251.35C750.51 251.35 743.27 246.59 740.79 246.62C738.31 246.65 736.32 248.85 736.35 251.53C736.38 254.22 738.41 256.37 740.9 256.34C743.38 256.3 748.59 252.35 750.51 251.35Z" id="a1YvE4JDg"></path><path d="M760 267.99C760 267.99 751.77 265.79 749.41 266.62C747.03 267.35 745.64 270.05 746.32 272.63C747.01 275.21 749.49 276.71 751.88 275.97C751.99 275.94 752.1 275.9 752.2 275.86C754.56 275.02 758.44 269.56 760 267.99Z" id="aqB2LHg9d"></path><path d="M774.51 286.87C774.51 286.87 766.75 283.2 764.3 283.58C761.83 283.86 760.03 286.25 760.29 288.92C760.54 291.59 762.75 293.54 765.22 293.26C765.35 293.25 765.47 293.23 765.6 293.2C768.05 292.81 772.73 288.14 774.51 286.87Z" id="agpxRMCRP"></path><path d="M788.62 143.25C778.05 143.23 769.48 152.49 769.46 163.92C769.46 163.92 769.46 163.92 769.46 163.92C769.46 195.22 769.46 445.66 769.46 476.97C769.47 488.4 778.05 497.65 788.61 497.64C788.62 497.64 788.62 497.64 788.62 497.64C809.5 497.64 976.56 497.64 997.44 497.64C1008 497.66 1016.58 488.4 1016.6 476.97C1016.6 476.97 1016.6 476.97 1016.6 476.97C1016.6 445.67 1016.6 195.22 1016.6 163.91C1016.58 152.48 1008 143.23 997.44 143.25C997.44 143.25 809.5 143.25 788.62 143.25Z" id="a4NsPl7hnU"></path><linearGradient id="gradienta1XNGsfCKp" gradientUnits="userSpaceOnUse" x1="893.03" y1="497.63" x2="893.03" y2="143.25"><stop style="stop-color: #808080;stop-opacity: 0.25" offset="0%"></stop><stop style="stop-color: #808080;stop-opacity: 0.12" offset="54%"></stop><stop style="stop-color: #808080;stop-opacity: 0.1" offset="100%"></stop></linearGradient><path d="M1004.67 147.5C1010.66 147.5 1013.66 150.74 1013.66 157.22C1013.66 353.72 1013.66 462.89 1013.66 484.72C1013.66 491.21 1010.66 494.45 1004.67 494.45C870.7 494.45 796.28 494.45 781.39 494.45C775.4 494.45 772.41 491.21 772.41 484.72C772.41 288.22 772.41 179.06 772.41 157.22C772.41 150.74 775.4 147.5 781.39 147.5C915.36 147.5 989.78 147.5 1004.67 147.5Z" id="bJyA4xN6t"></path><path d="M998.55 179.21C998.55 179.21 998.55 179.21 998.55 179.21C998.55 348 998.55 441.78 998.55 460.53C998.55 460.53 998.55 460.53 998.55 460.53C868.5 460.53 796.26 460.53 781.81 460.53C781.81 460.53 781.81 460.53 781.81 460.53C781.81 291.74 781.81 197.97 781.81 179.21C781.81 179.21 781.81 179.21 781.81 179.21C911.85 179.21 984.1 179.21 998.55 179.21Z" id="lIy7qtVda"></path><path d="M892.05 467.92C887.18 467.92 883.22 472.2 883.22 477.47C883.22 482.75 887.18 487.02 892.05 487.02C896.93 487.02 900.88 482.75 900.88 477.47C900.88 472.2 896.93 467.92 892.05 467.92Z" id="b2dUEtpOX3"></path><path d="M847.7 216.86C851.25 216.86 853.03 218.78 853.03 222.62C853.03 243.13 853.03 254.53 853.03 256.81C853.03 260.65 851.25 262.57 847.7 262.57C828.74 262.57 818.21 262.57 816.1 262.57C812.55 262.57 810.77 260.65 810.77 256.81C810.77 236.3 810.77 224.9 810.77 222.62C810.77 218.78 812.55 216.86 816.1 216.86C835.06 216.86 845.59 216.86 847.7 216.86Z" id="a3ULN0vqRU"></path><path d="M908.83 216.86C912.38 216.86 914.16 218.78 914.16 222.62C914.16 243.13 914.16 254.53 914.16 256.81C914.16 260.65 912.38 262.57 908.83 262.57C889.87 262.57 879.34 262.57 877.23 262.57C873.68 262.57 871.9 260.65 871.9 256.81C871.9 236.3 871.9 224.9 871.9 222.62C871.9 218.78 873.68 216.86 877.23 216.86C896.19 216.86 906.72 216.86 908.83 216.86Z" id="elA7nsAxH"></path><path d="M847.7 297.59C851.25 297.59 853.03 299.51 853.03 303.35C853.03 323.86 853.03 335.26 853.03 337.54C853.03 341.38 851.25 343.3 847.7 343.3C828.74 343.3 818.21 343.3 816.1 343.3C812.55 343.3 810.77 341.38 810.77 337.54C810.77 317.02 810.77 305.63 810.77 303.35C810.77 299.51 812.55 297.59 816.1 297.59C835.06 297.59 845.59 297.59 847.7 297.59Z" id="a1WVJF83zL"></path><path d="M938.36 343.3C934.81 343.3 933.04 341.38 933.04 337.54C933.04 317.02 933.04 305.63 933.04 303.35C933.04 299.51 934.81 297.59 938.36 297.59C957.32 297.59 967.85 297.59 969.96 297.59C973.51 297.59 975.29 299.51 975.29 303.35C975.29 323.86 975.29 335.26 975.29 337.54C975.29 341.38 973.51 343.3 969.96 343.3C951 343.3 940.47 343.3 938.36 343.3Z" id="euf4pVr5m"></path><path d="M908.83 297.59C912.38 297.59 914.16 299.51 914.16 303.35C914.16 323.86 914.16 335.26 914.16 337.54C914.16 341.38 912.38 343.3 908.83 343.3C889.87 343.3 879.34 343.3 877.23 343.3C873.68 343.3 871.9 341.38 871.9 337.54C871.9 317.02 871.9 305.63 871.9 303.35C871.9 299.51 873.68 297.59 877.23 297.59C896.19 297.59 906.72 297.59 908.83 297.59Z" id="b2ImmxopnH"></path><path d="M847.7 378.31C851.25 378.31 853.03 380.23 853.03 384.08C853.03 404.59 853.03 415.98 853.03 418.26C853.03 422.11 851.25 424.03 847.7 424.03C828.74 424.03 818.21 424.03 816.1 424.03C812.55 424.03 810.77 422.11 810.77 418.26C810.77 397.75 810.77 386.36 810.77 384.08C810.77 380.23 812.55 378.31 816.1 378.31C835.06 378.31 845.59 378.31 847.7 378.31Z" id="b1aNukzsQx"></path><path d="M938.36 424.03C934.81 424.03 933.04 422.11 933.04 418.26C933.04 397.75 933.04 386.36 933.04 384.08C933.04 380.23 934.81 378.31 938.36 378.31C957.32 378.31 967.85 378.31 969.96 378.31C973.51 378.31 975.29 380.23 975.29 384.08C975.29 404.59 975.29 415.98 975.29 418.26C975.29 422.11 973.51 424.03 969.96 424.03C951 424.03 940.47 424.03 938.36 424.03Z" id="c5LClSuuA"></path><path d="M908.83 378.31C912.38 378.31 914.16 380.23 914.16 384.08C914.16 404.59 914.16 415.98 914.16 418.26C914.16 422.11 912.38 424.03 908.83 424.03C889.87 424.03 879.34 424.03 877.23 424.03C873.68 424.03 871.9 422.11 871.9 418.26C871.9 397.75 871.9 386.36 871.9 384.08C871.9 380.23 873.68 378.31 877.23 378.31C896.19 378.31 906.72 378.31 908.83 378.31Z" id="a55wlRZuzY"></path><path d="M978.88 290.83L978.87 290.65L978.85 290.46L978.84 290.28L978.83 290.08L978.82 289.89L978.8 289.69L978.79 289.49L978.77 289.29L978.76 289.09L978.74 288.89L978.72 288.69L978.7 288.49L978.68 288.29L978.66 288.09L978.64 287.89L978.62 287.69L978.6 287.5L978.57 287.31L978.55 287.12L978.52 286.93L978.5 286.75L978.47 286.57L978.44 286.4L978.41 286.23L978.38 286.07L978.35 285.92L978.32 285.77L978.28 285.62L978.25 285.49L978.21 285.36L978.17 285.24L978.14 285.13L978.1 285.02L978.05 284.93L978.01 284.84L977.97 284.77L977.92 284.7L977.88 284.65L977.91 284.65L977.94 284.65L977.97 284.65L978.01 284.65L978.05 284.64L978.1 284.64L978.16 284.64L978.23 284.64L978.3 284.64L978.38 284.63L978.46 284.63L978.55 284.63L978.64 284.62L978.74 284.62L978.84 284.61L978.95 284.61L979.07 284.6L979.19 284.59L979.31 284.59L979.44 284.58L979.57 284.57L979.71 284.56L979.85 284.55L979.99 284.54L980.14 284.53L980.29 284.52L980.44 284.51L980.6 284.5L980.76 284.49L980.93 284.47L981.09 284.46L981.26 284.44L981.43 284.42L981.61 284.41L981.78 284.39L981.96 284.37L982.14 284.35L982.33 284.33L982.3 284.01L980.93 269.4L980.93 269.37L980.94 269.28L980.95 269.14L980.97 268.95L980.99 268.71L981.02 268.42L981.06 268.1L981.1 267.73L981.14 267.34L981.2 266.91L981.26 266.45L981.33 265.96L981.41 265.46L981.49 264.93L981.59 264.39L981.69 263.84L981.8 263.28L981.92 262.72L982.05 262.15L982.18 261.58L982.33 261.02L982.49 260.46L982.66 259.91L982.84 259.38L983.03 258.87L983.23 258.37L983.44 257.9L983.66 257.46L983.9 257.04L984.14 256.66L984.4 256.31L984.67 256.01L984.96 255.75L985.26 255.53L985.57 255.36L985.89 255.25L986.23 255.19L986.59 255.19L986.95 255.25L987.34 255.38L987.64 255.54L987.93 255.73L988.2 255.98L988.46 256.26L988.7 256.59L988.93 256.95L989.14 257.35L989.34 257.78L989.52 258.25L989.7 258.74L989.86 259.26L990.01 259.81L990.14 260.38L990.27 260.98L990.38 261.59L990.49 262.22L990.58 262.86L990.66 263.52L990.74 264.19L990.81 264.87L990.87 265.56L990.92 266.25L990.96 266.95L990.99 267.64L991.02 268.34L991.05 269.03L991.06 269.72L991.08 270.4L991.08 271.07L991.08 271.74L991.08 272.39L991.08 273.02L991.07 273.64L991.06 274.23L991.04 274.81L991.03 275.36L991.01 275.89L990.99 276.39L990.97 276.87L990.95 277.31L990.94 277.42L990.94 277.52L990.93 277.63L990.92 277.74L990.91 277.85L990.9 277.96L990.88 278.06L990.87 278.17L990.86 278.28L990.84 278.38L990.82 278.49L990.81 278.6L990.79 278.7L990.77 278.81L990.75 278.92L990.72 279.02L990.7 279.13L990.68 279.23L990.65 279.34L990.62 279.44L990.6 279.54L990.57 279.65L990.54 279.75L990.51 279.85L990.48 279.96L990.44 280.06L990.41 280.16L990.37 280.26L990.34 280.36L990.3 280.46L990.26 280.56L990.22 280.66L990.18 280.76L990.14 280.86L990.1 280.96L990.06 281.06L990.01 281.15L989.97 281.25L989.92 281.35L989.87 281.44L989.54 282.12L989.31 282.58L989.33 282.57L989.34 282.56L989.36 282.55L989.38 282.54L989.39 282.53L989.41 282.52L989.43 282.51L989.44 282.5L989.46 282.49L989.48 282.48L989.49 282.47L989.51 282.46L989.53 282.45L989.54 282.44L989.56 282.43L989.58 282.42L989.59 282.41L989.61 282.4L989.62 282.39L989.64 282.38L989.66 282.37L989.67 282.36L989.69 282.35L989.7 282.34L989.72 282.33L989.74 282.32L989.75 282.31L989.77 282.3L989.78 282.29L989.8 282.27L989.82 282.26L989.83 282.25L989.85 282.24L989.86 282.23L989.88 282.22L989.89 282.21L989.91 282.2L989.92 282.18L989.94 282.17L989.96 282.16L990.05 287.17L990.09 287.15L990.13 287.13L990.21 287.08L990.25 287.06L990.28 287.04L990.32 287.02L990.35 287L990.39 286.98L990.42 286.96L990.45 286.95L990.49 286.93L990.55 286.89L990.57 286.88L990.63 286.85L990.7 286.81L990.77 286.77L990.84 286.73L990.89 286.7L990.94 286.67L990.94 287.11L990.96 287.59L991 288.11L991.07 288.67L991.16 289.27L991.27 289.91L991.4 290.57L991.54 291.26L991.7 291.97L991.87 292.71L992.06 293.46L992.26 294.23L992.47 295.02L992.69 295.81L992.92 296.61L993.15 297.42L993.39 298.22L993.64 299.03L993.88 299.83L994.13 300.62L994.38 301.4L994.63 302.17L994.87 302.93L995.12 303.66L995.35 304.37L995.59 305.06L995.81 305.72L996.03 306.35L996.23 306.94L996.43 307.5L996.61 308.02L996.78 308.5L996.93 308.93L997.07 309.31L997.19 309.65L997.29 309.92L997.37 310.15L997.43 310.31L997.46 310.41L997.48 310.44L997.5 310.44L997.56 310.43L997.66 310.42L997.79 310.4L997.96 310.38L998.17 310.36L998.4 310.33L998.67 310.31L998.96 310.28L999.28 310.25L999.62 310.21L999.99 310.18L1000.38 310.15L1000.78 310.12L1001.21 310.1L1001.64 310.07L1002.1 310.05L1002.56 310.03L1003.04 310.01L1003.52 310L1004.01 310L1004.51 309.99L1005.01 310L1005.51 310.01L1006.01 310.03L1006.51 310.05L1007.01 310.08L1007.5 310.12L1007.98 310.17L1008.46 310.23L1008.92 310.3L1009.37 310.38L1009.81 310.47L1010.23 310.57L1010.64 310.68L1011.02 310.81L1011.38 310.95L1011.72 311.1L1012.04 311.27L1012.33 311.45L1012.54 311.58L1012.74 311.69L1012.95 311.78L1013.16 311.84L1013.37 311.9L1013.59 311.93L1013.8 311.95L1014.02 311.95L1014.23 311.93L1014.45 311.9L1014.67 311.86L1014.89 311.8L1015.1 311.73L1015.32 311.65L1015.54 311.55L1015.75 311.45L1015.97 311.33L1016.18 311.21L1016.39 311.08L1016.6 310.94L1016.81 310.79L1017.02 310.63L1017.22 310.47L1017.42 310.3L1017.62 310.13L1017.81 309.96L1018 309.78L1018.19 309.6L1018.37 309.41L1018.55 309.23L1018.73 309.04L1018.9 308.85L1019.06 308.67L1019.23 308.48L1019.38 308.3L1019.53 308.12L1019.67 307.95L1019.81 307.78L1019.94 307.61L1020.07 307.45L1011.92 289.16L1011.99 289.14L1012.06 289.13L1012.13 289.11L1012.2 289.1L1012.27 289.08L1012.34 289.06L1012.41 289.05L1012.48 289.03L1012.55 289.01L1012.62 289L1012.69 288.98L1012.76 288.96L1012.83 288.94L1012.9 288.92L1012.97 288.91L1013.04 288.89L1013.11 288.87L1013.18 288.85L1013.25 288.83L1013.32 288.81L1013.39 288.79L1013.46 288.77L1013.53 288.75L1013.59 288.73L1013.66 288.71L1013.73 288.69L1013.8 288.67L1013.87 288.64L1013.94 288.62L1014.01 288.6L1014.08 288.58L1014.15 288.55L1014.21 288.53L1014.28 288.51L1014.35 288.49L1014.42 288.46L1014.49 288.44L1014.56 288.41L1014.63 288.39L1014.69 288.37L1014.68 288.3L1014.67 288.25L1014.66 288.16L1014.62 287.95L1014.6 287.86L1014.59 287.81L1014.57 287.72L1014.56 287.66L1014.53 287.49L1014.5 287.31L1014.46 287.13L1014.42 286.94L1014.38 286.75L1014.34 286.57L1014.3 286.38L1014.26 286.19L1014.22 286L1014.17 285.81L1014.13 285.62L1014.08 285.43L1014.03 285.24L1013.99 285.05L1013.94 284.86L1013.89 284.68L1013.83 284.49L1013.78 284.31L1013.73 284.14L1013.67 283.96L1013.62 283.79L1013.56 283.63L1013.5 283.47L1013.44 283.31L1013.38 283.16L1013.32 283.01L1013.26 282.87L1013.2 282.73L1013.13 282.6L1013.07 282.48L1013.01 282.37L1012.94 282.26L1012.87 282.16L1012.81 282.07L1012.74 281.99L1012.67 281.91L1012.6 281.85L1012.53 281.8L1012.46 281.75L1012.39 281.72L1012.49 281.65L1012.59 281.59L1012.69 281.53L1012.8 281.47L1012.9 281.4L1013.01 281.34L1013.11 281.28L1013.21 281.22L1013.32 281.16L1013.42 281.1L1013.53 281.04L1013.63 280.98L1013.74 280.93L1013.84 280.87L1013.95 280.81L1014.05 280.75L1014.16 280.7L1014.27 280.64L1014.37 280.58L1014.48 280.53L1014.59 280.47L1014.69 280.42L1014.8 280.36L1014.91 280.31L1015.01 280.26L1015.12 280.2L1015.23 280.15L1015.34 280.1L1015.45 280.04L1015.55 279.99L1015.66 279.94L1015.77 279.89L1015.88 279.84L1015.99 279.79L1016.1 279.74L1016.21 279.69L1016.32 279.64L1016.43 279.59L1016.54 279.55L1016.65 279.5L1016.64 279.49L1016.64 279.46L1016.63 279.42L1016.62 279.39L1016.62 279.36L1016.61 279.33L1016.6 279.3L1016.59 279.24L1016.57 279.15L1016.54 279L1016.52 278.9L1016.48 278.65L1016.43 278.39L1016.38 278.11L1016.33 277.83L1016.28 277.53L1016.23 277.22L1016.18 276.89L1016.13 276.56L1016.08 276.22L1016.04 275.87L1015.99 275.51L1015.95 275.15L1015.9 274.77L1015.86 274.39L1015.83 274L1015.79 273.61L1015.76 273.21L1015.73 272.81L1015.71 272.4L1015.69 271.99L1015.67 271.58L1015.66 271.16L1015.66 270.74L1015.66 270.32L1015.66 269.9L1015.67 269.48L1015.69 269.06L1015.71 268.64L1015.74 268.22L1015.78 267.8L1015.82 267.39L1015.87 266.98L1015.93 266.57L1016 266.16L1016.08 265.77L1016.16 265.37L1016.25 264.98L1016.36 264.6L1016.47 264.23L1016.59 263.86L1016.76 263.36L1016.93 262.84L1017.09 262.3L1017.24 261.74L1017.39 261.17L1017.54 260.59L1017.68 259.99L1017.82 259.39L1017.96 258.78L1018.1 258.17L1018.24 257.55L1018.38 256.93L1018.51 256.31L1018.65 255.7L1018.79 255.09L1018.93 254.49L1019.07 253.9L1019.22 253.32L1019.37 252.75L1019.52 252.2L1019.68 251.67L1019.84 251.15L1020 250.66L1020.18 250.19L1020.36 249.75L1020.54 249.33L1020.74 248.95L1020.94 248.59L1021.15 248.27L1021.37 247.99L1021.6 247.74L1021.83 247.53L1022.08 247.37L1022.34 247.25L1022.62 247.17L1022.9 247.14L1023.2 247.16L1023.51 247.24L1023.83 247.37L1024.17 247.55L1024.43 247.74L1024.69 247.97L1024.93 248.24L1025.17 248.55L1025.39 248.9L1025.6 249.28L1025.8 249.69L1025.99 250.13L1026.17 250.61L1026.34 251.11L1026.5 251.63L1026.66 252.18L1026.8 252.75L1026.93 253.33L1027.06 253.94L1027.18 254.56L1027.29 255.2L1027.39 255.84L1027.49 256.5L1027.58 257.17L1027.66 257.84L1027.73 258.52L1027.8 259.19L1027.86 259.87L1027.92 260.55L1027.97 261.23L1028.02 261.9L1028.06 262.56L1028.1 263.22L1028.13 263.87L1028.16 264.5L1028.18 265.12L1028.2 265.72L1028.22 266.31L1028.23 266.87L1028.25 267.41L1028.25 267.93L1028.26 268.43L1028.26 268.9L1028.27 269.33L1028.27 269.45L1028.27 269.56L1028.26 269.68L1028.26 269.79L1028.25 269.91L1028.25 270.02L1028.24 270.13L1028.23 270.25L1028.22 270.36L1028.21 270.47L1028.2 270.59L1028.18 270.7L1028.17 270.81L1028.15 270.93L1028.13 271.04L1028.12 271.15L1028.1 271.26L1028.07 271.37L1028.05 271.48L1028.03 271.59L1028 271.71L1027.98 271.82L1027.95 271.93L1027.92 272.03L1027.89 272.14L1027.86 272.25L1027.83 272.36L1027.8 272.47L1027.76 272.58L1027.73 272.68L1027.69 272.79L1027.65 272.9L1027.62 273L1027.58 273.11L1027.53 273.21L1027.49 273.32L1027.45 273.42L1027.4 273.53L1027.36 273.63L1027.31 273.73L1025.62 277.35L1025.39 277.84L1025.63 277.89L1025.72 282.3L1025.77 282.26L1025.83 282.22L1025.88 282.18L1025.93 282.15L1025.98 282.11L1026.03 282.07L1026.08 282.04L1026.13 282L1026.18 281.97L1026.22 281.94L1026.27 281.9L1026.31 281.87L1026.35 281.84L1026.39 281.81L1026.43 281.79L1026.46 281.76L1026.5 281.73L1026.53 281.71L1026.57 281.68L1026.6 281.66L1026.63 281.64L1026.66 281.61L1026.68 281.59L1026.71 281.57L1026.73 281.56L1026.76 281.54L1026.78 281.52L1026.8 281.51L1026.83 281.48L1026.86 281.46L1026.87 281.45L1026.88 281.44L1026.91 281.42L1026.94 281.89L1026.98 282.36L1027.04 282.85L1027.1 283.34L1027.18 283.83L1027.27 284.34L1027.37 284.84L1027.49 285.36L1027.61 285.87L1027.75 286.39L1027.89 286.92L1028.05 287.45L1028.21 287.98L1028.39 288.52L1028.57 289.06L1028.76 289.6L1028.96 290.14L1029.17 290.69L1029.38 291.23L1029.6 291.78L1029.83 292.33L1030.07 292.88L1030.31 293.42L1030.56 293.97L1030.81 294.52L1031.06 295.07L1031.33 295.61L1031.59 296.15L1031.86 296.7L1032.13 297.24L1032.41 297.77L1032.69 298.31L1032.97 298.84L1033.25 299.36L1033.54 299.89L1033.82 300.4L1034.11 300.92L1034.4 301.43L1034.69 301.93L1034.97 302.43L1036.84 300.93L1037.28 300.56L1037.28 300.55L1037.28 300.53L1037.27 300.52L1037.27 300.51L1037.27 300.5L1037.27 300.48L1037.27 300.46L1037.27 300.45L1037.26 300.44L1037.26 300.42L1037.26 300.4L1037.25 300.38L1037.25 300.37L1037.27 300.36L1037.32 300.35L1037.37 300.34L1037.39 300.33L1037.42 300.32L1037.45 300.31L1037.49 300.3L1037.52 300.29L1037.56 300.28L1037.6 300.27L1037.65 300.26L1037.69 300.25L1037.74 300.23L1037.79 300.22L1037.84 300.2L1037.9 300.19L1037.96 300.17L1038.02 300.16L1038.08 300.14L1038.14 300.12L1038.21 300.11L1038.28 300.09L1038.35 300.07L1038.42 300.05L1038.5 300.03L1038.57 300.01L1038.65 299.99L1038.73 299.97L1038.81 299.95L1038.9 299.93L1038.98 299.91L1039.07 299.89L1039.16 299.87L1039.25 299.85L1039.36 299.61L1039.46 299.37L1039.57 299.12L1039.67 298.88L1039.76 298.63L1039.86 298.38L1039.95 298.13L1040.04 297.88L1040.13 297.63L1040.22 297.38L1040.3 297.12L1040.38 296.86L1040.46 296.61L1040.54 296.35L1040.62 296.09L1040.69 295.83L1040.76 295.57L1040.83 295.31L1040.9 295.05L1040.97 294.79L1041.03 294.53L1041.09 294.27L1041.16 294.01L1041.21 293.75L1041.27 293.49L1041.32 293.23L1041.38 292.97L1041.43 292.71L1041.48 292.46L1041.53 292.2L1041.57 291.95L1041.62 291.7L1041.66 291.44L1041.7 291.2L1041.74 290.95L1041.78 290.7L1041.81 290.46L1041.85 290.22L1041.88 289.98L1041.91 289.74L1041.92 289.71L1041.93 289.64L1041.93 289.59L1041.94 289.51L1041.95 289.46L1041.95 289.41L1041.96 289.34L1041.97 289.29L1041.98 289.24L1041.98 289.19L1041.98 289.17L1041.99 289.1L1042 289.05L1042 289L1042.01 288.95L1042.01 288.91L1042.02 288.86L1042.03 288.81L1042.03 288.77L1041.98 288.64L1041.92 288.51L1041.87 288.39L1041.82 288.26L1041.77 288.13L1041.73 288L1041.68 287.88L1041.63 287.75L1041.59 287.62L1041.55 287.49L1041.51 287.36L1041.47 287.23L1041.43 287.1L1041.39 286.96L1041.35 286.83L1041.32 286.7L1041.28 286.57L1041.25 286.43L1041.22 286.3L1041.19 286.17L1041.16 286.03L1041.14 285.9L1041.11 285.76L1041.09 285.63L1041.06 285.49L1041.04 285.36L1041.02 285.22L1041 285.09L1040.98 284.95L1040.97 284.81L1040.95 284.68L1040.94 284.54L1040.93 284.4L1040.91 284.26L1040.9 284.13L1040.9 283.99L1040.89 283.85L1040.88 283.71L1040.88 283.58L1040.87 283.44L1040.88 282.95L1040.89 282.46L1040.93 281.98L1040.98 281.51L1041.04 281.04L1041.12 280.57L1041.22 280.11L1041.33 279.66L1041.45 279.21L1041.59 278.77L1041.74 278.33L1041.91 277.9L1042.09 277.48L1042.28 277.07L1042.48 276.66L1042.7 276.27L1042.93 275.88L1043.17 275.5L1043.43 275.13L1043.69 274.77L1043.97 274.42L1044.26 274.08L1044.56 273.76L1044.87 273.44L1045.19 273.13L1045.51 272.84L1045.85 272.56L1046.2 272.29L1046.56 272.03L1046.93 271.79L1047.3 271.56L1047.69 271.35L1048.08 271.15L1048.48 270.96L1048.89 270.79L1049.3 270.63L1049.73 270.49L1050.16 270.36L1050.59 270.26L1051.04 270.16L1051.01 270.13L1050.98 270.1L1050.95 270.07L1050.93 270.04L1050.9 270.01L1050.88 269.99L1050.86 269.96L1050.83 269.94L1050.81 269.91L1050.79 269.89L1050.77 269.87L1050.75 269.85L1050.73 269.83L1050.71 269.81L1050.69 269.8L1050.68 269.78L1050.66 269.76L1050.64 269.75L1050.63 269.73L1050.61 269.72L1050.6 269.71L1050.58 269.7L1050.57 269.68L1050.56 269.67L1050.54 269.66L1050.53 269.66L1050.52 269.65L1050.51 269.64L1050.49 269.63L1050.48 269.63L1050.47 269.62L1050.46 269.61L1050.45 269.61L1050.44 269.6L1050.43 269.6L1050.42 269.6L1050.41 269.59L1050.4 269.59L1050.39 269.59L1050.38 269.59L1050.3 269.59L1050.28 269.59L1050.27 269.59L1050.25 269.59L1050.24 269.59L1050.21 269.6L1050.19 269.6L1050.17 269.6L1050.16 269.6L1050.14 269.6L1050.12 269.6L1050.1 269.6L1050.08 269.6L1050.06 269.6L1050.03 269.6L1050.01 269.6L1049.98 269.6L1049.96 269.6L1049.93 269.59L1049.9 269.59L1049.87 269.58L1049.84 269.57L1049.8 269.57L1049.77 269.56L1049.73 269.55L1049.69 269.54L1049.65 269.52L1049.61 269.51L1049.56 269.5L1049.52 269.48L1049.47 269.46L1049.42 269.44L1049.36 269.42L1049.31 269.4L1049.25 269.37L1049.19 269.34L1049.12 269.32L1049.06 269.28L1048.99 269.25L1048.92 269.22L1048.85 269.18L1048.77 269.14L1048.7 269.1L1048.62 269.06L1048.55 269.02L1048.48 268.98L1048.4 268.94L1048.33 268.9L1048.26 268.85L1048.19 268.81L1048.11 268.76L1048.04 268.71L1047.97 268.66L1047.91 268.61L1047.84 268.56L1047.77 268.51L1047.71 268.45L1047.64 268.4L1047.58 268.34L1047.52 268.29L1047.46 268.23L1047.4 268.17L1047.35 268.11L1047.3 268.04L1047.25 267.98L1047.2 267.91L1047.15 267.85L1047.11 267.78L1047.07 267.71L1047.03 267.64L1047 267.57L1046.97 267.5L1046.94 267.42L1046.91 267.35L1046.89 267.27L1046.87 267.19L1046.86 267.11L1046.84 267.03L1046.84 266.94L1046.83 266.86L1046.83 266.8L1046.84 266.73L1046.84 266.67L1046.85 266.61L1046.86 266.55L1046.87 266.49L1046.88 266.43L1046.89 266.38L1046.91 266.32L1046.93 266.26L1046.95 266.2L1046.97 266.15L1046.99 266.09L1047.02 266.04L1047.05 265.98L1047.07 265.93L1047.1 265.88L1047.14 265.83L1047.17 265.77L1047.2 265.72L1047.24 265.67L1047.27 265.62L1047.31 265.57L1047.35 265.53L1047.39 265.48L1047.43 265.43L1047.47 265.38L1047.51 265.34L1047.55 265.29L1047.6 265.25L1047.64 265.2L1047.69 265.16L1047.73 265.12L1047.78 265.08L1047.82 265.04L1047.87 265L1047.92 264.96L1047.96 264.92L1048.01 264.88L1048.06 264.84L1048.17 264.75L1048.28 264.66L1048.38 264.57L1048.48 264.47L1048.57 264.37L1048.66 264.27L1048.74 264.17L1048.82 264.07L1048.9 263.97L1048.97 263.86L1049.04 263.76L1049.11 263.66L1049.18 263.55L1049.24 263.45L1049.3 263.35L1049.36 263.25L1049.42 263.15L1049.48 263.05L1049.54 262.95L1049.59 262.86L1049.65 262.77L1049.71 262.68L1049.76 262.59L1049.82 262.51L1049.88 262.43L1049.94 262.36L1050 262.28L1050.07 262.22L1050.13 262.15L1050.2 262.1L1050.27 262.04L1050.34 262L1050.42 261.95L1050.5 261.92L1050.58 261.89L1050.67 261.86L1050.76 261.85L1050.86 261.84L1050.96 261.84L1051.07 261.84L1051.09 261.84L1051.11 261.84L1051.13 261.84L1051.15 261.83L1051.17 261.83L1051.19 261.83L1051.21 261.83L1051.23 261.83L1051.25 261.83L1051.27 261.83L1051.29 261.83L1051.31 261.83L1051.33 261.83L1051.35 261.83L1051.37 261.84L1051.39 261.84L1051.41 261.84L1051.43 261.84L1051.46 261.84L1051.48 261.85L1051.5 261.85L1051.52 261.85L1051.54 261.86L1051.56 261.86L1051.58 261.86L1051.6 261.87L1051.62 261.87L1051.64 261.88L1051.66 261.88L1051.68 261.88L1051.7 261.89L1051.72 261.9L1051.74 261.9L1051.76 261.91L1051.78 261.91L1051.8 261.92L1051.82 261.93L1051.84 261.93L1051.86 261.94L1051.88 261.95L1051.98 261.98L1052.08 262.02L1052.17 262.06L1052.27 262.1L1052.37 262.14L1052.47 262.18L1052.57 262.22L1052.66 262.27L1052.76 262.31L1052.85 262.36L1052.95 262.4L1053.05 262.45L1053.14 262.5L1053.24 262.55L1053.33 262.6L1053.42 262.65L1053.52 262.7L1053.61 262.75L1053.71 262.8L1053.8 262.85L1053.89 262.9L1053.99 262.95L1054.08 263L1054.17 263.06L1054.27 263.11L1054.36 263.16L1054.46 263.21L1054.55 263.26L1054.64 263.31L1054.74 263.36L1054.83 263.41L1054.93 263.46L1055.02 263.51L1055.12 263.55L1055.22 263.6L1055.31 263.65L1055.41 263.69L1055.51 263.73L1055.6 263.78L1055.7 263.82L1055.77 263.85L1055.84 263.87L1055.91 263.9L1055.98 263.93L1056.05 263.95L1056.12 263.98L1056.19 264L1056.26 264.03L1056.33 264.05L1056.4 264.07L1056.47 264.1L1056.54 264.12L1056.61 264.14L1056.68 264.16L1056.75 264.18L1056.82 264.2L1056.89 264.22L1056.96 264.23L1057.04 264.25L1057.11 264.27L1057.18 264.28L1057.25 264.3L1057.32 264.31L1057.4 264.33L1057.47 264.34L1057.54 264.35L1057.61 264.37L1057.69 264.38L1057.76 264.39L1057.83 264.4L1057.9 264.41L1057.98 264.42L1058.05 264.42L1058.12 264.43L1058.2 264.44L1058.27 264.45L1058.34 264.45L1058.42 264.46L1058.49 264.46L1058.56 264.46L1058.61 264.46L1058.66 264.46L1058.7 264.46L1058.75 264.46L1058.8 264.46L1058.84 264.46L1058.89 264.46L1058.94 264.46L1058.99 264.46L1059.03 264.47L1059.08 264.47L1059.13 264.47L1059.17 264.47L1059.22 264.47L1059.27 264.47L1059.31 264.48L1059.36 264.48L1059.41 264.48L1059.45 264.48L1059.5 264.49L1059.55 264.49L1059.6 264.49L1059.64 264.5L1059.69 264.5L1059.74 264.5L1059.78 264.51L1059.83 264.51L1059.88 264.52L1059.92 264.52L1059.97 264.53L1060.02 264.53L1060.06 264.54L1060.11 264.54L1060.16 264.55L1060.2 264.56L1060.25 264.56L1060.3 264.57L1060.34 264.58L1060.39 264.58L1060.44 264.59L1060.47 264.6L1060.51 264.61L1060.55 264.62L1060.58 264.63L1060.62 264.64L1060.66 264.65L1060.7 264.66L1060.73 264.67L1060.77 264.68L1060.8 264.7L1060.84 264.71L1060.88 264.72L1060.91 264.73L1060.95 264.75L1060.99 264.76L1061.02 264.77L1061.06 264.79L1061.09 264.8L1061.13 264.82L1061.17 264.83L1061.2 264.85L1061.24 264.86L1061.27 264.88L1061.31 264.89L1061.34 264.91L1061.38 264.92L1061.41 264.94L1061.45 264.96L1061.48 264.97L1061.52 264.99L1061.55 265.01L1061.59 265.03L1061.62 265.05L1061.66 265.06L1061.69 265.08L1061.72 265.1L1061.76 265.12L1061.79 265.14L1061.82 265.16L1061.86 265.18L1062.07 265.3L1062.28 265.42L1062.49 265.55L1062.7 265.68L1062.91 265.81L1063.12 265.95L1063.33 266.08L1063.55 266.23L1063.76 266.37L1063.97 266.52L1064.18 266.67L1064.39 266.82L1064.6 266.98L1064.8 267.14L1065.01 267.3L1065.21 267.47L1065.41 267.63L1065.61 267.81L1065.8 267.98L1065.99 268.16L1066.18 268.34L1066.36 268.52L1066.54 268.71L1066.72 268.9L1066.89 269.09L1067.06 269.29L1067.22 269.49L1067.38 269.69L1067.53 269.89L1067.68 270.1L1067.82 270.31L1067.95 270.53L1068.08 270.74L1068.2 270.96L1068.31 271.18L1068.42 271.41L1068.52 271.64L1068.61 271.87L1068.7 272.11L1068.77 272.34L1068.83 272.57L1068.89 272.8L1068.94 273.03L1068.98 273.26L1069.02 273.5L1069.05 273.74L1069.08 273.98L1069.1 274.22L1069.12 274.47L1069.14 274.71L1069.16 274.96L1069.17 275.21L1069.19 275.45L1069.2 275.7L1069.21 275.95L1069.22 276.2L1069.23 276.44L1069.24 276.69L1069.26 276.93L1069.27 277.17L1069.29 277.42L1069.31 277.66L1069.33 277.89L1069.36 278.13L1069.4 278.36L1069.43 278.59L1069.48 278.82L1069.52 279.04L1069.58 279.26L1069.64 279.47L1069.71 279.69L1069.79 279.89L1069.87 280.09L1069.97 280.29L1070.07 280.48L1070.18 280.67L1070.3 280.85L1070.44 281.03L1070.58 281.19L1070.74 281.36L1070.77 281.38L1070.8 281.41L1070.82 281.43L1070.85 281.46L1070.88 281.48L1070.91 281.51L1070.94 281.53L1070.97 281.56L1071 281.58L1071.02 281.61L1071.05 281.63L1071.08 281.66L1071.11 281.69L1071.14 281.71L1071.16 281.74L1071.19 281.76L1071.22 281.79L1071.24 281.82L1071.27 281.84L1071.3 281.87L1071.33 281.9L1071.35 281.93L1071.38 281.95L1071.41 281.98L1071.43 282.01L1071.46 282.04L1071.48 282.06L1071.51 282.09L1071.54 282.12L1071.56 282.15L1071.59 282.18L1071.61 282.21L1071.64 282.24L1071.66 282.26L1071.69 282.29L1071.71 282.32L1071.74 282.35L1071.76 282.38L1071.79 282.41L1071.81 282.44L1071.83 282.47L1071.85 282.51L1071.87 282.54L1071.89 282.57L1071.91 282.61L1071.93 282.64L1071.95 282.67L1071.97 282.71L1071.99 282.74L1072.01 282.78L1072.02 282.81L1072.04 282.85L1072.06 282.88L1072.07 282.92L1072.09 282.95L1072.1 282.99L1072.12 283.03L1072.14 283.06L1072.15 283.1L1072.16 283.13L1072.18 283.17L1072.19 283.21L1072.2 283.24L1072.22 283.28L1072.23 283.32L1072.24 283.35L1072.25 283.39L1072.27 283.43L1072.28 283.47L1072.29 283.5L1072.3 283.54L1072.31 283.58L1072.32 283.62L1072.33 283.66L1072.34 283.7L1072.34 283.73L1072.35 283.77L1072.36 283.81L1072.37 283.85L1072.38 283.89L1072.41 284.02L1072.43 284.16L1072.46 284.29L1072.48 284.43L1072.51 284.56L1072.53 284.7L1072.55 284.83L1072.56 284.97L1072.58 285.1L1072.59 285.24L1072.6 285.38L1072.61 285.51L1072.61 285.65L1072.62 285.79L1072.62 285.92L1072.62 286.06L1072.62 286.19L1072.62 286.33L1072.61 286.47L1072.61 286.6L1072.6 286.74L1072.59 286.87L1072.57 287.01L1072.56 287.14L1072.54 287.28L1072.52 287.41L1072.5 287.55L1072.48 287.68L1072.45 287.82L1072.43 287.95L1072.4 288.08L1072.37 288.22L1072.34 288.35L1072.3 288.48L1072.27 288.61L1072.23 288.74L1072.19 288.87L1072.15 289L1072.1 289.13L1072.06 289.26L1072.01 289.39L1071.96 289.52L1071.9 289.64L1071.85 289.76L1071.79 289.89L1071.73 290.01L1071.66 290.13L1071.6 290.24L1071.53 290.36L1071.46 290.47L1071.39 290.59L1071.32 290.7L1071.24 290.81L1071.16 290.91L1071.08 291.02L1071 291.12L1070.92 291.23L1070.83 291.33L1070.74 291.42L1070.66 291.52L1070.56 291.61L1070.47 291.71L1070.38 291.8L1070.28 291.88L1070.18 291.97L1070.08 292.05L1069.98 292.13L1069.88 292.21L1069.77 292.29L1069.67 292.36L1069.56 292.44L1069.45 292.51L1069.34 292.57L1069.23 292.64L1069.12 292.7L1069 292.76L1068.89 292.82L1068.77 292.87L1068.65 292.93L1068.53 292.98L1068.48 293L1068.42 293.01L1068.37 293.03L1068.32 293.05L1068.26 293.07L1068.21 293.09L1068.15 293.1L1068.1 293.12L1068.04 293.13L1067.99 293.15L1067.94 293.16L1067.88 293.18L1067.83 293.19L1067.77 293.21L1067.72 293.22L1067.66 293.23L1067.61 293.25L1067.55 293.26L1067.49 293.27L1067.44 293.29L1067.38 293.3L1067.33 293.31L1067.27 293.32L1067.16 293.35L1067.11 293.36L1067.05 293.37L1067 293.39L1066.94 293.4L1066.89 293.41L1066.83 293.43L1066.78 293.44L1066.72 293.45L1066.67 293.47L1066.61 293.48L1066.56 293.49L1066.5 293.51L1066.45 293.52L1066.39 293.54L1066.34 293.55L1066.08 293.63L1065.83 293.72L1065.58 293.82L1065.33 293.92L1065.09 294.03L1064.85 294.15L1064.61 294.27L1064.37 294.4L1064.14 294.54L1063.91 294.68L1063.68 294.82L1063.46 294.98L1063.24 295.13L1063.01 295.29L1062.8 295.45L1062.58 295.62L1062.36 295.79L1062.14 295.96L1061.93 296.14L1061.71 296.31L1061.5 296.49L1061.29 296.67L1061.07 296.85L1060.86 297.03L1060.65 297.21L1060.44 297.4L1060.22 297.58L1060.01 297.76L1059.79 297.93L1059.58 298.11L1059.36 298.29L1059.14 298.46L1058.92 298.63L1058.7 298.8L1058.48 298.96L1058.26 299.12L1058.03 299.28L1057.8 299.43L1057.57 299.58L1057.34 299.72L1057.32 299.73L1057.3 299.74L1057.28 299.76L1057.26 299.77L1057.24 299.78L1057.22 299.79L1057.2 299.8L1057.18 299.81L1057.16 299.82L1057.14 299.83L1057.12 299.85L1057.1 299.86L1057.08 299.86L1057.06 299.87L1057.04 299.88L1057.02 299.89L1057 299.9L1056.98 299.91L1056.96 299.92L1056.94 299.92L1056.91 299.93L1056.89 299.94L1056.87 299.95L1056.85 299.95L1056.83 299.96L1056.81 299.96L1056.79 299.97L1056.76 299.98L1056.74 299.98L1056.72 299.98L1056.7 299.99L1056.68 299.99L1056.66 300L1056.63 300L1056.61 300L1056.59 300.01L1056.57 300.01L1056.54 300.01L1056.52 300.01L1056.5 300.02L1056.39 300.02L1056.38 300.02L1056.37 300.02L1056.35 300.02L1056.34 300.02L1056.33 300.02L1056.31 300.02L1056.31 300.02L1056.29 300.02L1056.28 300.02L1056.26 300.02L1056.25 300.02L1056.23 300.02L1056.23 300.02L1056.21 300.02L1056.2 300.02L1056.19 300.02L1056.17 300.02L1056.15 300.02L1056.12 300.01L1056.1 300.01L1056.07 300.01L1056.05 300L1056.02 300L1056 299.99L1055.97 299.99L1055.95 299.98L1055.93 299.97L1055.9 299.97L1055.88 299.96L1055.85 299.95L1055.83 299.94L1055.81 299.94L1055.78 299.93L1055.76 299.92L1055.74 299.91L1055.72 299.9L1055.69 299.89L1055.67 299.88L1055.65 299.87L1055.62 299.86L1055.6 299.85L1055.58 299.84L1055.56 299.82L1055.54 299.81L1055.51 299.8L1055.49 299.79L1055.47 299.77L1055.45 299.76L1055.43 299.74L1055.41 299.73L1055.39 299.71L1055.37 299.7L1055.35 299.68L1055.33 299.67L1055.31 299.65L1055.29 299.64L1055.14 299.53L1055.12 299.64L1055.1 299.76L1055.08 299.87L1055.06 299.99L1055.04 300.1L1055.02 300.22L1055 300.33L1054.99 300.45L1054.97 300.57L1054.96 300.68L1054.95 300.8L1054.94 300.92L1054.93 301.03L1054.92 301.15L1054.91 301.27L1054.9 301.38L1054.9 301.5L1054.89 301.62L1054.89 301.74L1054.89 301.85L1054.89 301.97L1054.89 302.09L1054.89 302.2L1054.89 302.32L1054.89 302.44L1054.9 302.56L1054.9 302.67L1054.91 302.79L1054.92 302.91L1054.92 303.02L1054.93 303.14L1054.95 303.26L1054.96 303.37L1054.97 303.49L1054.98 303.61L1055 303.72L1055.02 303.84L1055.03 303.96L1055.05 304.07L1055.07 304.19L1055.18 304.19L1055.31 304.19L1055.47 304.2L1055.64 304.21L1055.84 304.22L1056.05 304.24L1056.28 304.27L1056.53 304.31L1056.79 304.35L1057.07 304.41L1057.35 304.47L1057.64 304.55L1057.95 304.63L1058.25 304.74L1058.57 304.85L1058.88 304.98L1059.2 305.13L1059.52 305.29L1059.84 305.47L1060.15 305.67L1060.46 305.89L1060.77 306.14L1061.07 306.4L1061.35 306.68L1061.63 306.99L1061.9 307.32L1062.16 307.68L1062.4 308.06L1062.62 308.47L1062.83 308.91L1063.01 309.37L1063.18 309.87L1063.33 310.39L1063.45 310.95L1063.54 311.54L1063.61 312.17L1063.65 312.82L1063.66 313.52L1063.64 314.25L1063.59 315.01L1063.5 315.87L1063.36 316.74L1063.19 317.63L1062.99 318.53L1062.76 319.44L1062.49 320.36L1062.2 321.28L1061.88 322.21L1061.54 323.14L1061.17 324.07L1060.79 325L1060.39 325.93L1059.97 326.85L1059.54 327.76L1059.1 328.66L1058.65 329.55L1058.19 330.43L1057.73 331.29L1057.27 332.13L1056.81 332.96L1056.35 333.76L1055.89 334.54L1055.44 335.3L1055 336.03L1054.56 336.73L1054.14 337.4L1053.74 338.03L1053.35 338.63L1052.98 339.2L1052.63 339.72L1052.31 340.21L1052 340.65L1051.73 341.04L1051.49 341.39L1051.28 341.7L1051.1 341.95L1050.96 342.15L1050.85 342.29L1050.79 342.38L1050.77 342.41L1050.75 342.43L1050.71 342.48L1050.63 342.57L1050.54 342.71L1050.41 342.88L1050.27 343.1L1050.11 343.35L1049.93 343.66L1049.73 344L1049.52 344.4L1049.3 344.84L1049.06 345.33L1048.82 345.87L1048.57 346.46L1048.31 347.11L1048.05 347.81L1047.79 348.56L1047.54 349.37L1047.28 350.24L1047.03 351.17L1046.78 352.15L1046.54 353.2L1046.32 354.31L1046.1 355.49L1045.9 356.72L1045.71 358.03L1045.55 359.4L1045.4 360.84L1045.27 362.35L1045.16 363.93L1045.08 365.58L1045.03 367.31L1045.01 369.11L1045.01 370.98L1045.05 372.94L1045.12 374.97L1045.23 377.07L1045.38 379.26L1045.57 381.54L1045.8 383.89L1046.39 399.4L1046.36 399.39L1046.33 399.39L1046.29 399.38L1046.24 399.37L1046.17 399.37L1046.1 399.36L1046.01 399.34L1045.92 399.33L1045.81 399.32L1045.69 399.3L1045.57 399.28L1045.43 399.26L1045.29 399.24L1045.13 399.22L1044.97 399.2L1044.8 399.18L1044.62 399.16L1044.43 399.13L1044.23 399.11L1044.03 399.08L1043.81 399.05L1043.59 399.02L1043.37 399L1043.13 398.97L1042.89 398.94L1042.65 398.91L1042.39 398.87L1042.14 398.84L1041.87 398.81L1041.6 398.78L1041.32 398.75L1041.04 398.71L1040.76 398.68L1040.47 398.65L1040.17 398.61L1039.87 398.58L1039.57 398.55L1039.26 398.51L1038.95 398.48L1038.95 398.48L1038.94 398.51L1038.9 398.59L1038.87 398.65L1038.86 398.68L1038.84 398.73L1038.81 398.78L1038.8 398.82L1038.78 398.86L1038.76 398.9L1038.75 398.92L1038.73 398.96L1038.72 398.98L1038.7 399.02L1038.68 399.07L1038.67 399.09L1038.58 399.26L1038.49 399.43L1038.4 399.6L1038.31 399.76L1038.22 399.93L1038.13 400.1L1038.03 400.26L1037.94 400.42L1037.84 400.59L1037.74 400.75L1037.64 400.91L1037.54 401.07L1037.44 401.23L1037.34 401.39L1037.24 401.54L1037.13 401.7L1037.02 401.86L1036.92 402.01L1036.81 402.17L1036.7 402.32L1036.59 402.47L1036.48 402.62L1036.37 402.77L1036.25 402.92L1036.14 403.07L1036.02 403.21L1035.9 403.36L1035.78 403.51L1035.67 403.65L1035.55 403.79L1035.42 403.93L1035.3 404.07L1035.18 404.21L1035.05 404.35L1034.93 404.49L1034.8 404.63L1034.67 404.76L1034.54 404.9L1034.41 405.03L1034.28 405.16L1027.72 422.99L1027.7 423.03L1027.68 423.07L1027.65 423.13L1027.63 423.17L1027.62 423.2L1027.59 423.25L1027.57 423.3L1027.55 423.35L1027.52 423.4L1027.49 423.46L1027.46 423.52L1027.43 423.59L1027.4 423.66L1027.36 423.73L1027.33 423.81L1027.29 423.89L1027.25 423.97L1027.21 424.06L1027.17 424.15L1027.12 424.24L1027.08 424.34L1027.03 424.44L1026.98 424.54L1026.93 424.64L1026.88 424.75L1026.83 424.87L1026.77 424.98L1026.72 425.1L1026.66 425.22L1026.61 425.34L1026.55 425.47L1026.49 425.6L1026.43 425.73L1026.37 425.86L1026.3 426L1026.31 426.28L1026.32 426.56L1026.34 426.83L1026.36 427.11L1026.4 427.38L1026.43 427.65L1026.48 427.91L1026.53 428.17L1026.58 428.43L1026.64 428.68L1026.71 428.92L1026.77 429.17L1026.85 429.41L1026.92 429.64L1027 429.86L1027.07 430.09L1027.15 430.3L1027.24 430.51L1027.32 430.71L1027.4 430.91L1027.48 431.1L1027.57 431.28L1027.65 431.45L1027.73 431.62L1027.81 431.77L1027.88 431.92L1027.96 432.06L1028.03 432.2L1028.1 432.32L1028.16 432.43L1028.22 432.54L1028.28 432.63L1028.33 432.71L1028.37 432.79L1028.41 432.85L1028.44 432.9L1028.47 432.94L1028.49 432.97L1028.5 432.99L1028.51 433L1029.5 433.32L1030.46 433.67L1031.39 434.06L1032.3 434.49L1033.18 434.95L1034.03 435.44L1034.85 435.96L1035.65 436.5L1036.41 437.06L1037.16 437.64L1037.87 438.24L1038.56 438.86L1039.22 439.48L1039.85 440.12L1040.46 440.76L1041.04 441.41L1041.6 442.06L1042.13 442.71L1042.63 443.36L1043.11 444L1043.56 444.64L1043.99 445.27L1044.4 445.88L1044.78 446.48L1045.13 447.06L1045.46 447.62L1045.77 448.16L1046.05 448.68L1046.31 449.17L1046.55 449.62L1046.76 450.05L1046.95 450.44L1047.12 450.8L1047.26 451.11L1047.38 451.39L1047.48 451.62L1047.56 451.8L1047.61 451.93L1047.65 452.02L1047.66 452.04L1047.67 452.05L1047.71 452.08L1047.78 452.12L1047.87 452.18L1047.99 452.26L1048.13 452.35L1048.29 452.46L1048.46 452.58L1048.66 452.72L1048.88 452.87L1049.11 453.03L1049.35 453.21L1049.61 453.4L1049.88 453.61L1050.16 453.83L1050.45 454.05L1050.75 454.3L1051.06 454.55L1051.37 454.81L1051.68 455.08L1052 455.37L1052.33 455.66L1052.65 455.96L1052.97 456.28L1053.29 456.6L1053.61 456.93L1053.92 457.26L1054.23 457.61L1054.53 457.96L1054.82 458.31L1055.1 458.68L1055.37 459.05L1055.63 459.42L1055.88 459.8L1056.11 460.19L1056.33 460.58L1056.53 460.97L1056.71 461.37L1056.87 461.77L1057.01 462.18L1057.24 462.39L1057.47 462.62L1057.68 462.86L1057.88 463.13L1058.07 463.4L1058.25 463.69L1058.42 463.98L1058.58 464.29L1058.72 464.61L1058.86 464.93L1058.99 465.27L1059.11 465.6L1059.22 465.94L1059.33 466.29L1059.42 466.63L1059.51 466.98L1059.59 467.33L1059.67 467.67L1059.73 468.01L1059.79 468.35L1059.85 468.69L1059.9 469.01L1059.94 469.33L1059.98 469.64L1060.01 469.94L1060.04 470.23L1060.07 470.51L1060.09 470.78L1060.11 471.03L1060.12 471.26L1060.13 471.48L1060.14 471.68L1060.15 471.86L1060.15 472.02L1060.16 472.16L1060.16 472.27L1060.16 472.37L1060.16 472.43L1060.16 472.48L1060.16 472.49L1060.14 472.5L1060.08 472.54L1059.98 472.6L1059.84 472.68L1059.67 472.78L1059.46 472.91L1059.21 473.05L1058.94 473.21L1058.63 473.39L1058.3 473.59L1057.94 473.8L1057.54 474.03L1057.13 474.27L1056.69 474.53L1056.22 474.8L1055.74 475.08L1055.23 475.37L1054.7 475.67L1054.16 475.98L1053.6 476.29L1053.02 476.62L1052.44 476.95L1051.83 477.28L1051.22 477.62L1050.6 477.96L1049.97 478.3L1049.33 478.65L1048.68 479L1048.03 479.34L1047.38 479.69L1046.72 480.03L1046.07 480.37L1045.41 480.71L1044.76 481.04L1044.11 481.37L1043.47 481.69L1042.83 482L1042.19 482.3L1041.57 482.59L1040.96 482.88L1040.89 482.91L1040.82 482.94L1040.74 482.97L1040.67 483L1040.6 483.03L1040.53 483.06L1040.46 483.09L1040.39 483.12L1040.32 483.15L1040.24 483.18L1040.17 483.21L1040.1 483.23L1040.03 483.26L1039.95 483.29L1039.88 483.31L1039.81 483.34L1039.74 483.36L1039.66 483.39L1039.59 483.41L1039.52 483.43L1039.44 483.46L1039.37 483.48L1039.29 483.5L1039.22 483.52L1039.15 483.54L1039.07 483.57L1039 483.59L1038.92 483.61L1038.85 483.63L1038.78 483.64L1038.7 483.66L1038.63 483.68L1038.55 483.7L1038.48 483.72L1038.4 483.73L1038.33 483.75L1038.25 483.76L1038.18 483.78L1038.1 483.8L1038.03 483.81L1039.92 487.84L1040.06 487.91L1040.2 488.01L1040.32 488.15L1040.45 488.31L1040.57 488.51L1040.68 488.73L1040.79 488.97L1040.89 489.24L1040.98 489.53L1041.08 489.83L1041.16 490.16L1041.25 490.49L1041.33 490.85L1041.4 491.21L1041.47 491.58L1041.53 491.96L1041.6 492.35L1041.65 492.74L1041.71 493.14L1041.76 493.53L1041.8 493.92L1041.85 494.31L1041.89 494.7L1041.92 495.07L1041.95 495.44L1041.98 495.8L1042.01 496.15L1042.04 496.48L1042.06 496.8L1042.08 497.1L1042.1 497.37L1042.11 497.63L1042.12 497.86L1042.13 498.07L1042.14 498.25L1042.15 498.41L1042.15 498.53L1042.16 498.62L1042.16 498.67L1042.16 498.69L1042.12 498.72L1042.02 498.81L1041.84 498.95L1041.6 499.14L1041.3 499.38L1040.94 499.66L1040.53 499.99L1040.06 500.36L1039.54 500.76L1038.98 501.2L1038.38 501.66L1037.74 502.16L1037.06 502.68L1036.34 503.22L1035.6 503.78L1034.83 504.36L1034.04 504.95L1033.22 505.56L1032.39 506.17L1031.54 506.78L1030.69 507.4L1029.82 508.02L1028.95 508.63L1028.08 509.23L1027.2 509.83L1026.34 510.41L1025.48 510.98L1024.63 511.53L1023.79 512.06L1022.97 512.57L1022.17 513.05L1021.4 513.5L1020.65 513.91L1019.93 514.29L1019.24 514.63L1018.59 514.94L1017.98 515.19L1017.4 515.4L1016.88 515.56L1016.4 515.67L1015.95 515.74L1015.5 515.79L1015.06 515.82L1014.62 515.83L1014.19 515.82L1013.77 515.8L1013.36 515.76L1012.96 515.7L1012.57 515.63L1012.19 515.54L1011.82 515.44L1011.47 515.32L1011.14 515.19L1010.81 515.05L1010.51 514.9L1010.23 514.73L1009.96 514.56L1009.71 514.37L1009.49 514.17L1009.29 513.97L1009.11 513.76L1008.95 513.54L1008.82 513.31L1008.72 513.07L1008.64 512.83L1008.59 512.59L1008.57 512.34L1008.58 512.09L1008.62 511.83L1008.7 511.57L1008.81 511.31L1008.95 511.04L1009.12 510.78L1009.34 510.52L1009.59 510.25L1009.87 509.99L1010.2 509.73L1010.57 509.47L1010.98 509.21L1011.43 508.96L1011.81 508.74L1012.19 508.5L1012.58 508.23L1012.96 507.94L1013.35 507.63L1013.73 507.29L1014.11 506.94L1014.5 506.56L1014.88 506.17L1015.26 505.77L1015.64 505.34L1016.01 504.91L1016.38 504.46L1016.75 504L1017.12 503.53L1017.48 503.06L1017.84 502.57L1018.19 502.09L1018.54 501.59L1018.88 501.09L1019.22 500.59L1019.55 500.09L1019.87 499.59L1020.19 499.1L1020.5 498.6L1020.8 498.11L1021.09 497.62L1021.37 497.15L1021.65 496.67L1021.92 496.21L1022.17 495.76L1022.42 495.33L1022.66 494.9L1022.88 494.49L1023.1 494.09L1023.3 493.72L1023.49 493.36L1023.67 493.02L1023.84 492.7L1023.99 492.4L1023.79 492.11L1023.56 491.78L1023.32 491.43L1023.05 491.05L1022.78 490.65L1022.48 490.22L1022.18 489.77L1021.86 489.3L1021.53 488.81L1021.19 488.3L1020.84 487.77L1020.49 487.23L1020.12 486.67L1019.76 486.1L1019.39 485.53L1019.01 484.94L1018.64 484.34L1018.27 483.74L1017.89 483.13L1017.52 482.52L1017.16 481.91L1016.79 481.29L1016.44 480.68L1016.09 480.07L1015.75 479.46L1015.42 478.86L1015.1 478.26L1014.8 477.67L1014.51 477.09L1014.23 476.52L1013.97 475.97L1013.73 475.43L1013.5 474.9L1013.3 474.39L1013.11 473.9L1012.95 473.43L1012.82 472.98L1012.7 472.55L1012.62 472.14L1012.56 471.76L1012.49 471.33L1012.4 470.9L1012.29 470.48L1012.15 470.06L1011.99 469.65L1011.82 469.24L1011.62 468.84L1011.41 468.45L1011.19 468.06L1010.95 467.68L1010.7 467.31L1010.43 466.94L1010.16 466.58L1009.88 466.23L1009.59 465.89L1009.3 465.56L1009 465.24L1008.7 464.93L1008.4 464.63L1008.1 464.34L1007.8 464.06L1007.5 463.79L1007.21 463.53L1006.92 463.29L1006.64 463.05L1006.37 462.83L1006.11 462.63L1005.85 462.43L1005.61 462.25L1005.39 462.08L1005.18 461.93L1004.98 461.79L1004.81 461.67L1004.65 461.56L1004.51 461.47L1004.4 461.39L1004.3 461.34L1004.24 461.29L1004.19 461.27L1004.18 461.26L1003.38 460.32L1002.64 459.38L1001.97 458.43L1001.36 457.47L1000.8 456.51L1000.31 455.54L999.87 454.57L999.48 453.59L999.14 452.61L998.84 451.63L998.6 450.65L998.39 449.67L998.23 448.69L998.1 447.71L998.01 446.74L997.96 445.77L997.93 444.8L997.94 443.84L997.97 442.89L998.03 441.94L998.11 441.01L998.2 440.08L998.32 439.16L998.45 438.26L998.6 437.37L998.75 436.49L998.92 435.62L999.09 434.77L999.26 433.94L999.44 433.12L999.62 432.32L999.79 431.54L999.96 430.78L1000.12 430.04L1000.27 429.33L1000.41 428.63L1000.53 427.96L1000.64 427.31L1000.73 426.69L1000.8 426.09L1000.8 426.08L1000.8 426.06L1000.8 426.02L1000.81 426L1000.81 425.97L1000.81 425.95L1000.81 425.93L1000.82 425.89L1000.82 425.87L1000.82 425.84L1000.83 425.82L1000.83 425.79L1000.83 425.77L1000.84 425.74L1000.84 425.72L1000.84 425.69L1000.85 425.66L1000.86 425.6L1000.88 425.45L1000.9 425.28L1000.93 425.11L1000.96 424.94L1000.99 424.76L1001.02 424.57L1001.06 424.38L1001.09 424.19L1001.13 423.99L1001.17 423.78L1001.22 423.57L1001.26 423.35L1001.31 423.13L1001.36 422.91L1001.41 422.68L1001.47 422.44L1001.52 422.2L1001.58 421.96L1001.64 421.71L1001.7 421.46L1001.76 421.2L1001.82 420.94L1001.89 420.67L1001.96 420.4L1002.03 420.13L1002.1 419.85L1002.17 419.57L1002.24 419.29L1002.32 419L1002.39 418.71L1002.47 418.41L1002.55 418.12L1002.63 417.82L1002.71 417.51L1002.8 417.2L1002.88 416.89L1002.97 416.58L1003.05 416.26L1003.14 415.94L1003.23 415.62L1003.13 415.01L1003.03 414.37L1002.94 413.72L1002.84 413.06L1002.74 412.38L1002.65 411.69L1002.55 410.99L1002.46 410.28L1002.36 409.55L1002.27 408.82L1002.17 408.08L1002.08 407.33L1001.99 406.57L1001.9 405.81L1001.81 405.04L1001.72 404.26L1001.64 403.49L1001.55 402.71L1001.47 401.92L1001.38 401.14L1001.3 400.35L1001.22 399.57L1001.14 398.79L1001.06 398.01L1000.98 397.23L1000.91 396.45L1000.83 395.68L1000.76 394.92L1000.68 394.16L1000.61 393.41L1000.54 392.66L1000.48 391.93L1000.41 391.2L1000.34 390.49L1000.28 389.79L1000.22 389.09L1000.16 388.41L1000.1 387.75L1000.05 387.1L999.99 386.46L999.82 386.53L999.66 386.6L999.52 386.67L999.39 386.73L999.27 386.8L999.16 386.87L999.07 386.94L998.98 387.01L998.91 387.07L998.85 387.14L998.79 387.21L998.75 387.27L998.73 387.32L998.81 387.6L999.13 388.38L999.12 388.37L999.1 388.36L999.09 388.35L999.07 388.34L999.04 388.32L999.01 388.29L998.99 388.27L998.96 388.24L998.92 388.21L998.89 388.17L998.86 388.14L998.83 388.1L998.8 388.06L998.77 388.01L998.74 387.96L998.72 387.92L998.69 387.87L998.68 387.81L998.66 387.76L998.65 387.7L998.65 387.65L998.65 387.59L998.65 387.53L998.67 387.46L998.69 387.4L998.71 387.34L998.73 387.32L998.55 386.71L998.34 385.72L998.18 384.63L998.07 383.45L998 382.18L997.98 380.83L998 379.4L998.07 377.9L998.17 376.34L998.3 374.72L998.47 373.05L998.68 371.33L998.91 369.57L999.17 367.77L999.46 365.94L999.77 364.08L1000.1 362.21L1000.46 360.32L1000.83 358.42L1001.22 356.52L1001.62 354.62L1002.04 352.74L1002.46 350.86L1002.9 349L1003.34 347.17L1003.78 345.37L1004.23 343.61L1004.68 341.89L1005.12 340.21L1005.57 338.59L1006 337.03L1006.43 335.53L1006.85 334.1L1007.26 332.75L1007.65 331.48L1008.03 330.3L1008.39 329.2L1008.74 328.21L1009.06 327.32L1008.86 327.25L1008.66 327.18L1008.45 327.11L1008.24 327.04L1008.02 326.97L1007.79 326.9L1007.55 326.82L1007.31 326.75L1007.06 326.67L1006.81 326.59L1006.54 326.51L1006.27 326.43L1006 326.34L1005.71 326.26L1005.42 326.17L1005.12 326.09L1004.82 326L1004.51 325.91L1004.19 325.82L1003.86 325.73L1003.53 325.64L1003.19 325.54L1002.84 325.45L1002.49 325.35L1002.13 325.26L1001.76 325.16L1001.39 325.06L1001.01 324.96L1000.62 324.87L1000.22 324.77L999.82 324.67L999.41 324.56L998.99 324.46L998.57 324.36L998.14 324.26L997.7 324.15L997.26 324.05L996.81 323.95L996.35 323.84L995.88 323.74L995.1 323.55L994.36 323.36L993.65 323.15L992.97 322.93L992.33 322.71L991.73 322.47L991.15 322.23L990.61 321.98L990.1 321.72L989.61 321.46L989.16 321.19L988.73 320.93L988.33 320.65L987.95 320.38L987.6 320.11L987.28 319.83L986.98 319.56L986.7 319.29L986.44 319.02L986.2 318.76L985.99 318.5L985.79 318.24L985.61 317.99L985.45 317.75L985.3 317.52L985.17 317.29L985.06 317.08L984.96 316.87L984.87 316.68L984.79 316.5L984.73 316.33L984.68 316.17L984.63 316.03L984.6 315.91L984.57 315.8L984.55 315.71L984.53 315.64L984.52 315.59L984.52 315.56L984.52 315.55L984.45 315.34L984.36 315.07L984.27 314.75L984.17 314.37L984.06 313.95L983.94 313.47L983.82 312.96L983.68 312.4L983.54 311.8L983.4 311.17L983.25 310.51L983.09 309.83L982.93 309.11L982.76 308.38L982.59 307.63L982.42 306.86L982.24 306.08L982.07 305.29L981.89 304.49L981.53 302.89L981.36 302.09L981.18 301.3L981.01 300.52L980.83 299.75L980.67 299L980.5 298.26L980.34 297.55L980.18 296.86L980.03 296.2L979.88 295.57L979.74 294.98L979.61 294.42L979.48 293.91L979.36 293.43L979.25 293.01L979.15 292.63L979.06 292.3L978.98 292.04L978.98 292.02L978.98 292.02L979.01 292.01L979.03 292L979.05 291.99L979.06 291.98L979.07 291.96L979.07 291.95L979.06 291.93L979.05 291.91L979.03 291.9L979 291.87L978.96 291.85L978.91 291.83L978.9 291.18L978.89 291.01L978.88 290.83ZM1019.57 446.27L1019.57 446.55L1019.59 446.81L1019.62 447.06L1019.67 447.3L1019.72 447.52L1019.79 447.72L1019.87 447.91L1019.96 448.08L1020.07 448.23L1020.19 448.37L1020.32 448.48L1020.47 448.58L1020.63 448.66L1021.56 449.23L1022.49 450.16L1023.43 451.4L1024.36 452.88L1025.27 454.54L1026.15 456.33L1026.98 458.18L1027.76 460.04L1028.47 461.84L1029.1 463.53L1029.64 465.05L1030.08 466.33L1030.41 467.32L1030.62 467.96L1030.69 468.18L1034.28 475.81L1034.82 475.35L1035.35 474.89L1035.88 474.42L1036.41 473.95L1036.93 473.48L1037.45 473L1037.97 472.51L1038.48 472.02L1038.99 471.53L1039.5 471.03L1040 470.53L1040.5 470.03L1041 469.52L1041.49 469.01L1041.98 468.49L1041.55 465.71L1041.06 465.27L1040.44 464.75L1039.72 464.15L1038.91 463.5L1038.05 462.79L1037.14 462.06L1036.22 461.3L1035.31 460.53L1034.43 459.76L1033.6 459.01L1032.85 458.28L1032.2 457.6L1031.67 456.96L1031.28 456.4L1031.05 455.91L1030.85 455.49L1030.48 454.97L1029.95 454.36L1029.29 453.69L1028.51 452.95L1027.65 452.18L1026.73 451.37L1025.76 450.56L1024.76 449.74L1023.77 448.94L1022.8 448.17L1021.87 447.44L1021.01 446.78L1020.24 446.18L1019.58 445.68L1019.57 445.98L1019.57 446.27ZM978.96 292.03L978.92 292.03L978.89 292.04L978.85 292.04L978.82 292.05L978.78 292.05L978.74 292.05L978.71 292.05L978.67 292.05L978.64 292.04L978.6 292.04L978.57 292.03L978.55 292.03L978.52 292.02L978.51 292.01L978.49 292L978.48 291.99L978.48 291.98L978.49 291.97L978.5 291.96L978.52 291.94L978.54 291.93L978.58 291.92L978.63 291.9L978.68 291.88L978.75 291.87L978.82 291.85L978.91 291.83L978.98 292.02L978.96 292.03Z" id="b4CGQcgg5v"></path><linearGradient id="gradientatm0tkH6d" gradientUnits="userSpaceOnUse" x1="1029.52" y1="515.54" x2="1024.53" y2="247.13"><stop style="stop-color: #808080;stop-opacity: 0.25" offset="0%"></stop><stop style="stop-color: #808080;stop-opacity: 0.12" offset="54%"></stop><stop style="stop-color: #808080;stop-opacity: 0.1" offset="100%"></stop></linearGradient><path d="M1004.99 500.42C1004.99 500.42 1003.82 508.07 1009.7 507.11C1009.7 507.11 1035.02 490.86 1035.02 490.86C1035.02 490.86 1034.89 480.86 1033.04 480.13C1031.19 479.4 1018.24 482.91 1018.24 482.91C1015.59 486.42 1011.17 497.25 1004.99 500.42Z" id="cErrR2Odh"></path><path d="M1022.36 471.45C1022.36 471.45 1026.19 478.78 1034.13 475.27C1034.13 475.27 1052.97 465.4 1052.97 465.4C1052.97 465.4 1053.27 455.19 1048.26 454.26C1043.26 453.32 1036.79 459.67 1036.79 459.67C1033.9 462.02 1026.78 470.49 1022.36 471.45Z" id="e26UUARBWs"></path><path d="M998.97 372.58C998.97 372.58 997.64 409.99 1000.29 415.39C1000.29 415.39 1012.95 437.36 1012.95 437.36C1012.95 437.36 1024.43 446.28 1025.01 448.51C1025.01 448.51 1035.02 458.38 1035.02 458.38C1035.08 458.83 1035.55 462.39 1035.61 462.84C1035.61 462.84 1051.21 461.87 1050.33 456.15C1050.33 456.15 1041.2 445.01 1041.2 445.01C1041.2 445.01 1035.9 430.04 1022.95 425.9C1022.95 425.9 1018.83 419.53 1022.36 414.44C1022.36 414.44 1031.2 390.55 1036.2 387.69C1041.2 384.82 1034.13 368.28 1034.13 368.28C1026.42 368.85 1006.68 372.01 998.97 372.58Z" id="d65CDkUSqE"></path><path d="M1000.37 371.33C1000.37 371.33 997.64 409.99 1000.29 415.39C1000.29 415.39 1012.95 437.36 1012.95 437.36C1012.95 437.36 1024.43 446.28 1025.01 448.51C1025.01 448.51 1035.02 458.38 1035.02 458.38C1035.08 458.83 1035.55 462.39 1035.61 462.84C1035.61 462.84 1051.21 461.87 1050.33 456.15C1050.33 456.15 1041.2 445.01 1041.2 445.01C1041.2 445.01 1035.9 430.04 1022.95 425.9C1022.95 425.9 1018.83 419.53 1022.36 414.44C1022.36 414.44 1032.1 396.32 1037.11 393.46C1039.23 392.24 1040.09 381.4 1039.32 377.56C1038.29 372.37 1034.13 368.28 1034.13 368.28C1026.42 368.85 1008.09 370.76 1000.37 371.33Z" id="a1NIoCArxD"></path><path d="M1033.86 481.96C1032.39 487.37 1018.26 485.46 1018.26 485.46C1018.26 485.46 1007.37 469.54 1006.78 463.8C1006.19 458.07 998.83 453.29 998.83 453.29C988.24 440.87 995.3 426.22 996.18 418.58C996.18 418.43 996.22 418.27 996.25 418.09C997.03 412.97 1001.79 398.22 1005.5 387.18C1008 379.74 1010.02 373.98 1010.02 373.98C1010.02 373.98 1029.73 374.95 1033.84 382.58C1035.73 386.08 1034.88 389.72 1033.41 392.64C1032.26 394.84 1030.79 396.84 1029.06 398.54C1028.39 400.29 1023.03 414.27 1022.36 416.02C1022.36 416.02 1010.59 439.28 1015.02 441.2C1015.02 441.2 1024.42 460.62 1024.42 460.62C1026.31 464.89 1032.92 479.82 1033.86 481.96Z" id="a4srrBFJX"></path><path d="M988.16 275.85C988.13 275.9 988.02 276.12 987.82 276.51L986.16 279.74L980.86 279.74L980.75 278.24C980.11 269.59 979.75 264.78 979.68 263.82C979.68 263.82 981.15 247.9 986.16 250.13C990.17 251.92 989.64 266.22 989.27 271.8C989.18 273.22 988.8 274.6 988.16 275.85Z" id="c37cfvCul7"></path><path d="M986.16 279.74L980.86 279.74C980.79 278.83 980.76 278.33 980.75 278.23C983.22 278 986.15 277.51 987.82 276.5C987.6 276.94 987.05 278.01 986.16 279.74Z" id="e3h7d8WiQR"></path><path d="M1052.38 302.66C1052.38 302.66 1025.89 304.57 1032.37 299.48C1036.15 296.5 1037.83 289.94 1038.56 285C1038.88 282.95 1039.07 280.88 1039.14 278.8C1039.14 278.8 1060.31 278.46 1055.92 284.85C1054.16 287.3 1052.75 290.03 1051.74 292.94C1049.59 299.65 1052.26 300.72 1052.38 302.66Z" id="bA4pMvvSZ"></path><path d="M1052.33 290.7C1051.67 290.83 1051 290.89 1050.33 290.88C1045.28 290.88 1040.36 289.76 1038.56 285C1038.88 282.95 1039.07 280.88 1039.14 278.8C1039.14 278.8 1060.31 278.45 1055.93 284.83C1053.77 287.98 1053.06 288.44 1052.33 290.7Z" id="c2CwZOom1M"></path><path d="M1049.74 265.73C1043.07 265.73 1037.67 271.57 1037.67 278.78C1037.67 286 1043.07 291.84 1049.74 291.84C1056.4 291.84 1061.81 286 1061.81 278.78C1061.81 271.57 1056.4 265.73 1049.74 265.73Z" id="e4yKhwPat"></path><path d="M979.68 277.03C980.43 279.89 984.86 304.01 985.6 306.87C985.6 306.87 986.15 313.82 995.77 316.9C995.77 316.9 1015.32 324.04 1015.32 324.04C1016.38 322.28 1019.83 313.87 1025.66 298.83C1026.36 297.02 1027.09 295.12 1027.86 293.13C1027.88 293.07 1027.91 293 1027.93 292.94C1025.4 298.52 1023.84 301.42 1023.23 301.66C1023.23 301.66 1022.12 305.96 1017.71 307.03C1013.3 308.09 1013 309.96 1011.55 308.6C1008.24 305.5 997.42 301.07 997.42 301.07C997.42 301.07 988.79 280.84 989.07 274.27C986.32 275.43 982.71 278.97 979.68 277.03Z" id="b6IxbNwdxN"></path><path d="M1052.38 301.18C1052.38 301.18 1045.19 297.39 1034.88 304.1C1034.11 304.59 1033.36 305.14 1032.64 305.69C1023.57 312.57 1017.24 323.2 1014.69 335.28C1014.25 337.36 1012.06 347.75 1008.12 366.45C1007.76 371.48 1007.57 374.28 1007.53 374.83C1007.53 374.83 1002.13 377.85 1000.38 374.83C1000.38 374.83 1000.09 365.07 1002.74 361.72C1005.38 358.37 1007.53 341.62 1007.53 341.62C1007.7 341.06 1010.44 335.76 1015.75 325.7C1014.85 324.34 1014.27 322.77 1013.99 320.97C1013.81 319.77 1013.87 318.32 1013.99 316.93C1014.08 315.94 1014.03 314.99 1014.69 314.16C1014.69 314.16 1014.69 314.16 1014.69 314.16C1016.43 311.34 1017.31 309.9 1017.36 309.84C1021.23 304.81 1027.23 302.3 1032.79 299.7C1034.3 299 1040.95 299 1040.75 297.95C1044.19 298.77 1050.74 292.24 1052.38 301.18Z" id="c2gz6lcBrI"></path><path d="M1045.45 267.01C1045.45 266.19 1046.05 265.51 1046.68 265.06C1048.36 263.82 1048.23 261.58 1050.16 262.28C1051.46 262.77 1052.59 263.64 1053.85 264.2C1054.73 264.6 1055.66 264.83 1056.61 264.89C1057.22 264.89 1057.82 264.95 1058.41 265.05C1058.89 265.18 1059.34 265.39 1059.76 265.66C1062.44 267.28 1064.44 269.97 1065.32 273.16C1066.12 276.12 1066.04 279.62 1068.09 281.74C1068.47 282.07 1068.81 282.43 1069.12 282.83C1069.38 283.27 1069.56 283.77 1069.64 284.29C1070.01 286.05 1069.87 287.9 1069.23 289.57C1068.58 291.25 1067.31 292.56 1065.72 293.17C1065.02 293.42 1064.29 293.5 1063.58 293.69C1060.2 294.62 1066.67 303.12 1063.58 304.89C1063.46 304.97 1063.25 307.14 1061.81 308.45C1060.24 309.88 1057.44 310.46 1057.29 310.46C1056.97 310.43 1051.87 299.7 1051.63 299.48C1050.44 298.56 1050.33 298.34 1050.36 296.75C1050.46 295.76 1051.26 293.59 1051.69 292.71C1052.33 291.05 1052.83 289.33 1053.16 287.58C1053.27 287.17 1053.28 286.75 1053.19 286.34C1052.97 285.56 1052.18 285.2 1051.63 284.65C1050.59 283.61 1050.46 281.83 1050.85 280.34C1051.23 278.86 1052.04 277.55 1052.65 276.16C1052.85 275.74 1052.97 275.27 1053 274.8C1053 272.94 1050.67 271.93 1049.69 270.7C1048.42 269.01 1049.26 270.35 1047.44 269.37C1046.51 268.89 1045.45 268.13 1045.45 267.01Z" id="b2SVCZy2IU"></path><path d="M1044 336.38C1044 336.38 1039.41 334.78 1034.93 364.87C1034.62 366.31 1034.38 368.34 1034.08 369.78C1034.08 369.78 1020.39 374.17 1015.59 373.98C1015.59 373.98 1010.12 375.46 1005.08 376.05C1001.57 376.46 1000.37 375.42 1000.37 375.42C1000.37 375.42 999.7 352.69 1012.08 335.55C1024.46 318.41 1011.37 327.59 1016.6 315.08C1021.82 302.56 1024.58 309.75 1026.68 307.87C1030.58 304.4 1035.66 300.64 1039.68 300.37C1040.19 300.33 1040.71 300.36 1041.21 300.46C1041.21 300.46 1044.26 300.17 1050.36 299.6C1059.71 302.37 1063.25 307.16 1060.98 313.96C1057.56 324.17 1047.39 331.9 1044 336.38Z" id="ibHLTGz2m"></path><path d="M1013.98 440.74C1013.98 440.74 1014.27 441.71 1010.44 442.97C1010.44 442.97 1005.44 445.52 1005.44 445.52" id="aWJBGg2qb"></path><path d="M986.61 269.2C983.06 269.2 981.28 267.28 981.28 263.44C981.28 242.93 981.28 231.53 981.28 229.25C981.28 225.41 983.06 223.49 986.61 223.49C1005.57 223.49 1016.1 223.49 1018.21 223.49C1021.76 223.49 1023.54 225.41 1023.54 229.25C1023.54 249.77 1023.54 261.16 1023.54 263.44C1023.54 267.28 1021.76 269.2 1018.21 269.2C999.25 269.2 988.72 269.2 986.61 269.2Z" id="azgpEUqgp"></path><path d="M1025.36 268.97C1025.24 269.21 1024.68 270.39 1023.66 272.51L1022.48 274.94C1018.06 275.33 1015.61 275.54 1015.12 275.58C1015.12 275.58 1014.97 274.92 1014.78 273.84C1014.23 270.65 1013.36 263.77 1015.12 259.02C1017.48 252.65 1018.36 240.23 1022.76 243.1C1026.28 245.39 1026.44 259.09 1026.36 264.65C1026.34 266.16 1026 267.64 1025.36 268.97Z" id="cx5wUfk8C"></path><path d="M1022.95 272.51L1021.77 274.94C1017.36 275.33 1014.91 275.54 1014.42 275.58C1014.42 275.58 1014.26 274.92 1014.07 273.84C1016.71 272.75 1020.16 271.74 1022.95 272.41C1022.95 272.43 1022.95 272.46 1022.95 272.51Z" id="chzz7Lu1Q"></path><path d="M1042.09 322.69C1023.45 320.65 1022.95 319.23 1022.95 319.23C1022.67 318.54 1021.33 313.04 1021.04 312.35C1024.44 307.91 1028.11 302.89 1032.44 301.66C1035.52 307.04 1038.28 310.93 1038.28 310.93C1038.28 310.93 1052.11 299.46 1056.24 310.29C1058.62 316.62 1057.7 313.85 1054.28 317.11C1051.67 319.6 1045.55 323.08 1042.09 322.69Z" id="edtxew5Yz"></path><path d="M1014.18 273.41C1015.56 277.13 1022.39 312.62 1023.77 316.34C1023.77 316.34 1019.56 318.23 1038.19 320.54C1041.65 320.97 1048.27 321.74 1050.88 318.94C1054.3 315.27 1059.43 313.4 1057.03 306.3C1056.12 303.62 1053.13 302.1 1048.06 301.75C1042.07 305.26 1039.07 307.02 1039.07 307.02C1039.07 307.02 1025.85 283.61 1025.56 269.99C1025.56 269.99 1020.95 271.97 1014.18 273.41Z" id="c1DOF1h8lQ"></path></defs><g><g><g><g><use xlink:href="#fzfN9GP4W" opacity="1" fill="#eeeeee" fill-opacity="0.43"></use></g><g><use xlink:href="#bnwse5ZkV" opacity="1" fill="#ffffff" fill-opacity="1"></use><g><use xlink:href="#bnwse5ZkV" opacity="1" fill-opacity="0" stroke="#000000" stroke-width="1" stroke-opacity="0"></use></g></g><g><use xlink:href="#g1JQk5LzuO" opacity="1" fill="url(#gradienti2biIKLOM2)"></use></g><g><use xlink:href="#ar5Gsws6s" opacity="1" fill="#eeeeee" fill-opacity="0.43"></use></g><g><use xlink:href="#eqYgAxiHd" opacity="1" fill="#ffffff" fill-opacity="1"></use></g><g><use xlink:href="#bdayVkbK" opacity="1" fill="#eeeeee" fill-opacity="0.43"></use></g><g><use xlink:href="#bfZhzJxXy" opacity="1" fill="#eeeeee" fill-opacity="0.43"></use></g><g><use xlink:href="#djltpz9Ii" opacity="1" fill="#ffffff" fill-opacity="1"></use></g><g><use xlink:href="#k1YjMKvOP" opacity="1" fill="#ffffff" fill-opacity="1"></use></g></g><g><g><use xlink:href="#e2Jr7q1yTi" opacity="1" fill="#6c63ff" fill-opacity="1"></use><g><use xlink:href="#e2Jr7q1yTi" opacity="1" fill-opacity="0" stroke="#000000" stroke-width="1" stroke-opacity="0"></use></g></g><g><use xlink:href="#atb4nAFQD" opacity="1" fill="#000000" fill-opacity="0"></use><g><use xlink:href="#atb4nAFQD" opacity="1" fill-opacity="0" stroke="#535461" stroke-width="2" stroke-opacity="1"></use></g></g><g><use xlink:href="#e17Gyk2Ew" opacity="1" fill="#6c63ff" fill-opacity="1"></use><g><use xlink:href="#e17Gyk2Ew" opacity="1" fill-opacity="0" stroke="#000000" stroke-width="1" stroke-opacity="0"></use></g></g><g><use xlink:href="#a2gnPyrU7d" opacity="1" fill="#6c63ff" fill-opacity="1"></use><g><use xlink:href="#a2gnPyrU7d" opacity="1" fill-opacity="0" stroke="#000000" stroke-width="1" stroke-opacity="0"></use></g></g><g><use xlink:href="#a3C6aEHmTu" opacity="1" fill="#6c63ff" fill-opacity="1"></use><g><use xlink:href="#a3C6aEHmTu" opacity="1" fill-opacity="0" stroke="#000000" stroke-width="1" stroke-opacity="0"></use></g></g><g><use xlink:href="#ehSLoDWG" opacity="1" fill="#6c63ff" fill-opacity="1"></use><g><use xlink:href="#ehSLoDWG" opacity="1" fill-opacity="0" stroke="#000000" stroke-width="1" stroke-opacity="0"></use></g></g><g><use xlink:href="#a19mqqfXij" opacity="1" fill="#6c63ff" fill-opacity="1"></use><g><use xlink:href="#a19mqqfXij" opacity="1" fill-opacity="0" stroke="#000000" stroke-width="1" stroke-opacity="0"></use></g></g><g><use xlink:href="#b4s6h39FhI" opacity="1" fill="#6c63ff" fill-opacity="1"></use><g><use xlink:href="#b4s6h39FhI" opacity="1" fill-opacity="0" stroke="#000000" stroke-width="1" stroke-opacity="0"></use></g></g><g><use xlink:href="#b2rRJ5UBE8" opacity="1" fill="#6c63ff" fill-opacity="1"></use><g><use xlink:href="#b2rRJ5UBE8" opacity="1" fill-opacity="0" stroke="#000000" stroke-width="1" stroke-opacity="0"></use></g></g><g><use xlink:href="#g1Op4CVqMF" opacity="1" fill="#000000" fill-opacity="0"></use><g><use xlink:href="#g1Op4CVqMF" opacity="1" fill-opacity="0" stroke="#535461" stroke-width="2" stroke-opacity="1"></use></g></g><g><use xlink:href="#hi3Dix6cr" opacity="1" fill="#6c63ff" fill-opacity="1"></use><g><use xlink:href="#hi3Dix6cr" opacity="1" fill-opacity="0" stroke="#000000" stroke-width="1" stroke-opacity="0"></use></g></g><g><use xlink:href="#b2zlvpbjdE" opacity="1" fill="#6c63ff" fill-opacity="1"></use><g><use xlink:href="#b2zlvpbjdE" opacity="1" fill-opacity="0" stroke="#000000" stroke-width="1" stroke-opacity="0"></use></g></g><g><use xlink:href="#d2oG1RmNIa" opacity="1" fill="#6c63ff" fill-opacity="1"></use><g><use xlink:href="#d2oG1RmNIa" opacity="1" fill-opacity="0" stroke="#000000" stroke-width="1" stroke-opacity="0"></use></g></g><g><use xlink:href="#c2rvNoSIRv" opacity="1" fill="#6c63ff" fill-opacity="1"></use><g><use xlink:href="#c2rvNoSIRv" opacity="1" fill-opacity="0" stroke="#000000" stroke-width="1" stroke-opacity="0"></use></g></g><g><use xlink:href="#a1YvE4JDg" opacity="1" fill="#6c63ff" fill-opacity="1"></use><g><use xlink:href="#a1YvE4JDg" opacity="1" fill-opacity="0" stroke="#000000" stroke-width="1" stroke-opacity="0"></use></g></g><g><use xlink:href="#aqB2LHg9d" opacity="1" fill="#6c63ff" fill-opacity="1"></use><g><use xlink:href="#aqB2LHg9d" opacity="1" fill-opacity="0" stroke="#000000" stroke-width="1" stroke-opacity="0"></use></g></g><g><use xlink:href="#agpxRMCRP" opacity="1" fill="#6c63ff" fill-opacity="1"></use><g><use xlink:href="#agpxRMCRP" opacity="1" fill-opacity="0" stroke="#000000" stroke-width="1" stroke-opacity="0"></use></g></g><g><use xlink:href="#a4NsPl7hnU" opacity="1" fill="url(#gradienta1XNGsfCKp)"></use><g><use xlink:href="#a4NsPl7hnU" opacity="1" fill-opacity="0" stroke="#000000" stroke-width="1" stroke-opacity="0"></use></g></g><g><use xlink:href="#bJyA4xN6t" opacity="1" fill="#535461" fill-opacity="1"></use><g><use xlink:href="#bJyA4xN6t" opacity="1" fill-opacity="0" stroke="#000000" stroke-width="1" stroke-opacity="0"></use></g></g><g><use xlink:href="#lIy7qtVda" opacity="1" fill="#f1f1f4" fill-opacity="1"></use><g><use xlink:href="#lIy7qtVda" opacity="1" fill-opacity="0" stroke="#000000" stroke-width="1" stroke-opacity="0"></use></g></g><g><use xlink:href="#b2dUEtpOX3" opacity="1" fill="#ffffff" fill-opacity="1"></use><g><use xlink:href="#b2dUEtpOX3" opacity="1" fill-opacity="0" stroke="#000000" stroke-width="1" stroke-opacity="0"></use></g></g><g><use xlink:href="#a3ULN0vqRU" opacity="1" fill="#d133cd" fill-opacity="1"></use><g><use xlink:href="#a3ULN0vqRU" opacity="1" fill-opacity="0" stroke="#000000" stroke-width="1" stroke-opacity="0"></use></g></g><g><use xlink:href="#elA7nsAxH" opacity="1" fill="#6c63ff" fill-opacity="1"></use><g><use xlink:href="#elA7nsAxH" opacity="1" fill-opacity="0" stroke="#000000" stroke-width="1" stroke-opacity="0"></use></g></g><g><use xlink:href="#a1WVJF83zL" opacity="1" fill="#6c63ff" fill-opacity="1"></use><g><use xlink:href="#a1WVJF83zL" opacity="1" fill-opacity="0" stroke="#000000" stroke-width="1" stroke-opacity="0"></use></g></g><g><use xlink:href="#euf4pVr5m" opacity="1" fill="#d133cd" fill-opacity="1"></use><g><use xlink:href="#euf4pVr5m" opacity="1" fill-opacity="0" stroke="#000000" stroke-width="1" stroke-opacity="0"></use></g></g><g><use xlink:href="#b2ImmxopnH" opacity="1" fill="#2ab4a9" fill-opacity="1"></use><g><use xlink:href="#b2ImmxopnH" opacity="1" fill-opacity="0" stroke="#000000" stroke-width="1" stroke-opacity="0"></use></g></g><g><use xlink:href="#b1aNukzsQx" opacity="1" fill="#f69b1e" fill-opacity="1"></use><g><use xlink:href="#b1aNukzsQx" opacity="1" fill-opacity="0" stroke="#000000" stroke-width="1" stroke-opacity="0"></use></g></g><g><use xlink:href="#c5LClSuuA" opacity="1" fill="#2ab4a9" fill-opacity="1"></use><g><use xlink:href="#c5LClSuuA" opacity="1" fill-opacity="0" stroke="#000000" stroke-width="1" stroke-opacity="0"></use></g></g><g><use xlink:href="#a55wlRZuzY" opacity="1" fill="#6c63ff" fill-opacity="1"></use><g><use xlink:href="#a55wlRZuzY" opacity="1" fill-opacity="0" stroke="#000000" stroke-width="1" stroke-opacity="0"></use></g></g><g><use xlink:href="#b4CGQcgg5v" opacity="1" fill="url(#gradientatm0tkH6d)"></use><g><use xlink:href="#b4CGQcgg5v" opacity="1" fill-opacity="0" stroke="#000000" stroke-width="1" stroke-opacity="0"></use></g></g><g><use xlink:href="#cErrR2Odh" opacity="1" fill="#575988" fill-opacity="1"></use><g><use xlink:href="#cErrR2Odh" opacity="1" fill-opacity="0" stroke="#000000" stroke-width="1" stroke-opacity="0"></use></g></g><g><use xlink:href="#e26UUARBWs" opacity="1" fill="#575988" fill-opacity="1"></use><g><use xlink:href="#e26UUARBWs" opacity="1" fill-opacity="0" stroke="#000000" stroke-width="1" stroke-opacity="0"></use></g></g><g><use xlink:href="#d65CDkUSqE" opacity="1" fill="#67647e" fill-opacity="1"></use><g><use xlink:href="#d65CDkUSqE" opacity="1" fill-opacity="0" stroke="#000000" stroke-width="1" stroke-opacity="0"></use></g></g><g><use xlink:href="#a1NIoCArxD" opacity="1" fill="#3e367d" fill-opacity="1"></use><g><use xlink:href="#a1NIoCArxD" opacity="1" fill-opacity="0" stroke="#000000" stroke-width="1" stroke-opacity="0"></use></g></g><g><use xlink:href="#a4srrBFJX" opacity="1" fill="#3e367d" fill-opacity="1"></use><g><use xlink:href="#a4srrBFJX" opacity="1" fill-opacity="0" stroke="#000000" stroke-width="1" stroke-opacity="0"></use></g></g><g><use xlink:href="#c37cfvCul7" opacity="1" fill="#956245" fill-opacity="1"></use><g><use xlink:href="#c37cfvCul7" opacity="1" fill-opacity="0" stroke="#000000" stroke-width="1" stroke-opacity="0"></use></g></g><g><use xlink:href="#e3h7d8WiQR" opacity="1" fill="#000000" fill-opacity="1"></use><g><use xlink:href="#e3h7d8WiQR" opacity="1" fill-opacity="0" stroke="#000000" stroke-width="1" stroke-opacity="0"></use></g></g><g><use xlink:href="#bA4pMvvSZ" opacity="1" fill="#956245" fill-opacity="1"></use><g><use xlink:href="#bA4pMvvSZ" opacity="1" fill-opacity="0" stroke="#000000" stroke-width="1" stroke-opacity="0"></use></g></g><g><use xlink:href="#c2CwZOom1M" opacity="1" fill="#000000" fill-opacity="1"></use><g><use xlink:href="#c2CwZOom1M" opacity="1" fill-opacity="0" stroke="#000000" stroke-width="1" stroke-opacity="0"></use></g></g><g><use xlink:href="#e4yKhwPat" opacity="1" fill="#956245" fill-opacity="1"></use><g><use xlink:href="#e4yKhwPat" opacity="1" fill-opacity="0" stroke="#000000" stroke-width="1" stroke-opacity="0"></use></g></g><g><use xlink:href="#b6IxbNwdxN" opacity="1" fill="#498ce9" fill-opacity="1"></use><g><use xlink:href="#b6IxbNwdxN" opacity="1" fill-opacity="0" stroke="#000000" stroke-width="1" stroke-opacity="0"></use></g></g><g><use xlink:href="#c2gz6lcBrI" opacity="1" fill="#000000" fill-opacity="1"></use><g><use xlink:href="#c2gz6lcBrI" opacity="1" fill-opacity="0" stroke="#000000" stroke-width="1" stroke-opacity="0"></use></g></g><g><use xlink:href="#b2SVCZy2IU" opacity="1" fill="#000000" fill-opacity="1"></use><g><use xlink:href="#b2SVCZy2IU" opacity="1" fill-opacity="0" stroke="#000000" stroke-width="1" stroke-opacity="0"></use></g></g><g><use xlink:href="#ibHLTGz2m" opacity="1" fill="#498ce9" fill-opacity="1"></use><g><use xlink:href="#ibHLTGz2m" opacity="1" fill-opacity="0" stroke="#000000" stroke-width="1" stroke-opacity="0"></use></g></g><g><use xlink:href="#aWJBGg2qb" opacity="1" fill="#000000" fill-opacity="1"></use><g><use xlink:href="#aWJBGg2qb" opacity="1" fill-opacity="0" stroke="#000000" stroke-width="1" stroke-opacity="0"></use></g></g><g><use xlink:href="#azgpEUqgp" opacity="1" fill="#f69b1e" fill-opacity="1"></use><g><use xlink:href="#azgpEUqgp" opacity="1" fill-opacity="0" stroke="#000000" stroke-width="1" stroke-opacity="0"></use></g></g><g><use xlink:href="#cx5wUfk8C" opacity="1" fill="#956245" fill-opacity="1"></use><g><use xlink:href="#cx5wUfk8C" opacity="1" fill-opacity="0" stroke="#000000" stroke-width="1" stroke-opacity="0"></use></g></g><g><use xlink:href="#chzz7Lu1Q" opacity="1" fill="#000000" fill-opacity="1"></use><g><use xlink:href="#chzz7Lu1Q" opacity="1" fill-opacity="0" stroke="#000000" stroke-width="1" stroke-opacity="0"></use></g></g><g><use xlink:href="#edtxew5Yz" opacity="1" fill="#000000" fill-opacity="1"></use><g><use xlink:href="#edtxew5Yz" opacity="1" fill-opacity="0" stroke="#000000" stroke-width="1" stroke-opacity="0"></use></g></g><g><use xlink:href="#c1DOF1h8lQ" opacity="1" fill="#498ce9" fill-opacity="1"></use><g><use xlink:href="#c1DOF1h8lQ" opacity="1" fill-opacity="0" stroke="#000000" stroke-width="1" stroke-opacity="0"></use></g></g></g></g></g></svg>