<?xml version="1.0" encoding="UTF-8" standalone="no"?>
<!DOCTYPE svg PUBLIC "-//W3C//DTD SVG 1.1//EN" "http://www.w3.org/Graphics/SVG/1.1/DTD/svg11.dtd">
<svg version="1.1" xmlns="http://www.w3.org/2000/svg" xmlns:xlink="http://www.w3.org/1999/xlink" preserveAspectRatio="xMidYMid meet" viewBox="408.76848476984776 -13.71142139143673 791.2315152301522 858.7114213914017" width="791.23" height="858.71"><defs><path d="M476.15 -12.6C471.11 -12.6 467.96 -12.6 466.7 -12.6C465.76 -12.6 465.03 -11.8 465.12 -10.87C511 481.3 613.07 696.7 771.32 635.33C929.95 573.81 1072.84 643.7 1200 845L1200 -8.55" id="a1pWUeJXE6"></path><path d="M899.15 156.02C897.52 156.02 896.2 157.45 896.2 159.21C896.2 160.97 897.52 162.39 899.15 162.39C900.77 162.39 902.09 160.97 902.09 159.21C902.09 157.45 900.77 156.02 899.15 156.02Z" id="a3Bhx4k62"></path><path d="M508.57 -13.71C503.35 -13.16 500.09 -12.82 498.79 -12.68C498.39 -12.64 498.1 -12.28 498.14 -11.89C541.69 454.17 639.15 657.94 790.52 599.43C942.04 540.85 1078.54 607.4 1200 799.09L1200 -13.71" id="a58MG2hoMa"></path><linearGradient id="gradientakTUaX7jW" gradientUnits="userSpaceOnUse" x1="744.94" y1="37.42" x2="1196.35" y2="730.91"><stop style="stop-color: #bd26ff;stop-opacity: 1" offset="0%"></stop><stop style="stop-color: #a92fff;stop-opacity: 1" offset="38.08271571783895%"></stop><stop style="stop-color: #6c63ff;stop-opacity: 1" offset="100%"></stop></linearGradient><path d="M604.51 117.94C608.48 117.94 611.7 121.16 611.7 125.12C611.7 126.56 611.7 123.69 611.7 125.12C611.7 129.09 608.48 132.31 604.51 132.31C579.57 132.31 511.94 132.31 487 132.31C483.03 132.31 479.81 129.09 479.81 125.12C479.81 123.69 479.81 126.56 479.81 125.12C479.81 121.16 483.03 117.94 487 117.94C511.94 117.94 579.57 117.94 604.51 117.94Z" id="a4FbXeRNx"></path><path d="M601.03 121.25C604.44 121.25 607.2 124.01 607.2 127.41C607.2 128.64 607.2 126.18 607.2 127.41C607.2 130.82 604.44 133.58 601.03 133.58C573.85 133.58 498.46 133.58 471.27 133.58C467.87 133.58 465.11 130.82 465.11 127.41C465.11 126.18 465.11 128.64 465.11 127.41C465.11 124.01 467.87 121.25 471.27 121.25C498.46 121.25 573.85 121.25 601.03 121.25Z" id="anrTPBdcg"></path><path d="M569.82 151.65C573.79 151.65 577 154.86 577 158.83C577 160.27 577 157.4 577 158.83C577 162.8 573.79 166.02 569.82 166.02C552.63 166.02 508.26 166.02 491.08 166.02C487.11 166.02 483.89 162.8 483.89 158.83C483.89 157.4 483.89 160.27 483.89 158.83C483.89 154.86 487.11 151.65 491.08 151.65C508.26 151.65 552.63 151.65 569.82 151.65Z" id="b4Hky7rIjT"></path><path d="M549.14 184.29C551.81 184.29 553.97 186.45 553.97 189.12C553.97 191.03 553.97 191.91 553.97 193.82C553.97 196.49 551.81 198.66 549.14 198.66C537.84 198.66 508.79 198.66 497.5 198.66C494.83 198.66 492.66 196.49 492.66 193.82C492.66 191.91 492.66 191.03 492.66 189.12C492.66 186.45 494.83 184.29 497.5 184.29C508.79 184.29 537.84 184.29 549.14 184.29Z" id="b4gB8KE4P6"></path><path d="M566.36 154.5C569.76 154.5 572.52 157.26 572.52 160.67C572.52 161.9 572.52 159.44 572.52 160.67C572.52 164.07 569.76 166.83 566.36 166.83C539.17 166.83 463.78 166.83 436.6 166.83C433.19 166.83 430.43 164.07 430.43 160.67C430.43 159.44 430.43 161.9 430.43 160.67C430.43 157.26 433.19 154.5 436.6 154.5C463.78 154.5 539.17 154.5 566.36 154.5Z" id="b1hZD0fSxi"></path><path d="M544.69 187.73C548.1 187.73 550.86 190.49 550.86 193.9C550.86 195.13 550.86 192.67 550.86 193.9C550.86 197.3 548.1 200.06 544.69 200.06C517.51 200.06 442.12 200.06 414.93 200.06C411.53 200.06 408.77 197.3 408.77 193.9C408.77 192.67 408.77 195.13 408.77 193.9C408.77 190.49 411.53 187.73 414.93 187.73C442.12 187.73 517.51 187.73 544.69 187.73Z" id="a4g5ro8T2V"></path></defs><g><g><g><use xlink:href="#a1pWUeJXE6" opacity="1" fill="#eeeeee" fill-opacity="0.43"></use></g><g><use xlink:href="#a3Bhx4k62" opacity="1" fill="#ffffff" fill-opacity="1"></use><g><use xlink:href="#a3Bhx4k62" opacity="1" fill-opacity="0" stroke="#000000" stroke-width="1" stroke-opacity="0"></use></g></g><g><use xlink:href="#a58MG2hoMa" opacity="1" fill="url(#gradientakTUaX7jW)"></use></g><g><use xlink:href="#a4FbXeRNx" opacity="1" fill="#eeeeee" fill-opacity="0.43"></use></g><g><use xlink:href="#anrTPBdcg" opacity="1" fill="#ffffff" fill-opacity="1"></use></g><g><use xlink:href="#b4Hky7rIjT" opacity="1" fill="#eeeeee" fill-opacity="0.43"></use></g><g><use xlink:href="#b4gB8KE4P6" opacity="1" fill="#eeeeee" fill-opacity="0.43"></use></g><g><use xlink:href="#b1hZD0fSxi" opacity="1" fill="#ffffff" fill-opacity="1"></use></g><g><use xlink:href="#a4g5ro8T2V" opacity="1" fill="#ffffff" fill-opacity="1"></use></g></g></g></svg>