<?xml version="1.0" encoding="UTF-8" standalone="no"?>
<!DOCTYPE svg PUBLIC "-//W3C//DTD SVG 1.1//EN" "http://www.w3.org/Graphics/SVG/1.1/DTD/svg11.dtd">
<svg version="1.1" xmlns="http://www.w3.org/2000/svg" xmlns:xlink="http://www.w3.org/1999/xlink" preserveAspectRatio="xMidYMid meet" viewBox="0 1342.7071081902754 1200 1683.2451090719574" width="1200" height="1683.25"><defs><path d="M0 3014.47C89.56 3035.4 202.14 3027.72 337.75 2991.42C541.15 2936.99 684.62 2869.62 813.62 2846.21C1013.62 2809.92 1142.41 2809.92 1200 2846.21L1200 1765.7C1187.3 1761.84 1151.59 1790.81 1092.86 1852.62C1034.13 1914.43 912.7 1900.9 728.57 1812.06C560.32 1723.21 411.11 1685.54 280.95 1699.07C150.79 1712.59 57.14 1593.8 0 1342.71L0 3014.47Z" id="a2jHXlaznY"></path><path d="M0 2962.44C89.56 2981.66 202.14 2974.6 337.75 2941.27C541.15 2891.27 684.62 2829.39 813.62 2807.89C1013.62 2774.56 1142.41 2774.56 1200 2807.89L1200 1815.45C1187.3 1811.91 1151.59 1838.52 1092.86 1895.29C1034.13 1952.05 912.7 1939.64 728.57 1858.03C560.32 1776.42 411.11 1741.83 280.95 1754.25C150.79 1766.67 57.14 1657.56 0 1426.94L0 2962.44Z" id="cRvyz3M2y"></path><linearGradient id="gradienta140FLmQu7" gradientUnits="userSpaceOnUse" x1="71.43" y1="2055.96" x2="754.76" y2="2844.14"><stop style="stop-color: #bd26ff;stop-opacity: 1" offset="0%"></stop><stop style="stop-color: #8f3aff;stop-opacity: 1" offset="53.989139294371526%"></stop><stop style="stop-color: #8140ff;stop-opacity: 1" offset="100%"></stop></linearGradient><path d="M937.69 2461.66C937.69 2662.88 768.03 2826.25 559.05 2826.25C350.08 2826.25 180.41 2662.88 180.41 2461.66C180.41 2260.44 350.08 2097.08 559.05 2097.08C768.03 2097.08 937.69 2260.44 937.69 2461.66Z" id="aTLwovCSG"></path><path d="M959.91 2452.2C959.91 2623.52 804.7 2762.62 613.51 2762.62C422.33 2762.62 267.11 2623.52 267.11 2452.2C267.11 2280.88 422.33 2141.78 613.51 2141.78C804.7 2141.78 959.91 2280.88 959.91 2452.2Z" id="h1Dr13pC5R"></path><path d="M836.68 2542.46C893.84 2542.46 940.18 2587.33 940.18 2642.7C940.18 2642.8 940.18 2643.32 940.18 2644.25L733.18 2644.25C733.18 2643.32 733.18 2642.8 733.18 2642.7C733.19 2587.33 779.53 2542.46 836.68 2542.46C836.68 2542.46 836.68 2542.46 836.68 2542.46Z" id="d7lmA13ap"></path><path d="M451.52 2542.46C508.67 2542.46 555.01 2587.33 555.02 2642.7C555.02 2642.8 555.02 2643.32 555.02 2644.25L348.01 2644.25C348.01 2643.32 348.01 2642.8 348.01 2642.7C348.01 2587.33 394.35 2542.44 451.52 2542.44C451.52 2542.45 451.52 2542.45 451.52 2542.46Z" id="b29IVIZDzn"></path><path d="M648.23 2367.9C648.23 2367.9 648.23 2367.9 648.23 2367.9C648.23 2386.18 648.23 2396.34 648.23 2398.37C648.23 2398.37 648.23 2398.37 648.23 2398.37C628.73 2398.37 617.9 2398.37 615.73 2398.37C615.73 2398.37 615.73 2398.37 615.73 2398.37C615.73 2380.09 615.73 2369.93 615.73 2367.9C615.73 2367.9 615.73 2367.9 615.73 2367.9C635.23 2367.9 646.06 2367.9 648.23 2367.9Z" id="dTimbMMTs"></path><linearGradient id="gradientdclLMFQ68" gradientUnits="userSpaceOnUse" x1="631.98" y1="2398.36" x2="631.98" y2="2367.9"><stop style="stop-color: #808080;stop-opacity: 0.25" offset="0%"></stop><stop style="stop-color: #808080;stop-opacity: 0.12" offset="54%"></stop><stop style="stop-color: #808080;stop-opacity: 0.1" offset="100%"></stop></linearGradient><path d="M647.67 2368.42C647.67 2368.42 647.67 2368.42 647.67 2368.42C647.67 2386.07 647.67 2395.88 647.67 2397.84C647.67 2397.84 647.67 2397.84 647.67 2397.84C628.84 2397.84 618.38 2397.84 616.29 2397.84C616.29 2397.84 616.29 2397.84 616.29 2397.84C616.29 2380.19 616.29 2370.38 616.29 2368.42C616.29 2368.42 616.29 2368.42 616.29 2368.42C635.12 2368.42 645.58 2368.42 647.67 2368.42Z" id="a1nLUXSMtV"></path><path d="M692.6 2394.16C692.6 2394.16 692.6 2394.16 692.6 2394.16C692.6 2412.45 692.6 2422.6 692.6 2424.64C692.6 2424.64 692.6 2424.64 692.6 2424.64C673.11 2424.64 662.27 2424.64 660.11 2424.64C660.11 2424.64 660.11 2424.64 660.11 2424.64C660.11 2406.35 660.11 2396.19 660.11 2394.16C660.11 2394.16 660.11 2394.16 660.11 2394.16C679.6 2394.16 690.43 2394.16 692.6 2394.16Z" id="a1vzYnwf1k"></path><linearGradient id="gradienta5Qzct6pTF" gradientUnits="userSpaceOnUse" x1="676.35" y1="2424.64" x2="676.35" y2="2394.16"><stop style="stop-color: #808080;stop-opacity: 0.25" offset="0%"></stop><stop style="stop-color: #808080;stop-opacity: 0.12" offset="54%"></stop><stop style="stop-color: #808080;stop-opacity: 0.1" offset="100%"></stop></linearGradient><path d="M692.04 2394.69C692.04 2394.69 692.04 2394.69 692.04 2394.69C692.04 2412.34 692.04 2422.15 692.04 2424.11C692.04 2424.11 692.04 2424.11 692.04 2424.11C673.22 2424.11 662.76 2424.11 660.67 2424.11C660.67 2424.11 660.67 2424.11 660.67 2424.11C660.67 2406.46 660.67 2396.65 660.67 2394.69C660.67 2394.69 660.67 2394.69 660.67 2394.69C679.49 2394.69 689.95 2394.69 692.04 2394.69Z" id="f185cixmTc"></path><path d="M741.91 2360.73C741.91 2360.73 741.91 2360.73 741.91 2360.73C741.91 2379.02 741.91 2389.17 741.91 2391.21C741.91 2391.21 741.91 2391.21 741.91 2391.21C722.41 2391.21 711.58 2391.21 709.42 2391.21C709.42 2391.21 709.42 2391.21 709.42 2391.21C709.42 2372.92 709.42 2362.76 709.42 2360.73C709.42 2360.73 709.42 2360.73 709.42 2360.73C728.91 2360.73 739.74 2360.73 741.91 2360.73Z" id="a2zwxj7yU"></path><linearGradient id="gradientb1KKopKLEw" gradientUnits="userSpaceOnUse" x1="725.66" y1="2391.2" x2="725.66" y2="2360.73"><stop style="stop-color: #808080;stop-opacity: 0.25" offset="0%"></stop><stop style="stop-color: #808080;stop-opacity: 0.12" offset="54%"></stop><stop style="stop-color: #808080;stop-opacity: 0.1" offset="100%"></stop></linearGradient><path d="M741.35 2361.25C741.35 2361.25 741.35 2361.25 741.35 2361.25C741.35 2378.91 741.35 2388.72 741.35 2390.68C741.35 2390.68 741.35 2390.68 741.35 2390.68C722.53 2390.68 712.07 2390.68 709.98 2390.68C709.98 2390.68 709.98 2390.68 709.98 2390.68C709.98 2373.02 709.98 2363.21 709.98 2361.25C709.98 2361.25 709.98 2361.25 709.98 2361.25C728.8 2361.25 739.26 2361.25 741.35 2361.25Z" id="a2T8txbjkz"></path><path d="M691.92 2310.71C691.92 2310.71 691.92 2310.71 691.92 2310.71C691.92 2328.99 691.92 2339.15 691.92 2341.18C691.92 2341.18 691.92 2341.18 691.92 2341.18C672.42 2341.18 661.59 2341.18 659.42 2341.18C659.42 2341.18 659.42 2341.18 659.42 2341.18C659.42 2322.9 659.42 2312.74 659.42 2310.71C659.42 2310.71 659.42 2310.71 659.42 2310.71C678.92 2310.71 689.75 2310.71 691.92 2310.71Z" id="coQ5CG6TN"></path><linearGradient id="gradientbd5PeRBii" gradientUnits="userSpaceOnUse" x1="675.67" y1="2341.18" x2="675.67" y2="2310.71"><stop style="stop-color: #808080;stop-opacity: 0.25" offset="0%"></stop><stop style="stop-color: #808080;stop-opacity: 0.12" offset="54%"></stop><stop style="stop-color: #808080;stop-opacity: 0.1" offset="100%"></stop></linearGradient><path d="M691.36 2311.24C691.36 2311.24 691.36 2311.24 691.36 2311.24C691.36 2328.89 691.36 2338.7 691.36 2340.66C691.36 2340.66 691.36 2340.66 691.36 2340.66C672.54 2340.66 662.08 2340.66 659.99 2340.66C659.99 2340.66 659.99 2340.66 659.99 2340.66C659.99 2323.01 659.99 2313.2 659.99 2311.24C659.99 2311.24 659.99 2311.24 659.99 2311.24C678.81 2311.24 689.27 2311.24 691.36 2311.24Z" id="gEi8hfzfY"></path><path d="M642.75 2310.58C642.75 2310.58 642.75 2310.58 642.75 2310.58C642.75 2328.86 642.75 2339.02 642.75 2341.05C642.75 2341.05 642.75 2341.05 642.75 2341.05C623.25 2341.05 612.42 2341.05 610.25 2341.05C610.25 2341.05 610.25 2341.05 610.25 2341.05C610.25 2322.77 610.25 2312.61 610.25 2310.58C610.25 2310.58 610.25 2310.58 610.25 2310.58C629.75 2310.58 640.58 2310.58 642.75 2310.58Z" id="b1q6J6S3j"></path><linearGradient id="gradientipFrPQIvJ" gradientUnits="userSpaceOnUse" x1="626.5" y1="2341.05" x2="626.5" y2="2310.58"><stop style="stop-color: #808080;stop-opacity: 0.25" offset="0%"></stop><stop style="stop-color: #808080;stop-opacity: 0.12" offset="54%"></stop><stop style="stop-color: #808080;stop-opacity: 0.1" offset="100%"></stop></linearGradient><path d="M642.19 2311.11C642.19 2311.11 642.19 2311.11 642.19 2311.11C642.19 2328.76 642.19 2338.57 642.19 2340.53C642.19 2340.53 642.19 2340.53 642.19 2340.53C623.36 2340.53 612.9 2340.53 610.81 2340.53C610.81 2340.53 610.81 2340.53 610.81 2340.53C610.81 2322.88 610.81 2313.07 610.81 2311.11C610.81 2311.11 610.81 2311.11 610.81 2311.11C629.64 2311.11 640.1 2311.11 642.19 2311.11Z" id="b4aqcZlpq"></path><path d="M598.37 2336.85C598.37 2336.85 598.37 2336.85 598.37 2336.85C598.37 2355.13 598.37 2365.29 598.37 2367.32C598.37 2367.32 598.37 2367.32 598.37 2367.32C578.87 2367.32 568.04 2367.32 565.87 2367.32C565.87 2367.32 565.87 2367.32 565.87 2367.32C565.87 2349.04 565.87 2338.88 565.87 2336.85C565.87 2336.85 565.87 2336.85 565.87 2336.85C585.37 2336.85 596.2 2336.85 598.37 2336.85Z" id="hsvuD8Oer"></path><linearGradient id="gradienth5JxqnvII" gradientUnits="userSpaceOnUse" x1="582.12" y1="2367.32" x2="582.12" y2="2336.85"><stop style="stop-color: #808080;stop-opacity: 0.25" offset="0%"></stop><stop style="stop-color: #808080;stop-opacity: 0.12" offset="54%"></stop><stop style="stop-color: #808080;stop-opacity: 0.1" offset="100%"></stop></linearGradient><path d="M597.82 2337.37C597.82 2337.37 597.82 2337.37 597.82 2337.37C597.82 2355.03 597.82 2364.84 597.82 2366.8C597.82 2366.8 597.82 2366.8 597.82 2366.8C578.99 2366.8 568.53 2366.8 566.44 2366.8C566.44 2366.8 566.44 2366.8 566.44 2366.8C566.44 2349.14 566.44 2339.33 566.44 2337.37C566.44 2337.37 566.44 2337.37 566.44 2337.37C585.26 2337.37 595.72 2337.37 597.82 2337.37Z" id="f1heietkgk"></path><path d="M544.76 2636.72C535.21 2631.69 532.95 2624.57 532.88 2619.07C532.89 2618.14 532.96 2617.21 533.09 2616.29C534.36 2611.42 544.51 2572.48 545.78 2567.62C545.78 2567.62 559.94 2539.19 540.21 2530.87C525.03 2524.45 488.53 2514.52 472.56 2510.33C476.17 2506.72 478.5 2503.91 478.5 2503.91C478.47 2503.85 478.33 2503.53 478.07 2502.95C478.33 2502.64 478.47 2502.47 478.5 2502.44C478.5 2502.44 476.63 2498.3 474.06 2492.14C474.91 2491.41 481.7 2485.53 482.55 2484.8C482.55 2484.8 482.22 2484.74 481.69 2484.62C481.72 2484.59 482.01 2484.34 482.04 2484.31C482.04 2484.31 481.7 2484.24 481.12 2484.11C487.06 2479.1 500.47 2466.82 493.67 2463.73C487.12 2460.73 474.67 2470.29 469.13 2474.99C468.68 2475.16 468.13 2475.35 467.49 2475.57C466.64 2473.29 465.81 2470.98 465.02 2468.69C466.11 2467.01 474.87 2453.64 475.97 2451.96C476 2451.65 476.02 2451.34 476.02 2451.05C479.39 2446.46 489.24 2431.81 482.03 2426.48C474.11 2420.61 466.18 2439.3 464.99 2442.26C464.27 2442.17 463.82 2442.16 463.82 2442.16C463.03 2443.7 460.99 2444.84 459.22 2445.57C459.22 2445.42 459.22 2445.26 459.22 2445.12C459.22 2444.98 459.22 2444.74 459.25 2444.55C459.42 2442.68 459.49 2440.8 459.46 2438.93C459.46 2437.82 459.46 2436.7 459.37 2435.59C459.15 2432.59 458.92 2428.76 458.89 2425.42C458.89 2422.41 459.16 2420.07 459.79 2419.62C459.74 2419.57 459.36 2419.15 459.31 2419.1C459.37 2418.74 459.53 2418.41 459.79 2418.15C459.79 2418.15 459.28 2417.58 458.44 2416.7C459.91 2412.61 462.19 2406.63 464.65 2401.47C464.71 2401.46 465.13 2401.38 465.18 2401.37C465.37 2401 465.55 2400.62 465.74 2400.26C478.45 2397.08 486.09 2384.51 482.8 2372.2C481.58 2367.61 478.92 2363.5 475.2 2360.43C475.47 2360.29 475.72 2360.12 475.95 2359.92C477.23 2358.76 477.33 2356.82 477.32 2355.13C477.32 2348.77 477.26 2343.67 477.25 2342.4C477.25 2340.75 477.25 2339.05 476.5 2337.56C476.21 2336.96 475.8 2336.43 475.28 2335.99C474.5 2335.01 473.25 2334.49 471.98 2334.62C470.44 2334.86 469.38 2336.19 468.34 2337.31C462.73 2343.16 454.12 2345.31 446.29 2342.82C444.37 2342.2 442.53 2341.26 440.53 2341.04C438.52 2340.82 436.19 2341.56 435.4 2343.36C434.49 2345.36 435.77 2347.78 435.05 2349.86C433.67 2353.89 426.65 2353.16 424.58 2356.91C422.84 2360.06 425.8 2363.56 427.78 2366.55C431.51 2372.14 432.17 2379.04 434.11 2385.41C434.9 2388.04 437.04 2393.77 440.04 2396.45C440.32 2396.74 440.61 2397.01 440.92 2397.25C440.37 2399.34 439.69 2401.39 438.89 2403.4C437.25 2403.02 435.52 2403.2 434 2403.91C429.45 2406.37 406.68 2418.12 405.16 2449C405.06 2451.11 405.01 2453.37 405.03 2455.74C404.87 2487.76 415.28 2542.11 415.28 2542.11C415.28 2542.11 416.93 2540.51 419.62 2538.31C423.74 2544.08 436.92 2552.43 478.52 2553.38C482.71 2553.53 516.3 2554.72 520.49 2554.87C520.49 2554.87 525.04 2557.81 518.97 2564.67C515 2569.17 514.49 2579.57 514.62 2586.2C514.71 2590.7 514.23 2595.19 513.19 2599.57C512.1 2604.16 510.73 2609.79 509.79 2613.23C509.29 2612.92 508.81 2612.6 508.35 2612.24C507.94 2614.83 505.92 2627.73 502.28 2650.96L502.35 2650.96C502.31 2651.24 502.28 2651.4 502.28 2651.43C502.28 2651.43 546.8 2663.68 559.96 2654.86C563.49 2652.5 564.68 2650.48 564.55 2648.8C564.91 2643.87 553.88 2641.61 553.88 2641.61C552.06 2640.63 545.68 2637.21 544.76 2636.72Z" id="aj86bT7Xc"></path><linearGradient id="gradientfmGok6lcW" gradientUnits="userSpaceOnUse" x1="484.78" y1="2658.04" x2="484.78" y2="2334.6"><stop style="stop-color: #808080;stop-opacity: 0.25" offset="0%"></stop><stop style="stop-color: #808080;stop-opacity: 0.12" offset="54%"></stop><stop style="stop-color: #808080;stop-opacity: 0.1" offset="100%"></stop></linearGradient><path d="M434.01 2414.75C426.15 2419.03 457.6 2423.78 457.6 2423.78C457.6 2423.78 466.44 2396.67 472.34 2394.29C478.25 2391.91 444.32 2389.54 444.32 2389.54C442.26 2394.58 441.86 2410.46 434.01 2414.75Z" id="b4t522GI7d"></path><path d="M465.43 2444.23C465.43 2444.23 473.76 2422.36 482.12 2428.54C482.12 2428.54 475.25 2453.75 475.25 2453.75C473.28 2451.85 467.39 2446.14 465.43 2444.23Z" id="a1xkXuHPD6"></path><path d="M419.79 2531.75C419.79 2531.75 416.36 2550.3 478.72 2551.73C482.79 2551.87 515.39 2553.01 519.47 2553.16C519.47 2553.16 523.89 2556.01 517.99 2562.67C514.15 2567.01 513.64 2577.13 513.77 2583.56C513.86 2587.92 513.39 2592.28 512.38 2596.53C510.86 2602.93 508.78 2611.42 508.18 2612.61C507.2 2614.51 531.25 2614.51 531.25 2614.51C532.52 2609.61 542.74 2570.42 544.01 2565.52C544.01 2565.52 557.76 2537.93 538.61 2529.85C538.61 2529.85 465.45 2507.97 465.45 2507.97C456.32 2512.73 428.92 2527 419.79 2531.75Z" id="eU26HuNpC"></path><path d="M532.93 2607.5C532.93 2607.5 525.83 2623.56 543.01 2632.59C543.9 2633.06 550.97 2636.87 551.85 2637.34C551.85 2637.34 570.51 2641.15 557.74 2649.71C557.74 2649.71 501.77 2646.38 501.77 2646.38C502.36 2642.62 507.07 2612.56 507.66 2608.81C507.66 2608.81 516.01 2615.47 523.86 2611.18C525.68 2610.45 530.72 2605.23 532.93 2607.5Z" id="a3R4iAbLbw"></path><path d="M532.93 2607.97C532.93 2607.97 525.83 2624.03 543.01 2633.07C543.9 2633.54 550.97 2637.35 551.85 2637.82C551.85 2637.82 570.51 2641.63 557.74 2650.19C557.74 2650.19 501.77 2646.86 501.77 2646.86C502.36 2643.1 507.07 2613.04 507.66 2609.28C507.66 2609.28 516.01 2615.94 523.86 2611.66C525.68 2610.92 530.72 2605.71 532.93 2607.97Z" id="cvOO2ZKIZ"></path><path d="M457.09 2448.04C457.09 2448.04 462.98 2446.61 464.45 2443.76C464.45 2443.76 477.22 2444.23 476.23 2453.27C475.38 2454.57 471.13 2461.07 463.47 2472.77C460.06 2459.58 457.94 2451.34 457.09 2448.04Z" id="a1kHhBozs"></path><path d="M457.09 2448.04C457.09 2448.04 462.98 2446.61 464.45 2443.76C464.45 2443.76 477.22 2444.23 476.23 2453.27C475.38 2454.57 471.13 2461.07 463.47 2472.77C460.06 2459.58 457.94 2451.34 457.09 2448.04Z" id="a4jiytWise"></path><path d="M435.48 2408.09C431.05 2410.46 408.96 2421.88 407.49 2451.82C406.01 2481.76 417.31 2540.77 417.31 2540.77C417.31 2540.77 434 2524.6 447.26 2525.07C460.52 2525.55 478.66 2503.67 478.66 2503.67C478.66 2503.67 458.8 2459.77 459.97 2446.06C460.2 2443.64 460.24 2441.21 460.08 2438.79C459.64 2432.64 459.16 2422.84 460.5 2421.86C460.52 2421.88 449.72 2409.99 447.26 2410.46C444.9 2409.99 439.9 2405.71 435.48 2408.09Z" id="c2WuO5lkBy"></path><path d="M435.48 2406.66C435.48 2406.66 408.96 2420.45 407.49 2450.42C406.01 2480.38 417.31 2539.35 417.31 2539.35C417.31 2539.35 434.01 2523.18 447.27 2523.66C460.53 2524.14 478.67 2502.25 478.67 2502.25C478.67 2502.25 458.8 2458.36 459.98 2444.64C460.2 2442.23 460.24 2439.8 460.09 2437.37C459.65 2431.22 459.16 2421.42 460.5 2420.45C460.52 2420.45 449.72 2408.56 447.26 2409.04C444.9 2408.56 439.9 2404.28 435.48 2406.66Z" id="hxFdJzGBs"></path><path d="M466.9 2478C466.9 2478 485.07 2460.88 493.42 2464.69C493.42 2464.69 478.68 2486.57 478.68 2486.57C476.32 2484.85 469.26 2479.72 466.9 2478Z" id="a1hmB528HP"></path><path d="M433.03 2497.03C433.03 2497.03 447.27 2513.2 468.87 2497.03C470.24 2495.84 481.23 2486.33 482.6 2485.14C482.6 2485.14 469.34 2482.76 471.31 2475.63C471.31 2475.63 453.63 2482.76 450.68 2477.06C447.74 2471.35 455.11 2445.19 455.11 2445.19C455.11 2445.19 451.18 2421.89 439.88 2426.16C428.59 2430.44 423.7 2446.61 423.7 2446.61C425.56 2456.7 429.59 2494.18 433.03 2497.03Z" id="b1Rr3wQMvb"></path><path d="M432.53 2496.56C432.53 2496.56 446.77 2512.73 468.38 2496.56C469.75 2495.37 480.75 2485.86 482.12 2484.67C482.12 2484.67 468.86 2482.29 470.83 2475.16C470.83 2475.16 453.16 2482.29 450.21 2476.59C447.26 2470.88 454.63 2444.72 454.63 2444.72C454.63 2444.72 450.7 2421.4 439.41 2425.68C428.12 2429.97 423.2 2446.14 423.2 2446.14C425.07 2456.22 429.09 2493.7 432.53 2496.56Z" id="cdfTM2U8A"></path><path d="M444.08 2395.01C448.31 2399.67 453.61 2404.76 460.53 2404.76C462.29 2404.76 464.05 2404.56 465.76 2404.17C467.98 2399.7 470.31 2396.05 472.31 2395.25C478.2 2392.85 444.32 2390.49 444.32 2390.49C444.27 2391.39 444.89 2391.2 444.08 2395.01Z" id="bHMuoI7tE"></path><path d="M460.52 2359.1C447.78 2359.1 437.44 2369.11 437.44 2381.45C437.44 2393.8 447.78 2403.81 460.52 2403.81C473.27 2403.81 483.6 2393.8 483.6 2381.45C483.6 2369.11 473.27 2359.1 460.52 2359.1Z" id="amePJHA8v"></path><path d="M449.83 2386.67C449.19 2385.86 448.12 2385.43 447.37 2384.71C444.76 2382.15 447.06 2377.82 449.74 2375.33C455.88 2369.67 463.75 2366.1 472.17 2365.16C473.59 2365.01 475.14 2364.88 476.19 2363.92C477.47 2362.79 477.52 2360.93 477.52 2359.27C477.51 2358.04 477.46 2348.15 477.45 2346.92C477.45 2345.32 477.45 2343.67 476.73 2342.22C476 2340.77 474.46 2339.59 472.83 2339.85C471.34 2340.08 470.31 2341.37 469.3 2342.46C463.86 2348.14 455.5 2350.23 447.9 2347.81C446.04 2347.19 444.25 2346.29 442.29 2346.09C440.34 2345.88 438.09 2346.59 437.3 2348.33C436.41 2350.28 437.65 2352.62 436.96 2354.64C435.62 2358.56 428.8 2357.85 426.8 2361.47C425.11 2364.52 427.98 2367.93 429.92 2370.84C433.53 2376.25 434.18 2382.96 436.06 2389.15C437.05 2392.43 440.2 2400.71 444.54 2401.24C449.7 2401.9 449.47 2395.4 450.27 2391.73C450.64 2390.02 450.96 2388.04 449.83 2386.67Z" id="a26an0ohU"></path><path d="M449.34 2386.19C448.7 2385.38 447.63 2384.95 446.88 2384.23C444.27 2381.67 446.57 2377.33 449.27 2374.84C455.41 2369.19 463.29 2365.62 471.7 2364.68C473.13 2364.52 474.67 2364.4 475.72 2363.44C477 2362.31 477.06 2360.45 477.05 2358.79C477.04 2357.55 476.99 2347.67 476.98 2346.43C476.98 2344.84 476.98 2343.18 476.26 2341.74C475.54 2340.29 473.99 2339.11 472.36 2339.36C470.87 2339.6 469.85 2340.89 468.83 2341.98C463.39 2347.66 455.03 2349.75 447.43 2347.33C445.58 2346.71 443.78 2345.81 441.83 2345.6C439.87 2345.4 437.62 2346.11 436.83 2347.85C435.94 2349.8 437.19 2352.14 436.49 2354.16C435.15 2358.07 428.34 2357.36 426.33 2360.99C424.64 2364.04 427.51 2367.44 429.45 2370.35C433.07 2375.77 433.71 2382.48 435.59 2388.66C436.58 2391.94 439.73 2400.23 444.08 2400.75C449.21 2401.42 448.97 2394.92 449.78 2391.26C450.16 2389.54 450.47 2387.56 449.34 2386.19Z" id="d7vtZ6d8jD"></path><path d="M499.83 2403.28C499.83 2403.28 499.83 2403.28 499.83 2403.28C503.67 2420.54 505.8 2430.12 506.23 2432.04C506.23 2432.04 506.23 2432.04 506.23 2432.04C487.82 2435.88 477.6 2438.01 475.55 2438.44C475.55 2438.44 475.55 2438.44 475.55 2438.44C471.72 2421.18 469.59 2411.59 469.16 2409.67C469.16 2409.67 469.16 2409.67 469.16 2409.67C487.56 2405.83 497.79 2403.7 499.83 2403.28Z" id="a65lq0QEgI"></path><path d="M868.96 2342.31L869.43 2342.35L869.89 2342.41L870.36 2342.48L870.81 2342.56L871.27 2342.66L871.72 2342.78L872.16 2342.9L872.6 2343.05L873.04 2343.2L873.47 2343.37L873.9 2343.55L874.32 2343.74L874.73 2343.95L875.14 2344.17L875.54 2344.39L875.94 2344.63L876.34 2344.88L876.72 2345.15L877.1 2345.42L877.48 2345.7L877.84 2345.99L878.2 2346.29L878.56 2346.59L878.9 2346.91L879.24 2347.24L879.58 2347.57L879.9 2347.91L880.22 2348.26L880.53 2348.61L880.83 2348.97L881.13 2349.34L881.41 2349.71L881.69 2350.09L881.96 2350.47L882.22 2350.86L882.48 2351.25L882.72 2351.65L882.96 2352.05L883.19 2352.46L883.4 2352.87L883.59 2353.24L883.78 2353.61L883.95 2353.99L884.12 2354.36L884.29 2354.74L884.45 2355.12L884.6 2355.51L884.75 2355.89L884.89 2356.28L885.03 2356.66L885.16 2357.05L885.28 2357.44L885.4 2357.83L885.52 2358.22L885.63 2358.62L885.73 2359.01L885.83 2359.41L885.92 2359.81L886.01 2360.21L886.1 2360.61L886.18 2361.01L886.25 2361.41L886.32 2361.81L886.39 2362.22L886.45 2362.62L886.5 2363.03L886.55 2363.44L886.6 2363.84L886.64 2364.25L886.68 2364.66L886.72 2365.07L886.75 2365.49L886.78 2365.9L886.8 2366.31L886.82 2366.72L886.84 2367.14L886.85 2367.55L886.86 2367.97L886.86 2368.39L886.86 2368.8L886.87 2369.2L886.87 2369.6L886.87 2370L886.86 2370.41L886.86 2370.81L886.85 2371.21L886.83 2371.61L886.82 2372.01L886.8 2372.42L886.78 2372.82L886.76 2373.22L886.73 2373.63L886.7 2374.03L886.67 2374.43L886.64 2374.84L886.61 2375.24L886.57 2375.65L886.53 2376.05L886.49 2376.45L886.45 2376.86L886.41 2377.26L886.36 2377.66L886.31 2378.07L886.27 2378.47L886.22 2378.87L886.16 2379.27L886.11 2379.68L886.06 2380.08L886 2380.48L885.94 2380.88L885.88 2381.28L885.82 2381.68L885.76 2382.08L885.7 2382.48L885.64 2382.87L885.58 2383.27L885.51 2383.67L885.45 2384.07L885.38 2384.46L885.32 2384.86L885.24 2385.33L885.16 2385.8L885.08 2386.28L885 2386.76L884.92 2387.23L884.84 2387.71L884.76 2388.19L884.68 2388.67L884.6 2389.15L884.53 2389.62L884.45 2390.1L884.37 2390.58L884.3 2391.06L884.23 2391.54L884.15 2392.02L884.08 2392.51L884.01 2392.99L883.95 2393.47L883.88 2393.95L883.82 2394.43L883.75 2394.91L883.69 2395.39L883.64 2395.88L883.58 2396.36L883.53 2396.84L883.48 2397.32L883.43 2397.8L883.39 2398.28L883.34 2398.77L883.3 2399.25L883.27 2399.73L883.24 2400.21L883.21 2400.69L883.18 2401.17L883.16 2401.65L883.14 2402.13L883.13 2402.61L883.12 2403.09L883.11 2403.57L883.11 2404.04L883.11 2404.34L883.11 2404.63L883.12 2404.93L883.13 2405.22L883.14 2405.51L883.16 2405.81L883.17 2406.1L883.19 2406.39L883.21 2406.69L883.23 2406.98L883.26 2407.27L883.29 2407.56L883.32 2407.85L883.35 2408.15L883.39 2408.44L883.43 2408.73L883.47 2409.02L883.51 2409.31L883.55 2409.6L883.6 2409.89L883.65 2410.18L883.7 2410.47L883.75 2410.75L883.81 2411.04L883.87 2411.33L883.93 2411.62L883.99 2411.9L884.06 2412.19L884.13 2412.48L884.2 2412.76L884.27 2413.05L884.35 2413.33L884.42 2413.61L884.5 2413.9L884.59 2414.18L884.67 2414.46L884.76 2414.74L884.85 2415.02L884.94 2415.3L885.03 2415.58L885.1 2415.78L885.17 2415.97L885.24 2416.16L885.32 2416.35L885.39 2416.54L885.47 2416.74L885.54 2416.93L885.62 2417.12L885.7 2417.31L885.77 2417.5L885.85 2417.69L885.93 2417.88L886.01 2418.07L886.09 2418.26L886.17 2418.45L886.25 2418.64L886.32 2418.83L886.4 2419.02L886.48 2419.21L886.56 2419.4L886.64 2419.59L886.71 2419.78L886.79 2419.97L886.86 2420.16L886.94 2420.35L887.01 2420.54L887.08 2420.73L887.15 2420.92L887.22 2421.12L887.29 2421.31L887.36 2421.5L887.42 2421.7L887.49 2421.89L887.55 2422.08L887.61 2422.28L887.67 2422.48L887.72 2422.67L887.78 2422.87L887.83 2423.07L887.88 2423.26L887.91 2423.43L887.95 2423.61L887.99 2423.78L888.02 2423.95L888.06 2424.12L888.09 2424.29L888.12 2424.47L888.15 2424.64L888.18 2424.81L888.21 2424.98L888.24 2425.16L888.27 2425.33L888.29 2425.5L888.31 2425.67L888.34 2425.85L888.36 2426.02L888.38 2426.2L888.4 2426.37L888.42 2426.54L888.44 2426.72L888.45 2426.89L888.47 2427.06L888.48 2427.24L888.5 2427.41L888.51 2427.59L888.52 2427.76L888.53 2427.94L888.54 2428.11L888.55 2428.29L888.55 2428.46L888.56 2428.64L888.56 2428.81L888.56 2428.99L888.57 2429.16L888.57 2429.34L888.57 2429.51L888.57 2429.69L888.56 2429.86L888.56 2430.04L888.56 2430.21L888.56 2430.28L888.55 2430.36L888.55 2430.43L888.55 2430.51L888.55 2430.58L888.55 2430.65L888.55 2430.73L888.55 2430.8L888.55 2430.88L888.55 2430.95L888.55 2431.02L888.54 2431.1L888.54 2431.17L888.54 2431.25L888.54 2431.32L888.54 2431.39L888.54 2431.47L888.53 2431.54L888.53 2431.62L888.53 2431.77L888.53 2431.84L888.52 2431.91L888.52 2431.99L888.52 2432.06L888.52 2432.14L888.52 2432.21L888.52 2432.28L888.51 2432.36L888.51 2432.43L888.51 2432.51L888.51 2432.58L888.51 2432.65L888.51 2432.73L888.51 2432.8L888.51 2432.88L888.5 2432.95L888.5 2433.02L888.5 2433.1L888.5 2433.17L888.47 2434.22L888.43 2435.26L888.39 2436.31L888.34 2437.35L888.29 2438.4L888.24 2439.44L888.18 2440.49L888.12 2441.53L888.06 2442.57L887.99 2443.62L887.92 2444.66L887.85 2445.7L887.77 2446.75L887.69 2447.79L887.6 2448.83L887.51 2449.87L887.42 2450.91L887.32 2451.96L887.22 2453L887.12 2454.04L887.01 2455.08L886.9 2456.12L886.79 2457.16L886.67 2458.2L886.55 2459.23L886.42 2460.27L886.29 2461.31L886.16 2462.35L886.02 2463.39L885.88 2464.42L885.74 2465.46L885.59 2466.49L885.44 2467.53L885.29 2468.56L885.13 2469.6L884.97 2470.63L884.8 2471.67L884.64 2472.7L884.46 2473.73L884.29 2474.76L883.96 2474.72L883.64 2474.67L883.32 2474.6L883 2474.53L882.69 2474.45L882.38 2474.35L882.07 2474.25L881.77 2474.14L881.47 2474.03L881.18 2473.9L880.89 2473.77L880.6 2473.62L880.32 2473.47L880.04 2473.32L879.77 2473.15L879.49 2472.98L879.23 2472.8L878.96 2472.62L878.7 2472.43L878.45 2472.23L878.2 2472.02L877.95 2471.81L877.71 2471.6L877.47 2471.38L877.23 2471.15L877 2470.92L876.78 2470.68L876.55 2470.44L876.34 2470.19L876.12 2469.94L875.91 2469.69L875.71 2469.43L875.51 2469.17L875.31 2468.9L875.12 2468.64L874.93 2468.36L874.75 2468.09L874.57 2467.81L874.39 2467.53L874.23 2467.25L874.14 2467.69L874.06 2468.13L873.98 2468.57L873.9 2469.01L873.83 2469.45L873.76 2469.89L873.69 2470.33L873.62 2470.78L873.55 2471.22L873.49 2471.66L873.43 2472.11L873.37 2472.55L873.31 2472.99L873.25 2473.44L873.2 2473.88L873.15 2474.33L873.1 2474.77L873.05 2475.21L873.01 2475.66L872.97 2476.11L872.93 2476.55L872.89 2477L872.85 2477.44L872.82 2477.89L872.78 2478.33L872.76 2478.78L872.73 2479.23L872.7 2479.67L872.68 2480.12L872.66 2480.57L872.64 2481.01L872.62 2481.46L872.61 2481.91L872.59 2482.35L872.58 2482.8L872.58 2483.25L872.57 2483.7L872.57 2484.14L872.56 2484.59L872.57 2485.04L872.57 2485.68L872.58 2486.32L872.59 2486.97L872.6 2487.61L872.62 2488.25L872.64 2488.89L872.66 2489.54L872.69 2490.18L872.72 2490.82L872.75 2491.46L872.79 2492.1L872.83 2492.74L872.87 2493.39L872.91 2494.03L872.96 2494.67L873.01 2495.31L873.07 2495.95L873.13 2496.59L873.19 2497.23L873.25 2497.87L873.32 2498.5L873.39 2499.14L873.46 2499.78L873.54 2500.42L873.62 2501.06L873.7 2501.69L873.79 2502.33L873.88 2502.97L873.97 2503.6L874.06 2504.24L874.16 2504.87L874.26 2505.51L874.37 2506.14L874.47 2506.78L874.59 2507.41L874.7 2508.04L874.82 2508.68L874.94 2509.31L875.06 2509.94L875.19 2510.57L875.01 2510.48L875.02 2510.53L875.02 2510.57L875.03 2510.6L875.05 2510.68L875.06 2510.75L875.07 2510.78L875.08 2510.82L875.1 2510.91L875.11 2510.99L875.13 2511.05L875.13 2511.07L875.14 2511.11L875.16 2511.19L875.17 2511.26L875.18 2511.28L875.19 2511.33L875.16 2511.32L875.15 2511.31L875.11 2511.29L875.08 2511.27L875.07 2511.27L875.03 2511.25L874.99 2511.23L874.95 2511.21L874.92 2511.2L874.87 2511.17L874.83 2511.15L874.78 2511.13L874.74 2511.11L874.69 2511.09L875.11 2512.11L875.53 2513.15L875.93 2514.23L876.33 2515.33L876.71 2516.46L877.07 2517.6L877.4 2518.76L877.72 2519.94L878 2521.12L878.26 2522.32L878.48 2523.53L878.66 2524.74L878.81 2525.95L878.91 2527.16L878.97 2528.37L878.98 2529.57L878.93 2530.77L878.83 2531.95L878.68 2533.13L878.46 2534.28L878.18 2535.43L877.84 2536.54L877.42 2537.64L876.93 2538.71L876.37 2539.76L875.72 2540.77L875 2541.75L874.19 2542.7L873.29 2543.61L872.3 2544.47L871.22 2545.3L870.04 2546.08L868.77 2546.81L867.39 2547.49L865.9 2548.12L864.31 2548.69L862.6 2549.21L860.78 2549.66L858.84 2550.06L856.79 2550.38L824.69 2550.38L824.67 2550.43L824.61 2550.56L824.5 2550.78L824.36 2551.07L824.19 2551.43L823.97 2551.87L823.72 2552.37L823.44 2552.93L823.13 2553.54L822.79 2554.2L822.43 2554.91L822.04 2555.65L821.62 2556.44L821.18 2557.25L820.72 2558.09L820.24 2558.95L819.74 2559.83L819.22 2560.72L818.69 2561.62L818.15 2562.52L817.59 2563.42L817.03 2564.31L816.45 2565.19L815.87 2566.06L815.28 2566.91L814.69 2567.73L814.1 2568.52L813.5 2569.27L812.91 2569.99L812.32 2570.66L811.73 2571.28L811.15 2571.85L810.57 2572.36L810.01 2572.81L809.45 2573.19L808.91 2573.5L808.38 2573.73L807.86 2573.89L807.36 2573.95L806.88 2573.92L806.85 2573.93L806.83 2573.93L806.8 2573.93L806.78 2573.94L806.75 2573.94L806.73 2573.94L806.71 2573.94L806.68 2573.95L806.66 2573.95L806.63 2573.95L806.61 2573.95L806.58 2573.95L806.56 2573.95L806.53 2573.96L806.51 2573.96L806.48 2573.96L806.46 2573.96L806.44 2573.96L806.41 2573.96L806.39 2573.95L806.36 2573.95L806.34 2573.95L806.31 2573.95L806.29 2573.95L806.26 2573.95L806.24 2573.95L806.22 2573.94L806.19 2573.94L806.17 2573.94L806.14 2573.94L806.12 2573.93L806.09 2573.93L806.07 2573.92L806.05 2573.92L806.02 2573.92L806 2573.91L805.97 2573.91L805.95 2573.9L805.93 2573.9L805.9 2573.89L805.64 2573.82L805.36 2573.7L805.04 2573.56L804.7 2573.38L804.33 2573.16L803.94 2572.92L803.53 2572.64L803.09 2572.34L802.63 2572L802.14 2571.64L801.64 2571.24L801.12 2570.82L800.58 2570.37L800.02 2569.9L799.44 2569.4L798.85 2568.88L798.25 2568.34L797.63 2567.77L796.99 2567.18L796.35 2566.57L795.69 2565.93L795.02 2565.28L794.35 2564.61L793.66 2563.92L792.97 2563.22L792.27 2562.5L791.57 2561.76L790.86 2561.01L790.15 2560.24L789.43 2559.46L788.71 2558.67L788 2557.86L787.28 2557.05L786.56 2556.22L785.84 2555.39L785.13 2554.54L784.42 2553.69L783.71 2552.83L783.01 2551.97L782.32 2551.1L779.66 2551.27L779.93 2552.49L780.17 2553.74L780.4 2555.01L780.6 2556.3L780.78 2557.6L780.94 2558.92L781.09 2560.25L781.21 2561.59L781.32 2562.94L781.42 2564.29L781.49 2565.64L781.55 2566.99L781.6 2568.34L781.64 2569.68L781.66 2571.01L781.67 2572.32L781.66 2573.63L781.65 2574.91L781.63 2576.17L781.59 2577.41L781.55 2578.63L781.5 2579.81L781.45 2580.97L781.38 2582.09L781.31 2583.17L781.24 2584.22L781.16 2585.22L781.08 2586.18L781 2587.09L780.91 2587.95L780.82 2588.76L780.73 2589.52L780.64 2590.21L780.55 2590.85L780.46 2591.42L780.38 2591.92L780.29 2592.36L780.21 2592.72L780.14 2593.02L780.07 2593.23L780.01 2593.41L779.95 2593.61L779.91 2593.82L779.88 2594.05L779.86 2594.29L779.85 2594.54L779.85 2594.8L779.85 2595.08L779.87 2595.36L779.89 2595.66L779.92 2595.96L779.95 2596.27L780 2596.58L780.05 2596.91L780.1 2597.24L780.16 2597.57L780.23 2597.91L780.3 2598.25L780.38 2598.59L780.46 2598.94L780.54 2599.28L780.63 2599.63L780.71 2599.98L780.81 2600.32L780.9 2600.66L781 2601L781.09 2601.34L781.19 2601.68L781.29 2602L781.39 2602.33L781.48 2602.64L781.58 2602.95L781.68 2603.25L781.77 2603.55L781.87 2603.83L781.96 2604.1L782.05 2604.37L782.13 2604.62L782.21 2604.85L782.29 2605.08L784.05 2603.84L795.31 2615.71L783.07 2626.88L782.82 2627.41L769.95 2638.79L753.25 2653.96L752.82 2653.44L752.44 2652.87L752.12 2652.25L751.86 2651.56L751.65 2650.83L751.5 2650.05L751.39 2649.23L751.34 2648.37L751.32 2647.47L751.36 2646.54L751.43 2645.57L751.55 2644.58L751.7 2643.56L751.89 2642.53L752.11 2641.47L752.37 2640.41L752.66 2639.33L752.97 2638.24L753.31 2637.15L753.68 2636.06L754.07 2634.97L754.48 2633.88L754.91 2632.8L755.35 2631.74L755.81 2630.69L756.28 2629.66L756.77 2628.65L757.26 2627.67L757.76 2626.71L758.26 2625.79L758.77 2624.9L759.27 2624.05L759.78 2623.24L760.28 2622.47L760.78 2621.75L761.27 2621.09L761.75 2620.47L762.23 2619.92L762.69 2619.43L763.13 2619L764.35 2618.11L764.58 2617.28L764.76 2616.42L764.91 2615.51L765.03 2614.57L765.11 2613.6L765.17 2612.6L765.19 2611.56L765.18 2610.5L765.15 2609.41L765.09 2608.31L765 2607.18L764.9 2606.03L764.77 2604.87L764.61 2603.7L764.44 2602.51L764.25 2601.32L764.04 2600.11L763.82 2598.91L763.58 2597.7L763.33 2596.49L763.07 2595.29L762.79 2594.08L762.51 2592.89L762.21 2591.7L761.91 2590.53L761.61 2589.37L761.3 2588.22L760.99 2587.1L760.67 2585.99L760.35 2584.91L760.04 2583.85L759.73 2582.82L759.42 2581.81L759.11 2580.84L758.81 2579.9L758.52 2579L758.23 2578.14L757.96 2577.31L757.69 2576.53L757.44 2575.8L756.73 2577.14L756.02 2578.49L755.29 2579.84L754.57 2581.21L753.84 2582.58L753.11 2583.95L752.37 2585.33L751.64 2586.7L750.91 2588.06L750.18 2589.42L749.45 2590.77L748.72 2592.11L748.01 2593.44L747.29 2594.75L746.59 2596.04L745.89 2597.32L745.21 2598.57L744.53 2599.79L743.87 2600.99L743.22 2602.16L742.58 2603.3L741.96 2604.41L741.35 2605.48L740.77 2606.51L740.2 2607.5L739.65 2608.45L739.12 2609.36L738.62 2610.21L738.13 2611.02L737.68 2611.78L737.24 2612.48L736.84 2613.13L736.46 2613.72L736.11 2614.25L735.79 2614.72L735.5 2615.12L735.24 2615.45L735.02 2615.72L734.83 2615.91L734.67 2616.03L734.59 2616.08L734.51 2616.14L734.44 2616.19L734.37 2616.25L734.3 2616.32L734.24 2616.38L734.18 2616.44L734.12 2616.51L734.07 2616.58L734.02 2616.65L733.97 2616.73L733.92 2616.8L733.88 2616.88L733.84 2616.96L733.81 2617.04L733.78 2617.13L733.75 2617.21L733.72 2617.3L733.7 2617.39L733.68 2617.48L733.66 2617.57L733.64 2617.66L733.63 2617.75L733.62 2617.85L733.61 2617.94L733.6 2618.04L733.6 2618.14L733.6 2618.24L733.6 2618.34L733.6 2618.44L733.61 2618.54L733.61 2618.65L733.62 2618.75L733.63 2618.86L733.65 2618.96L733.66 2619.07L733.68 2619.18L733.7 2619.28L733.72 2619.39L733.74 2619.5L734.76 2619.13L742.15 2633.58L708.83 2649.94L707.62 2650.91L707.19 2650.74L690.67 2658.86L690.41 2658.28L690.22 2657.65L690.09 2657L690.03 2656.31L690.03 2655.59L690.09 2654.84L690.2 2654.06L690.37 2653.26L690.59 2652.44L690.85 2651.6L691.17 2650.74L691.53 2649.87L691.92 2648.98L692.36 2648.08L692.83 2647.18L693.34 2646.27L693.88 2645.35L694.45 2644.44L695.04 2643.52L695.66 2642.61L696.3 2641.7L696.96 2640.8L697.64 2639.91L698.33 2639.04L699.03 2638.18L699.74 2637.33L700.46 2636.5L701.18 2635.7L701.9 2634.92L702.62 2634.16L703.34 2633.43L704.05 2632.74L704.76 2632.07L705.45 2631.44L706.14 2630.85L706.8 2630.3L707.45 2629.79L708.08 2629.32L708.68 2628.9L709.26 2628.53L709.32 2628.42L709.39 2628.32L709.45 2628.22L709.52 2628.12L709.58 2628.03L709.64 2627.93L709.7 2627.84L709.76 2627.75L709.81 2627.67L709.87 2627.58L709.92 2627.5L709.98 2627.42L710.03 2627.34L710.08 2627.27L710.12 2627.19L710.17 2627.12L710.22 2627.06L710.26 2626.99L710.3 2626.93L710.34 2626.87L710.38 2626.81L710.42 2626.76L710.45 2626.7L710.48 2626.66L710.51 2626.61L710.54 2626.57L710.57 2626.52L710.6 2626.49L710.62 2626.45L710.64 2626.42L710.66 2626.39L710.68 2626.36L710.7 2626.34L710.71 2626.32L710.73 2626.29L710.75 2626.26L738.21 2548.54L738.21 2548.51L738.21 2548.44L738.22 2548.32L738.23 2548.15L738.25 2547.94L738.28 2547.69L738.31 2547.4L738.35 2547.08L738.4 2546.71L738.45 2546.32L738.52 2545.89L738.6 2545.43L738.68 2544.94L738.78 2544.43L738.89 2543.89L739.01 2543.33L739.15 2542.75L739.3 2542.15L739.46 2541.53L739.64 2540.9L739.84 2540.25L740.05 2539.59L740.29 2538.93L740.53 2538.25L740.8 2537.57L741.09 2536.89L741.4 2536.21L741.72 2535.52L742.07 2534.84L742.45 2534.16L742.84 2533.48L743.26 2532.81L743.7 2532.16L744.17 2531.51L744.66 2530.87L745.18 2530.26L745.72 2529.65L746.29 2529.07L746.89 2528.51L747.52 2527.97L747.63 2527.7L747.73 2527.44L747.84 2527.19L747.96 2526.94L748.08 2526.68L748.2 2526.44L748.33 2526.19L748.47 2525.95L748.61 2525.71L748.75 2525.48L748.9 2525.24L749.05 2525.01L749.2 2524.78L749.36 2524.56L749.52 2524.34L749.69 2524.12L749.86 2523.9L750.03 2523.68L750.21 2523.47L750.39 2523.26L750.57 2523.06L750.76 2522.85L750.95 2522.65L751.14 2522.45L751.34 2522.26L751.54 2522.06L751.74 2521.87L751.94 2521.68L752.15 2521.5L752.36 2521.31L752.57 2521.13L752.78 2520.96L753 2520.78L753.22 2520.61L753.44 2520.44L753.66 2520.27L753.89 2520.1L754.11 2519.94L754.34 2519.78L754.57 2519.62L754.57 2514.68L765.33 2514.68L765.38 2514.67L765.43 2514.65L765.48 2514.64L765.53 2514.62L765.58 2514.61L765.62 2514.59L765.67 2514.58L765.72 2514.56L765.77 2514.55L765.82 2514.53L765.87 2514.52L765.92 2514.5L765.97 2514.49L766.02 2514.47L766.07 2514.46L766.11 2514.45L766.16 2514.43L766.21 2514.42L766.26 2514.41L766.31 2514.39L766.36 2514.38L766.41 2514.36L766.46 2514.35L766.5 2514.34L766.55 2514.32L766.6 2514.31L766.65 2514.3L766.7 2514.29L766.74 2514.27L766.79 2514.26L766.84 2514.25L766.89 2514.23L766.93 2514.22L766.98 2514.21L767.07 2514.18L767.26 2514.13L767.23 2514.11L767.21 2514.08L767.19 2514.05L767.17 2514.02L767.15 2513.99L767.13 2513.96L767.11 2513.93L767.1 2513.89L767.08 2513.86L767.07 2513.83L767.05 2513.8L767.04 2513.76L767.03 2513.73L767.02 2513.7L767.01 2513.66L767 2513.63L766.99 2513.6L766.99 2513.56L766.98 2513.53L766.98 2513.49L766.97 2513.46L766.97 2513.42L766.97 2513.39L766.97 2513.35L766.97 2513.32L766.97 2513.28L766.97 2513.25L766.97 2513.21L766.98 2513.18L766.98 2513.14L766.99 2513.11L767 2513.08L767.01 2513.04L767.02 2513.01L767.03 2512.97L767.04 2512.94L767.05 2512.91L767.07 2512.87L767.08 2512.84L767.1 2512.81L767.59 2511.91L767.24 2511.89L766.89 2511.87L766.55 2511.84L766.22 2511.81L765.89 2511.77L765.57 2511.73L765.26 2511.68L764.96 2511.63L764.67 2511.57L764.39 2511.51L764.12 2511.44L763.86 2511.37L763.62 2511.29L763.38 2511.2L763.16 2511.11L762.94 2511.01L762.75 2510.91L762.56 2510.8L762.39 2510.68L762.23 2510.56L762.09 2510.43L761.97 2510.29L761.85 2510.14L761.76 2509.99L761.68 2509.83L761.62 2509.66L761.58 2509.49L761.56 2509.31L761.55 2509.12L761.56 2508.92L761.6 2508.71L761.65 2508.49L761.72 2508.27L761.82 2508.04L761.93 2507.8L762.07 2507.54L762.23 2507.29L762.41 2507.02L762.61 2506.74L762.84 2506.45L763.06 2506.18L763.29 2505.92L763.52 2505.67L763.76 2505.42L764 2505.18L764.24 2504.95L764.49 2504.72L764.74 2504.5L765 2504.28L765.26 2504.07L765.52 2503.87L765.79 2503.67L766.06 2503.48L766.33 2503.29L766.61 2503.11L766.88 2502.94L767.17 2502.77L767.45 2502.6L767.73 2502.44L768.02 2502.29L768.31 2502.14L768.6 2501.99L768.9 2501.85L769.19 2501.72L769.49 2501.59L769.79 2501.46L770.09 2501.34L770.39 2501.23L770.69 2501.11L770.99 2501.01L771.29 2500.9L771.6 2500.81L771.9 2500.71L772.2 2500.62L772.51 2500.53L772.81 2500.45L773.11 2500.37L773.42 2500.29L773.72 2500.22L774.02 2500.15L777.58 2493.66L777.59 2493.64L777.6 2493.62L777.6 2493.61L777.61 2493.6L777.61 2493.59L777.64 2493.54L777.67 2493.5L777.7 2493.46L777.73 2493.42L777.76 2493.38L777.79 2493.34L777.83 2493.31L777.86 2493.27L777.9 2493.24L777.94 2493.21L777.98 2493.18L778.02 2493.15L778.06 2493.12L778.1 2493.1L778.14 2493.07L778.19 2493.05L778.23 2493.03L778.28 2493.01L778.32 2493L778.37 2492.98L778.42 2492.97L778.47 2492.96L778.51 2492.95L778.56 2492.94L778.61 2492.93L778.66 2492.93L778.71 2492.93L778.76 2492.93L778.81 2492.93L778.86 2492.93L778.91 2492.94L778.96 2492.94L779.01 2492.95L779.06 2492.96L779.11 2492.98L779.16 2492.99L779.2 2493.01L779.25 2493.03L779.3 2493.05L779.35 2493.07L779.39 2493.09L779.44 2493.12L779.48 2493.15L779.52 2493.18L779.56 2493.21L779.6 2493.24L779.64 2493.27L779.67 2493.31L779.71 2493.35L779.74 2493.38L779.77 2493.42L779.8 2493.46L779.83 2493.5L779.85 2493.54L779.88 2493.58L779.9 2493.62L779.92 2493.67L779.94 2493.71L779.96 2493.76L779.97 2493.8L779.99 2493.85L780 2493.89L780.01 2493.94L780.02 2493.99L780.02 2494.03L780.03 2494.08L780.03 2494.13L780.03 2494.18L780.03 2494.23L780.03 2494.27L780.02 2494.32L780.01 2494.37L780 2494.42L779.99 2494.47L779.98 2494.51L779.96 2494.56L779.95 2494.61L779.93 2494.66L779.91 2494.7L779.88 2494.75L777.22 2499.62L777.43 2499.6L777.65 2499.57L777.87 2499.55L778.09 2499.53L778.3 2499.51L778.52 2499.49L778.74 2499.47L778.96 2499.46L779.17 2499.44L779.39 2499.43L779.61 2499.42L779.83 2499.41L780.05 2499.4L780.26 2499.39L780.48 2499.38L780.7 2499.38L780.92 2499.37L781.14 2499.37L781.36 2499.37L781.57 2499.37L781.79 2499.37L782.01 2499.37L782.23 2499.37L782.45 2499.38L782.67 2499.38L782.88 2499.39L783.1 2499.4L783.32 2499.41L783.54 2499.42L783.76 2499.43L783.97 2499.44L784.19 2499.46L784.41 2499.47L784.63 2499.49L784.84 2499.51L785.06 2499.53L785.28 2499.55L785.5 2499.57L785.71 2499.6L785.93 2499.62L798.86 2497.26L815.69 2473.11L820.67 2465.4L820.61 2465.24L820.56 2465.09L820.5 2464.94L820.44 2464.79L820.38 2464.64L820.33 2464.48L820.27 2464.33L820.21 2464.18L820.15 2464.03L820.09 2463.88L820.03 2463.73L819.97 2463.58L819.9 2463.43L819.84 2463.28L819.78 2463.13L819.71 2462.98L819.65 2462.83L819.59 2462.68L819.52 2462.53L819.46 2462.39L819.39 2462.24L819.32 2462.09L819.26 2461.94L819.19 2461.79L819.12 2461.65L819.05 2461.5L818.98 2461.35L818.91 2461.21L818.84 2461.06L818.77 2460.91L818.7 2460.77L818.63 2460.62L818.55 2460.47L818.48 2460.33L818.41 2460.18L818.33 2460.04L818.26 2459.89L818.18 2459.75L818.11 2459.61L818.03 2459.46L817.92 2459.25L817.8 2459.04L817.69 2458.83L817.59 2458.62L817.48 2458.4L817.38 2458.19L817.28 2457.97L817.18 2457.76L817.09 2457.54L817 2457.32L816.91 2457.1L816.83 2456.88L816.75 2456.65L816.67 2456.43L816.59 2456.21L816.52 2455.98L816.45 2455.75L816.39 2455.53L816.32 2455.3L816.26 2455.07L816.2 2454.84L816.15 2454.61L816.1 2454.38L816.05 2454.15L816 2453.92L815.96 2453.69L815.92 2453.46L815.89 2453.22L815.85 2452.99L815.82 2452.75L815.79 2452.52L815.77 2452.28L815.75 2452.05L815.73 2451.81L815.72 2451.58L815.7 2451.34L815.7 2451.1L815.69 2450.87L815.69 2450.63L815.69 2450.39L815.69 2450.14L815.69 2449.89L815.69 2449.63L815.7 2449.38L815.71 2449.13L815.72 2448.87L815.74 2448.62L815.76 2448.37L815.79 2448.12L815.82 2447.87L815.85 2447.62L815.88 2447.37L815.92 2447.12L815.96 2446.87L816.01 2446.62L816.05 2446.38L816.11 2446.13L816.16 2445.88L816.22 2445.64L816.28 2445.4L816.34 2445.15L816.41 2444.91L816.48 2444.67L816.56 2444.43L816.63 2444.19L816.72 2443.95L816.8 2443.71L816.89 2443.47L816.98 2443.23L817.07 2443L817.17 2442.77L817.27 2442.53L817.37 2442.3L817.48 2442.07L817.59 2441.84L817.7 2441.61L817.81 2441.39L817.93 2441.16L818.06 2440.94L818.18 2440.71L817.7 2440.59L818.49 2440.17L818.56 2440.05L817.69 2439.83L817.73 2439.81L817.77 2439.79L817.81 2439.77L817.84 2439.76L817.88 2439.74L817.92 2439.72L817.96 2439.7L817.99 2439.68L818.03 2439.66L818.07 2439.64L818.11 2439.62L818.14 2439.6L818.18 2439.58L818.22 2439.56L818.26 2439.54L818.29 2439.52L818.33 2439.5L818.37 2439.48L818.4 2439.46L818.44 2439.44L818.48 2439.42L818.52 2439.4L818.55 2439.38L818.59 2439.36L818.63 2439.34L818.67 2439.32L818.7 2439.3L818.74 2439.28L818.78 2439.26L818.81 2439.24L818.85 2439.22L818.89 2439.2L818.93 2439.18L818.96 2439.16L819 2439.14L819.04 2439.12L819.08 2439.1L819.11 2439.08L819.15 2439.06L819.19 2439.04L819.27 2438.92L819.35 2438.79L819.44 2438.67L819.52 2438.54L819.61 2438.42L819.7 2438.29L819.79 2438.17L819.87 2438.05L819.96 2437.93L820.05 2437.8L820.15 2437.68L820.24 2437.56L820.33 2437.44L820.42 2437.32L820.52 2437.2L820.61 2437.09L820.71 2436.97L820.8 2436.85L820.9 2436.74L821 2436.62L821.1 2436.51L821.2 2436.39L821.3 2436.28L821.4 2436.16L821.5 2436.05L821.6 2435.94L821.71 2435.83L821.81 2435.72L821.92 2435.61L822.02 2435.5L822.13 2435.39L822.23 2435.28L822.34 2435.17L822.45 2435.07L822.56 2434.96L822.67 2434.85L822.78 2434.75L822.89 2434.64L823 2434.54L823.12 2434.44L837.96 2417.76L838.06 2417.73L838.16 2417.7L838.26 2417.67L838.36 2417.63L838.46 2417.6L838.56 2417.56L838.65 2417.53L838.75 2417.49L838.85 2417.45L838.95 2417.42L839.05 2417.38L839.14 2417.34L839.24 2417.3L839.34 2417.26L839.44 2417.22L839.53 2417.18L839.63 2417.14L839.72 2417.1L839.82 2417.05L839.91 2417.01L840.01 2416.97L840.1 2416.92L840.2 2416.88L840.29 2416.83L840.39 2416.78L840.48 2416.74L840.57 2416.69L840.67 2416.64L840.76 2416.59L840.85 2416.55L840.94 2416.5L841.04 2416.45L841.13 2416.4L841.22 2416.34L841.31 2416.29L841.4 2416.24L841.49 2416.19L841.58 2416.13L841.67 2416.08L841.76 2416.03L841.89 2415.73L842.02 2415.43L842.15 2415.13L842.27 2414.83L842.39 2414.52L842.51 2414.22L842.62 2413.91L842.74 2413.61L842.84 2413.3L842.95 2412.99L843.05 2412.69L843.15 2412.38L843.24 2412.07L843.34 2411.76L843.43 2411.44L843.51 2411.13L843.59 2410.82L843.67 2410.5L843.75 2410.19L843.82 2409.87L843.89 2409.56L843.96 2409.24L844.02 2408.92L844.08 2408.6L844.14 2408.29L844.19 2407.97L844.24 2407.65L844.29 2407.33L844.34 2407L844.38 2406.68L844.41 2406.36L844.45 2406.04L844.48 2405.72L844.51 2405.39L844.53 2405.07L844.55 2404.75L844.57 2404.42L844.58 2404.1L844.6 2403.77L844.6 2403.45L844.6 2403.39L844.6 2403.33L844.6 2403.27L844.6 2403.21L844.6 2403.15L844.6 2403.09L844.6 2403.03L844.6 2402.97L844.59 2402.91L844.59 2402.85L844.59 2402.79L844.59 2402.73L844.59 2402.67L844.58 2402.61L844.58 2402.55L844.58 2402.49L844.58 2402.43L844.57 2402.37L844.57 2402.31L844.57 2402.25L844.56 2402.19L844.56 2402.13L844.56 2402.07L844.56 2402.01L844.55 2401.95L844.55 2401.89L844.54 2401.83L844.54 2401.77L844.54 2401.71L844.53 2401.65L844.53 2401.59L844.52 2401.53L844.52 2401.48L844.52 2401.42L844.51 2401.36L844.51 2401.3L844.5 2401.24L844.5 2401.18L844.49 2401.12L844.49 2401.06L844.48 2401.05L844.47 2401.03L844.47 2401.02L844.45 2400.98L844.42 2400.94L844.37 2400.83L844.36 2400.81L844.34 2400.77L844.32 2400.74L844.3 2400.71L844.29 2400.67L844.27 2400.64L844.25 2400.6L844.23 2400.56L844.21 2400.52L844.18 2400.48L844.16 2400.44L844.14 2400.4L844.12 2400.36L844.09 2400.31L844.07 2400.27L844.04 2400.22L844.02 2400.17L843.99 2400.12L843.96 2400.08L843.94 2400.03L843.91 2399.98L843.88 2399.92L843.85 2399.87L843.82 2399.82L843.79 2399.77L843.76 2399.71L843.73 2399.66L843.7 2399.6L843.67 2399.55L843.61 2399.54L843.58 2399.54L843.53 2399.53L843.48 2399.52L843.44 2399.52L843.39 2399.51L843.35 2399.51L843.33 2399.5L843.28 2399.5L842.32 2399.34L841.38 2399.14L840.46 2398.91L839.55 2398.65L838.67 2398.36L837.8 2398.03L836.94 2397.67L836.11 2397.28L835.3 2396.86L834.51 2396.41L833.74 2395.93L832.99 2395.43L832.27 2394.89L831.56 2394.34L830.88 2393.76L830.23 2393.15L829.6 2392.52L829 2391.87L828.42 2391.2L827.87 2390.51L827.35 2389.79L826.86 2389.06L826.39 2388.31L825.96 2387.55L825.56 2386.76L825.18 2385.96L824.84 2385.15L824.53 2384.32L824.25 2383.48L824.01 2382.63L823.8 2381.76L823.62 2380.89L823.48 2380L823.38 2379.11L823.31 2378.2L823.28 2377.3L823.29 2376.38L823.33 2375.46L823.42 2374.53L823.54 2373.6L823.11 2373.52L822.69 2373.44L822.26 2373.36L821.84 2373.26L821.42 2373.16L821.01 2373.06L820.6 2372.95L820.2 2372.83L819.81 2372.7L819.42 2372.57L819.04 2372.43L818.66 2372.28L818.3 2372.12L817.94 2371.96L817.59 2371.78L817.24 2371.6L816.91 2371.41L816.59 2371.21L816.28 2370.99L815.97 2370.77L815.68 2370.54L815.4 2370.3L815.13 2370.05L814.88 2369.78L814.63 2369.51L814.4 2369.22L814.19 2368.92L813.98 2368.61L813.8 2368.29L813.62 2367.95L813.46 2367.6L813.32 2367.24L813.19 2366.86L813.08 2366.47L812.99 2366.07L812.91 2365.65L812.85 2365.22L812.81 2364.77L812.79 2364.31L812.78 2363.83L812.78 2363.07L812.79 2362.76L812.81 2362.44L812.84 2362.13L812.87 2361.82L812.92 2361.51L812.97 2361.2L813.03 2360.9L813.1 2360.59L813.18 2360.29L813.27 2359.99L813.36 2359.69L813.46 2359.4L813.57 2359.1L813.68 2358.81L813.81 2358.52L813.94 2358.24L814.07 2357.95L814.21 2357.67L814.36 2357.39L814.52 2357.11L814.68 2356.84L814.85 2356.57L815.02 2356.3L815.2 2356.03L815.38 2355.77L815.57 2355.51L815.76 2355.25L815.96 2354.99L816.16 2354.74L816.37 2354.5L816.58 2354.25L816.8 2354.01L817.01 2353.77L817.24 2353.54L817.46 2353.31L817.69 2353.08L817.93 2352.86L818.16 2352.64L818.4 2352.42L818.64 2352.21L818.96 2351.94L819.28 2351.68L819.61 2351.42L819.94 2351.17L820.28 2350.92L820.61 2350.68L820.96 2350.44L821.3 2350.21L821.65 2349.99L822 2349.77L822.36 2349.56L822.72 2349.35L823.08 2349.15L823.45 2348.95L823.82 2348.76L824.19 2348.58L824.56 2348.4L824.94 2348.23L825.32 2348.06L825.71 2347.9L826.09 2347.75L826.48 2347.6L826.87 2347.46L827.26 2347.32L827.66 2347.19L828.06 2347.07L828.46 2346.95L828.86 2346.84L829.26 2346.73L829.67 2346.63L830.08 2346.54L830.49 2346.46L830.9 2346.38L831.31 2346.3L831.72 2346.24L832.14 2346.18L832.56 2346.12L832.98 2346.08L833.4 2346.03L833.82 2346L834.26 2345.97L834.7 2345.95L835.15 2345.94L835.59 2345.93L836.03 2345.93L836.47 2345.93L836.92 2345.94L837.36 2345.95L837.8 2345.97L838.25 2345.99L838.69 2346.01L839.13 2346.04L839.57 2346.07L840.02 2346.1L840.46 2346.13L840.9 2346.17L841.35 2346.2L841.79 2346.24L842.23 2346.27L842.67 2346.31L843.12 2346.34L843.56 2346.37L844 2346.4L844.45 2346.43L844.89 2346.46L845.33 2346.48L845.77 2346.5L846.22 2346.51L846.66 2346.52L847.1 2346.53L847.54 2346.53L847.99 2346.53L848.43 2346.52L848.87 2346.5L849.31 2346.48L849.76 2346.45L850.2 2346.41L850.64 2346.36L851.08 2346.31L851.53 2346.24L851.97 2346.17L852.41 2346.09L852.85 2346L853.28 2345.9L853.72 2345.8L854.16 2345.68L854.59 2345.57L855.03 2345.45L855.46 2345.32L855.89 2345.19L856.33 2345.05L856.76 2344.92L857.19 2344.78L857.62 2344.64L858.05 2344.5L858.48 2344.35L858.92 2344.21L859.35 2344.07L859.78 2343.93L860.21 2343.79L860.64 2343.65L861.07 2343.52L861.5 2343.39L861.93 2343.26L862.37 2343.14L862.8 2343.03L863.23 2342.92L863.67 2342.82L864.1 2342.72L864.54 2342.63L864.97 2342.55L865.41 2342.48L865.85 2342.42L866.29 2342.37L866.73 2342.33L867.17 2342.3L867.62 2342.29L868.06 2342.28L868.51 2342.29L868.96 2342.31ZM774.94 2511.67L772.69 2511.83L770.44 2511.94L769.59 2513.58L770.65 2513.36L771.46 2513.2L771.97 2513.12L772.15 2513.09L773.89 2512.53L775.66 2512.05L777.44 2511.63L779.24 2511.29L779.41 2511.15L777.18 2511.44L774.94 2511.67ZM823.8 2505.16L821.62 2505.55L819.32 2505.94L816.92 2506.33L814.44 2506.7L811.91 2507.07L809.35 2507.43L806.78 2507.78L805.11 2509.64L807.13 2509.66L809.11 2509.7L811.03 2509.75L812.88 2509.81L814.66 2509.88L816.36 2509.95L817.96 2510.02L819.46 2510.1L820.86 2510.17L821.74 2509.67L822.59 2509.14L823.41 2508.56L824.2 2507.95L824.97 2507.3L825.7 2506.62L826.39 2505.9L827.05 2505.16L827.68 2504.38L825.83 2504.77L823.8 2505.16ZM823.12 2492.79L824.92 2487.88L819.91 2493.41L823.12 2492.79Z" id="d3ZUZO31qq"></path><linearGradient id="gradienta1h09bQ5wg" gradientUnits="userSpaceOnUse" x1="789.3" y1="2658.87" x2="789.3" y2="2342.29"><stop style="stop-color: #808080;stop-opacity: 0.25" offset="0%"></stop><stop style="stop-color: #808080;stop-opacity: 0.12" offset="54%"></stop><stop style="stop-color: #808080;stop-opacity: 0.1" offset="100%"></stop></linearGradient><path d="M768.51 2513.94C767.9 2513.65 767.65 2512.94 767.95 2512.35C767.95 2512.35 767.95 2512.35 767.95 2512.35C768.96 2510.51 777.03 2495.77 778.04 2493.93C778.34 2493.34 779.08 2493.09 779.69 2493.38C779.69 2493.38 779.69 2493.38 779.69 2493.38C779.69 2493.38 779.69 2493.38 779.69 2493.38C780.3 2493.67 780.55 2494.39 780.25 2494.98C780.25 2494.98 780.25 2494.98 780.25 2494.98C779.24 2496.82 771.17 2511.55 770.16 2513.4C769.86 2513.99 769.12 2514.23 768.51 2513.94C768.51 2513.94 768.51 2513.94 768.51 2513.94C768.51 2513.94 768.51 2513.94 768.51 2513.94Z" id="fxmaEsEaS"></path><path d="M772.82 2512.61C772.82 2512.61 745.41 2516.44 748.42 2534.67C749.29 2538.06 756.21 2565.19 757.08 2568.58C757.08 2568.58 769.9 2601.75 764.98 2614.52C764.98 2614.52 760.09 2634.93 755.2 2634.2C750.3 2633.47 765.73 2637.85 765.73 2637.85C766.88 2636.82 772.65 2631.72 783.04 2622.53C786.19 2615.75 787.95 2611.98 788.3 2611.23C788.3 2611.23 789.8 2607.94 783.03 2602.48C783.03 2602.48 779.27 2592.63 780.39 2589.72C781.52 2586.81 784.88 2551.15 775.68 2538.9C775.11 2533.64 773.39 2517.87 772.82 2512.61Z" id="b26yauvsuJ"></path><path d="M772.82 2512.61C772.82 2512.61 745.41 2516.44 748.42 2534.67C749.29 2538.06 756.21 2565.19 757.08 2568.58C757.08 2568.58 769.9 2601.75 764.98 2614.52C764.98 2614.52 760.09 2634.93 755.2 2634.2C750.3 2633.47 765.73 2637.85 765.73 2637.85C766.88 2636.82 772.65 2631.72 783.04 2622.53C786.19 2615.75 787.95 2611.98 788.3 2611.23C788.3 2611.23 789.8 2607.94 783.03 2602.48C783.03 2602.48 779.27 2592.63 780.39 2589.72C781.52 2586.81 784.88 2551.15 775.68 2538.9C775.11 2533.64 773.39 2517.87 772.82 2512.61Z" id="aqOT5ubMI"></path><path d="M795.08 2611.31L784.25 2599.9C772.16 2608.64 765.45 2613.5 764.11 2614.47C758.52 2619.54 748.63 2641.9 754.62 2648.08C754.62 2648.08 768.11 2635.82 795.08 2611.31Z" id="d5aI9SbAOQ"></path><path d="M770.63 2513.53C770.63 2513.53 769.5 2519.36 775.52 2526.28C781.54 2533.21 825.58 2510.24 825.58 2510.24C814.59 2510.9 784.93 2506.6 770.63 2513.53Z" id="aDAcH0cu9"></path><path d="M770.63 2513.53C770.63 2513.53 769.5 2519.36 775.52 2526.28C781.54 2533.21 825.58 2510.24 825.58 2510.24C814.59 2510.9 784.93 2506.6 770.63 2513.53Z" id="e4pOLzkKZ1"></path><path d="M795.04 2514.15C795.04 2514.15 795.04 2514.15 795.04 2514.15C795.04 2517.33 795.04 2519.1 795.04 2519.45C795.04 2519.45 795.04 2519.45 795.04 2519.45C771.56 2519.45 758.52 2519.45 755.91 2519.45C755.91 2519.45 755.91 2519.45 755.91 2519.45C755.91 2516.27 755.91 2514.51 755.91 2514.15C755.91 2514.15 755.91 2514.15 755.91 2514.15C779.39 2514.15 792.43 2514.15 795.04 2514.15Z" id="b3siFQk552"></path><path d="M780.79 2521.18C780.79 2521.18 758.96 2519.72 749.93 2526.28C749.93 2526.28 740.14 2546.7 740.14 2546.7C737.51 2554.18 716.43 2613.96 713.79 2621.44C713.79 2621.44 705.62 2633.31 704.39 2640.4C704.01 2642.58 710.8 2645.13 710.8 2645.13C712.33 2643.89 719.98 2637.68 733.75 2626.51C736.44 2622.79 737.94 2620.72 738.24 2620.3C738.24 2620.3 733.75 2613.37 736.73 2611.56C736.73 2611.56 770.6 2549.94 770.6 2549.94C773.24 2549.77 786.42 2548.93 810.14 2547.42C794.49 2533.43 784.71 2524.68 780.79 2521.18Z" id="a6NZd7jcUy"></path><path d="M865.47 2500.76C865.47 2500.76 892.95 2543.05 853.43 2548.52C850.34 2548.52 825.65 2548.52 822.56 2548.52C822.56 2548.52 811.27 2572.58 805.26 2571.12C805.26 2571.12 764.99 2533.94 770.26 2521.17C775.11 2520.08 813.95 2511.33 818.81 2510.24C818.81 2510.24 827.84 2506.23 828.59 2498.21C835.97 2498.72 858.1 2500.25 865.47 2500.76Z" id="aGgZ5FbrE"></path><path d="M866.23 2500.76C866.23 2500.76 893.7 2543.08 854.18 2548.52C851.09 2548.52 826.41 2548.52 823.32 2548.52C823.32 2548.52 812.03 2572.58 806.02 2571.12C800.01 2569.66 765.74 2533.94 770.99 2521.18C775.85 2520.09 814.69 2511.34 819.55 2510.24C819.55 2510.24 828.58 2506.23 829.33 2498.21C836.71 2498.72 858.85 2500.25 866.23 2500.76Z" id="a3LyiF4tej"></path><path d="M743.95 2628.47L736.84 2614.57C722.72 2619.68 714.88 2622.51 713.31 2623.08C706.48 2626.44 690.53 2645.22 694.49 2652.78C694.49 2652.78 710.98 2644.67 743.95 2628.47Z" id="b730V98RC"></path><path d="M824.07 2459.57L814.66 2474.17C801.11 2493.64 793.58 2504.45 792.08 2506.62C792.08 2506.62 773.63 2507.34 775.9 2521.57C775.9 2521.57 799.98 2514.27 799.98 2514.27C802.42 2511.6 814.59 2498.23 836.51 2474.17L824.07 2459.57Z" id="ffjDXEI4J"></path><path d="M824.07 2459.57L814.66 2474.17C801.11 2493.64 793.58 2504.45 792.08 2506.62C792.08 2506.62 773.63 2507.34 775.9 2521.57C775.9 2521.57 799.98 2514.27 799.98 2514.27C802.42 2511.6 814.59 2498.23 836.51 2474.17L824.07 2459.57Z" id="dWthqYPXy"></path><path d="M844.58 2359.86C832.11 2359.86 822 2369.65 822 2381.73C822 2393.82 832.11 2403.61 844.58 2403.61C857.06 2403.61 867.17 2393.82 867.17 2381.73C867.17 2369.65 857.06 2359.86 844.58 2359.86Z" id="ciN4ZtP5g"></path><path d="M833.48 2393.22C833.48 2393.22 853.43 2410.72 842.14 2428.6C842.14 2428.6 869.99 2416.57 869.99 2416.57C869.99 2416.57 856.44 2394.68 859.43 2381.55C854.24 2383.89 838.67 2390.88 833.48 2393.22Z" id="e1lzk9SUQ"></path><path d="M848.54 2411.47C848.54 2411.47 843.27 2419.49 836.12 2421.67C834.69 2423.28 823.24 2436.09 821.81 2437.7C821.81 2437.7 809.77 2447.9 816.92 2461.03C816.92 2461.03 828.22 2506.6 828.22 2506.6C828.22 2506.6 863.59 2506.6 871.87 2510.94C871.87 2510.94 864.72 2479.23 874.51 2456.99C884.29 2434.74 866.98 2404.12 866.98 2404.12C863.29 2405.59 852.23 2410 848.54 2411.47Z" id="c48pLMoiHk"></path><path d="M848.54 2410.72C848.54 2410.72 843.27 2418.74 836.12 2420.92C834.69 2422.53 823.24 2435.36 821.81 2436.96C821.81 2436.96 809.77 2447.17 816.92 2460.29C816.92 2460.29 828.22 2505.87 828.22 2505.87C828.22 2505.87 863.59 2505.87 871.87 2510.21C871.87 2510.21 864.72 2478.5 874.51 2456.25C884.29 2434.01 866.98 2403.4 866.98 2403.4C863.29 2404.86 852.23 2409.25 848.54 2410.72Z" id="dC3TS4Y2B"></path><path d="M863.21 2447.18C863.21 2447.18 837.25 2499.32 831.6 2502.59C831.6 2502.59 783.05 2510.24 783.05 2510.24C783.05 2510.24 756.7 2514.98 763.82 2506.23C763.82 2506.23 786.03 2499.67 786.03 2499.67C788.41 2499.23 800.33 2497.05 821.78 2493.11L842.48 2436.62C853.54 2442.25 860.45 2445.77 863.21 2447.18Z" id="f4jwQGvWPy"></path><path d="M834.98 2445.35C834.98 2445.35 858.7 2442.07 866.98 2457.38C866.98 2457.38 880.15 2443.17 869.99 2427.85C869.99 2427.85 864.34 2418.01 851.54 2422.38C848.23 2426.98 830.84 2434.41 834.98 2445.35Z" id="b4JyyyvCIE"></path><path d="M834.98 2444.63C834.98 2444.63 858.7 2441.34 866.98 2456.66C866.98 2456.66 880.15 2442.44 869.99 2427.13C869.99 2427.13 864.34 2417.28 851.54 2421.66C848.23 2426.25 830.84 2433.69 834.98 2444.63Z" id="badGTDcdk"></path><path d="M837 2381.78C837 2381.81 837 2381.84 837 2381.86C837.29 2382.91 839.54 2391.28 839.82 2392.33C841.16 2397.3 842.51 2402.35 842.51 2407.49C842.51 2422.7 830.5 2435.82 816.6 2442.87C818.02 2443.24 829.4 2446.13 830.83 2446.49C832.21 2446.94 833.68 2447.12 835.14 2447.02C836.35 2446.79 837.5 2446.33 838.52 2445.67C844.57 2442.08 848.9 2436.23 851.77 2429.94C854.63 2423.65 856.16 2416.91 857.67 2410.18C862.36 2418.24 865.25 2427.18 866.14 2436.4C867.09 2446.41 865.74 2456.92 869.73 2466.2C871.71 2470.8 875.5 2475.18 880.63 2475.79C882.91 2462.57 884.26 2449.22 884.68 2435.82C884.78 2432.85 884.82 2429.84 884.09 2426.96C883.45 2424.41 882.24 2422.05 881.36 2419.57C877.95 2409.92 879.95 2399.36 881.63 2389.29C883.32 2379.23 884.52 2368.37 879.79 2359.26C877.06 2354.01 871.95 2349.51 865.89 2349.12C860.13 2348.74 854.83 2352.02 849.13 2352.89C843.44 2353.77 837.79 2352.27 832.11 2352.66C826.69 2353.07 821.56 2355.19 817.51 2358.7C814.39 2361.4 811.93 2365.1 811.88 2369.14C811.75 2379.99 826.8 2378.63 834.38 2379.47C835.76 2379.41 836.94 2380.44 837 2381.78Z" id="b3rbXNRD4P"></path><path d="M837 2381.05C837 2381.08 837 2381.11 837 2381.14C837.29 2382.18 839.54 2390.56 839.82 2391.6C841.16 2396.57 842.51 2401.62 842.51 2406.76C842.51 2421.97 830.5 2435.09 816.6 2442.15C818.02 2442.51 829.4 2445.41 830.83 2445.77C832.21 2446.22 833.68 2446.4 835.14 2446.29C836.35 2446.06 837.5 2445.61 838.52 2444.94C844.57 2441.35 848.9 2435.51 851.77 2429.22C854.63 2422.93 856.16 2416.18 857.67 2409.45C862.37 2417.52 865.25 2426.46 866.14 2435.68C867.1 2445.69 865.75 2456.2 869.74 2465.48C871.72 2470.08 875.51 2474.46 880.63 2475.07C882.91 2461.85 884.27 2448.5 884.69 2435.1C884.79 2432.13 884.83 2429.12 884.1 2426.24C883.46 2423.69 882.24 2421.33 881.36 2418.85C877.96 2409.2 879.95 2398.64 881.64 2388.57C883.33 2378.5 884.53 2367.65 879.79 2358.54C877.06 2353.29 871.96 2348.79 865.9 2348.4C860.13 2348.02 854.83 2351.3 849.14 2352.17C843.45 2353.05 837.79 2351.55 832.12 2351.94C826.71 2352.34 821.59 2354.45 817.53 2357.93C814.41 2360.63 811.94 2364.33 811.9 2368.37C811.75 2379.27 826.8 2377.9 834.38 2378.74C835.76 2378.68 836.94 2379.71 837 2381.05Z" id="a3m7vhivsK"></path></defs><g><g><g><g><use xlink:href="#a2jHXlaznY" opacity="1" fill="#eeeeee" fill-opacity="1"></use></g><g><use xlink:href="#cRvyz3M2y" opacity="1" fill="url(#gradienta140FLmQu7)"></use></g></g><g><use xlink:href="#aTLwovCSG" opacity="1" fill="#eeeeee" fill-opacity="0.28"></use></g><g><g><use xlink:href="#h1Dr13pC5R" opacity="1" fill="#eeeeee" fill-opacity="0.5"></use></g><g><g><use xlink:href="#d7lmA13ap" opacity="1" fill="#6c63ff" fill-opacity="1"></use><g><use xlink:href="#d7lmA13ap" opacity="1" fill-opacity="0" stroke="#000000" stroke-width="1" stroke-opacity="0"></use></g></g><g><use xlink:href="#b29IVIZDzn" opacity="1" fill="#6c63ff" fill-opacity="1"></use><g><use xlink:href="#b29IVIZDzn" opacity="1" fill-opacity="0" stroke="#000000" stroke-width="1" stroke-opacity="0"></use></g></g><g><use xlink:href="#dTimbMMTs" opacity="1" fill="url(#gradientdclLMFQ68)"></use><g><use xlink:href="#dTimbMMTs" opacity="1" fill-opacity="0" stroke="#000000" stroke-width="1" stroke-opacity="0"></use></g></g><g><use xlink:href="#a1nLUXSMtV" opacity="1" fill="#f5f5f5" fill-opacity="1"></use><g><use xlink:href="#a1nLUXSMtV" opacity="1" fill-opacity="0" stroke="#000000" stroke-width="1" stroke-opacity="0"></use></g></g><g><use xlink:href="#a1vzYnwf1k" opacity="1" fill="url(#gradienta5Qzct6pTF)"></use><g><use xlink:href="#a1vzYnwf1k" opacity="1" fill-opacity="0" stroke="#000000" stroke-width="1" stroke-opacity="0"></use></g></g><g><use xlink:href="#f185cixmTc" opacity="1" fill="#f5f5f5" fill-opacity="1"></use><g><use xlink:href="#f185cixmTc" opacity="1" fill-opacity="0" stroke="#000000" stroke-width="1" stroke-opacity="0"></use></g></g><g><use xlink:href="#a2zwxj7yU" opacity="1" fill="url(#gradientb1KKopKLEw)"></use><g><use xlink:href="#a2zwxj7yU" opacity="1" fill-opacity="0" stroke="#000000" stroke-width="1" stroke-opacity="0"></use></g></g><g><use xlink:href="#a2T8txbjkz" opacity="1" fill="#f5f5f5" fill-opacity="1"></use><g><use xlink:href="#a2T8txbjkz" opacity="1" fill-opacity="0" stroke="#000000" stroke-width="1" stroke-opacity="0"></use></g></g><g><use xlink:href="#coQ5CG6TN" opacity="1" fill="url(#gradientbd5PeRBii)"></use><g><use xlink:href="#coQ5CG6TN" opacity="1" fill-opacity="0" stroke="#000000" stroke-width="1" stroke-opacity="0"></use></g></g><g><use xlink:href="#gEi8hfzfY" opacity="1" fill="#7cfcff" fill-opacity="1"></use><g><use xlink:href="#gEi8hfzfY" opacity="1" fill-opacity="0" stroke="#000000" stroke-width="1" stroke-opacity="0"></use></g></g><g><use xlink:href="#b1q6J6S3j" opacity="1" fill="url(#gradientipFrPQIvJ)"></use><g><use xlink:href="#b1q6J6S3j" opacity="1" fill-opacity="0" stroke="#000000" stroke-width="1" stroke-opacity="0"></use></g></g><g><use xlink:href="#b4aqcZlpq" opacity="1" fill="#ffffa5" fill-opacity="1"></use><g><use xlink:href="#b4aqcZlpq" opacity="1" fill-opacity="0" stroke="#000000" stroke-width="1" stroke-opacity="0"></use></g></g><g><use xlink:href="#hsvuD8Oer" opacity="1" fill="url(#gradienth5JxqnvII)"></use><g><use xlink:href="#hsvuD8Oer" opacity="1" fill-opacity="0" stroke="#000000" stroke-width="1" stroke-opacity="0"></use></g></g><g><use xlink:href="#f1heietkgk" opacity="1" fill="#ff69b4" fill-opacity="1"></use><g><use xlink:href="#f1heietkgk" opacity="1" fill-opacity="0" stroke="#000000" stroke-width="1" stroke-opacity="0"></use></g></g><g><use xlink:href="#aj86bT7Xc" opacity="1" fill="url(#gradientfmGok6lcW)"></use><g><use xlink:href="#aj86bT7Xc" opacity="1" fill-opacity="0" stroke="#000000" stroke-width="1" stroke-opacity="0"></use></g></g><g><use xlink:href="#b4t522GI7d" opacity="1" fill="#fdb797" fill-opacity="1"></use><g><use xlink:href="#b4t522GI7d" opacity="1" fill-opacity="0" stroke="#000000" stroke-width="1" stroke-opacity="0"></use></g></g><g><use xlink:href="#a1xkXuHPD6" opacity="1" fill="#fdb797" fill-opacity="1"></use><g><use xlink:href="#a1xkXuHPD6" opacity="1" fill-opacity="0" stroke="#000000" stroke-width="1" stroke-opacity="0"></use></g></g><g><use xlink:href="#eU26HuNpC" opacity="1" fill="#4d8af0" fill-opacity="1"></use><g><use xlink:href="#eU26HuNpC" opacity="1" fill-opacity="0" stroke="#000000" stroke-width="1" stroke-opacity="0"></use></g></g><g><use xlink:href="#a3R4iAbLbw" opacity="1" fill="#000000" fill-opacity="1"></use><g><use xlink:href="#a3R4iAbLbw" opacity="1" fill-opacity="0" stroke="#000000" stroke-width="1" stroke-opacity="0"></use></g></g><g><use xlink:href="#cvOO2ZKIZ" opacity="1" fill="#333333" fill-opacity="1"></use><g><use xlink:href="#cvOO2ZKIZ" opacity="1" fill-opacity="0" stroke="#000000" stroke-width="1" stroke-opacity="0"></use></g></g><g><use xlink:href="#a1kHhBozs" opacity="1" fill="#3ad29f" fill-opacity="1"></use><g><use xlink:href="#a1kHhBozs" opacity="1" fill-opacity="0" stroke="#000000" stroke-width="1" stroke-opacity="0"></use></g></g><g><use xlink:href="#a4jiytWise" opacity="1" fill="#000000" fill-opacity="1"></use><g><use xlink:href="#a4jiytWise" opacity="1" fill-opacity="0" stroke="#000000" stroke-width="1" stroke-opacity="0"></use></g></g><g><use xlink:href="#c2WuO5lkBy" opacity="1" fill="#000000" fill-opacity="1"></use><g><use xlink:href="#c2WuO5lkBy" opacity="1" fill-opacity="0" stroke="#000000" stroke-width="1" stroke-opacity="0"></use></g></g><g><use xlink:href="#hxFdJzGBs" opacity="1" fill="#3ad29f" fill-opacity="1"></use><g><use xlink:href="#hxFdJzGBs" opacity="1" fill-opacity="0" stroke="#000000" stroke-width="1" stroke-opacity="0"></use></g></g><g><use xlink:href="#a1hmB528HP" opacity="1" fill="#fdb797" fill-opacity="1"></use><g><use xlink:href="#a1hmB528HP" opacity="1" fill-opacity="0" stroke="#000000" stroke-width="1" stroke-opacity="0"></use></g></g><g><use xlink:href="#b1Rr3wQMvb" opacity="1" fill="#000000" fill-opacity="1"></use><g><use xlink:href="#b1Rr3wQMvb" opacity="1" fill-opacity="0" stroke="#000000" stroke-width="1" stroke-opacity="0"></use></g></g><g><use xlink:href="#cdfTM2U8A" opacity="1" fill="#3ad29f" fill-opacity="1"></use><g><use xlink:href="#cdfTM2U8A" opacity="1" fill-opacity="0" stroke="#000000" stroke-width="1" stroke-opacity="0"></use></g></g><g><use xlink:href="#bHMuoI7tE" opacity="1" fill="#000000" fill-opacity="1"></use><g><use xlink:href="#bHMuoI7tE" opacity="1" fill-opacity="0" stroke="#000000" stroke-width="1" stroke-opacity="0"></use></g></g><g><use xlink:href="#amePJHA8v" opacity="1" fill="#fdb797" fill-opacity="1"></use><g><use xlink:href="#amePJHA8v" opacity="1" fill-opacity="0" stroke="#000000" stroke-width="1" stroke-opacity="0"></use></g></g><g><use xlink:href="#a26an0ohU" opacity="1" fill="#000000" fill-opacity="1"></use><g><use xlink:href="#a26an0ohU" opacity="1" fill-opacity="0" stroke="#000000" stroke-width="1" stroke-opacity="0"></use></g></g><g><use xlink:href="#d7vtZ6d8jD" opacity="1" fill="#333333" fill-opacity="1"></use><g><use xlink:href="#d7vtZ6d8jD" opacity="1" fill-opacity="0" stroke="#000000" stroke-width="1" stroke-opacity="0"></use></g></g><g><use xlink:href="#a65lq0QEgI" opacity="1" fill="#7cfcff" fill-opacity="1"></use><g><use xlink:href="#a65lq0QEgI" opacity="1" fill-opacity="0" stroke="#000000" stroke-width="1" stroke-opacity="0"></use></g></g><g><use xlink:href="#d3ZUZO31qq" opacity="1" fill="url(#gradienta1h09bQ5wg)"></use><g><use xlink:href="#d3ZUZO31qq" opacity="1" fill-opacity="0" stroke="#000000" stroke-width="1" stroke-opacity="0"></use></g></g><g><use xlink:href="#fxmaEsEaS" opacity="1" fill="#4d8af0" fill-opacity="1"></use><g><use xlink:href="#fxmaEsEaS" opacity="1" fill-opacity="0" stroke="#000000" stroke-width="1" stroke-opacity="0"></use></g></g><g><use xlink:href="#b26yauvsuJ" opacity="1" fill="#be7c5e" fill-opacity="1"></use><g><use xlink:href="#b26yauvsuJ" opacity="1" fill-opacity="0" stroke="#000000" stroke-width="1" stroke-opacity="0"></use></g></g><g><use xlink:href="#aqOT5ubMI" opacity="1" fill="#000000" fill-opacity="1"></use><g><use xlink:href="#aqOT5ubMI" opacity="1" fill-opacity="0" stroke="#000000" stroke-width="1" stroke-opacity="0"></use></g></g><g><use xlink:href="#d5aI9SbAOQ" opacity="1" fill="#f5f5f5" fill-opacity="1"></use><g><use xlink:href="#d5aI9SbAOQ" opacity="1" fill-opacity="0" stroke="#000000" stroke-width="1" stroke-opacity="0"></use></g></g><g><use xlink:href="#aDAcH0cu9" opacity="1" fill="#333333" fill-opacity="1"></use><g><use xlink:href="#aDAcH0cu9" opacity="1" fill-opacity="0" stroke="#000000" stroke-width="1" stroke-opacity="0"></use></g></g><g><use xlink:href="#e4pOLzkKZ1" opacity="1" fill="#000000" fill-opacity="1"></use><g><use xlink:href="#e4pOLzkKZ1" opacity="1" fill-opacity="0" stroke="#000000" stroke-width="1" stroke-opacity="0"></use></g></g><g><use xlink:href="#b3siFQk552" opacity="1" fill="#e0e0e0" fill-opacity="1"></use><g><use xlink:href="#b3siFQk552" opacity="1" fill-opacity="0" stroke="#000000" stroke-width="1" stroke-opacity="0"></use></g></g><g><use xlink:href="#a6NZd7jcUy" opacity="1" fill="#be7c5e" fill-opacity="1"></use><g><use xlink:href="#a6NZd7jcUy" opacity="1" fill-opacity="0" stroke="#000000" stroke-width="1" stroke-opacity="0"></use></g></g><g><use xlink:href="#aGgZ5FbrE" opacity="1" fill="#000000" fill-opacity="1"></use><g><use xlink:href="#aGgZ5FbrE" opacity="1" fill-opacity="0" stroke="#000000" stroke-width="1" stroke-opacity="0"></use></g></g><g><use xlink:href="#a3LyiF4tej" opacity="1" fill="#333333" fill-opacity="1"></use><g><use xlink:href="#a3LyiF4tej" opacity="1" fill-opacity="0" stroke="#000000" stroke-width="1" stroke-opacity="0"></use></g></g><g><use xlink:href="#b730V98RC" opacity="1" fill="#f5f5f5" fill-opacity="1"></use><g><use xlink:href="#b730V98RC" opacity="1" fill-opacity="0" stroke="#000000" stroke-width="1" stroke-opacity="0"></use></g></g><g><use xlink:href="#ffjDXEI4J" opacity="1" fill="#be7c5e" fill-opacity="1"></use><g><use xlink:href="#ffjDXEI4J" opacity="1" fill-opacity="0" stroke="#000000" stroke-width="1" stroke-opacity="0"></use></g></g><g><use xlink:href="#dWthqYPXy" opacity="1" fill="#000000" fill-opacity="1"></use><g><use xlink:href="#dWthqYPXy" opacity="1" fill-opacity="0" stroke="#000000" stroke-width="1" stroke-opacity="0"></use></g></g><g><use xlink:href="#ciN4ZtP5g" opacity="1" fill="#be7c5e" fill-opacity="1"></use><g><use xlink:href="#ciN4ZtP5g" opacity="1" fill-opacity="0" stroke="#000000" stroke-width="1" stroke-opacity="0"></use></g></g><g><use xlink:href="#e1lzk9SUQ" opacity="1" fill="#be7c5e" fill-opacity="1"></use><g><use xlink:href="#e1lzk9SUQ" opacity="1" fill-opacity="0" stroke="#000000" stroke-width="1" stroke-opacity="0"></use></g></g><g><use xlink:href="#c48pLMoiHk" opacity="1" fill="#000000" fill-opacity="1"></use><g><use xlink:href="#c48pLMoiHk" opacity="1" fill-opacity="0" stroke="#000000" stroke-width="1" stroke-opacity="0"></use></g></g><g><use xlink:href="#dC3TS4Y2B" opacity="1" fill="#f55f44" fill-opacity="1"></use><g><use xlink:href="#dC3TS4Y2B" opacity="1" fill-opacity="0" stroke="#000000" stroke-width="1" stroke-opacity="0"></use></g></g><g><use xlink:href="#f4jwQGvWPy" opacity="1" fill="#be7c5e" fill-opacity="1"></use><g><use xlink:href="#f4jwQGvWPy" opacity="1" fill-opacity="0" stroke="#000000" stroke-width="1" stroke-opacity="0"></use></g></g><g><use xlink:href="#b4JyyyvCIE" opacity="1" fill="#000000" fill-opacity="1"></use><g><use xlink:href="#b4JyyyvCIE" opacity="1" fill-opacity="0" stroke="#000000" stroke-width="1" stroke-opacity="0"></use></g></g><g><use xlink:href="#badGTDcdk" opacity="1" fill="#f55f44" fill-opacity="1"></use><g><use xlink:href="#badGTDcdk" opacity="1" fill-opacity="0" stroke="#000000" stroke-width="1" stroke-opacity="0"></use></g></g><g><use xlink:href="#b3rbXNRD4P" opacity="1" fill="#333333" fill-opacity="1"></use><g><use xlink:href="#b3rbXNRD4P" opacity="1" fill-opacity="0" stroke="#000000" stroke-width="1" stroke-opacity="0"></use></g></g><g><use xlink:href="#a3m7vhivsK" opacity="1" fill="#333333" fill-opacity="1"></use><g><use xlink:href="#a3m7vhivsK" opacity="1" fill-opacity="0" stroke="#000000" stroke-width="1" stroke-opacity="0"></use></g></g></g></g></g></g></svg>