<?xml version="1.0" encoding="UTF-8" standalone="no"?>
<!DOCTYPE svg PUBLIC "-//W3C//DTD SVG 1.1//EN" "http://www.w3.org/Graphics/SVG/1.1/DTD/svg11.dtd">
<svg version="1.1" xmlns="http://www.w3.org/2000/svg" xmlns:xlink="http://www.w3.org/1999/xlink" preserveAspectRatio="xMidYMid meet" viewBox="-3.410605131648481e-13 1290.0174732039343 1200.0000000000005 1683.2451090719571" width="1200" height="1683.25"><defs><path d="M0 2961.78C89.56 2982.71 202.14 2975.03 337.75 2938.73C541.15 2884.3 684.62 2816.93 813.62 2793.52C1013.62 2757.23 1142.41 2757.23 1200 2793.52L1200 1713.01C1187.3 1709.15 1151.59 1738.12 1092.86 1799.93C1034.13 1861.74 912.7 1848.22 728.57 1759.37C560.32 1670.52 411.11 1632.86 280.95 1646.38C150.79 1659.9 57.14 1541.11 0 1290.02L0 2961.78Z" id="d2eypJ6cuq"></path><path d="M0 2909.75C89.56 2928.97 202.14 2921.91 337.75 2888.58C541.15 2838.58 684.62 2776.7 813.62 2755.2C1013.62 2721.87 1142.41 2721.87 1200 2755.2L1200 1762.76C1187.3 1759.22 1151.59 1785.83 1092.86 1842.6C1034.13 1899.37 912.7 1886.95 728.57 1805.34C560.32 1723.74 411.11 1689.14 280.95 1701.56C150.79 1713.98 57.14 1604.87 0 1374.25L0 2909.75Z" id="c16DV0hKSO"></path><linearGradient id="gradientjD8kTwcQR" gradientUnits="userSpaceOnUse" x1="71.43" y1="2003.28" x2="754.76" y2="2791.45"><stop style="stop-color: #bd26ff;stop-opacity: 1" offset="0%"></stop><stop style="stop-color: #8f3aff;stop-opacity: 1" offset="53.989139294371526%"></stop><stop style="stop-color: #8140ff;stop-opacity: 1" offset="100%"></stop></linearGradient></defs><g><g><g><use xlink:href="#d2eypJ6cuq" opacity="1" fill="#eeeeee" fill-opacity="1"></use></g><g><use xlink:href="#c16DV0hKSO" opacity="1" fill="url(#gradientjD8kTwcQR)"></use></g></g></g></svg>